<?xml version="1.0" encoding="utf-8"?>
<!-- Generator: Adobe Illustrator 23.0.2, SVG Export Plug-In . SVG Version: 6.00 Build 0)  -->
<svg version="1.1" xmlns="http://www.w3.org/2000/svg" xmlns:xlink="http://www.w3.org/1999/xlink" x="0px" y="0px"
	 viewBox="0 0 171.5 171.5" style="enable-background:new 0 0 171.5 171.5;" xml:space="preserve">
<style type="text/css">
	.st0{fill:url(#SVGID_1_);}
	.st1{fill:url(#SVGID_2_);}
	.st2{fill:url(#SVGID_3_);}
	.st3{fill:url(#SVGID_4_);}
	.st4{fill:url(#SVGID_5_);}
	.st5{fill:url(#SVGID_6_);}
	.st6{fill:url(#SVGID_7_);}
	.st7{fill:url(#SVGID_8_);}
</style>
<g id="Layer_1">
</g>
<g id="Isolation_Mode_1_">
	<linearGradient id="SVGID_1_" gradientUnits="userSpaceOnUse" x1="65.2611" y1="71.7278" x2="21.5198" y2="28.7746">
		<stop  offset="0.3" style="stop-color:#EF371D"/>
		<stop  offset="1" style="stop-color:#AF1E2D"/>
	</linearGradient>
	<polygon class="st0" points="43.4,93.8 43.4,6.8 0,50.2 0,50.4 	"/>
	<linearGradient id="SVGID_2_" gradientUnits="userSpaceOnUse" x1="61.26" y1="90.6115" x2="0.3717" y2="90.6115">
		<stop  offset="0.3" style="stop-color:#EF371D"/>
		<stop  offset="1" style="stop-color:#AF1E2D"/>
	</linearGradient>
	<polygon class="st1" points="61.5,121.3 0,59.9 0,121.2 0.2,121.3 	"/>
	<linearGradient id="SVGID_3_" gradientUnits="userSpaceOnUse" x1="110.1242" y1="80.8475" x2="171.0189" y2="80.8475">
		<stop  offset="0.3" style="stop-color:#EF371D"/>
		<stop  offset="1" style="stop-color:#AF1E2D"/>
	</linearGradient>
	<polygon class="st2" points="110,50.2 171.5,111.5 171.5,50.2 	"/>
	<linearGradient id="SVGID_4_" gradientUnits="userSpaceOnUse" x1="105.9571" y1="98.6185" x2="149.6985" y2="142.7539">
		<stop  offset="0.3" style="stop-color:#EF371D"/>
		<stop  offset="1" style="stop-color:#AF1E2D"/>
	</linearGradient>
	<polygon class="st3" points="128,77.7 128,164.6 171.5,121.2 171.5,121 	"/>
	<linearGradient id="SVGID_5_" gradientUnits="userSpaceOnUse" x1="90.6115" y1="110.4078" x2="90.6115" y2="171.0968">
		<stop  offset="0.3" style="stop-color:#EF371D"/>
		<stop  offset="1" style="stop-color:#AF1E2D"/>
	</linearGradient>
	<polygon class="st4" points="121.3,109.9 59.9,171.5 121.2,171.5 121.3,171.3 	"/>
	<linearGradient id="SVGID_6_" gradientUnits="userSpaceOnUse" x1="71.3073" y1="106.7626" x2="28.7481" y2="149.9128">
		<stop  offset="0.3" style="stop-color:#EF371D"/>
		<stop  offset="1" style="stop-color:#AF1E2D"/>
	</linearGradient>
	<polygon class="st5" points="93.8,128 6.9,128 50.2,171.5 50.4,171.5 	"/>
	<linearGradient id="SVGID_7_" gradientUnits="userSpaceOnUse" x1="99.6991" y1="65.2956" x2="142.4553" y2="21.7513">
		<stop  offset="0.3" style="stop-color:#EF371D"/>
		<stop  offset="1" style="stop-color:#AF1E2D"/>
	</linearGradient>
	<polygon class="st6" points="77.7,43.4 164.6,43.4 121.2,0 121,0 	"/>
	<linearGradient id="SVGID_8_" gradientUnits="userSpaceOnUse" x1="80.8475" y1="61.3466" x2="80.8475" y2="0.266">
		<stop  offset="0.3" style="stop-color:#EF371D"/>
		<stop  offset="1" style="stop-color:#AF1E2D"/>
	</linearGradient>
	<polygon class="st7" points="50.2,61.4 111.5,0 50.2,0 	"/>
</g>
</svg>
