<?xml version="1.0" encoding="utf-8"?>
<!-- Generator: Adobe Illustrator 23.0.2, SVG Export Plug-In . SVG Version: 6.00 Build 0)  -->
<svg version="1.1" xmlns="http://www.w3.org/2000/svg" xmlns:xlink="http://www.w3.org/1999/xlink" x="0px" y="0px"
	 viewBox="0 0 606.3 152.8" style="enable-background:new 0 0 606.3 152.8;" xml:space="preserve">
<style type="text/css">
	.st0{fill:#565454;}
	.st1{fill:url(#SVGID_1_);}
	.st2{fill:url(#SVGID_2_);}
	.st3{fill:url(#SVGID_3_);}
	.st4{fill:url(#SVGID_4_);}
	.st5{fill:url(#SVGID_5_);}
	.st6{fill:url(#SVGID_6_);}
	.st7{fill:url(#SVGID_7_);}
	.st8{fill:url(#SVGID_8_);}
</style>
<g id="Layer_1">
	<g id="Isolation_Mode">
		<path class="st0" d="M202.6,114.9h-20.8V38.8h20.8c20.5,0,37.1,11.2,37.1,38.1C239.7,103.7,222.5,114.9,202.6,114.9z M202.6,49.9
			h-9.4v54h9.4c18.1,0,25.5-11,25.5-27S220.7,49.9,202.6,49.9z"/>
		<path class="st0" d="M293.1,90.3h-37.7c1.2,11,7.4,15.7,14.4,15.7c4.8,0,8.6-1.7,12.4-4.6l6.6,7.2c-5,4.8-11,7.5-19.7,7.5
			c-13.4,0-24.7-10.8-24.7-29.7c0-19.4,10.2-29.8,25-29.8c16.2,0,24,13.2,24,28.6C293.4,87.3,293.2,89.1,293.1,90.3z M268.6,66.7
			c-7.5,0-12.1,5.2-13.1,14.4H282C281.6,73.3,277.9,66.7,268.6,66.7z"/>
		<path class="st0" d="M319.7,45.7c-3.7,0-5.2,1.4-5.2,5.5v6.5H325v10.4h-10.6v46.7h-11.2V68.2h-7.4V57.8h7.4v-7.5
			c0-10.4,6.4-14.4,14.5-14.4c2.9,0,6.1,0.4,8.5,1.1v9.8C323.6,46.1,321.6,45.7,319.7,45.7z"/>
		<path class="st0" d="M375.4,90.3h-37.7c1.2,11,7.4,15.7,14.4,15.7c4.8,0,8.6-1.7,12.4-4.6l6.6,7.2c-5,4.8-11,7.5-19.7,7.5
			c-13.4,0-24.7-10.8-24.7-29.7c0-19.4,10.2-29.8,25-29.8c16.2,0,24,13.2,24,28.6C375.8,87.3,375.5,89.1,375.4,90.3z M351,66.7
			c-7.5,0-12.1,5.2-13.1,14.4h26.5C363.9,73.3,360.2,66.7,351,66.7z"/>
		<path class="st0" d="M415.4,114.9V82.6c0-11.5-4.4-15.7-11.7-15.7c-7.5,0-11.7,5.3-11.7,14.6v33.4h-11.2V57.8H392v5.4
			c2.8-4.1,8.5-6.6,14.4-6.6c13.3,0,20.3,8.7,20.3,25.6v32.7C426.7,114.9,415.4,114.9,415.4,114.9z"/>
		<path class="st0" d="M469.7,114.9v-5.4c-4.1,3.8-8.9,6.6-14.9,6.6c-12.3,0-22-8.9-22-30.7c0-19.6,10.7-28.8,22.5-28.8
			c5.8,0,11.2,3,14.4,6.5V41.4l11.1-5.8v79.3C480.8,114.9,469.7,114.9,469.7,114.9z M469.8,74.5c-2.5-3.4-7.7-7.5-13.4-7.5
			c-8.1,0-12.4,6.1-12.4,18.2c0,14.4,4.6,20.7,12.8,20.7c5.3,0,10-3.6,12.9-7.3V74.5H469.8z"/>
		<path class="st0" d="M519.4,69.7c-2.4-1.3-4.9-2.1-8.6-2.1c-7.1,0-11.2,5-11.2,14.7v32.6h-11.2V57.8h11.2v5.4
			c2.6-3.8,7.4-6.6,13.1-6.6c4.6,0,7.4,0.9,9.7,2.4L519.4,69.7z"/>
		<path class="st0" d="M549.9,135H538l8.3-21.2l-21-56h12.3l9.4,28c1.7,5,4.4,13.5,5,16.6c1-3.4,3.4-11.5,5.1-16.4l9.7-28.2h11.9
			L549.9,135z"/>
		<g>
			<path class="st0" d="M588.5,59.7v11h-1.9v-11h-3.8v-1.9h9.5v1.9C592.3,59.7,588.5,59.7,588.5,59.7z"/>
			<path class="st0" d="M604.4,70.7v-6.8c0-0.8,0-1.9,0-2.3c-0.1,0.4-0.5,1.3-0.8,2l-3.1,7.3l-3.1-7.3c-0.3-0.7-0.7-1.7-0.8-2
				c0,0.4,0,1.5,0,2.3v6.8h-1.8V57.8h2l2.9,6.9c0.3,0.7,0.7,1.7,0.9,2.2c0.2-0.5,0.6-1.5,0.9-2.2l2.8-6.9h2.1v12.9H604.4z"/>
		</g>
		<g>
			<linearGradient id="SVGID_1_" gradientUnits="userSpaceOnUse" x1="58.1552" y1="63.9229" x2="19.1766" y2="25.6466">
				<stop  offset="0.3" style="stop-color:#EF371D"/>
				<stop  offset="1" style="stop-color:#AF1E2D"/>
			</linearGradient>
			<polygon class="st1" points="38.7,83.6 38.7,6.1 0,44.7 0,44.9 			"/>
			<linearGradient id="SVGID_2_" gradientUnits="userSpaceOnUse" x1="54.5898" y1="80.7504" x2="0.3313" y2="80.7504">
				<stop  offset="0.3" style="stop-color:#EF371D"/>
				<stop  offset="1" style="stop-color:#AF1E2D"/>
			</linearGradient>
			<polygon class="st2" points="54.8,108.1 0,53.4 0,108 0.2,108.1 			"/>
			<linearGradient id="SVGID_3_" gradientUnits="userSpaceOnUse" x1="98.1335" y1="72.0496" x2="152.3977" y2="72.0496">
				<stop  offset="0.3" style="stop-color:#EF371D"/>
				<stop  offset="1" style="stop-color:#AF1E2D"/>
			</linearGradient>
			<polygon class="st3" points="98,44.7 152.8,99.4 152.8,44.7 			"/>
			<linearGradient id="SVGID_4_" gradientUnits="userSpaceOnUse" x1="94.4201" y1="87.8856" x2="133.3987" y2="127.2153">
				<stop  offset="0.3" style="stop-color:#EF371D"/>
				<stop  offset="1" style="stop-color:#AF1E2D"/>
			</linearGradient>
			<polygon class="st4" points="114.1,69.2 114.1,146.6 152.8,108 152.8,107.9 			"/>
			<linearGradient id="SVGID_5_" gradientUnits="userSpaceOnUse" x1="80.7454" y1="98.3912" x2="80.7454" y2="152.4722">
				<stop  offset="0.3" style="stop-color:#EF371D"/>
				<stop  offset="1" style="stop-color:#AF1E2D"/>
			</linearGradient>
			<polygon class="st5" points="108.1,98 53.4,152.8 108,152.8 108.1,152.6 			"/>
			<linearGradient id="SVGID_6_" gradientUnits="userSpaceOnUse" x1="63.5431" y1="95.1429" x2="25.6179" y2="133.5948">
				<stop  offset="0.3" style="stop-color:#EF371D"/>
				<stop  offset="1" style="stop-color:#AF1E2D"/>
			</linearGradient>
			<polygon class="st6" points="83.6,114.1 6.2,114.1 44.7,152.8 44.9,152.8 			"/>
			<linearGradient id="SVGID_7_" gradientUnits="userSpaceOnUse" x1="88.8435" y1="58.191" x2="126.9442" y2="19.388">
				<stop  offset="0.3" style="stop-color:#EF371D"/>
				<stop  offset="1" style="stop-color:#AF1E2D"/>
			</linearGradient>
			<polygon class="st7" points="69.2,38.7 146.7,38.7 108,0 107.9,0 			"/>
			<linearGradient id="SVGID_8_" gradientUnits="userSpaceOnUse" x1="72.0445" y1="54.672" x2="72.0445" y2="0.2421">
				<stop  offset="0.3" style="stop-color:#EF371D"/>
				<stop  offset="1" style="stop-color:#AF1E2D"/>
			</linearGradient>
			<polygon class="st8" points="44.7,54.8 99.4,0 44.7,0 			"/>
		</g>
	</g>
</g>
<g id="Isolation_Mode_1_">
</g>
</svg>
