<?xml version="1.0" encoding="utf-8"?>
<!-- Generator: Adobe Illustrator 22.1.0, SVG Export Plug-In . SVG Version: 6.00 Build 0)  -->
<!DOCTYPE svg PUBLIC "-//W3C//DTD SVG 1.1//EN" "http://www.w3.org/Graphics/SVG/1.1/DTD/svg11.dtd">
<svg version="1.1" xmlns="http://www.w3.org/2000/svg" xmlns:xlink="http://www.w3.org/1999/xlink" x="0px" y="0px"
	 viewBox="0 0 120.7 106.8" style="enable-background:new 0 0 120.7 106.8;" xml:space="preserve">
<style type="text/css">
	.st0{fill:url(#SVGID_1_);}
	.st1{fill:#B7C0EB;}
	.st2{fill:url(#SVGID_2_);}
	.st3{fill:url(#SVGID_3_);}
	.st4{fill:url(#SVGID_4_);}
</style>
<g id="Layer_1">
</g>
<g id="Isolation_Mode">
	
		<linearGradient id="SVGID_1_" gradientUnits="userSpaceOnUse" x1="-777.72" y1="726.6439" x2="-777.72" y2="609.6569" gradientTransform="matrix(0.7071 -0.7071 0.7071 0.7071 137.5713 -942.5905)">
		<stop  offset="0" style="stop-color:#F1F4FE"/>
		<stop  offset="1" style="stop-color:#FFFFFF"/>
	</linearGradient>
	<path class="st0" d="M119.8,96.3L66.5,3.5c-2.7-4.7-9.5-4.7-12.3,0L1,96.3c-2.7,4.7,0.7,10.6,6.1,10.6h106.6
		C119.1,106.8,122.5,101,119.8,96.3z"/>
	<path class="st1" d="M103.6,98.4H17.1c-1.8,0-3.4-0.9-4.2-2.4c-0.9-1.5-0.9-3.4,0-4.9l43.3-75.3c0.9-1.5,2.5-2.5,4.2-2.5
		c1.8,0,3.4,0.9,4.2,2.5L107.9,91c0.9,1.5,0.9,3.4,0,4.9C107,97.4,105.4,98.4,103.6,98.4z M60.4,15.3c-1,0-2,0.5-2.5,1.5L14.6,92
		c-0.5,0.9-0.5,2,0,2.9c0.5,0.9,1.5,1.4,2.5,1.4h86.5c1,0,2-0.5,2.5-1.4c0.5-0.9,0.5-2,0-2.9L62.9,16.7
		C62.3,15.8,61.4,15.3,60.4,15.3z"/>
	<linearGradient id="SVGID_2_" gradientUnits="userSpaceOnUse" x1="18.4943" y1="56.7134" x2="102.2228" y2="56.7134">
		<stop  offset="0" style="stop-color:#F7530B"/>
		<stop  offset="1" style="stop-color:#F97B08"/>
	</linearGradient>
	<path class="st2" d="M102.1,91.5L61.4,20.7c-0.5-0.8-1.6-0.8-2.1,0L18.7,91.5c-0.5,0.8,0.1,1.8,1,1.8H101
		C101.9,93.3,102.5,92.3,102.1,91.5z"/>
	<linearGradient id="SVGID_3_" gradientUnits="userSpaceOnUse" x1="54.7149" y1="76.7912" x2="66.0022" y2="76.7912">
		<stop  offset="0" style="stop-color:#F1F4FE"/>
		<stop  offset="1" style="stop-color:#FFFFFF"/>
	</linearGradient>
	<circle class="st3" cx="60.4" cy="76.8" r="5.6"/>
	<linearGradient id="SVGID_4_" gradientUnits="userSpaceOnUse" x1="60.3585" y1="40.4744" x2="60.3585" y2="78.3192">
		<stop  offset="0" style="stop-color:#F1F4FE"/>
		<stop  offset="1" style="stop-color:#FFFFFF"/>
	</linearGradient>
	<path class="st4" d="M60.4,67L60.4,67c-2.4,0-4.3-1.9-4.3-4.3V45.3c0-2.4,1.9-4.3,4.3-4.3h0c2.4,0,4.3,1.9,4.3,4.3v17.4
		C64.6,65,62.7,67,60.4,67z"/>
</g>
</svg>
