<?xml version="1.0" encoding="utf-8"?>
<!-- Generator: Adobe Illustrator 23.0.2, SVG Export Plug-In . SVG Version: 6.00 Build 0)  -->
<svg version="1.1" id="Layer_1" xmlns="http://www.w3.org/2000/svg" xmlns:xlink="http://www.w3.org/1999/xlink" x="0px" y="0px"
	 viewBox="0 0 2699.7 784.3" style="enable-background:new 0 0 2699.7 784.3;" xml:space="preserve">
<style type="text/css">
	.st0{opacity:0.75;}
	.st1{fill:#FFFFFF;}
	.st2{fill:#41C363;}
	.st3{opacity:0.75;fill:#FFFFFF;enable-background:new    ;}
	.st4{font-family:'Interstate-Bold';}
	.st5{font-size:140px;}
</style>
<g id="Isolation_Mode_1_">
	<g>
		<g class="st0">
			<rect x="2206.7" y="39.7" class="st1" width="382.2" height="19.2"/>
		</g>
		<g class="st0">
			<rect x="110.9" y="39.7" class="st1" width="384.1" height="19.2"/>
		</g>
		<g>
			<g>
				<polygon id="XMLID_47_" class="st2" points="452.3,726 274.2,726 255.3,784.3 471.2,784.3 				"/>
				<polygon id="XMLID_46_" class="st1" points="378.4,287.8 463.8,287.8 615.7,755.1 530.2,755.1 				"/>
				<polygon id="XMLID_45_" class="st1" points="348.2,287.8 262.7,287.8 110.9,755.1 196.3,755.1 				"/>
				<g>
					<polygon id="XMLID_44_" class="st1" points="2588.8,287.8 2258.7,287.8 2258.7,356.4 2385.2,356.4 2385.2,755.1 2462.4,755.1 
						2462.4,356.4 2588.8,356.4 					"/>
					<polygon id="XMLID_43_" class="st1" points="1796.6,287.8 1796.6,755.1 2096.8,755.1 2096.8,686.5 1873.8,686.5 1873.8,553.6 
						2064.8,553.6 2064.8,485 1873.8,485 1873.8,356.4 2096.8,356.4 2096.8,287.8 					"/>
					<polygon id="XMLID_42_" class="st1" points="995.2,287.8 885.9,637.1 776.6,287.9 776.6,287.8 691.1,287.8 843,755.1 
						928.8,755.1 1080.6,287.8 					"/>
					<polygon id="XMLID_41_" class="st1" points="1306.7,287.8 1240.9,287.8 1240.9,755.1 1318,755.1 1318,442.7 1528.8,755.1 
						1594.6,755.1 1594.6,287.8 1517.4,287.8 1517.4,600.2 					"/>
				</g>
			</g>
			<g id="XMLID_33_">
				<g id="XMLID_34_">
					<g id="XMLID_35_">
						<path id="XMLID_36_" class="st1" d="M2665.5,356.3c-18.9,0-34.3-15.3-34.3-34.3s15.3-34.3,34.3-34.3
							c18.9,0,34.3,15.3,34.3,34.3S2684.4,356.3,2665.5,356.3z M2665.5,294.1c-15.3,0-27.5,12.3-27.5,27.9s12.1,27.9,27.5,27.9
							c15.3,0,27.4-12.3,27.4-27.9S2680.8,294.1,2665.5,294.1z M2672.7,340.5l-7.6-14.7h-4.7v14.7h-6.8v-37h13.9
							c7,0,11.9,5.2,11.9,11.4c0,5.2-3.2,8.6-7.3,10l8.2,15.6H2672.7z M2666.6,309.3h-6.2v11.2h6.2c3.6,0,6.1-2.5,6.1-5.6
							S2670.2,309.3,2666.6,309.3z"/>
					</g>
				</g>
			</g>
		</g>
	</g>
</g>
<text transform="matrix(1 0 0 1 539.1335 100.145)" class="st3 st4 st5">IN PARTNERSHIP WITH</text>
</svg>
