<?xml version="1.0" encoding="utf-8"?>
<!-- Generator: Adobe Illustrator 23.0.2, SVG Export Plug-In . SVG Version: 6.00 Build 0)  -->
<svg version="1.1" id="Layer_1" xmlns="http://www.w3.org/2000/svg" xmlns:xlink="http://www.w3.org/1999/xlink" x="0px" y="0px"
	 viewBox="0 0 2699.7302 784.2788" style="enable-background:new 0 0 2699.7302 784.2788;" xml:space="preserve">
<style type="text/css">
	.st0{fill:#777777;}
	.st1{fill:#41C363;}
	.st2{font-family:'Interstate-Bold';}
	.st3{font-size:140px;}
</style>
<g id="Isolation_Mode_1_">
	<g>
		<g>
			<rect x="2206.6665" y="39.6599" class="st0" width="382.1827" height="19.2013"/>
		</g>
		<g>
			<rect x="110.8809" y="39.6599" class="st0" width="384.1245" height="19.2013"/>
		</g>
		<g>
			<g>
				<polygon id="XMLID_47_" class="st1" points="452.2936,725.9674 274.2383,725.9674 255.2907,784.2788 471.2415,784.2788 				"/>
				<polygon id="XMLID_46_" points="378.3593,287.7699 463.7997,287.7699 615.6513,755.1255 530.212,755.1255 				"/>
				<polygon id="XMLID_45_" points="348.1728,287.7699 262.7336,287.7699 110.8809,755.1255 196.3201,755.1255 				"/>
				<g>
					<polygon id="XMLID_44_" points="2588.8494,287.7699 2258.698,287.7699 2258.698,356.3719 2385.1851,356.3719 
						2385.1851,755.1255 2462.3625,755.1255 2462.3625,356.3719 2588.8494,356.3719 					"/>
					<polygon id="XMLID_43_" points="1796.6375,287.7699 1796.6375,755.1255 2096.7751,755.1255 2096.7751,686.5234 
						1873.8164,686.5234 1873.8164,553.6051 2064.8389,553.6051 2064.8389,485.003 1873.8164,485.003 1873.8164,356.3719 
						2096.7751,356.3719 2096.7751,287.7699 					"/>
					<polygon id="XMLID_42_" points="995.1682,287.7699 885.8744,637.0632 776.619,287.8861 776.5807,287.7699 691.1414,287.7699 
						842.9979,755.1255 928.7522,755.1255 1080.6038,287.7699 					"/>
					<polygon id="XMLID_41_" points="1306.6655,287.7699 1240.8691,287.7699 1240.8691,755.1255 1318.0468,755.1255 
						1318.0468,442.6538 1528.8091,755.1255 1594.6031,755.1255 1594.6031,287.7699 1517.4241,287.7699 1517.4241,600.2272 					"/>
				</g>
			</g>
			<g id="XMLID_33_">
				<g id="XMLID_34_">
					<g id="XMLID_35_">
						<path id="XMLID_36_" d="M2665.4602,356.306c-18.9333,0-34.27-15.3365-34.27-34.2699s15.3367-34.2699,34.27-34.2699
							c18.9346,0,34.27,15.3365,34.27,34.2699S2684.3948,356.306,2665.4602,356.306z M2665.4602,294.109
							c-15.3367,0-27.4539,12.3065-27.4539,27.9271s12.1172,27.9272,27.4539,27.9272c15.3364,0,27.3591-12.3066,27.3591-27.9272
							S2680.7966,294.109,2665.4602,294.109z M2672.6553,340.4961l-7.5737-14.6737h-4.7344v14.6737h-6.8162v-37.017h13.9175
							c7.0056,0,11.9292,5.2089,11.9292,11.3622c0,5.2076-3.2192,8.6139-7.2896,10.033l8.2351,15.6218H2672.6553z
							 M2666.5952,309.2561h-6.248v11.1692h6.248c3.5991,0,6.0601-2.4594,6.0601-5.584S2670.1943,309.2561,2666.5952,309.2561z"/>
					</g>
				</g>
			</g>
		</g>
	</g>
</g>
<text transform="matrix(1 0 0 1 539.1335 100.145)" class="st0 st2 st3">IN PARTNERSHIP WITH</text>
</svg>
