<svg xmlns="http://www.w3.org/2000/svg" viewBox="0 0 884.33 513"><defs><style>.cls-1{fill:#fff;}</style></defs><title>Asset 5</title><g id="Layer_2" data-name="Layer 2"><g id="Home"><g id="Content"><path class="cls-1" d="M10,278c-5.12,0-8-2.93-8-6.24,0-7.7,15.74-16.14,15.74-30.82V38.06c0-14.68-15.74-23.12-15.74-30.82C1.92,3.94,4.85,1,10,1H115.76c27.09,0,39.9,12.47,39.9,34.85V249.38c0,18.71-15,28.62-34.77,28.62Zm91.55-40c4,0,5.14-.73,5.14-5.13V47.14A5.14,5.14,0,0,0,101.52,42H66.66V238Z"/><path class="cls-1" d="M160,278c-5.13,0-8.06-2.93-8.06-6.24,0-7.7,15.75-16.14,15.75-30.82V38.06c0-14.68-15.75-23.12-15.75-30.82,0-3.3,2.93-6.24,8.06-6.24h128.2a12.49,12.49,0,0,1,12.49,12.49V56.16c0,5.59-1.1,7.46-4,9.69-5.85,4.48-34.38,24.23-38.76,24.23-2.93,0-6.22-3-6.22-7.08V42H221.41a4.79,4.79,0,0,0-4.75,4.4v89.75l32.55-20.51c3.29-2.2,6.58-3.67,9.5-3.67,4.39,0,7,3.67,7,7.7v33.7c0,6.23-1.46,9.16-7,12.46l-42,26.74v41a4.4,4.4,0,0,0,4.41,4.41h30.59V214.86c0-5.51,1.1-7.34,4-9.55,5.85-4.4,34.38-23.87,38.76-23.87,2.93,0,6.22,2.94,6.22,7v77.09A12.49,12.49,0,0,1,288.17,278Z"/><path class="cls-1" d="M307.66,248.18V181.64c0-6.55,4.39-10.55,9.51-10.55,7.31,0,27.42,13.46,33.27,17.82,3.29,2.18,6.22,5.45,6.22,14.91V238h38V186.93c0-4.78-1.84-8.09-6.61-11.4l-60.57-41.88c-10.64-7.35-19.82-15.07-19.82-31.24V29.29C307.66,10.92,323.08,1,342.53,1h61.93c21.94,0,36.2,14.91,36.2,29.82V87.18c0,6.55-4.39,10.91-8,10.91-8.78,0-28.53-13.82-34.74-17.82-3.29-2.18-6.22-5.45-6.22-14.91V41h-34V86.2c0,5.14,1.1,8.08,7,12.49l61.31,42.25c12.11,8.09,18.72,15.44,18.72,31.24v75.69c0,15.06-17.25,30.13-34.87,30.13H343.86C322.29,278,307.66,263.09,307.66,248.18Z"/><path class="cls-1" d="M512.66,240.94c0,14.68,15.72,23.12,15.72,30.82,0,3.31-2.92,6.24-8,6.24H456c-5.12,0-8-2.93-8-6.24,0-7.7,15.72-16.14,15.72-30.82V38.06c0-14.68-15.72-23.12-15.72-30.82,0-3.3,2.92-6.24,8-6.24h64.36c5.12,0,8,2.94,8,6.24,0,7.7-15.72,16.14-15.72,30.82Z"/><path class="cls-1" d="M621.66,42H586.43a4.79,4.79,0,0,0-4.77,4.77V233.23a4.79,4.79,0,0,0,4.77,4.77h40.23V187.69s-8.73,4.4-13.82,4.4c-3.27,0-6.18-2.93-6.18-7.71V151.7c0-5.19,2.59-7.41,7-9.63,8.89-4.45,48.89-21.85,55.92-21.85,4.45,0,7,3,7,7.77V248.58c0,14-14,29.42-36.46,29.42H567.65c-19.89,0-35-9.56-35-27.95V28c0-18.39,15.1-27.95,35-27.95h66.81c21.57,0,36.2,15.13,36.2,30.65V63.19c0,5.68-1.1,7.57-4,9.84-5.85,4.54-34.38,24.59-38.76,24.59-2.93,0-6.22-3-6.22-7.19Z"/><path class="cls-1" d="M688,278c-5.1,0-8-2.93-8-6.24,0-7.7,15.67-16.14,15.67-30.82V38.06C695.66,23.38,680,14.94,680,7.24c0-3.3,2.92-6.24,8-6.24H732.4c11.29,0,13.84,6.24,16,11.37l73.23,155.56V38.06C821.66,23.38,806,14.94,806,7.24c0-3.3,2.92-6.24,8-6.24h62.3c5.1,0,8,2.94,8,6.24,0,7.7-15.67,16.14-15.67,30.82v227.1c0,7.7-5.1,12.84-13.12,12.84H831.92c-9.83,0-12.38-3.67-15.66-10.27l-73.6-144.56V243.88c0,7.7,15.67,16.51,15.67,24.95,0,5.5-4.38,9.17-10.2,9.17Z"/><path class="cls-1" d="M6.48,513C2.35,513,0,510.65,0,508c0-6.17,12.66-12.94,12.66-24.7V320.7C12.66,308.94,0,302.17,0,296c0-2.65,2.35-5,6.48-5H91.57c21.79,0,32.09,10,32.09,27.93V490.06c0,15-12.07,22.94-28,22.94Zm73.07-33c3.23,0,4.11-.59,4.11-4.11V327.12A4.11,4.11,0,0,0,79.54,323H51.66V480Z"/><path class="cls-1" d="M126.47,513c-4.13,0-6.48-2.35-6.48-5,0-6.17,12.67-12.94,12.67-24.7V320.7c0-11.76-12.67-18.53-12.67-24.7,0-2.65,2.35-5,6.48-5H229.66a10,10,0,0,1,10,10v33.05c0,4.37-.87,5.82-3.2,7.57-4.66,3.49-27.36,18.91-30.85,18.91a5.45,5.45,0,0,1-5-5.53V323H176.44a3.83,3.83,0,0,0-3.78,3.52v71.9L198.56,382c2.62-1.76,5.24-2.93,7.57-2.93,3.49,0,5.53,2.93,5.53,6.16v27c0,5-1.16,7.34-5.53,10l-33.47,21.42v32.86a3.53,3.53,0,0,0,3.53,3.53h24.47V461.48c0-4.41.87-5.88,3.2-7.65,4.66-3.52,27.36-19.11,30.85-19.11,2.33,0,4.95,2.36,4.95,5.59V503a10,10,0,0,1-10,10Z"/><path class="cls-1" d="M320,433.61,348,317.76c0-8.24-9.41-15.59-9.41-21.76,0-2.65,2.35-5,6.47-5h51.75c4.11,0,6.47,2.35,6.47,5,0,6.17-11.47,14.41-14.12,25L345.92,486a25,25,0,0,0-1.18,7.06c.3,4.7,5.88,9.4,5.88,15,0,2.65-2.35,5-6.47,5H295.93c-4.12,0-6.47-2.35-6.47-5,0-5.59,5.59-10.29,5.88-15a24.89,24.89,0,0,0-1.17-7.06L250.94,321c-2.64-10.58-14.11-18.82-14.11-25,0-2.65,2.35-5,6.47-5h51.75c4.12,0,6.47,2.35,6.47,5,0,6.17-9.41,13.52-9.41,21.76Z"/><path class="cls-1" d="M403.47,513c-4.13,0-6.48-2.35-6.48-5,0-6.17,12.67-12.94,12.67-24.7V320.7c0-11.76-12.67-18.53-12.67-24.7,0-2.65,2.35-5,6.48-5H506.66a10,10,0,0,1,10,10v33.05c0,4.37-.87,5.82-3.2,7.57-4.66,3.49-27.36,18.91-30.85,18.91a5.45,5.45,0,0,1-4.95-5.53V323H453.44a3.83,3.83,0,0,0-3.78,3.52v71.9L475.56,382c2.62-1.76,5.24-2.93,7.57-2.93,3.49,0,5.53,2.93,5.53,6.16v27c0,5-1.16,7.34-5.53,10l-33.47,21.42v32.86a3.53,3.53,0,0,0,3.53,3.53h24.47V461.48c0-4.41.87-5.88,3.2-7.65,4.66-3.52,27.36-19.11,30.85-19.11,2.33,0,4.95,2.36,4.95,5.59V503a10,10,0,0,1-10,10Z"/><path class="cls-1" d="M589.66,481V462.25c0-4.48.9-6,3.28-7.76,4.78-3.59,28.06-19.41,31.65-19.41,2.38,0,5.07,2.39,5.07,5.67V503a10,10,0,0,1-10,10H526.47c-4.13,0-6.49-2.35-6.49-5,0-6.17,12.68-12.94,12.68-24.7V320.7c0-11.76-12.68-18.53-12.68-24.7,0-2.65,2.36-5,6.49-5h51.39c4.13,0,6.49,2.36,6.49,5,0,6.18-12.69,13-12.69,24.74V481Z"/><path class="cls-1" d="M628.66,489.18V318.93A27.93,27.93,0,0,1,656.59,291h57.95c17.65,0,29.12,12.35,29.12,25.29V487.71c0,12.06-11.18,25.29-29.12,25.29H656.6C640.72,513,628.66,504.47,628.66,489.18ZM670.71,480h31.9a2.2,2.2,0,0,0,2-2.05V325.06A2.06,2.06,0,0,0,702.6,323H670.72a2.06,2.06,0,0,0-2.06,2.06V478A2.2,2.2,0,0,0,670.71,480Z"/><path class="cls-1" d="M753.55,513c-4.08,0-6.4-2.35-6.4-5,0-6.17,12.51-12.94,12.51-24.7V320.7c0-11.76-12.51-18.53-12.51-24.7,0-2.65,2.32-5,6.4-5h82.92c21.85,0,32.19,9.41,32.19,27.34v75c0,6.77-4.13,13.53-12.4,19.41l-54.65,38.51c-2.06,1.47-3,2.65-3,5V483.3c0,11.76,12.52,18.53,12.52,24.7,0,2.65-2.33,5-6.41,5Zm45.11-190v84.09L824,389.15c4.08-2.94,4.66-5,4.66-7.06v-55a4.11,4.11,0,0,0-4.12-4.12Z"/></g></g></g></svg>