<svg xmlns="http://www.w3.org/2000/svg" viewBox="0 0 796.7 603.86"><defs><style>.cls-1{opacity:0.02;}.cls-2{fill:#fff;}</style></defs><title>Asset 4</title><g id="Layer_2" data-name="Layer 2"><g id="Layer_1-2" data-name="Layer 1"><g id="Content"><g class="cls-1"><path class="cls-2" d="M144.58,291.41c0,22.39-12.62,33.38-35.81,33.38H2.13V0H108.77c22.38,0,35.81,9,35.81,33.38ZM91.26,276.76V48H55.45V276.76Z"/><path class="cls-2" d="M272.35,324.79H157.6V0H272.35V48H210.92v92.8h57.43V188H210.92v88.72h61.43Z"/><path class="cls-2" d="M414.82,291.41c0,24.42-12.62,33.38-36.22,33.38H280.92v-48H361.5V188H315.11c-24.83,0-34.19-12.62-34.19-36.63V34.6C280.92,9.77,293.54,0,317.55,0h89.54V48H334.23v92.8h46.4c24.83,0,34.19,13,34.19,37Z"/><path class="cls-2" d="M481.57,324.79H428.25V0h53.32Z"/><path class="cls-2" d="M637.85,324.79H531.62c-23.6,0-36.62-9-36.62-33.38V34.6C495,9.77,508,0,532,0h94.43V48H548.35V276.76h36.22V140.83h53.28Z"/><path class="cls-2" d="M794.14,324.79H740.82V165.65l-34.19-54.13h-2V324.79H651.28V0h44.36l42.71,69.19h2.44V0h53.32Z"/><path class="cls-2" d="M115.85,576.72c0,18.21-10.26,27.14-29.13,27.14H0V339.73H86.72c18.21,0,29.13,7.28,29.13,27.14ZM72.49,564.81v-186H43.35v186Z"/><path class="cls-2" d="M219.78,603.86H126.44V339.73h93.34v39.06h-50v75.47h46.67v38.39H169.8v72.16h50Z"/><path class="cls-2" d="M342.58,514.17c0,33.76-18.21,64.54-36.41,89.69h-43c-16.88-24.49-36.41-53.29-36.41-88.37V339.73h43.36V508.54c0,22.84,7.61,39.39,13.9,51h1.66a104.23,104.23,0,0,0,13.57-51V339.73h43.36Z"/><path class="cls-2" d="M446.84,603.86H353.5V339.73h93.34v39.06h-50v75.47h46.67v38.39H396.86v72.16h50Z"/><path class="cls-2" d="M547.13,603.86H453.79V339.73h43.36V564.81h50Z"/><path class="cls-2" d="M669.93,576.72c0,18.87-9.27,27.14-28.8,27.14H583.21c-18.54,0-29.13-7.61-29.13-27.14V366.87c0-18.2,9.6-27.14,29.13-27.14h57.92c18.87,0,28.8,7.61,28.8,27.14Zm-43.36-11.91v-186H597.44v186Z"/><path class="cls-2" d="M796.7,478.75c0,20.19-10.26,27.8-29.79,27.8h-42.7v97.31H680.85V339.73h86.06c19.53,0,29.79,8,29.79,28.14ZM753.35,467.5V378.79H724.21V467.5Z"/></g></g></g></g></svg>