<?xml version="1.0" encoding="utf-8"?>
<!-- Generator: Adobe Illustrator 22.1.0, SVG Export Plug-In . SVG Version: 6.00 Build 0)  -->
<!DOCTYPE svg PUBLIC "-//W3C//DTD SVG 1.1//EN" "http://www.w3.org/Graphics/SVG/1.1/DTD/svg11.dtd">
<svg version="1.1" xmlns="http://www.w3.org/2000/svg" xmlns:xlink="http://www.w3.org/1999/xlink" x="0px" y="0px"
	 viewBox="0 0 46.9 45.4" style="enable-background:new 0 0 46.9 45.4;" xml:space="preserve">
<style type="text/css">
	.st0{fill:none;}
	.st1{fill:#0885F9;}
</style>
<g id="Layer_1">
</g>
<g id="Isolation_Mode">
	<g>
		<polygon class="st0" points="6.4,23.1 1.5,20 1.5,25.4 6.4,28.5 		"/>
		<polygon class="st0" points="24.2,37.8 24.2,43.2 29.1,40.1 29.1,34.7 		"/>
		<polygon class="st0" points="22.7,37.8 17.8,34.7 17.8,40.1 22.7,43.2 		"/>
		<polygon class="st0" points="40.5,23.1 40.5,28.5 45.4,25.4 45.4,20 		"/>
		<path class="st1" d="M30.3,32.7l-6.4-4.1c-0.2-0.2-0.6-0.2-0.8,0l-6.4,4.1c-0.2,0.2-0.3,0.4-0.3,0.7c0,0,0,0,0,0v7.1
			c0,0.3,0.1,0.5,0.3,0.6l6.4,4.1c0,0,0,0,0.1,0c0,0,0,0,0.1,0c0.1,0,0.2,0.1,0.3,0.1s0.2,0,0.3-0.1c0,0,0,0,0.1,0c0,0,0.1,0,0.1,0
			l6.4-4.1c0.2-0.1,0.3-0.4,0.3-0.6v-7.1c0,0,0,0,0,0C30.6,33.1,30.5,32.8,30.3,32.7z M17.8,34.7l4.9,3.1v5.5l-4.9-3.1V34.7z
			 M24.2,43.2v-5.5l4.9-3.1v5.5L24.2,43.2z"/>
		<path class="st1" d="M46.6,18l-6.4-4.1c-0.2-0.2-0.6-0.2-0.8,0L33,18c-0.2,0.2-0.3,0.4-0.3,0.7c0,0,0,0,0,0V23
			c0,0.4,0.3,0.8,0.8,0.8s0.8-0.3,0.8-0.8v-3l4.9,3.1v5.5L36.6,27c-0.3-0.2-0.8-0.1-1,0.2c-0.2,0.3-0.1,0.8,0.2,1l3.6,2.3
			c0,0,0,0,0.1,0c0,0,0,0,0.1,0c0.1,0,0.2,0.1,0.3,0.1s0.2,0,0.3-0.1c0,0,0,0,0.1,0c0,0,0.1,0,0.1,0l6.4-4.1
			c0.2-0.1,0.3-0.4,0.3-0.6v-7.1c0,0,0,0,0,0C46.9,18.4,46.8,18.2,46.6,18z M40.5,28.5v-5.5l4.9-3.1v5.5L40.5,28.5z"/>
		<path class="st1" d="M28.3,29.9c0.1,0.2,0.4,0.3,0.6,0.3c0.2,0,0.3,0,0.4-0.1l7.2-5.2c0.3-0.2,0.4-0.7,0.2-1
			c-0.2-0.3-0.7-0.4-1-0.2l-7.2,5.2C28.1,29.1,28.1,29.6,28.3,29.9z"/>
		<path class="st1" d="M11.2,23.7c-0.3-0.2-0.8-0.2-1,0.2c-0.2,0.3-0.2,0.8,0.2,1l7.2,5.2c0.1,0.1,0.3,0.1,0.4,0.1
			c0.2,0,0.5-0.1,0.6-0.3c0.2-0.3,0.2-0.8-0.2-1L11.2,23.7z"/>
		<path class="st1" d="M27.4,10.2c-0.2,0.3-0.2,0.8,0.2,1l6,4.3c0.1,0.1,0.3,0.1,0.4,0.1c0.2,0,0.5-0.1,0.6-0.3
			c0.2-0.3,0.2-0.8-0.2-1l-6-4.3C28.1,9.8,27.6,9.8,27.4,10.2z"/>
		<path class="st1" d="M12.9,15.7c0.2,0,0.3,0,0.4-0.1l6-4.3c0.3-0.2,0.4-0.7,0.2-1c-0.2-0.3-0.7-0.4-1-0.2l-6,4.3
			c-0.3,0.2-0.4,0.7-0.2,1C12.5,15.6,12.7,15.7,12.9,15.7z"/>
		<path class="st1" d="M16.3,4.9v4.2c0,0.4,0.3,0.8,0.8,0.8s0.8-0.3,0.8-0.8V6.2l4.9,3.1v5.5l-3.2-2c-0.3-0.2-0.8-0.1-1,0.2
			c-0.2,0.3-0.1,0.8,0.2,1l4.3,2.7c0,0,0,0,0.1,0c0,0,0,0,0.1,0c0.1,0,0.2,0.1,0.3,0.1s0.2,0,0.3-0.1c0,0,0,0,0.1,0c0,0,0.1,0,0.1,0
			l4.3-2.7c0.3-0.2,0.5-0.7,0.2-1c-0.2-0.3-0.7-0.5-1-0.2l-3.2,2V9.3l4.9-3.1v2.9c0,0.4,0.3,0.8,0.8,0.8s0.8-0.3,0.8-0.8V4.9
			c0,0,0,0,0,0c0-0.3-0.1-0.5-0.3-0.7l-6.4-4.1c-0.2-0.2-0.6-0.2-0.8,0l-6.4,4.1C16.4,4.3,16.3,4.6,16.3,4.9
			C16.3,4.9,16.3,4.9,16.3,4.9z"/>
		<path class="st1" d="M10.3,27l-2.5,1.6v-5.5l4.9-3.1v3c0,0.4,0.3,0.8,0.8,0.8s0.8-0.3,0.8-0.8v-4.3c0,0,0,0,0,0
			c0-0.3-0.1-0.5-0.3-0.7l-6.4-4.1c-0.2-0.2-0.6-0.2-0.8,0L0.3,18C0.1,18.2,0,18.4,0,18.7c0,0,0,0,0,0v7.1c0,0.3,0.1,0.5,0.3,0.6
			l6.4,4.1c0,0,0,0,0.1,0c0,0,0,0,0.1,0c0.1,0,0.2,0.1,0.3,0.1s0.2,0,0.3-0.1c0,0,0,0,0.1,0c0,0,0.1,0,0.1,0l3.6-2.3
			c0.3-0.2,0.5-0.7,0.2-1C11.2,26.9,10.7,26.8,10.3,27z M1.5,20l4.9,3.1v5.5l-4.9-3.1V20z"/>
	</g>
</g>
</svg>
