<?xml version="1.0" encoding="utf-8"?>
<!-- Generator: Adobe Illustrator 23.0.1, SVG Export Plug-In . SVG Version: 6.00 Build 0)  -->
<svg version="1.1" id="Layer_1" xmlns="http://www.w3.org/2000/svg" xmlns:xlink="http://www.w3.org/1999/xlink" x="0px" y="0px"
	 viewBox="0 0 426.667 426.667" style="enable-background:new 0 0 426.667 426.667;" xml:space="preserve">
<style type="text/css">
	.st0{fill:url(#SVGID_1_);}
	.st1{fill:url(#SVGID_2_);}
</style>
<g>
	<g>
		<linearGradient id="SVGID_1_" gradientUnits="userSpaceOnUse" x1="216.5767" y1="-5.0166" x2="218.5767" y2="424.9834">
			<stop  offset="0" style="stop-color:#EF371D"/>
			<stop  offset="1" style="stop-color:#AF1E2D"/>
		</linearGradient>
		<polygon class="st0" points="293.333,135.04 190.08,240.213 137.173,187.093 108.8,215.467 192.213,298.667 326.187,168.747 		"/>
	</g>
</g>
<g>
	<g>
		<linearGradient id="SVGID_2_" gradientUnits="userSpaceOnUse" x1="212.3175" y1="-4.9968" x2="214.3175" y2="425.0032">
			<stop  offset="0" style="stop-color:#EF371D"/>
			<stop  offset="1" style="stop-color:#AF1E2D"/>
		</linearGradient>
		<path class="st1" d="M213.333,0C95.513,0,0,95.513,0,213.333s95.513,213.333,213.333,213.333s213.333-95.513,213.333-213.333
			S331.154,0,213.333,0z M213.333,388.053c-96.495,0-174.72-78.225-174.72-174.72s78.225-174.72,174.72-174.72
			c96.446,0.117,174.602,78.273,174.72,174.72C388.053,309.829,309.829,388.053,213.333,388.053z"/>
	</g>
</g>
</svg>
