<?xml version="1.0" encoding="utf-8"?>
<!-- Generator: Adobe Illustrator 22.1.0, SVG Export Plug-In . SVG Version: 6.00 Build 0)  -->
<!DOCTYPE svg PUBLIC "-//W3C//DTD SVG 1.1//EN" "http://www.w3.org/Graphics/SVG/1.1/DTD/svg11.dtd">
<svg version="1.1" xmlns="http://www.w3.org/2000/svg" xmlns:xlink="http://www.w3.org/1999/xlink" x="0px" y="0px"
	 viewBox="0 0 42.3 42.1" style="enable-background:new 0 0 42.3 42.1;" xml:space="preserve">
<style type="text/css">
	.st0{fill:none;}
	.st1{fill:#0885F9;}
</style>
<g id="Layer_1">
</g>
<g id="Isolation_Mode">
	<g>
		<path class="st0" d="M23,17.6c-0.1,0-0.1,0-0.2,0h-0.6H20h-0.6c-0.1,0-0.1,0-0.2,0c-0.3,0.1-0.6,0.4-0.6,0.7s0.3,0.6,0.6,0.7
			c0.1,0,0.1,0,0.2,0H20h2.3h0.6c0.1,0,0.1,0,0.2,0c0.3-0.1,0.6-0.4,0.6-0.7S23.4,17.7,23,17.6z"/>
		<path class="st0" d="M7.6,26.8H7.4H5.9H3.5H2H1.8c-0.4,0-0.8,0.3-0.8,0.8s0.3,0.8,0.8,0.8H2h1.5h2.3h1.5h0.3
			c0.4,0,0.8-0.3,0.8-0.8S8.1,26.8,7.6,26.8z"/>
		<path class="st0" d="M19.2,13.4c0.1,0,0.1,0,0.2,0H20h2.3h0.6c0.1,0,0.1,0,0.2,0c0.3-0.1,0.6-0.4,0.6-0.7S23.4,12,23,12
			c-0.1,0-0.1,0-0.2,0h-0.6H20h-0.6c-0.1,0-0.1,0-0.2,0c-0.3,0.1-0.6,0.4-0.6,0.7S18.9,13.3,19.2,13.4z"/>
		<path class="st0" d="M6.4,29.6H5.9H3.5H3c-0.4,0-0.8,0.3-0.8,0.8s0.3,0.8,0.8,0.8h0.6h2.3h0.6c0.4,0,0.8-0.3,0.8-0.8
			S6.9,29.6,6.4,29.6z"/>
		<path class="st0" d="M3.5,39.5c0,0.6,0.5,1.2,1.2,1.2c0.6,0,1.2-0.5,1.2-1.2v-6H3.5V39.5z"/>
		<path class="st0" d="M5.9,2.7c0-0.6-0.5-1.2-1.2-1.2C4.1,1.5,3.5,2,3.5,2.7v18.9h2.3V2.7z"/>
		<path class="st0" d="M3,25.4h0.6h2.3h0.6c0.4,0,0.8-0.3,0.8-0.8s-0.3-0.8-0.8-0.8H5.9H3.5H3c-0.4,0-0.8,0.3-0.8,0.8
			S2.5,25.4,3,25.4z"/>
		<path class="st0" d="M35.8,19.4h0.6h2.3h0.6c0.4,0,0.8-0.3,0.8-0.8s-0.3-0.8-0.8-0.8h-0.6h-2.3h-0.6c-0.4,0-0.8,0.3-0.8,0.8
			S35.4,19.4,35.8,19.4z"/>
		<path class="st0" d="M36.4,39.5c0,0.6,0.5,1.2,1.2,1.2s1.2-0.5,1.2-1.2v-12h-2.3V39.5z"/>
		<path class="st0" d="M39.3,23.6h-0.6h-2.3h-0.6c-0.4,0-0.8,0.3-0.8,0.8s0.3,0.8,0.8,0.8h0.6h2.3h0.6c0.4,0,0.8-0.3,0.8-0.8
			S39.7,23.6,39.3,23.6z"/>
		<path class="st0" d="M40.5,20.8h-0.3h-1.5h-2.3h-1.5h-0.3c-0.4,0-0.8,0.3-0.8,0.8s0.3,0.8,0.8,0.8h0.3h1.5h2.3h1.5h0.3
			c0.4,0,0.8-0.3,0.8-0.8S40.9,20.8,40.5,20.8z"/>
		<path class="st0" d="M24.1,14.8h-0.3H23h-0.8H20h-0.8h-0.8h-0.3c-0.4,0-0.8,0.3-0.8,0.8s0.3,0.8,0.8,0.8h0.3h0.8H20h2.3H23h0.7
			h0.3c0.4,0,0.8-0.3,0.8-0.8S24.5,14.8,24.1,14.8z"/>
		<path class="st0" d="M38.7,2.7c0-0.6-0.5-1.2-1.2-1.2S36.4,2,36.4,2.7v12.9h2.3V2.7z"/>
		<path class="st1" d="M7.4,21.6v-19C7.4,1.2,6.2,0,4.7,0C3.2,0,2,1.2,2,2.7v19c-1.1,0.1-2,1-2,2.1v7.6c0,1.1,0.9,2.1,2,2.1v6
			c0,1.5,1.2,2.7,2.7,2.7c1.5,0,2.7-1.2,2.7-2.7v-6c1.1-0.1,2-1,2-2.1v-7.6C9.4,22.6,8.5,21.7,7.4,21.6z M3,23.9h0.6h2.3h0.6
			c0.4,0,0.8,0.3,0.8,0.8s-0.3,0.8-0.8,0.8H5.9H3.5H3c-0.4,0-0.8-0.3-0.8-0.8S2.5,23.9,3,23.9z M3.5,2.7c0-0.6,0.5-1.2,1.2-1.2
			c0.6,0,1.2,0.5,1.2,1.2v18.9H3.5V2.7z M6.4,31.1H5.9H3.5H3c-0.4,0-0.8-0.3-0.8-0.8s0.3-0.8,0.8-0.8h0.6h2.3h0.6
			c0.4,0,0.8,0.3,0.8,0.8S6.9,31.1,6.4,31.1z M5.9,39.5c0,0.6-0.5,1.2-1.2,1.2c-0.6,0-1.2-0.5-1.2-1.2v-6h2.3V39.5z M7.6,28.3H7.4
			H5.9H3.5H2H1.8c-0.4,0-0.8-0.3-0.8-0.8s0.3-0.8,0.8-0.8H2h1.5h2.3h1.5h0.3c0.4,0,0.8,0.3,0.8,0.8S8.1,28.3,7.6,28.3z"/>
		<path class="st1" d="M40.2,15.6v-13c0-1.5-1.2-2.7-2.7-2.7s-2.7,1.2-2.7,2.7v13c-1.1,0.1-2,1-2,2.1v7.6c0,1.1,0.9,2.1,2,2.1v12
			c0,1.5,1.2,2.7,2.7,2.7s2.7-1.2,2.7-2.7v-12c1.1-0.1,2-1,2-2.1v-7.6C42.3,16.6,41.4,15.7,40.2,15.6z M35.8,17.9h0.6h2.3h0.6
			c0.4,0,0.8,0.3,0.8,0.8s-0.3,0.8-0.8,0.8h-0.6h-2.3h-0.6c-0.4,0-0.8-0.3-0.8-0.8S35.4,17.9,35.8,17.9z M36.4,2.7
			c0-0.6,0.5-1.2,1.2-1.2s1.2,0.5,1.2,1.2v12.9h-2.3V2.7z M39.3,25.1h-0.6h-2.3h-0.6c-0.4,0-0.8-0.3-0.8-0.8s0.3-0.8,0.8-0.8h0.6
			h2.3h0.6c0.4,0,0.8,0.3,0.8,0.8S39.7,25.1,39.3,25.1z M38.7,39.5c0,0.6-0.5,1.2-1.2,1.2s-1.2-0.5-1.2-1.2v-12h2.3V39.5z
			 M40.5,22.3h-0.3h-1.5h-2.3h-1.5h-0.3c-0.4,0-0.8-0.3-0.8-0.8s0.3-0.8,0.8-0.8h0.3h1.5h2.3h1.5h0.3c0.4,0,0.8,0.3,0.8,0.8
			S40.9,22.3,40.5,22.3z"/>
		<path class="st1" d="M23.8,9.6V2.7c0-1.5-1.2-2.7-2.7-2.7s-2.7,1.2-2.7,2.7v6.9c-1.1,0.1-2,1-2,2.1v7.6c0,1.1,0.9,2.1,2,2.1v18
			c0,1.5,1.2,2.7,2.7,2.7s2.7-1.2,2.7-2.7v-18c1.1-0.1,2-1,2-2.1v-7.6C25.8,10.6,24.9,9.6,23.8,9.6z M19.2,12c0.1,0,0.1,0,0.2,0H20
			h2.3h0.6c0.1,0,0.1,0,0.2,0c0.3,0.1,0.6,0.4,0.6,0.7s-0.3,0.6-0.6,0.7c-0.1,0-0.1,0-0.2,0h-0.6H20h-0.6c-0.1,0-0.1,0-0.2,0
			c-0.3-0.1-0.6-0.4-0.6-0.7S18.9,12,19.2,12z M23,19c-0.1,0-0.1,0-0.2,0h-0.6H20h-0.6c-0.1,0-0.1,0-0.2,0c-0.3-0.1-0.6-0.4-0.6-0.7
			s0.3-0.6,0.6-0.7c0.1,0,0.1,0,0.2,0H20h2.3h0.6c0.1,0,0.1,0,0.2,0c0.3,0.1,0.6,0.4,0.6,0.7S23.4,19,23,19z M24.1,16.3h-0.3H23
			h-0.8H20h-0.8h-0.8h-0.3c-0.4,0-0.8-0.3-0.8-0.8s0.3-0.8,0.8-0.8h0.3h0.8H20h2.3H23h0.7h0.3c0.4,0,0.8,0.3,0.8,0.8
			S24.5,16.3,24.1,16.3z"/>
	</g>
</g>
</svg>
