<?xml version="1.0" encoding="utf-8"?>
<!-- Generator: Adobe Illustrator 23.0.1, SVG Export Plug-In . SVG Version: 6.00 Build 0)  -->
<svg version="1.1" id="Isolation_Mode" xmlns="http://www.w3.org/2000/svg" xmlns:xlink="http://www.w3.org/1999/xlink" x="0px"
	 y="0px" viewBox="0 0 606.34 152.756" style="enable-background:new 0 0 606.34 152.756;" xml:space="preserve">
<style type="text/css">
	.st0{fill:#AF1E2D;}
	.st1{fill:#565454;}
	.st2{fill:url(#SVGID_1_);}
	.st3{fill:url(#SVGID_2_);}
	.st4{fill:url(#SVGID_3_);}
	.st5{fill:url(#SVGID_4_);}
	.st6{fill:url(#SVGID_5_);}
	.st7{fill:url(#SVGID_6_);}
	.st8{fill:url(#SVGID_7_);}
	.st9{fill:url(#SVGID_8_);}
	.st10{fill:none;}
</style>
<path class="st0" d="M146.667,38.65L108.019,0.002L108.016,0l-8.615,0.002h-54.66l0,0L38.65,6.093L0,44.743v0.003v63.267
	l6.096,6.093l38.648,38.648l0.002,0.002h8.614h54.66l0.002-0.002l6.091-6.091l38.65-38.65v-8.61V44.744v-0.001L146.667,38.65z
	 M114.113,92.003L92.01,114.106H60.753L38.65,92.003V60.752L60.753,38.65H92.01l22.102,22.102V92.003z"/>
<path class="st1" d="M202.621,114.919h-20.779V38.766h20.779c20.452,0,37.099,11.203,37.099,38.076
	C239.72,103.713,222.529,114.919,202.621,114.919z M202.621,49.863h-9.355v53.958h9.355c18.06,0,25.458-10.987,25.458-26.979
	S220.681,49.863,202.621,49.863z"/>
<path class="st1" d="M293.092,90.332h-37.749c1.196,10.987,7.398,15.665,14.361,15.665c4.787,0,8.594-1.74,12.402-4.568l6.635,7.179
	c-5.004,4.787-10.987,7.506-19.691,7.506c-13.381,0-24.695-10.77-24.695-29.699c0-19.364,10.226-29.809,25.022-29.809
	c16.209,0,24.043,13.164,24.043,28.611C293.419,87.287,293.202,89.136,293.092,90.332z M268.616,66.725
	c-7.506,0-12.077,5.222-13.056,14.361h26.546C281.561,73.252,277.862,66.725,268.616,66.725z"/>
<path class="st1" d="M319.654,45.729c-3.699,0-5.222,1.415-5.222,5.548v6.529h10.553v10.443h-10.553v46.67h-11.203v-46.67h-7.398
	V57.805h7.398v-7.509c0-10.443,6.419-14.358,14.469-14.358c2.936,0,6.091,0.433,8.484,1.088v9.79
	C323.572,46.056,321.613,45.729,319.654,45.729z"/>
<path class="st1" d="M375.427,90.332h-37.749c1.196,10.987,7.398,15.665,14.361,15.665c4.787,0,8.594-1.74,12.402-4.568l6.635,7.179
	c-5.004,4.787-10.987,7.506-19.691,7.506c-13.381,0-24.695-10.77-24.695-29.699c0-19.364,10.226-29.809,25.022-29.809
	c16.209,0,24.043,13.164,24.043,28.611C375.754,87.287,375.538,89.136,375.427,90.332z M350.951,66.725
	c-7.506,0-12.077,5.222-13.056,14.361h26.546C363.897,73.252,360.198,66.725,350.951,66.725z"/>
<path class="st1" d="M415.431,114.919v-32.31c0-11.533-4.351-15.667-11.749-15.667c-7.506,0-11.749,5.333-11.749,14.579v33.398
	h-11.206V57.805h11.206v5.439c2.83-4.135,8.486-6.637,14.361-6.637c13.273,0,20.344,8.703,20.344,25.566v32.745H415.431z"/>
<path class="st1" d="M469.724,114.919v-5.439c-4.135,3.807-8.921,6.635-14.905,6.635c-12.293,0-21.975-8.919-21.975-30.678
	c0-19.583,10.662-28.83,22.519-28.83c5.766,0,11.205,3.047,14.361,6.527V41.378l11.095-5.766v79.307H469.724z M469.832,74.45
	c-2.503-3.374-7.725-7.509-13.381-7.509c-8.05,0-12.402,6.094-12.402,18.17c0,14.358,4.568,20.669,12.837,20.669
	c5.331,0,10.007-3.591,12.946-7.288V74.45z"/>
<path class="st1" d="M519.409,69.661c-2.392-1.305-4.895-2.065-8.594-2.065c-7.071,0-11.206,5.004-11.206,14.686v32.637h-11.205
	V57.805h11.205v5.439c2.611-3.807,7.398-6.637,13.056-6.637c4.568,0,7.398,0.871,9.682,2.392L519.409,69.661z"/>
<path class="st1" d="M549.906,135.046h-11.86l8.269-21.215L525.32,57.805h12.293l9.355,27.956c1.74,5.006,4.351,13.492,5.004,16.645
	c0.979-3.37,3.374-11.531,5.114-16.426l9.682-28.175h11.858L549.906,135.046z"/>
<linearGradient id="SVGID_1_" gradientUnits="userSpaceOnUse" x1="83.9511" y1="-12.0732" x2="25.0353" y2="47.6127">
	<stop  offset="0.3" style="stop-color:#EF371D"/>
	<stop  offset="1" style="stop-color:#AF1E2D"/>
</linearGradient>
<polygon class="st2" points="99.401,0.002 44.741,0.002 44.741,0.002 38.65,6.093 38.65,60.753 "/>
<linearGradient id="SVGID_2_" gradientUnits="userSpaceOnUse" x1="146.0173" y1="19.3251" x2="61.5603" y2="19.3251">
	<stop  offset="0.3" style="stop-color:#EF371D"/>
	<stop  offset="1" style="stop-color:#AF1E2D"/>
</linearGradient>
<polygon class="st3" points="108.016,0 108.019,0.002 146.667,38.65 60.753,38.65 99.401,0.002 "/>
<linearGradient id="SVGID_3_" gradientUnits="userSpaceOnUse" x1="67.7767" y1="166.2911" x2="127.0775" y2="104.6798">
	<stop  offset="0.3" style="stop-color:#EF371D"/>
	<stop  offset="1" style="stop-color:#AF1E2D"/>
</linearGradient>
<polygon class="st4" points="53.36,152.756 108.02,152.756 108.022,152.754 114.113,146.663 114.113,92.003 "/>
<linearGradient id="SVGID_4_" gradientUnits="userSpaceOnUse" x1="133.4378" y1="146.0857" x2="133.4378" y2="59.775">
	<stop  offset="0.3" style="stop-color:#EF371D"/>
	<stop  offset="1" style="stop-color:#AF1E2D"/>
</linearGradient>
<polyline class="st5" points="114.113,60.753 114.113,146.663 152.763,108.013 152.763,99.403 114.113,60.753 "/>
<linearGradient id="SVGID_5_" gradientUnits="userSpaceOnUse" x1="166.4675" y1="85.259" x2="104.4712" y2="25.188">
	<stop  offset="0.3" style="stop-color:#EF371D"/>
	<stop  offset="1" style="stop-color:#AF1E2D"/>
</linearGradient>
<polygon class="st6" points="152.763,99.403 152.763,44.744 152.763,44.743 146.667,38.65 92.01,38.65 "/>
<linearGradient id="SVGID_6_" gradientUnits="userSpaceOnUse" x1="6.6218" y1="133.4308" x2="91.4999" y2="133.4308">
	<stop  offset="0.3" style="stop-color:#EF371D"/>
	<stop  offset="1" style="stop-color:#AF1E2D"/>
</linearGradient>
<polygon class="st7" points="6.096,114.106 44.744,152.754 44.746,152.756 53.36,152.756 92.01,114.106 "/>
<linearGradient id="SVGID_7_" gradientUnits="userSpaceOnUse" x1="-13.6736" y1="67.1137" x2="47.1676" y2="127.5698">
	<stop  offset="0.3" style="stop-color:#EF371D"/>
	<stop  offset="1" style="stop-color:#AF1E2D"/>
</linearGradient>
<polygon class="st8" points="0,53.353 0,108.013 0.003,108.016 6.096,114.106 60.753,114.106 "/>
<linearGradient id="SVGID_8_" gradientUnits="userSpaceOnUse" x1="19.3252" y1="5.9201" x2="19.3252" y2="92.5686">
	<stop  offset="0.3" style="stop-color:#EF371D"/>
	<stop  offset="1" style="stop-color:#AF1E2D"/>
</linearGradient>
<polygon class="st9" points="38.65,92.003 0,53.353 0,44.746 0,44.743 38.65,6.093 "/>
<g>
	<polygon class="st10" points="92.01,114.106 114.113,92.003 114.113,60.753 92.01,38.65 60.753,38.65 38.65,60.752 38.65,92.003 
		0,53.353 60.753,114.106 	"/>
</g>
<g>
	<path class="st1" d="M588.47,59.711v11.017h-1.937V59.711h-3.765V57.81h9.468v1.901H588.47z"/>
	<path class="st1" d="M604.439,70.728V63.9c0-0.775,0.018-1.901,0.036-2.27c-0.147,0.37-0.517,1.292-0.829,2.03l-3.137,7.271
		l-3.1-7.271c-0.314-0.738-0.684-1.66-0.831-2.03c0.018,0.37,0.036,1.495,0.036,2.27v6.828h-1.826V57.81h1.992l2.897,6.883
		c0.314,0.738,0.72,1.68,0.887,2.215c0.183-0.535,0.553-1.458,0.867-2.215l2.841-6.883h2.068v12.918H604.439z"/>
</g>
</svg>
