<?xml version="1.0" encoding="utf-8"?>
<!-- Generator: Adobe Illustrator 23.0.1, SVG Export Plug-In . SVG Version: 6.00 Build 0)  -->
<svg version="1.1" id="Layer_1" xmlns="http://www.w3.org/2000/svg" xmlns:xlink="http://www.w3.org/1999/xlink" x="0px" y="0px"
	 viewBox="0 0 269.4 67.9" style="enable-background:new 0 0 269.4 67.9;" xml:space="preserve">
<style type="text/css">
	.st0{fill:#AF1F2D;}
	.st1{fill:url(#SVGID_1_);}
	.st2{fill:url(#SVGID_2_);}
	.st3{fill:url(#SVGID_3_);}
	.st4{fill:url(#SVGID_4_);}
	.st5{fill:url(#SVGID_5_);}
	.st6{fill:url(#SVGID_6_);}
	.st7{fill:url(#SVGID_7_);}
	.st8{fill:url(#SVGID_8_);}
	.st9{fill:none;}
	.st10{fill:#FFFFFF;}
	.st11{fill:#EE3A24;}
</style>
<g id="Isolation_Mode_1_">
	<g>
		<path class="st0" d="M65.1,17.2L48,0l0,0h-3.8H19.9l0,0l-2.7,2.7L0,19.9l0,0V48l2.7,2.7l17.2,17.2l0,0h3.8H48l0,0l2.7-2.7L67.8,48
			v-3.8V19.9l0,0L65.1,17.2z M50.7,40.8l-9.8,9.8H27l-9.8-9.8V27l9.8-9.8h13.9l9.8,9.8V40.8z"/>
		
			<linearGradient id="SVGID_1_" gradientUnits="userSpaceOnUse" x1="37.2734" y1="1404.64" x2="11.1157" y2="1431.1396" gradientTransform="matrix(1 0 0 1 0 -1410)">
			<stop  offset="0.3" style="stop-color:#EE3A24"/>
			<stop  offset="1" style="stop-color:#AF1F2D"/>
		</linearGradient>
		<polygon class="st1" points="44.1,0 19.9,0 19.9,0 17.2,2.7 17.2,27 		"/>
		
			<linearGradient id="SVGID_2_" gradientUnits="userSpaceOnUse" x1="64.8295" y1="1418.6" x2="27.3319" y2="1418.6" gradientTransform="matrix(1 0 0 1 0 -1410)">
			<stop  offset="0.3" style="stop-color:#EE3A24"/>
			<stop  offset="1" style="stop-color:#AF1F2D"/>
		</linearGradient>
		<polygon class="st2" points="48,0 48,0 65.1,17.2 27,17.2 44.1,0 		"/>
		
			<linearGradient id="SVGID_3_" gradientUnits="userSpaceOnUse" x1="30.094" y1="1483.8329" x2="56.4227" y2="1456.4784" gradientTransform="matrix(1 0 0 1 0 -1410)">
			<stop  offset="0.3" style="stop-color:#EE3A24"/>
			<stop  offset="1" style="stop-color:#AF1F2D"/>
		</linearGradient>
		<polygon class="st3" points="23.7,67.8 48,67.8 48,67.8 50.7,65.1 50.7,40.8 		"/>
		
			<linearGradient id="SVGID_4_" gradientUnits="userSpaceOnUse" x1="59.25" y1="1474.8599" x2="59.25" y2="1436.5392" gradientTransform="matrix(1 0 0 1 0 -1410)">
			<stop  offset="0.3" style="stop-color:#EE3A24"/>
			<stop  offset="1" style="stop-color:#AF1F2D"/>
		</linearGradient>
		<polyline class="st4" points="50.7,27 50.7,65.1 67.8,48 67.8,44.1 50.7,27 		"/>
		
			<linearGradient id="SVGID_5_" gradientUnits="userSpaceOnUse" x1="73.8972" y1="1447.866" x2="46.3718" y2="1421.1953" gradientTransform="matrix(1 0 0 1 0 -1410)">
			<stop  offset="0.3" style="stop-color:#EE3A24"/>
			<stop  offset="1" style="stop-color:#AF1F2D"/>
		</linearGradient>
		<polygon class="st5" points="67.8,44.1 67.8,19.9 67.8,19.9 65.1,17.2 40.9,17.2 		"/>
		
			<linearGradient id="SVGID_6_" gradientUnits="userSpaceOnUse" x1="2.94" y1="1469.25" x2="40.6246" y2="1469.25" gradientTransform="matrix(1 0 0 1 0 -1410)">
			<stop  offset="0.3" style="stop-color:#EE3A24"/>
			<stop  offset="1" style="stop-color:#AF1F2D"/>
		</linearGradient>
		<polygon class="st6" points="2.7,50.7 19.9,67.8 19.9,67.8 23.7,67.8 40.9,50.7 		"/>
		
			<linearGradient id="SVGID_7_" gradientUnits="userSpaceOnUse" x1="-6.0792" y1="1439.8179" x2="20.9335" y2="1466.6594" gradientTransform="matrix(1 0 0 1 0 -1410)">
			<stop  offset="0.3" style="stop-color:#EE3A24"/>
			<stop  offset="1" style="stop-color:#AF1F2D"/>
		</linearGradient>
		<polygon class="st7" points="0,23.7 0,48 0,48 2.7,50.7 27,50.7 		"/>
		
			<linearGradient id="SVGID_8_" gradientUnits="userSpaceOnUse" x1="8.6" y1="1412.6284" x2="8.6" y2="1451.0991" gradientTransform="matrix(1 0 0 1 0 -1410)">
			<stop  offset="0.3" style="stop-color:#EE3A24"/>
			<stop  offset="1" style="stop-color:#AF1F2D"/>
		</linearGradient>
		<polygon class="st8" points="17.2,40.8 0,23.7 0,19.9 0,19.9 17.2,2.7 		"/>
		<g>
			<polygon class="st9" points="40.9,50.7 50.7,40.8 50.7,27 40.9,17.2 27,17.2 17.2,27 17.2,40.8 0,23.7 27,50.7 			"/>
		</g>
	</g>
</g>
<g>
	<path class="st10" d="M90,39.9h-9.2V6.1H90c9.1,0,16.5,5,16.5,16.9C106.4,35,98.8,39.9,90,39.9z M90,11.1h-4.2v24H90
		c8,0,11.3-4.9,11.3-12S98,11.1,90,11.1z"/>
	<path class="st10" d="M130.1,29h-16.8c0.5,4.9,3.3,7,6.4,7c2.1,0,3.8-0.8,5.5-2l2.9,3.2c-2.2,2.1-4.9,3.3-8.7,3.3
		c-5.9,0-11-4.8-11-13.2c0-8.6,4.5-13.2,11.1-13.2c7.2,0,10.7,5.8,10.7,12.7C130.3,27.7,130.2,28.5,130.1,29z M119.3,18.5
		c-3.3,0-5.4,2.3-5.8,6.4h11.8C125,21.4,123.4,18.5,119.3,18.5z"/>
	<path class="st10" d="M141.9,9.2c-1.6,0-2.3,0.6-2.3,2.5v2.9h4.7v4.6h-4.7v20.7h-5V19.2h-3.3v-4.6h3.3v-3.3c0-4.6,2.8-6.4,6.4-6.4
		c1.3,0,2.7,0.2,3.8,0.5v4.3C143.7,9.4,142.8,9.2,141.9,9.2z"/>
	<path class="st10" d="M166.7,29h-16.8c0.5,4.9,3.3,7,6.4,7c2.1,0,3.8-0.8,5.5-2l2.9,3.2c-2.2,2.1-4.9,3.3-8.7,3.3
		c-5.9,0-11-4.8-11-13.2c0-8.6,4.5-13.2,11.1-13.2c7.2,0,10.7,5.8,10.7,12.7C166.8,27.7,166.7,28.5,166.7,29z M155.8,18.5
		c-3.3,0-5.4,2.3-5.8,6.4h11.8C161.6,21.4,159.9,18.5,155.8,18.5z"/>
	<path class="st10" d="M184.4,39.9V25.6c0-5.1-1.9-7-5.2-7S174,21,174,25.1v14.8h-5V14.5h5v2.4c1.3-1.8,3.8-2.9,6.4-2.9
		c5.9,0,9,3.9,9,11.4v14.5H184.4z"/>
	<path class="st10" d="M208.6,39.9v-2.4c-1.8,1.7-4,2.9-6.6,2.9c-5.5,0-9.8-4-9.8-13.6c0-8.7,4.7-12.8,10-12.8c2.6,0,5,1.4,6.4,2.9
		V7.2l4.9-2.6v35.2C213.5,39.9,208.6,39.9,208.6,39.9z M208.6,22c-1.1-1.5-3.4-3.3-5.9-3.3c-3.6,0-5.5,2.7-5.5,8.1
		c0,6.4,2,9.2,5.7,9.2c2.4,0,4.4-1.6,5.7-3.2V22z"/>
	<path class="st10" d="M230.6,19.9c-1.1-0.6-2.2-0.9-3.8-0.9c-3.1,0-5,2.2-5,6.5V40h-5V14.6h5V17c1.2-1.7,3.3-2.9,5.8-2.9
		c2,0,3.3,0.4,4.3,1.1L230.6,19.9z"/>
	<path class="st10" d="M244.1,48.9h-5.3l3.7-9.4l-9.3-24.9h5.5l4.2,12.4c0.8,2.2,1.9,6,2.2,7.4c0.4-1.5,1.5-5.1,2.3-7.3l4.3-12.5
		h5.3L244.1,48.9z"/>
	<g>
		<path class="st10" d="M261.3,15.4v4.9h-0.9v-4.9h-1.7v-0.8h4.2v0.8H261.3z"/>
		<path class="st10" d="M268.4,20.3v-3c0-0.3,0-0.8,0-1c-0.1,0.2-0.2,0.6-0.4,0.9l-1.4,3.2l-1.4-3.2c-0.1-0.3-0.3-0.7-0.4-0.9
			c0,0.2,0,0.7,0,1v3H264v-5.7h0.9l1.3,3.1c0.1,0.3,0.3,0.7,0.4,1c0.1-0.2,0.2-0.6,0.4-1l1.3-3.1h0.9v5.7
			C269.2,20.3,268.4,20.3,268.4,20.3z"/>
	</g>
</g>
<g id="Isolation_Mode_2_">
	<g>
		<path class="st11" d="M88.6,56.3l-1.8,6.5h-1.1l-0.9-3.3c-0.1-0.5-0.3-1.1-0.3-1.4c-0.1,0.3-0.2,0.9-0.3,1.4l-0.9,3.3h-1.1
			l-1.8-6.5h1.3l0.8,3.2c0.1,0.5,0.3,1.1,0.3,1.4c0.1-0.3,0.2-0.9,0.4-1.4l0.9-3.2h1l0.9,3.2c0.1,0.5,0.3,1.1,0.3,1.4
			c0.1-0.3,0.2-0.9,0.3-1.4l0.8-3.2H88.6L88.6,56.3z"/>
		<path class="st11" d="M91.3,54.6c0,0.4-0.4,0.8-0.8,0.8c-0.5,0-0.8-0.4-0.8-0.8c0-0.5,0.4-0.8,0.8-0.8S91.3,54.1,91.3,54.6z
			 M91.1,62.8h-1.3v-6.5h1.3V62.8z"/>
		<path class="st11" d="M96,61.5l-0.1,1.1c-0.3,0.2-0.7,0.3-1.3,0.3c-0.9,0-1.5-0.6-1.5-1.7v-3.8h-0.9v-1.2h0.9v-1.9l1.3-0.7v2.5H96
			v1.2h-1.6v3.5c0,0.6,0.2,0.8,0.7,0.8C95.4,61.7,95.8,61.6,96,61.5z"/>
		<path class="st11" d="M102.7,62.8h-1.3v-3.7c0-1.3-0.5-1.8-1.3-1.8c-0.9,0-1.3,0.6-1.3,1.7v3.8h-1.3v-8.4l1.3-0.7v3.1
			c0.3-0.5,1-0.8,1.6-0.8c1.5,0,2.3,1,2.3,2.9L102.7,62.8L102.7,62.8z"/>
		<path class="st11" d="M114.7,62.8h-1.4l-0.7-2.1h-3.5l-0.7,2.1H107l3.1-8.7h1.4L114.7,62.8z M112.2,59.5l-0.7-2
			c-0.2-0.6-0.6-1.6-0.7-2c-0.1,0.4-0.4,1.4-0.6,2l-0.7,2H112.2z"/>
		<path class="st11" d="M120.5,57.2l-0.8,0.9c-0.5-0.5-1-0.8-1.6-0.8c-0.9,0-1.5,0.8-1.5,2.2c0,1.3,0.5,2.2,1.6,2.2
			c0.6,0,1-0.3,1.5-0.8l0.8,0.8c-0.5,0.6-1.2,1.2-2.3,1.2c-1.6,0-2.8-1.3-2.8-3.4c0-2.2,1.3-3.4,2.9-3.4
			C119.2,56.1,119.9,56.5,120.5,57.2z"/>
		<path class="st11" d="M125.2,61.5l-0.1,1.1c-0.3,0.2-0.7,0.3-1.3,0.3c-0.9,0-1.5-0.6-1.5-1.7v-3.8h-0.9v-1.2h0.9v-1.9l1.3-0.7v2.5
			h1.6v1.2h-1.6v3.5c0,0.6,0.2,0.8,0.7,0.8C124.6,61.7,124.9,61.6,125.2,61.5z"/>
		<path class="st11" d="M128.1,54.6c0,0.4-0.4,0.8-0.8,0.8c-0.5,0-0.8-0.4-0.8-0.8c0-0.5,0.4-0.8,0.8-0.8
			C127.8,53.8,128.1,54.1,128.1,54.6z M128,62.8h-1.3v-6.5h1.3V62.8z"/>
		<path class="st11" d="M135,56.3l-2.3,6.5h-1.3l-2.3-6.5h1.3l1.2,3.5c0.2,0.6,0.4,1.2,0.5,1.6c0.1-0.4,0.2-1,0.4-1.6l1.1-3.5H135z"
			/>
		<path class="st11" d="M141.1,59.4c0,0.2,0,0.4,0,0.6h-4.3c0.1,1.3,0.8,1.8,1.6,1.8c0.5,0,1-0.2,1.4-0.5l0.8,0.8
			c-0.6,0.5-1.3,0.9-2.2,0.9c-1.5,0-2.8-1.2-2.8-3.4s1.2-3.4,2.9-3.4C140.2,56.1,141.1,57.6,141.1,59.4z M139.8,58.9
			c-0.1-0.9-0.5-1.6-1.5-1.6c-0.9,0-1.4,0.6-1.5,1.6H139.8z"/>
		<path class="st11" d="M152.3,56.7c0,1.4-0.7,2.2-1.9,2.5l1.8,3.5h-1.5l-1.7-3.4h-2v3.4h-1.3V54h3.8
			C151,54.1,152.3,54.9,152.3,56.7z M151,56.7c0-0.9-0.6-1.4-1.5-1.4H147v2.8h2.5C150.4,58.1,151,57.7,151,56.7z"/>
		<path class="st11" d="M158.8,59.4c0,0.2,0,0.4,0,0.6h-4.3c0.1,1.3,0.8,1.8,1.6,1.8c0.5,0,1-0.2,1.4-0.5l0.8,0.8
			c-0.6,0.5-1.3,0.9-2.2,0.9c-1.5,0-2.8-1.2-2.8-3.4s1.2-3.4,2.9-3.4C157.9,56.1,158.8,57.6,158.8,59.4z M157.5,58.9
			c-0.1-0.9-0.5-1.6-1.5-1.6c-0.9,0-1.4,0.6-1.5,1.6H157.5z"/>
		<path class="st11" d="M164.6,61c0,1.4-1.2,1.9-2.4,1.9c-0.9,0-1.8-0.3-2.5-0.8l0.6-1c0.6,0.4,1.3,0.6,1.9,0.6
			c0.8,0,1.2-0.3,1.2-0.7c0-0.5-0.6-0.7-1.5-1.1c-1.4-0.5-1.9-1-1.9-2c0-1.2,0.9-1.8,2.2-1.8c0.8,0,1.6,0.3,2.2,0.7l-0.6,1
			c-0.5-0.4-1.1-0.6-1.7-0.6c-0.6,0-0.9,0.2-0.9,0.6c0,0.3,0.2,0.6,1.2,0.9C163.8,59.4,164.6,59.8,164.6,61z"/>
		<path class="st11" d="M171.4,59.6c0,2.2-1.2,3.3-2.6,3.3c-0.7,0-1.3-0.3-1.6-0.7v2.3l-1.3,0.7v-8.9h1.3v0.6c0.5-0.4,1-0.8,1.7-0.8
			C170.3,56.1,171.4,57.1,171.4,59.6z M170.1,59.7c0-1.6-0.5-2.4-1.5-2.4c-0.6,0-1.1,0.4-1.5,0.8v2.7c0.3,0.4,0.9,0.9,1.5,0.9
			C169.6,61.7,170.1,61,170.1,59.7z"/>
		<path class="st11" d="M178.2,59.5c0,2.2-1.3,3.4-2.9,3.4c-1.6,0-2.9-1.4-2.9-3.4c0-2.1,1.3-3.4,2.9-3.4
			C177,56.1,178.2,57.4,178.2,59.5z M176.9,59.5c0-1.3-0.6-2.2-1.7-2.2c-1,0-1.6,0.9-1.6,2.1c0,1.4,0.7,2.2,1.6,2.2
			C176.3,61.7,176.9,60.7,176.9,59.5z"/>
		<path class="st11" d="M184.8,62.8h-1.3v-3.7c0-1.3-0.5-1.8-1.3-1.8c-0.9,0-1.3,0.6-1.3,1.7v3.8h-1.3v-6.5h1.3v0.6
			c0.3-0.5,1-0.8,1.6-0.8c1.5,0,2.3,1,2.3,2.9V62.8L184.8,62.8z"/>
		<path class="st11" d="M190.9,61c0,1.4-1.2,1.9-2.4,1.9c-0.9,0-1.8-0.3-2.5-0.8l0.6-1c0.6,0.4,1.3,0.6,1.9,0.6
			c0.8,0,1.2-0.3,1.2-0.7c0-0.5-0.6-0.7-1.5-1.1c-1.4-0.5-1.9-1-1.9-2c0-1.2,0.9-1.8,2.2-1.8c0.8,0,1.6,0.3,2.2,0.7l-0.6,1
			c-0.5-0.4-1.1-0.6-1.7-0.6c-0.6,0-0.9,0.2-0.9,0.6c0,0.3,0.2,0.6,1.2,0.9C190.1,59.4,190.9,59.8,190.9,61z"/>
		<path class="st11" d="M197.4,59.4c0,0.2,0,0.4,0,0.6H193c0.1,1.3,0.8,1.8,1.6,1.8c0.5,0,1-0.2,1.4-0.5l0.8,0.8
			c-0.6,0.5-1.3,0.9-2.2,0.9c-1.5,0-2.8-1.2-2.8-3.4s1.2-3.4,2.9-3.4C196.5,56.1,197.4,57.6,197.4,59.4z M196.1,58.9
			c-0.1-0.9-0.5-1.6-1.5-1.6c-0.9,0-1.4,0.6-1.5,1.6H196.1z"/>
		<path class="st11" d="M207.8,55.4h-2.5v7.4H204v-7.4h-2.5v-1.3h6.4L207.8,55.4L207.8,55.4z"/>
		<path class="st11" d="M212.8,59.4c0,0.2,0,0.4,0,0.6h-4.3c0.1,1.3,0.8,1.8,1.6,1.8c0.5,0,1-0.2,1.4-0.5l0.8,0.8
			c-0.6,0.5-1.3,0.9-2.2,0.9c-1.5,0-2.8-1.2-2.8-3.4s1.2-3.4,2.9-3.4C211.9,56.1,212.8,57.6,212.8,59.4z M211.5,58.9
			c-0.1-0.9-0.5-1.6-1.5-1.6c-0.9,0-1.4,0.6-1.5,1.6H211.5z"/>
		<path class="st11" d="M219,57.2l-0.8,0.9c-0.5-0.5-1-0.8-1.6-0.8c-0.9,0-1.5,0.8-1.5,2.2c0,1.3,0.5,2.2,1.6,2.2
			c0.6,0,1-0.3,1.5-0.8l0.8,0.8c-0.5,0.6-1.2,1.2-2.3,1.2c-1.6,0-2.8-1.3-2.8-3.4c0-2.2,1.3-3.4,2.9-3.4
			C217.6,56.1,218.4,56.5,219,57.2z"/>
		<path class="st11" d="M225.6,62.8h-1.3v-3.7c0-1.3-0.5-1.8-1.3-1.8c-0.9,0-1.3,0.6-1.3,1.7v3.8h-1.3v-8.4l1.3-0.7v3.1
			c0.3-0.5,1-0.8,1.6-0.8c1.5,0,2.3,1,2.3,2.9V62.8L225.6,62.8z"/>
		<path class="st11" d="M232.4,62.8h-1.3v-3.7c0-1.3-0.5-1.8-1.3-1.8c-0.9,0-1.3,0.6-1.3,1.7v3.8h-1.3v-6.5h1.3v0.6
			c0.3-0.5,1-0.8,1.6-0.8c1.5,0,2.3,1,2.3,2.9V62.8L232.4,62.8z"/>
		<path class="st11" d="M239.4,59.5c0,2.2-1.3,3.4-2.9,3.4c-1.6,0-2.9-1.4-2.9-3.4c0-2.1,1.3-3.4,2.9-3.4
			C238.2,56.1,239.4,57.4,239.4,59.5z M238.1,59.5c0-1.3-0.6-2.2-1.7-2.2c-1,0-1.6,0.9-1.6,2.1c0,1.4,0.7,2.2,1.6,2.2
			C237.5,61.7,238.1,60.7,238.1,59.5z"/>
		<path class="st11" d="M242.1,62.8h-1.3v-8.4l1.3-0.7V62.8z"/>
		<path class="st11" d="M249.2,59.5c0,2.2-1.3,3.4-2.9,3.4c-1.6,0-2.9-1.4-2.9-3.4c0-2.1,1.3-3.4,2.9-3.4
			C248,56.1,249.2,57.4,249.2,59.5z M247.9,59.5c0-1.3-0.6-2.2-1.7-2.2c-1,0-1.6,0.9-1.6,2.1c0,1.4,0.7,2.2,1.6,2.2
			C247.3,61.7,247.9,60.7,247.9,59.5z"/>
		<path class="st11" d="M255.7,62.1c0,2-0.7,2.9-3.1,3l-0.4-1c1.8-0.1,2.2-0.6,2.2-1.9v-0.1c-0.5,0.4-1,0.8-1.7,0.8
			c-1.4,0-2.5-1-2.5-3.5c0-2.2,1.2-3.3,2.6-3.3c0.7,0,1.3,0.3,1.6,0.7v-0.6h1.3L255.7,62.1L255.7,62.1z M254.4,60.9v-2.7
			c-0.3-0.4-0.9-0.9-1.5-0.9c-0.9,0-1.4,0.7-1.4,2.1c0,1.6,0.5,2.4,1.5,2.4C253.6,61.7,254.1,61.3,254.4,60.9z"/>
		<path class="st11" d="M262.9,56.3l-3.3,8.8h-1.4l0.9-2.4l-2.4-6.4h1.4l1.1,3.2c0.2,0.6,0.5,1.5,0.6,1.9c0.1-0.4,0.4-1.3,0.6-1.9
			l1.1-3.2L262.9,56.3L262.9,56.3z"/>
		<path class="st11" d="M265.6,54.7h-1v2.8H264v-2.8h-1v-0.6h2.5L265.6,54.7L265.6,54.7z M267.7,57.6l-0.8-2c0-0.1-0.1-0.2-0.1-0.3
			c0,0.1,0,0.3,0,0.4v1.8h-0.6v-3.4h0.6l0.8,1.8c0.1,0.1,0.1,0.3,0.2,0.5c0.1-0.1,0.1-0.3,0.2-0.5l0.8-1.8h0.6v3.4h-0.6v-2.2
			c0,0.1-0.1,0.2-0.1,0.3L267.7,57.6z"/>
	</g>
</g>
</svg>
