<?xml version="1.0" encoding="utf-8"?>
<!-- Generator: Adobe Illustrator 23.0.1, SVG Export Plug-In . SVG Version: 6.00 Build 0)  -->
<svg version="1.1" xmlns="http://www.w3.org/2000/svg" xmlns:xlink="http://www.w3.org/1999/xlink" x="0px" y="0px"
	 viewBox="0 0 269.2057 67.8213" style="enable-background:new 0 0 269.2057 67.8213;" xml:space="preserve">
<style type="text/css">
	.st0{fill:#AF1F2D;}
	.st1{fill:url(#SVGID_1_);}
	.st2{fill:url(#SVGID_2_);}
	.st3{fill:url(#SVGID_3_);}
	.st4{fill:url(#SVGID_4_);}
	.st5{fill:url(#SVGID_5_);}
	.st6{fill:url(#SVGID_6_);}
	.st7{fill:url(#SVGID_7_);}
	.st8{fill:url(#SVGID_8_);}
	.st9{fill:none;}
	.st10{fill:#FFFFFF;}
	.st11{fill:#EE3A24;}
</style>
<g id="Layer_1">
</g>
<g id="Isolation_Mode">
	<g>
		<path class="st0" d="M65.1178,17.1601l-17.159-17.159L47.9576,0l-3.8251,0.0009H19.8644L19.8643,0.001l-2.7041,2.7041L0,19.8653
			v0.0012v28.0896l2.7064,2.7051l17.1592,17.1593l0.0009,0.0009h3.8245h24.2681l0.0008-0.0008l2.7043-2.7043l17.1601-17.1601
			v-3.8227V19.8659v-0.0006L65.1178,17.1601z M50.6643,40.8481l-9.8131,9.8131h-13.878l-9.8131-9.8131V26.9732l9.8131-9.8131h13.878
			l9.8131,9.8131V40.8481z"/>
		<linearGradient id="SVGID_1_" gradientUnits="userSpaceOnUse" x1="37.273" y1="-5.3603" x2="11.1153" y2="21.1393">
			<stop  offset="0.3" style="stop-color:#EE3A24"/>
			<stop  offset="1" style="stop-color:#AF1F2D"/>
		</linearGradient>
		<polygon class="st1" points="44.1325,0.0009 19.8644,0.0009 19.8643,0.001 17.1602,2.7051 17.1602,26.9732 		"/>
		<linearGradient id="SVGID_2_" gradientUnits="userSpaceOnUse" x1="64.8295" y1="8.5801" x2="27.3319" y2="8.5801">
			<stop  offset="0.3" style="stop-color:#EE3A24"/>
			<stop  offset="1" style="stop-color:#AF1F2D"/>
		</linearGradient>
		<polygon class="st2" points="47.9576,0 47.9587,0.0011 65.1178,17.1601 26.9732,17.1601 44.1325,0.0009 		"/>
		<linearGradient id="SVGID_3_" gradientUnits="userSpaceOnUse" x1="30.0918" y1="73.8307" x2="56.4205" y2="46.4762">
			<stop  offset="0.3" style="stop-color:#EE3A24"/>
			<stop  offset="1" style="stop-color:#AF1F2D"/>
		</linearGradient>
		<polygon class="st3" points="23.6911,67.8213 47.9592,67.8213 47.96,67.8205 50.6643,65.1162 50.6643,40.8481 		"/>
		<linearGradient id="SVGID_4_" gradientUnits="userSpaceOnUse" x1="59.2444" y1="64.8599" x2="59.2444" y2="26.5392">
			<stop  offset="0.3" style="stop-color:#EE3A24"/>
			<stop  offset="1" style="stop-color:#AF1F2D"/>
		</linearGradient>
		<polyline class="st4" points="50.6643,26.9732 50.6643,65.1162 67.8244,47.9561 67.8244,44.1334 50.6643,26.9732 		"/>
		<linearGradient id="SVGID_5_" gradientUnits="userSpaceOnUse" x1="73.909" y1="37.8537" x2="46.3836" y2="11.1831">
			<stop  offset="0.3" style="stop-color:#EE3A24"/>
			<stop  offset="1" style="stop-color:#AF1F2D"/>
		</linearGradient>
		<polygon class="st5" points="67.8244,44.1334 67.8244,19.8659 67.8244,19.8653 65.1178,17.1601 40.8512,17.1601 		"/>
		<linearGradient id="SVGID_6_" gradientUnits="userSpaceOnUse" x1="2.94" y1="59.2413" x2="40.6246" y2="59.2413">
			<stop  offset="0.3" style="stop-color:#EE3A24"/>
			<stop  offset="1" style="stop-color:#AF1F2D"/>
		</linearGradient>
		<polygon class="st6" points="2.7064,50.6612 19.8657,67.8204 19.8666,67.8213 23.6911,67.8213 40.8512,50.6612 		"/>
		<linearGradient id="SVGID_7_" gradientUnits="userSpaceOnUse" x1="-6.0709" y1="29.7975" x2="20.9417" y2="56.6391">
			<stop  offset="0.3" style="stop-color:#EE3A24"/>
			<stop  offset="1" style="stop-color:#AF1F2D"/>
		</linearGradient>
		<polygon class="st7" points="0,23.688 0,47.9561 0.0013,47.9574 2.7064,50.6612 26.9732,50.6612 		"/>
		<linearGradient id="SVGID_8_" gradientUnits="userSpaceOnUse" x1="8.5801" y1="2.6284" x2="8.5801" y2="41.0991">
			<stop  offset="0.3" style="stop-color:#EE3A24"/>
			<stop  offset="1" style="stop-color:#AF1F2D"/>
		</linearGradient>
		<polygon class="st8" points="17.1602,40.8481 0,23.688 0,19.8665 0,19.8653 17.1602,2.7051 		"/>
		<g>
			<polygon class="st9" points="40.8512,50.6612 50.6643,40.8481 50.6643,26.9732 40.8512,17.1601 26.9732,17.1601 17.1602,26.9732 
				17.1602,40.8481 0,23.6879 26.9732,50.6612 			"/>
		</g>
		<g>
			<path class="st10" d="M89.9607,51.0221H80.735V17.2117h9.2257c9.0804,0,16.4713,4.9741,16.4713,16.9052
				C106.432,46.047,98.7996,51.0221,89.9607,51.0221z M89.9607,22.1386h-4.1534v23.9565h4.1534
				c8.0182,0,11.3029-4.8779,11.3029-11.9783S97.9789,22.1386,89.9607,22.1386z"/>
			<path class="st10" d="M130.1284,40.106h-16.76c0.5311,4.8779,3.2846,6.9551,6.3759,6.9551c2.1253,0,3.8157-0.7726,5.5062-2.0281
				l2.946,3.1875c-2.2215,2.1253-4.8779,3.3327-8.7427,3.3327c-5.941,0-10.9642-4.7817-10.9642-13.1857
				c0-8.5974,4.5402-13.2348,11.1095-13.2348c7.1966,0,10.6746,5.8448,10.6746,12.7027
				C130.2737,38.7542,130.1774,39.5749,130.1284,40.106z M119.2614,29.6248c-3.3327,0-5.3618,2.3187-5.7967,6.3759h11.7858
				C125.009,32.5227,123.3667,29.6248,119.2614,29.6248z"/>
			<path class="st10" d="M141.9216,20.3029c-1.6423,0-2.3187,0.6283-2.3187,2.463v2.8988h4.6855v4.6364h-4.6855v20.721h-4.9741
				v-20.721h-3.2846v-4.6364h3.2846V22.331c0-4.6364,2.8498-6.375,6.424-6.375c1.3037,0,2.7045,0.1924,3.7667,0.483v4.3468
				C143.6611,20.4482,142.7913,20.3029,141.9216,20.3029z"/>
			<path class="st10" d="M166.684,40.106h-16.76c0.5311,4.8779,3.2847,6.9551,6.3759,6.9551c2.1253,0,3.8157-0.7726,5.5062-2.0281
				l2.946,3.1875c-2.2215,2.1253-4.8779,3.3327-8.7427,3.3327c-5.941,0-10.9642-4.7817-10.9642-13.1857
				c0-8.5974,4.5402-13.2348,11.1095-13.2348c7.1966,0,10.6746,5.8448,10.6746,12.7027
				C166.8293,38.7542,166.733,39.5749,166.684,40.106z M155.8169,29.6248c-3.3327,0-5.3618,2.3187-5.7967,6.3759h11.7858
				C161.5646,32.5227,159.9223,29.6248,155.8169,29.6248z"/>
			<path class="st10" d="M184.4449,51.0221V36.6771c0-5.1203-1.9319-6.956-5.2166-6.956c-3.3327,0-5.2166,2.3677-5.2166,6.4731
				v14.828h-4.9751V25.6647h4.9751v2.4149c1.2565-1.8357,3.7676-2.9469,6.3759-2.9469c5.8929,0,9.0323,3.8638,9.0323,11.351v14.5384
				H184.4449z"/>
			<path class="st10" d="M208.5503,51.0221v-2.4149c-1.8357,1.6904-3.961,2.946-6.6174,2.946
				c-5.4581,0-9.7568-3.9601-9.7568-13.6206c0-8.6946,4.7336-12.7999,9.9982-12.7999c2.5602,0,4.9751,1.3527,6.3759,2.8979V18.371
				l4.926-2.5602v35.2113H208.5503z M208.5984,33.0547c-1.1112-1.498-3.4299-3.3337-5.941-3.3337
				c-3.5742,0-5.5062,2.7054-5.5062,8.0673c0,6.375,2.0281,9.1766,5.6995,9.1766c2.3668,0,4.443-1.5942,5.7477-3.2356V33.0547z"/>
			<path class="st10" d="M230.6099,30.9285c-1.0622-0.5792-2.1734-0.9169-3.8157-0.9169c-3.1394,0-4.9751,2.2215-4.9751,6.5202
				v14.4903h-4.9751V25.6647h4.9751v2.4149c1.1593-1.6904,3.2846-2.9469,5.7967-2.9469c2.0281,0,3.2846,0.3868,4.2987,1.0622
				L230.6099,30.9285z"/>
			<path class="st10" d="M244.15,59.9582h-5.2656l3.6714-9.419l-9.3219-24.8744h5.4581l4.1534,12.4122
				c0.7726,2.2225,1.9319,5.9901,2.2215,7.39c0.4349-1.4961,1.498-5.1194,2.2706-7.2928l4.2987-12.5094h5.2647L244.15,59.9582z"/>
			<g>
				<path class="st10" d="M261.2716,26.5108v4.8913h-0.8599v-4.8913h-1.6718v-0.8439h4.2036v0.8439H261.2716z"/>
				<path class="st10" d="M268.3618,31.4022v-3.0314c0-0.3442,0.008-0.8439,0.016-1.008c-0.0654,0.1641-0.2295,0.5737-0.3682,0.9013
					l-1.393,3.2282l-1.3763-3.2282c-0.1394-0.3276-0.3036-0.7372-0.3689-0.9013c0.008,0.1641,0.016,0.6638,0.016,1.008v3.0314
					h-0.8106v-5.7353h0.8846l1.2862,3.0561c0.1394,0.3276,0.3195,0.7458,0.3936,0.9833c0.0814-0.2375,0.2455-0.6471,0.3849-0.9833
					l1.2615-3.0561h0.918v5.7353H268.3618z"/>
			</g>
		</g>
		<g>
			<path class="st11" d="M87.2715,58.7751l-1.4275,5.1329h-0.8604l-0.6939-2.5909c-0.1075-0.391-0.2153-0.8505-0.2641-1.0948
				c-0.0488,0.2443-0.1563,0.7137-0.2641,1.1047l-0.684,2.581h-0.8604l-1.408-5.1329h0.9972l0.6063,2.4933
				c0.0976,0.391,0.2054,0.8799,0.2542,1.1242c0.0587-0.2542,0.176-0.7233,0.2835-1.1242l0.6844-2.4933h0.8113l0.6943,2.5028
				c0.1075,0.4009,0.2149,0.8604,0.2736,1.1146c0.0587-0.2542,0.1566-0.7332,0.2542-1.1242l0.6063-2.4933H87.2715z"/>
			<path class="st11" d="M89.3911,57.4654c0,0.3517-0.2934,0.6452-0.6455,0.6452c-0.3616,0-0.6551-0.2934-0.6551-0.6452
				c0-0.362,0.2934-0.655,0.6551-0.655C89.0977,56.8103,89.3911,57.1034,89.3911,57.4654z M89.2444,63.908h-1.0071v-5.1329h1.0071
				V63.908z"/>
			<path class="st11" d="M93.1344,62.8913l-0.117,0.8894c-0.2446,0.1372-0.5868,0.2347-0.9877,0.2347
				c-0.7137,0-1.1535-0.4398-1.1535-1.3589v-2.9624h-0.7332v-0.9191h0.7332v-1.4664l0.9873-0.5278v1.9941h1.2709v0.9191h-1.2709
				v2.7863c0,0.479,0.1566,0.6162,0.5281,0.6162C92.6554,63.0967,92.9488,62.9988,93.1344,62.8913z"/>
			<path class="st11" d="M98.413,63.908h-1.0071v-2.9037c0-1.0361-0.391-1.4077-1.0559-1.4077c-0.6745,0-1.0559,0.479-1.0559,1.3101
				v3.0013h-1.0068v-6.5993l1.0068-0.5278v2.483c0.2545-0.3715,0.7629-0.5964,1.2907-0.5964c1.1927,0,1.8283,0.7823,1.8283,2.2974
				V63.908z"/>
			<path class="st11" d="M107.8255,63.908h-1.0948l-0.5769-1.623h-2.7376l-0.567,1.623h-1.0655l2.4636-6.8436h1.0853
				L107.8255,63.908z M105.8409,61.366l-0.5476-1.5738c-0.1661-0.4889-0.4398-1.2808-0.5179-1.5742
				c-0.0785,0.2934-0.3228,1.0754-0.4988,1.5837l-0.5476,1.5643H105.8409z"/>
			<path class="st11" d="M112.4575,59.538l-0.5964,0.7137c-0.4203-0.4302-0.7919-0.6257-1.2514-0.6257
				c-0.7332,0-1.2023,0.655-1.2023,1.7011c0,1.0068,0.4302,1.7304,1.2316,1.7304c0.4794,0,0.7629-0.2153,1.1637-0.6356
				l0.6451,0.6356c-0.4009,0.5083-0.9092,0.958-1.8382,0.958c-1.2514,0-2.2193-1.0559-2.2193-2.6591
				c0-1.7011,0.9972-2.6888,2.2487-2.6888C111.3921,58.6676,111.9785,58.9709,112.4575,59.538z"/>
			<path class="st11" d="M116.093,62.8913l-0.117,0.8894c-0.2446,0.1372-0.5868,0.2347-0.9877,0.2347
				c-0.7137,0-1.1535-0.4398-1.1535-1.3589v-2.9624h-0.7332v-0.9191h0.7332v-1.4664l0.9874-0.5278v1.9941h1.2709v0.9191h-1.2709
				v2.7863c0,0.479,0.1566,0.6162,0.5281,0.6162C115.614,63.0967,115.9074,62.9988,116.093,62.8913z"/>
			<path class="st11" d="M118.4484,57.4654c0,0.3517-0.2934,0.6452-0.6455,0.6452c-0.3616,0-0.6551-0.2934-0.6551-0.6452
				c0-0.362,0.2934-0.655,0.6551-0.655C118.155,56.8103,118.4484,57.1034,118.4484,57.4654z M118.3017,63.908h-1.0071v-5.1329
				h1.0071V63.908z"/>
			<path class="st11" d="M123.8543,58.7751l-1.8085,5.1329h-1.0071l-1.8379-5.1329h1.0559l0.9188,2.7867
				c0.1662,0.4984,0.3129,0.9774,0.3814,1.261c0.0587-0.2835,0.1955-0.7625,0.3517-1.261l0.8799-2.7867H123.8543z"/>
			<path class="st11" d="M128.6917,61.239c0,0.1856-0.0194,0.3517-0.0293,0.4596h-3.3923c0.1075,0.9873,0.6646,1.4077,1.2903,1.4077
				c0.4302,0,0.7724-0.1562,1.1146-0.4104l0.5964,0.6452c-0.4497,0.4302-0.9874,0.6745-1.7697,0.6745
				c-1.2023,0-2.2193-0.9679-2.2193-2.669c0-1.7403,0.9191-2.6789,2.2487-2.6789C127.9878,58.6676,128.6917,59.8508,128.6917,61.239
				z M127.675,60.8675c-0.0488-0.7038-0.3811-1.2907-1.2122-1.2907c-0.6745,0-1.0853,0.4695-1.1733,1.2907H127.675z"/>
			<path class="st11" d="M137.4989,59.1078c0,1.0948-0.5769,1.7697-1.5063,2.004l1.3988,2.7962h-1.1832l-1.3596-2.7082h-1.5445
				v2.7082h-1.0068v-6.8436h3.0016C136.4922,57.0645,137.4989,57.6997,137.4989,59.1078z M136.4625,59.1371
				c0-0.7137-0.4698-1.1047-1.1634-1.1047h-1.9948v2.1995h1.9948C135.9835,60.2319,136.4625,59.8802,136.4625,59.1371z"/>
			<path class="st11" d="M142.6396,61.239c0,0.1856-0.0198,0.3517-0.0297,0.4596h-3.3923c0.1075,0.9873,0.6646,1.4077,1.2903,1.4077
				c0.4306,0,0.7728-0.1562,1.115-0.4104l0.596,0.6452c-0.4497,0.4302-0.9877,0.6745-1.7697,0.6745
				c-1.2026,0-2.2193-0.9679-2.2193-2.669c0-1.7403,0.9191-2.6789,2.249-2.6789C141.9355,58.6676,142.6396,59.8508,142.6396,61.239z
				 M141.623,60.8675c-0.0495-0.7038-0.3818-1.2907-1.2125-1.2907c-0.6745,0-1.0853,0.4695-1.1729,1.2907H141.623z"/>
			<path class="st11" d="M147.1646,62.5c0,1.1344-0.9191,1.5155-1.9259,1.5155c-0.6943,0-1.4473-0.2736-1.9655-0.655l0.4596-0.7625
				c0.4794,0.3323,1.0167,0.5083,1.496,0.5083c0.6356,0,0.9382-0.2054,0.9382-0.567c0-0.391-0.4497-0.5769-1.1927-0.8604
				c-1.1044-0.4302-1.5052-0.8014-1.5052-1.6131c0-0.9191,0.7233-1.3981,1.7499-1.3981c0.6455,0,1.2811,0.2347,1.74,0.567
				l-0.4398,0.7724c-0.42-0.2934-0.8406-0.4398-1.3292-0.4398c-0.4893,0-0.7042,0.1955-0.7042,0.4691
				c0,0.2542,0.176,0.4401,0.9481,0.7431C146.5777,61.2196,147.1646,61.5325,147.1646,62.5z"/>
			<path class="st11" d="M152.5499,61.4246c0,1.7598-0.958,2.5909-2.0235,2.5909c-0.5182,0-1.0075-0.2736-1.291-0.5865v1.8478
				l-0.9969,0.5182v-7.02h0.9969v0.4889c0.3719-0.3422,0.8018-0.5964,1.3398-0.5964
				C151.6796,58.6676,152.5499,59.4694,152.5499,61.4246z M151.5431,61.454c0-1.2903-0.4108-1.8573-1.1539-1.8573
				c-0.4786,0-0.8993,0.3224-1.163,0.655v2.1606c0.2248,0.303,0.6936,0.6745,1.2019,0.6745
				C151.1521,63.0868,151.5431,62.5392,151.5431,61.454z"/>
			<path class="st11" d="M157.926,61.3172c0,1.7011-0.9976,2.6983-2.3169,2.6983c-1.291,0-2.2589-1.0655-2.2589-2.669
				c0-1.6816,0.9976-2.6789,2.2879-2.6789C156.9482,58.6676,157.926,59.7137,157.926,61.3172z M156.9093,61.3465
				c0-1.046-0.4991-1.7205-1.3101-1.7205c-0.7629,0-1.2323,0.6745-1.2323,1.6912c0,1.1245,0.5182,1.7403,1.2811,1.7403
				C156.4102,63.0575,156.9093,62.2851,156.9093,61.3465z"/>
			<path class="st11" d="M163.0766,63.908h-1.0068v-2.9037c0-1.0361-0.391-1.4077-1.0556-1.4077
				c-0.6745,0-1.0563,0.479-1.0563,1.3101v3.0013h-1.0068v-5.1329h1.0068v0.4889c0.2545-0.3715,0.7629-0.5964,1.291-0.5964
				c1.1927,0,1.8276,0.7823,1.8276,2.2974V63.908z"/>
			<path class="st11" d="M167.8956,62.5c0,1.1344-0.9191,1.5155-1.9259,1.5155c-0.6943,0-1.4473-0.2736-1.9655-0.655l0.4595-0.7625
				c0.4794,0.3323,1.0167,0.5083,1.496,0.5083c0.6356,0,0.9382-0.2054,0.9382-0.567c0-0.391-0.4497-0.5769-1.1927-0.8604
				c-1.1044-0.4302-1.5052-0.8014-1.5052-1.6131c0-0.9191,0.7233-1.3981,1.7499-1.3981c0.6455,0,1.2811,0.2347,1.74,0.567
				l-0.4398,0.7724c-0.42-0.2934-0.8406-0.4398-1.3292-0.4398c-0.4893,0-0.7042,0.1955-0.7042,0.4691
				c0,0.2542,0.1761,0.4401,0.9481,0.7431C167.3088,61.2196,167.8956,61.5325,167.8956,62.5z"/>
			<path class="st11" d="M173.0371,61.239c0,0.1856-0.0198,0.3517-0.0297,0.4596h-3.3923c0.1075,0.9873,0.6646,1.4077,1.2903,1.4077
				c0.4306,0,0.7728-0.1562,1.115-0.4104l0.596,0.6452c-0.4497,0.4302-0.9877,0.6745-1.7697,0.6745
				c-1.2026,0-2.2193-0.9679-2.2193-2.669c0-1.7403,0.9191-2.6789,2.249-2.6789C172.3329,58.6676,173.0371,59.8508,173.0371,61.239z
				 M172.0204,60.8675c-0.0495-0.7038-0.3818-1.2907-1.2125-1.2907c-0.6745,0-1.0853,0.4695-1.1729,1.2907H172.0204z"/>
			<path class="st11" d="M181.2264,58.0713h-1.9945v5.8368h-1.0266v-5.8368h-1.9945v-1.0068h5.0156V58.0713z"/>
			<path class="st11" d="M185.2041,61.239c0,0.1856-0.0198,0.3517-0.0297,0.4596h-3.3923c0.1075,0.9873,0.6646,1.4077,1.2903,1.4077
				c0.4306,0,0.7728-0.1562,1.115-0.4104l0.596,0.6452c-0.4497,0.4302-0.9877,0.6745-1.7697,0.6745
				c-1.2026,0-2.2193-0.9679-2.2193-2.669c0-1.7403,0.9191-2.6789,2.249-2.6789C184.4999,58.6676,185.2041,59.8508,185.2041,61.239z
				 M184.1874,60.8675c-0.0495-0.7038-0.3818-1.2907-1.2125-1.2907c-0.6745,0-1.0853,0.4695-1.1729,1.2907H184.1874z"/>
			<path class="st11" d="M190.0613,59.538l-0.5967,0.7137c-0.42-0.4302-0.7919-0.6257-1.2514-0.6257
				c-0.7332,0-1.2026,0.655-1.2026,1.7011c0,1.0068,0.4306,1.7304,1.2323,1.7304c0.4787,0,0.7622-0.2153,1.163-0.6356l0.6455,0.6356
				c-0.4009,0.5083-0.9092,0.958-1.8382,0.958c-1.2514,0-2.2193-1.0559-2.2193-2.6591c0-1.7011,0.9976-2.6888,2.249-2.6888
				C188.9951,58.6676,189.5819,58.9709,190.0613,59.538z"/>
			<path class="st11" d="M195.2508,63.908h-1.0068v-2.9037c0-1.0361-0.391-1.4077-1.0556-1.4077
				c-0.6745,0-1.0563,0.479-1.0563,1.3101v3.0013h-1.0068v-6.5993l1.0068-0.5278v2.483c0.2545-0.3715,0.7629-0.5964,1.291-0.5964
				c1.1927,0,1.8276,0.7823,1.8276,2.2974V63.908z"/>
			<path class="st11" d="M200.6071,63.908h-1.0068v-2.9037c0-1.0361-0.391-1.4077-1.0556-1.4077
				c-0.6745,0-1.0563,0.479-1.0563,1.3101v3.0013h-1.0068v-5.1329h1.0068v0.4889c0.2545-0.3715,0.7629-0.5964,1.291-0.5964
				c1.1927,0,1.8276,0.7823,1.8276,2.2974V63.908z"/>
			<path class="st11" d="M206.1692,61.3172c0,1.7011-0.9976,2.6983-2.3169,2.6983c-1.291,0-2.2589-1.0655-2.2589-2.669
				c0-1.6816,0.9976-2.6789,2.2879-2.6789C205.1914,58.6676,206.1692,59.7137,206.1692,61.3172z M205.1525,61.3465
				c0-1.046-0.4992-1.7205-1.3101-1.7205c-0.7629,0-1.2323,0.6745-1.2323,1.6912c0,1.1245,0.5182,1.7403,1.2811,1.7403
				C204.6534,63.0575,205.1525,62.2851,205.1525,61.3465z"/>
			<path class="st11" d="M208.25,63.908h-1.0068v-6.5993l1.0068-0.5278V63.908z"/>
			<path class="st11" d="M213.8997,61.3172c0,1.7011-0.9976,2.6983-2.3169,2.6983c-1.291,0-2.2589-1.0655-2.2589-2.669
				c0-1.6816,0.9976-2.6789,2.2879-2.6789C212.9219,58.6676,213.8997,59.7137,213.8997,61.3172z M212.883,61.3465
				c0-1.046-0.4991-1.7205-1.3101-1.7205c-0.7629,0-1.2323,0.6745-1.2323,1.6912c0,1.1245,0.5182,1.7403,1.2811,1.7403
				C212.3839,63.0575,212.883,62.2851,212.883,61.3465z"/>
			<path class="st11" d="M219.0114,63.4191c0,1.5643-0.567,2.3172-2.4244,2.3759l-0.3422-0.7629
				c1.4465-0.0682,1.7598-0.4592,1.7598-1.525v-0.088c-0.3719,0.3422-0.7919,0.5964-1.3299,0.5964
				c-1.0952,0-1.9747-0.8018-1.9747-2.757c0-1.7598,0.9679-2.5909,2.0235-2.5909c0.5182,0,1.0075,0.274,1.2811,0.5868v-0.4794
				h1.0068V63.4191z M218.0237,62.4318v-2.1606c-0.2248-0.303-0.6936-0.6745-1.2019-0.6745c-0.724,0-1.115,0.5472-1.115,1.6325
				c0,1.2907,0.4108,1.8577,1.1539,1.8577C217.3394,63.0868,217.76,62.7641,218.0237,62.4318z"/>
			<path class="st11" d="M224.6513,58.7751l-2.5813,6.9415h-1.0655l0.7431-1.9065l-1.887-5.035h1.1051l0.8406,2.5127
				c0.147,0.4497,0.391,1.2122,0.4497,1.496c0.0884-0.3033,0.3033-1.0365,0.4596-1.4766l0.8703-2.5322H224.6513z"/>
			<path class="st11" d="M226.8467,57.5279h-0.7619v2.2312h-0.4553v-2.2312h-0.7619v-0.4491h1.979V57.5279z M228.4792,59.8409
				l-0.653-1.5374c-0.0341-0.0885-0.0748-0.1836-0.1088-0.2584c0.0066,0.0951,0.0066,0.2106,0.0066,0.2991v1.4149h-0.4353v-2.6802
				h0.4561l0.6057,1.3879c0.0474,0.1155,0.1014,0.2654,0.1429,0.3672c0.0407-0.1088,0.0881-0.2447,0.1421-0.3672l0.5924-1.3879
				h0.4619v2.6802h-0.4353v-1.721c-0.0332,0.0818-0.0673,0.177-0.108,0.2654L228.4792,59.8409z"/>
		</g>
	</g>
</g>
</svg>
