<?xml version="1.0" encoding="utf-8"?>
<!-- Generator: Adobe Illustrator 23.0.1, SVG Export Plug-In . SVG Version: 6.00 Build 0)  -->
<svg version="1.1" id="Isolation_Mode" xmlns="http://www.w3.org/2000/svg" xmlns:xlink="http://www.w3.org/1999/xlink" x="0px"
	 y="0px" viewBox="0 0 606.3 152.8" style="enable-background:new 0 0 606.3 152.8;" xml:space="preserve">
<style type="text/css">
	.st0{fill:#AF1E2D;}
	.st1{fill:#FFFFFF;}
	.st2{fill:url(#SVGID_1_);}
	.st3{fill:url(#SVGID_2_);}
	.st4{fill:url(#SVGID_3_);}
	.st5{fill:url(#SVGID_4_);}
	.st6{fill:url(#SVGID_5_);}
	.st7{fill:url(#SVGID_6_);}
	.st8{fill:url(#SVGID_7_);}
	.st9{fill:url(#SVGID_8_);}
	.st10{fill:none;}
</style>
<path class="st0" d="M146.7,38.7L108,0l0,0h-8.6H44.7l0,0l-6.1,6.1L0,44.7l0,0V108l6.1,6.1l38.6,38.6l0,0h8.6H108l0,0l6.1-6.1
	l38.7-38.7v-8.6V44.7l0,0L146.7,38.7z M114.1,92L92,114.1H60.8L38.7,92V60.8l22.1-22.1H92l22.1,22.1V92z"/>
<path class="st1" d="M202.6,114.9h-20.8V38.8h20.8c20.5,0,37.1,11.2,37.1,38.1C239.7,103.7,222.5,114.9,202.6,114.9z M202.6,49.9
	h-9.4v54h9.4c18.1,0,25.5-11,25.5-27S220.7,49.9,202.6,49.9z"/>
<path class="st1" d="M293.1,90.3h-37.7c1.2,11,7.4,15.7,14.4,15.7c4.8,0,8.6-1.7,12.4-4.6l6.6,7.2c-5,4.8-11,7.5-19.7,7.5
	c-13.4,0-24.7-10.8-24.7-29.7c0-19.4,10.2-29.8,25-29.8c16.2,0,24,13.2,24,28.6C293.4,87.3,293.2,89.1,293.1,90.3z M268.6,66.7
	c-7.5,0-12.1,5.2-13.1,14.4H282C281.6,73.3,277.9,66.7,268.6,66.7z"/>
<path class="st1" d="M319.7,45.7c-3.7,0-5.2,1.4-5.2,5.5v6.5H325v10.4h-10.6v46.7h-11.2V68.2h-7.4V57.8h7.4v-7.5
	c0-10.4,6.4-14.4,14.5-14.4c2.9,0,6.1,0.4,8.5,1.1v9.8C323.6,46.1,321.6,45.7,319.7,45.7z"/>
<path class="st1" d="M375.4,90.3h-37.7c1.2,11,7.4,15.7,14.4,15.7c4.8,0,8.6-1.7,12.4-4.6l6.6,7.2c-5,4.8-11,7.5-19.7,7.5
	c-13.4,0-24.7-10.8-24.7-29.7c0-19.4,10.2-29.8,25-29.8c16.2,0,24,13.2,24,28.6C375.8,87.3,375.5,89.1,375.4,90.3z M351,66.7
	c-7.5,0-12.1,5.2-13.1,14.4h26.5C363.9,73.3,360.2,66.7,351,66.7z"/>
<path class="st1" d="M415.4,114.9V82.6c0-11.5-4.4-15.7-11.7-15.7c-7.5,0-11.7,5.3-11.7,14.6v33.4h-11.2V57.8H392v5.4
	c2.8-4.1,8.5-6.6,14.4-6.6c13.3,0,20.3,8.7,20.3,25.6v32.7C426.7,114.9,415.4,114.9,415.4,114.9z"/>
<path class="st1" d="M469.7,114.9v-5.4c-4.1,3.8-8.9,6.6-14.9,6.6c-12.3,0-22-8.9-22-30.7c0-19.6,10.7-28.8,22.5-28.8
	c5.8,0,11.2,3,14.4,6.5V41.4l11.1-5.8v79.3C480.8,114.9,469.7,114.9,469.7,114.9z M469.8,74.5c-2.5-3.4-7.7-7.5-13.4-7.5
	c-8.1,0-12.4,6.1-12.4,18.2c0,14.4,4.6,20.7,12.8,20.7c5.3,0,10-3.6,12.9-7.3V74.5H469.8z"/>
<path class="st1" d="M519.4,69.7c-2.4-1.3-4.9-2.1-8.6-2.1c-7.1,0-11.2,5-11.2,14.7v32.6h-11.2V57.8h11.2v5.4
	c2.6-3.8,7.4-6.6,13.1-6.6c4.6,0,7.4,0.9,9.7,2.4L519.4,69.7z"/>
<path class="st1" d="M549.9,135H538l8.3-21.2l-21-56h12.3l9.4,28c1.7,5,4.4,13.5,5,16.6c1-3.4,3.4-11.5,5.1-16.4l9.7-28.2h11.9
	L549.9,135z"/>
<linearGradient id="SVGID_1_" gradientUnits="userSpaceOnUse" x1="83.9594" y1="166.065" x2="25.0436" y2="106.3791" gradientTransform="matrix(1 0 0 -1 0 154)">
	<stop  offset="0.3" style="stop-color:#EF371D"/>
	<stop  offset="1" style="stop-color:#AF1E2D"/>
</linearGradient>
<polygon class="st2" points="99.4,0 44.7,0 44.7,0 38.7,6.1 38.7,60.8 "/>
<linearGradient id="SVGID_2_" gradientUnits="userSpaceOnUse" x1="146.0173" y1="134.65" x2="61.5603" y2="134.65" gradientTransform="matrix(1 0 0 -1 0 154)">
	<stop  offset="0.3" style="stop-color:#EF371D"/>
	<stop  offset="1" style="stop-color:#AF1E2D"/>
</linearGradient>
<polygon class="st3" points="108,0 108,0 146.7,38.7 60.8,38.7 99.4,0 "/>
<linearGradient id="SVGID_3_" gradientUnits="userSpaceOnUse" x1="67.804" y1="-12.3173" x2="127.1048" y2="49.294" gradientTransform="matrix(1 0 0 -1 0 154)">
	<stop  offset="0.3" style="stop-color:#EF371D"/>
	<stop  offset="1" style="stop-color:#AF1E2D"/>
</linearGradient>
<polygon class="st4" points="53.4,152.8 108,152.8 108,152.8 114.1,146.7 114.1,92 "/>
<linearGradient id="SVGID_4_" gradientUnits="userSpaceOnUse" x1="133.45" y1="7.9142" x2="133.45" y2="94.225" gradientTransform="matrix(1 0 0 -1 0 154)">
	<stop  offset="0.3" style="stop-color:#EF371D"/>
	<stop  offset="1" style="stop-color:#AF1E2D"/>
</linearGradient>
<polyline class="st5" points="114.1,60.8 114.1,146.7 152.8,108 152.8,99.4 114.1,60.8 "/>
<linearGradient id="SVGID_5_" gradientUnits="userSpaceOnUse" x1="166.4906" y1="68.7293" x2="104.4942" y2="128.8003" gradientTransform="matrix(1 0 0 -1 0 154)">
	<stop  offset="0.3" style="stop-color:#EF371D"/>
	<stop  offset="1" style="stop-color:#AF1E2D"/>
</linearGradient>
<polygon class="st6" points="152.8,99.4 152.8,44.7 152.8,44.7 146.7,38.7 92,38.7 "/>
<linearGradient id="SVGID_6_" gradientUnits="userSpaceOnUse" x1="6.6218" y1="20.55" x2="91.4999" y2="20.55" gradientTransform="matrix(1 0 0 -1 0 154)">
	<stop  offset="0.3" style="stop-color:#EF371D"/>
	<stop  offset="1" style="stop-color:#AF1E2D"/>
</linearGradient>
<polygon class="st7" points="6.1,114.1 44.7,152.8 44.7,152.8 53.4,152.8 92,114.1 "/>
<linearGradient id="SVGID_7_" gradientUnits="userSpaceOnUse" x1="-13.6594" y1="86.8536" x2="47.1818" y2="26.3975" gradientTransform="matrix(1 0 0 -1 0 154)">
	<stop  offset="0.3" style="stop-color:#EF371D"/>
	<stop  offset="1" style="stop-color:#AF1E2D"/>
</linearGradient>
<polygon class="st8" points="0,53.4 0,108 0,108 6.1,114.1 60.8,114.1 "/>
<linearGradient id="SVGID_8_" gradientUnits="userSpaceOnUse" x1="19.35" y1="148.0799" x2="19.35" y2="61.4313" gradientTransform="matrix(1 0 0 -1 0 154)">
	<stop  offset="0.3" style="stop-color:#EF371D"/>
	<stop  offset="1" style="stop-color:#AF1E2D"/>
</linearGradient>
<polygon class="st9" points="38.7,92 0,53.4 0,44.7 0,44.7 38.7,6.1 "/>
<g>
	<polygon class="st10" points="92,114.1 114.1,92 114.1,60.8 92,38.7 60.8,38.7 38.7,60.8 38.7,92 0,53.4 60.8,114.1 	"/>
</g>
<g>
	<path class="st1" d="M588.5,59.7v11h-1.9v-11h-3.8v-1.9h9.5v1.9C592.3,59.7,588.5,59.7,588.5,59.7z"/>
	<path class="st1" d="M604.4,70.7v-6.8c0-0.8,0-1.9,0-2.3c-0.1,0.4-0.5,1.3-0.8,2l-3.1,7.3l-3.1-7.3c-0.3-0.7-0.7-1.7-0.8-2
		c0,0.4,0,1.5,0,2.3v6.8h-1.8V57.8h2l2.9,6.9c0.3,0.7,0.7,1.7,0.9,2.2c0.2-0.5,0.6-1.5,0.9-2.2l2.8-6.9h2.1v12.9H604.4z"/>
</g>
</svg>
