<svg xmlns="http://www.w3.org/2000/svg" xmlns:xlink="http://www.w3.org/1999/xlink" width="284.4" height="90.6" viewBox="0 0 284.4 90.6">
  <defs>
    <linearGradient id="linear-gradient" x1="0.746" y1="52.024" x2="-0.226" y2="53.005" gradientUnits="objectBoundingBox">
      <stop offset="0.3" stop-color="#ee3a24"/>
      <stop offset="1" stop-color="#af1f2d"/>
    </linearGradient>
    <linearGradient id="linear-gradient-2" x1="0.993" y1="82.477" x2="0.009" y2="82.477" xlink:href="#linear-gradient"/>
    <linearGradient id="linear-gradient-3" x1="0.237" y1="53.446" x2="1.212" y2="52.433" xlink:href="#linear-gradient"/>
    <linearGradient id="linear-gradient-4" x1="0.5" y1="38.002" x2="0.5" y2="36.996" xlink:href="#linear-gradient"/>
    <linearGradient id="linear-gradient-5" x1="1.227" y1="53.185" x2="0.203" y2="52.193" xlink:href="#linear-gradient"/>
    <linearGradient id="linear-gradient-6" x1="0.006" y1="82.956" x2="0.993" y2="82.956" xlink:href="#linear-gradient"/>
    <linearGradient id="linear-gradient-7" x1="-0.225" y1="52.449" x2="0.775" y2="53.443" xlink:href="#linear-gradient"/>
    <linearGradient id="linear-gradient-8" x1="0.5" y1="37.006" x2="0.5" y2="38.016" xlink:href="#linear-gradient"/>
    <filter id="Path_11" x="65.8" y="1.5" width="55.7" height="63.8" filterUnits="userSpaceOnUse">
      <feOffset dy="3" input="SourceAlpha"/>
      <feGaussianBlur stdDeviation="5" result="blur"/>
      <feFlood flood-opacity="0.6"/>
      <feComposite operator="in" in2="blur"/>
      <feComposite in="SourceGraphic"/>
    </filter>
    <filter id="Path_12" x="93.4" y="9.5" width="51.841" height="56.4" filterUnits="userSpaceOnUse">
      <feOffset dy="3" input="SourceAlpha"/>
      <feGaussianBlur stdDeviation="5" result="blur-2"/>
      <feFlood flood-opacity="0.6"/>
      <feComposite operator="in" in2="blur-2"/>
      <feComposite in="SourceGraphic"/>
    </filter>
    <filter id="Path_13" x="116.3" y="0.3" width="43.5" height="65" filterUnits="userSpaceOnUse">
      <feOffset dy="3" input="SourceAlpha"/>
      <feGaussianBlur stdDeviation="5" result="blur-3"/>
      <feFlood flood-opacity="0.6"/>
      <feComposite operator="in" in2="blur-3"/>
      <feComposite in="SourceGraphic"/>
    </filter>
    <filter id="Path_14" x="130" y="9.5" width="51.8" height="56.4" filterUnits="userSpaceOnUse">
      <feOffset dy="3" input="SourceAlpha"/>
      <feGaussianBlur stdDeviation="5" result="blur-4"/>
      <feFlood flood-opacity="0.6"/>
      <feComposite operator="in" in2="blur-4"/>
      <feComposite in="SourceGraphic"/>
    </filter>
    <filter id="Path_15" x="154" y="9.4" width="50.4" height="55.9" filterUnits="userSpaceOnUse">
      <feOffset dy="3" input="SourceAlpha"/>
      <feGaussianBlur stdDeviation="5" result="blur-5"/>
      <feFlood flood-opacity="0.6"/>
      <feComposite operator="in" in2="blur-5"/>
      <feComposite in="SourceGraphic"/>
    </filter>
    <filter id="Path_16" x="177.2" y="0" width="51.3" height="65.8" filterUnits="userSpaceOnUse">
      <feOffset dy="3" input="SourceAlpha"/>
      <feGaussianBlur stdDeviation="5" result="blur-6"/>
      <feFlood flood-opacity="0.6"/>
      <feComposite operator="in" in2="blur-6"/>
      <feComposite in="SourceGraphic"/>
    </filter>
    <filter id="Path_17" x="201.8" y="9.5" width="45.1" height="55.9" filterUnits="userSpaceOnUse">
      <feOffset dy="3" input="SourceAlpha"/>
      <feGaussianBlur stdDeviation="5" result="blur-7"/>
      <feFlood flood-opacity="0.6"/>
      <feComposite operator="in" in2="blur-7"/>
      <feComposite in="SourceGraphic"/>
    </filter>
    <filter id="Path_18" x="218.2" y="10" width="53.8" height="64.3" filterUnits="userSpaceOnUse">
      <feOffset dy="3" input="SourceAlpha"/>
      <feGaussianBlur stdDeviation="5" result="blur-8"/>
      <feFlood flood-opacity="0.6"/>
      <feComposite operator="in" in2="blur-8"/>
      <feComposite in="SourceGraphic"/>
    </filter>
    <filter id="Path_19" x="243.7" y="10" width="34.2" height="35.7" filterUnits="userSpaceOnUse">
      <feOffset dy="3" input="SourceAlpha"/>
      <feGaussianBlur stdDeviation="5" result="blur-9"/>
      <feFlood flood-opacity="0.6"/>
      <feComposite operator="in" in2="blur-9"/>
      <feComposite in="SourceGraphic"/>
    </filter>
    <filter id="Path_20" x="249" y="10" width="35.2" height="35.8" filterUnits="userSpaceOnUse">
      <feOffset dy="3" input="SourceAlpha"/>
      <feGaussianBlur stdDeviation="5" result="blur-10"/>
      <feFlood flood-opacity="0.6"/>
      <feComposite operator="in" in2="blur-10"/>
      <feComposite in="SourceGraphic"/>
    </filter>
    <filter id="Path_21" x="65.4" y="51.7" width="38.2" height="36.5" filterUnits="userSpaceOnUse">
      <feOffset dy="3" input="SourceAlpha"/>
      <feGaussianBlur stdDeviation="5" result="blur-11"/>
      <feFlood flood-opacity="0.6"/>
      <feComposite operator="in" in2="blur-11"/>
      <feComposite in="SourceGraphic"/>
    </filter>
    <filter id="Path_22" x="74.7" y="49.2" width="31.6" height="39" filterUnits="userSpaceOnUse">
      <feOffset dy="3" input="SourceAlpha"/>
      <feGaussianBlur stdDeviation="5" result="blur-12"/>
      <feFlood flood-opacity="0.6"/>
      <feComposite operator="in" in2="blur-12"/>
      <feComposite in="SourceGraphic"/>
    </filter>
    <filter id="Path_23" x="77.2" y="49" width="33.8" height="39.3" filterUnits="userSpaceOnUse">
      <feOffset dy="3" input="SourceAlpha"/>
      <feGaussianBlur stdDeviation="5" result="blur-13"/>
      <feFlood flood-opacity="0.6"/>
      <feComposite operator="in" in2="blur-13"/>
      <feComposite in="SourceGraphic"/>
    </filter>
    <filter id="Path_24" x="82.5" y="49.1" width="35.2" height="39.1" filterUnits="userSpaceOnUse">
      <feOffset dy="3" input="SourceAlpha"/>
      <feGaussianBlur stdDeviation="5" result="blur-14"/>
      <feFlood flood-opacity="0.6"/>
      <feComposite operator="in" in2="blur-14"/>
      <feComposite in="SourceGraphic"/>
    </filter>
    <filter id="Path_25" x="92" y="49.5" width="37.7" height="38.7" filterUnits="userSpaceOnUse">
      <feOffset dy="3" input="SourceAlpha"/>
      <feGaussianBlur stdDeviation="5" result="blur-15"/>
      <feFlood flood-opacity="0.6"/>
      <feComposite operator="in" in2="blur-15"/>
      <feComposite in="SourceGraphic"/>
    </filter>
    <filter id="Path_26" x="100.4" y="51.5" width="35.1" height="36.8" filterUnits="userSpaceOnUse">
      <feOffset dy="3" input="SourceAlpha"/>
      <feGaussianBlur stdDeviation="5" result="blur-16"/>
      <feFlood flood-opacity="0.6"/>
      <feComposite operator="in" in2="blur-16"/>
      <feComposite in="SourceGraphic"/>
    </filter>
    <filter id="Path_27" x="106.4" y="49" width="33.8" height="39.3" filterUnits="userSpaceOnUse">
      <feOffset dy="3" input="SourceAlpha"/>
      <feGaussianBlur stdDeviation="5" result="blur-17"/>
      <feFlood flood-opacity="0.6"/>
      <feComposite operator="in" in2="blur-17"/>
      <feComposite in="SourceGraphic"/>
    </filter>
    <filter id="Path_28" x="111.5" y="49.2" width="31.6" height="39" filterUnits="userSpaceOnUse">
      <feOffset dy="3" input="SourceAlpha"/>
      <feGaussianBlur stdDeviation="5" result="blur-18"/>
      <feFlood flood-opacity="0.6"/>
      <feComposite operator="in" in2="blur-18"/>
      <feComposite in="SourceGraphic"/>
    </filter>
    <filter id="Path_29" x="114.1" y="51.7" width="35.9" height="36.5" filterUnits="userSpaceOnUse">
      <feOffset dy="3" input="SourceAlpha"/>
      <feGaussianBlur stdDeviation="5" result="blur-19"/>
      <feFlood flood-opacity="0.6"/>
      <feComposite operator="in" in2="blur-19"/>
      <feComposite in="SourceGraphic"/>
    </filter>
    <filter id="Path_30" x="120.6" y="51.595" width="35.5" height="36.805" filterUnits="userSpaceOnUse">
      <feOffset dy="3" input="SourceAlpha"/>
      <feGaussianBlur stdDeviation="5" result="blur-20"/>
      <feFlood flood-opacity="0.6"/>
      <feComposite operator="in" in2="blur-20"/>
      <feComposite in="SourceGraphic"/>
    </filter>
    <filter id="Path_31" x="130.7" y="49.4" width="36.6" height="38.7" filterUnits="userSpaceOnUse">
      <feOffset dy="3" input="SourceAlpha"/>
      <feGaussianBlur stdDeviation="5" result="blur-21"/>
      <feFlood flood-opacity="0.6"/>
      <feComposite operator="in" in2="blur-21"/>
      <feComposite in="SourceGraphic"/>
    </filter>
    <filter id="Path_32" x="138.3" y="51.595" width="35.5" height="36.805" filterUnits="userSpaceOnUse">
      <feOffset dy="3" input="SourceAlpha"/>
      <feGaussianBlur stdDeviation="5" result="blur-22"/>
      <feFlood flood-opacity="0.6"/>
      <feComposite operator="in" in2="blur-22"/>
      <feComposite in="SourceGraphic"/>
    </filter>
    <filter id="Path_33" x="144.7" y="51.5" width="34.9" height="36.8" filterUnits="userSpaceOnUse">
      <feOffset dy="3" input="SourceAlpha"/>
      <feGaussianBlur stdDeviation="5" result="blur-23"/>
      <feFlood flood-opacity="0.6"/>
      <feComposite operator="in" in2="blur-23"/>
      <feComposite in="SourceGraphic"/>
    </filter>
    <filter id="Path_34" x="150.9" y="51.5" width="35.5" height="39.1" filterUnits="userSpaceOnUse">
      <feOffset dy="3" input="SourceAlpha"/>
      <feGaussianBlur stdDeviation="5" result="blur-24"/>
      <feFlood flood-opacity="0.6"/>
      <feComposite operator="in" in2="blur-24"/>
      <feComposite in="SourceGraphic"/>
    </filter>
    <filter id="Path_35" x="157.4" y="51.5" width="35.8" height="36.8" filterUnits="userSpaceOnUse">
      <feOffset dy="3" input="SourceAlpha"/>
      <feGaussianBlur stdDeviation="5" result="blur-25"/>
      <feFlood flood-opacity="0.6"/>
      <feComposite operator="in" in2="blur-25"/>
      <feComposite in="SourceGraphic"/>
    </filter>
    <filter id="Path_36" x="164.6" y="51.5" width="35.2" height="36.7" filterUnits="userSpaceOnUse">
      <feOffset dy="3" input="SourceAlpha"/>
      <feGaussianBlur stdDeviation="5" result="blur-26"/>
      <feFlood flood-opacity="0.6"/>
      <feComposite operator="in" in2="blur-26"/>
      <feComposite in="SourceGraphic"/>
    </filter>
    <filter id="Path_37" x="171" y="51.5" width="34.9" height="36.8" filterUnits="userSpaceOnUse">
      <feOffset dy="3" input="SourceAlpha"/>
      <feGaussianBlur stdDeviation="5" result="blur-27"/>
      <feFlood flood-opacity="0.6"/>
      <feComposite operator="in" in2="blur-27"/>
      <feComposite in="SourceGraphic"/>
    </filter>
    <filter id="Path_38" x="176.8" y="51.595" width="35.6" height="36.805" filterUnits="userSpaceOnUse">
      <feOffset dy="3" input="SourceAlpha"/>
      <feGaussianBlur stdDeviation="5" result="blur-28"/>
      <feFlood flood-opacity="0.6"/>
      <feComposite operator="in" in2="blur-28"/>
      <feComposite in="SourceGraphic"/>
    </filter>
    <filter id="Path_39" x="186.5" y="49.5" width="36.4" height="38.7" filterUnits="userSpaceOnUse">
      <feOffset dy="3" input="SourceAlpha"/>
      <feGaussianBlur stdDeviation="5" result="blur-29"/>
      <feFlood flood-opacity="0.6"/>
      <feComposite operator="in" in2="blur-29"/>
      <feComposite in="SourceGraphic"/>
    </filter>
    <filter id="Path_40" x="192.3" y="51.595" width="35.5" height="36.805" filterUnits="userSpaceOnUse">
      <feOffset dy="3" input="SourceAlpha"/>
      <feGaussianBlur stdDeviation="5" result="blur-30"/>
      <feFlood flood-opacity="0.6"/>
      <feComposite operator="in" in2="blur-30"/>
      <feComposite in="SourceGraphic"/>
    </filter>
    <filter id="Path_41" x="198.9" y="51.5" width="35.1" height="36.8" filterUnits="userSpaceOnUse">
      <feOffset dy="3" input="SourceAlpha"/>
      <feGaussianBlur stdDeviation="5" result="blur-31"/>
      <feFlood flood-opacity="0.6"/>
      <feComposite operator="in" in2="blur-31"/>
      <feComposite in="SourceGraphic"/>
    </filter>
    <filter id="Path_42" x="205.4" y="49.1" width="35.2" height="39.1" filterUnits="userSpaceOnUse">
      <feOffset dy="3" input="SourceAlpha"/>
      <feGaussianBlur stdDeviation="5" result="blur-32"/>
      <feFlood flood-opacity="0.6"/>
      <feComposite operator="in" in2="blur-32"/>
      <feComposite in="SourceGraphic"/>
    </filter>
    <filter id="Path_43" x="212.2" y="51.5" width="35.2" height="36.7" filterUnits="userSpaceOnUse">
      <feOffset dy="3" input="SourceAlpha"/>
      <feGaussianBlur stdDeviation="5" result="blur-33"/>
      <feFlood flood-opacity="0.6"/>
      <feComposite operator="in" in2="blur-33"/>
      <feComposite in="SourceGraphic"/>
    </filter>
    <filter id="Path_44" x="218.6" y="51.5" width="35.8" height="36.8" filterUnits="userSpaceOnUse">
      <feOffset dy="3" input="SourceAlpha"/>
      <feGaussianBlur stdDeviation="5" result="blur-34"/>
      <feFlood flood-opacity="0.6"/>
      <feComposite operator="in" in2="blur-34"/>
      <feComposite in="SourceGraphic"/>
    </filter>
    <filter id="Path_45" x="225.8" y="49.1" width="31.3" height="39.1" filterUnits="userSpaceOnUse">
      <feOffset dy="3" input="SourceAlpha"/>
      <feGaussianBlur stdDeviation="5" result="blur-35"/>
      <feFlood flood-opacity="0.6"/>
      <feComposite operator="in" in2="blur-35"/>
      <feComposite in="SourceGraphic"/>
    </filter>
    <filter id="Path_46" x="228.4" y="51.5" width="35.8" height="36.8" filterUnits="userSpaceOnUse">
      <feOffset dy="3" input="SourceAlpha"/>
      <feGaussianBlur stdDeviation="5" result="blur-36"/>
      <feFlood flood-opacity="0.6"/>
      <feComposite operator="in" in2="blur-36"/>
      <feComposite in="SourceGraphic"/>
    </filter>
    <filter id="Path_47" x="235.2" y="51.5" width="35.5" height="39" filterUnits="userSpaceOnUse">
      <feOffset dy="3" input="SourceAlpha"/>
      <feGaussianBlur stdDeviation="5" result="blur-37"/>
      <feFlood flood-opacity="0.6"/>
      <feComposite operator="in" in2="blur-37"/>
      <feComposite in="SourceGraphic"/>
    </filter>
    <filter id="Path_48" x="241.7" y="51.7" width="36.2" height="38.8" filterUnits="userSpaceOnUse">
      <feOffset dy="3" input="SourceAlpha"/>
      <feGaussianBlur stdDeviation="5" result="blur-38"/>
      <feFlood flood-opacity="0.6"/>
      <feComposite operator="in" in2="blur-38"/>
      <feComposite in="SourceGraphic"/>
    </filter>
    <filter id="Path_49" x="248" y="49.5" width="36.4" height="33.5" filterUnits="userSpaceOnUse">
      <feOffset dy="3" input="SourceAlpha"/>
      <feGaussianBlur stdDeviation="5" result="blur-39"/>
      <feFlood flood-opacity="0.6"/>
      <feComposite operator="in" in2="blur-39"/>
      <feComposite in="SourceGraphic"/>
    </filter>
  </defs>
  <g id="defendry-tagline-white--shadow" transform="translate(0 7.4)">
    <g id="Isolation_Mode_1_">
      <g id="Group_2" data-name="Group 2">
        <path id="Path_1" data-name="Path 1" d="M65.1,17.2,48,0H19.9L17.2,2.7,0,19.9H0V48l2.7,2.7L19.9,67.9H48l2.7-2.7L67.8,48V19.9h0ZM50.7,40.8l-9.8,9.8H27l-9.8-9.8V27L27,17.2H40.9L50.7,27Z" fill="#af1f2d"/>
        <path id="Path_2" data-name="Path 2" d="M44.1,0H19.9L17.2,2.7V27Z" fill="url(#linear-gradient)"/>
        <path id="Path_3" data-name="Path 3" d="M48,0h0L65.1,17.2H27L44.1,0Z" fill="url(#linear-gradient-2)"/>
        <path id="Path_4" data-name="Path 4" d="M23.7,67.8H48l2.7-2.7V40.8Z" fill="url(#linear-gradient-3)"/>
        <path id="Path_5" data-name="Path 5" d="M50.7,27V65.1L67.8,48V44.1L50.7,27" fill="url(#linear-gradient-4)"/>
        <path id="Path_6" data-name="Path 6" d="M67.8,44.1V19.9h0l-2.7-2.7H40.9Z" fill="url(#linear-gradient-5)"/>
        <path id="Path_7" data-name="Path 7" d="M2.7,50.7,19.9,67.8h3.8L40.9,50.7Z" fill="url(#linear-gradient-6)"/>
        <path id="Path_8" data-name="Path 8" d="M0,23.7V48H0l2.7,2.7H27Z" fill="url(#linear-gradient-7)"/>
        <path id="Path_9" data-name="Path 9" d="M17.2,40.8,0,23.7V19.9H0L17.2,2.7Z" fill="url(#linear-gradient-8)"/>
        <g id="Group_1" data-name="Group 1">
          <path id="Path_10" data-name="Path 10" d="M40.9,50.7l9.8-9.9V27l-9.8-9.8H27L17.2,27V40.8L0,23.7l27,27Z" fill="none"/>
        </g>
      </g>
    </g>
    <g id="Group_4" data-name="Group 4">
      <g transform="matrix(1, 0, 0, 1, 0, -7.4)" filter="url(#Path_11)">
        <path id="Path_11-2" data-name="Path 11" d="M90,39.9H80.8V6.1H90c9.1,0,16.5,5,16.5,16.9C106.4,35,98.8,39.9,90,39.9Zm0-28.8H85.8v24H90c8,0,11.3-4.9,11.3-12S98,11.1,90,11.1Z" transform="translate(0 7.4)" fill="#fff"/>
      </g>
      <g transform="matrix(1, 0, 0, 1, 0, -7.4)" filter="url(#Path_12)">
        <path id="Path_12-2" data-name="Path 12" d="M130.1,29H113.3c.5,4.9,3.3,7,6.4,7a9.266,9.266,0,0,0,5.5-2l2.9,3.2a11.839,11.839,0,0,1-8.7,3.3c-5.9,0-11-4.8-11-13.2,0-8.6,4.5-13.2,11.1-13.2,7.2,0,10.7,5.8,10.7,12.7A7.329,7.329,0,0,1,130.1,29ZM119.3,18.5c-3.3,0-5.4,2.3-5.8,6.4h11.8C125,21.4,123.4,18.5,119.3,18.5Z" transform="translate(0 7.4)" fill="#fff"/>
      </g>
      <g transform="matrix(1, 0, 0, 1, 0, -7.4)" filter="url(#Path_13)">
        <path id="Path_13-2" data-name="Path 13" d="M141.9,9.2c-1.6,0-2.3.6-2.3,2.5v2.9h4.7v4.6h-4.7V39.9h-5V19.2h-3.3V14.6h3.3V11.3c0-4.6,2.8-6.4,6.4-6.4a15.181,15.181,0,0,1,3.8.5V9.7A11.037,11.037,0,0,0,141.9,9.2Z" transform="translate(0 7.4)" fill="#fff"/>
      </g>
      <g transform="matrix(1, 0, 0, 1, 0, -7.4)" filter="url(#Path_14)">
        <path id="Path_14-2" data-name="Path 14" d="M166.7,29H149.9c.5,4.9,3.3,7,6.4,7a9.266,9.266,0,0,0,5.5-2l2.9,3.2a11.839,11.839,0,0,1-8.7,3.3c-5.9,0-11-4.8-11-13.2,0-8.6,4.5-13.2,11.1-13.2,7.2,0,10.7,5.8,10.7,12.7C166.8,27.7,166.7,28.5,166.7,29ZM155.8,18.5c-3.3,0-5.4,2.3-5.8,6.4h11.8C161.6,21.4,159.9,18.5,155.8,18.5Z" transform="translate(0 7.4)" fill="#fff"/>
      </g>
      <g transform="matrix(1, 0, 0, 1, 0, -7.4)" filter="url(#Path_15)">
        <path id="Path_15-2" data-name="Path 15" d="M184.4,39.9V25.6c0-5.1-1.9-7-5.2-7S174,21,174,25.1V39.9h-5V14.5h5v2.4a7.955,7.955,0,0,1,6.4-2.9c5.9,0,9,3.9,9,11.4V39.9Z" transform="translate(0 7.4)" fill="#fff"/>
      </g>
      <g transform="matrix(1, 0, 0, 1, 0, -7.4)" filter="url(#Path_16)">
        <path id="Path_16-2" data-name="Path 16" d="M208.6,39.9V37.5a9.575,9.575,0,0,1-6.6,2.9c-5.5,0-9.8-4-9.8-13.6,0-8.7,4.7-12.8,10-12.8a9.168,9.168,0,0,1,6.4,2.9V7.2l4.9-2.6V39.8C213.5,39.9,208.6,39.9,208.6,39.9Zm0-17.9a8,8,0,0,0-5.9-3.3c-3.6,0-5.5,2.7-5.5,8.1,0,6.4,2,9.2,5.7,9.2,2.4,0,4.4-1.6,5.7-3.2Z" transform="translate(0 7.4)" fill="#fff"/>
      </g>
      <g transform="matrix(1, 0, 0, 1, 0, -7.4)" filter="url(#Path_17)">
        <path id="Path_17-2" data-name="Path 17" d="M230.6,19.9a7.371,7.371,0,0,0-3.8-.9c-3.1,0-5,2.2-5,6.5V40h-5V14.6h5V17a7.05,7.05,0,0,1,5.8-2.9,7.143,7.143,0,0,1,4.3,1.1Z" transform="translate(0 7.4)" fill="#fff"/>
      </g>
      <g transform="matrix(1, 0, 0, 1, 0, -7.4)" filter="url(#Path_18)">
        <path id="Path_18-2" data-name="Path 18" d="M244.1,48.9h-5.3l3.7-9.4-9.3-24.9h5.5L242.9,27c.8,2.2,1.9,6,2.2,7.4.4-1.5,1.5-5.1,2.3-7.3l4.3-12.5H257Z" transform="translate(0 7.4)" fill="#fff"/>
      </g>
      <g id="Group_3" data-name="Group 3">
        <g transform="matrix(1, 0, 0, 1, 0, -7.4)" filter="url(#Path_19)">
          <path id="Path_19-2" data-name="Path 19" d="M261.3,15.4v4.9h-.9V15.4h-1.7v-.8h4.2v.8Z" transform="translate(0 7.4)" fill="#fff"/>
        </g>
        <g transform="matrix(1, 0, 0, 1, 0, -7.4)" filter="url(#Path_20)">
          <path id="Path_20-2" data-name="Path 20" d="M268.4,20.3v-4a6.317,6.317,0,0,1-.4.9l-1.4,3.2-1.4-3.2a7.93,7.93,0,0,0-.4-.9v4H264V14.6h.9l1.3,3.1c.1.3.3.7.4,1,.1-.2.2-.6.4-1l1.3-3.1h.9v5.7Z" transform="translate(0 7.4)" fill="#fff"/>
        </g>
      </g>
    </g>
    <g id="Isolation_Mode_2_">
      <g id="Group_5" data-name="Group 5">
        <g transform="matrix(1, 0, 0, 1, 0, -7.4)" filter="url(#Path_21)">
          <path id="Path_21-2" data-name="Path 21" d="M88.6,56.3l-1.8,6.5H85.7l-.9-3.3a12.084,12.084,0,0,1-.3-1.4c-.1.3-.2.9-.3,1.4l-.9,3.3H82.2l-1.8-6.5h1.3l.8,3.2a12.084,12.084,0,0,1,.3,1.4c.1-.3.2-.9.4-1.4l.9-3.2h1l.9,3.2a12.084,12.084,0,0,1,.3,1.4c.1-.3.2-.9.3-1.4l.8-3.2Z" transform="translate(0 7.4)" fill="#ee3a24"/>
        </g>
        <g transform="matrix(1, 0, 0, 1, 0, -7.4)" filter="url(#Path_22)">
          <path id="Path_22-2" data-name="Path 22" d="M91.3,54.6a.86.86,0,0,1-.8.8.8.8,0,1,1,.8-.8Zm-.2,8.2H89.8V56.3h1.3Z" transform="translate(0 7.4)" fill="#ee3a24"/>
        </g>
        <g transform="matrix(1, 0, 0, 1, 0, -7.4)" filter="url(#Path_23)">
          <path id="Path_23-2" data-name="Path 23" d="M96,61.5l-.1,1.1a2.269,2.269,0,0,1-1.3.3c-.9,0-1.5-.6-1.5-1.7V57.4h-.9V56.2h.9V54.3l1.3-.7v2.5H96v1.2H94.4v3.5c0,.6.2.8.7.8A1.337,1.337,0,0,0,96,61.5Z" transform="translate(0 7.4)" fill="#ee3a24"/>
        </g>
        <g transform="matrix(1, 0, 0, 1, 0, -7.4)" filter="url(#Path_24)">
          <path id="Path_24-2" data-name="Path 24" d="M102.7,62.8h-1.3V59.1c0-1.3-.5-1.8-1.3-1.8-.9,0-1.3.6-1.3,1.7v3.8H97.5V54.4l1.3-.7v3.1a1.943,1.943,0,0,1,1.6-.8c1.5,0,2.3,1,2.3,2.9v3.9Z" transform="translate(0 7.4)" fill="#ee3a24"/>
        </g>
        <g transform="matrix(1, 0, 0, 1, 0, -7.4)" filter="url(#Path_25)">
          <path id="Path_25-2" data-name="Path 25" d="M114.7,62.8h-1.4l-.7-2.1h-3.5l-.7,2.1H107l3.1-8.7h1.4Zm-2.5-3.3-.7-2c-.2-.6-.6-1.6-.7-2-.1.4-.4,1.4-.6,2l-.7,2Z" transform="translate(0 7.4)" fill="#ee3a24"/>
        </g>
        <g transform="matrix(1, 0, 0, 1, 0, -7.4)" filter="url(#Path_26)">
          <path id="Path_26-2" data-name="Path 26" d="M120.5,57.2l-.8.9a2.254,2.254,0,0,0-1.6-.8c-.9,0-1.5.8-1.5,2.2,0,1.3.5,2.2,1.6,2.2a2.057,2.057,0,0,0,1.5-.8l.8.8a2.91,2.91,0,0,1-2.3,1.2c-1.6,0-2.8-1.3-2.8-3.4,0-2.2,1.3-3.4,2.9-3.4A2.8,2.8,0,0,1,120.5,57.2Z" transform="translate(0 7.4)" fill="#ee3a24"/>
        </g>
        <g transform="matrix(1, 0, 0, 1, 0, -7.4)" filter="url(#Path_27)">
          <path id="Path_27-2" data-name="Path 27" d="M125.2,61.5l-.1,1.1a2.269,2.269,0,0,1-1.3.3c-.9,0-1.5-.6-1.5-1.7V57.4h-.9V56.2h.9V54.3l1.3-.7v2.5h1.6v1.2h-1.6v3.5c0,.6.2.8.7.8A1.412,1.412,0,0,0,125.2,61.5Z" transform="translate(0 7.4)" fill="#ee3a24"/>
        </g>
        <g transform="matrix(1, 0, 0, 1, 0, -7.4)" filter="url(#Path_28)">
          <path id="Path_28-2" data-name="Path 28" d="M128.1,54.6a.86.86,0,0,1-.8.8.8.8,0,1,1,0-1.6A.736.736,0,0,1,128.1,54.6Zm-.1,8.2h-1.3V56.3H128Z" transform="translate(0 7.4)" fill="#ee3a24"/>
        </g>
        <g transform="matrix(1, 0, 0, 1, 0, -7.4)" filter="url(#Path_29)">
          <path id="Path_29-2" data-name="Path 29" d="M135,56.3l-2.3,6.5h-1.3l-2.3-6.5h1.3l1.2,3.5c.2.6.4,1.2.5,1.6.1-.4.2-1,.4-1.6l1.1-3.5Z" transform="translate(0 7.4)" fill="#ee3a24"/>
        </g>
        <g transform="matrix(1, 0, 0, 1, 0, -7.4)" filter="url(#Path_30)">
          <path id="Path_30-2" data-name="Path 30" d="M141.1,59.4V60h-4.3c.1,1.3.8,1.8,1.6,1.8a2.389,2.389,0,0,0,1.4-.5l.8.8a3.373,3.373,0,0,1-2.2.9c-1.5,0-2.8-1.2-2.8-3.4s1.2-3.4,2.9-3.4C140.2,56.1,141.1,57.6,141.1,59.4Zm-1.3-.5c-.1-.9-.5-1.6-1.5-1.6-.9,0-1.4.6-1.5,1.6Z" transform="translate(0 7.4)" fill="#ee3a24"/>
        </g>
        <g transform="matrix(1, 0, 0, 1, 0, -7.4)" filter="url(#Path_31)">
          <path id="Path_31-2" data-name="Path 31" d="M152.3,56.7a2.33,2.33,0,0,1-1.9,2.5l1.8,3.5h-1.5L149,59.3h-2v3.4h-1.3V54h3.8A2.651,2.651,0,0,1,152.3,56.7Zm-1.3,0a1.342,1.342,0,0,0-1.5-1.4H147v2.8h2.5C150.4,58.1,151,57.7,151,56.7Z" transform="translate(0 7.4)" fill="#ee3a24"/>
        </g>
        <g transform="matrix(1, 0, 0, 1, 0, -7.4)" filter="url(#Path_32)">
          <path id="Path_32-2" data-name="Path 32" d="M158.8,59.4V60h-4.3c.1,1.3.8,1.8,1.6,1.8a2.389,2.389,0,0,0,1.4-.5l.8.8a3.373,3.373,0,0,1-2.2.9c-1.5,0-2.8-1.2-2.8-3.4s1.2-3.4,2.9-3.4C157.9,56.1,158.8,57.6,158.8,59.4Zm-1.3-.5c-.1-.9-.5-1.6-1.5-1.6-.9,0-1.4.6-1.5,1.6Z" transform="translate(0 7.4)" fill="#ee3a24"/>
        </g>
        <g transform="matrix(1, 0, 0, 1, 0, -7.4)" filter="url(#Path_33)">
          <path id="Path_33-2" data-name="Path 33" d="M164.6,61c0,1.4-1.2,1.9-2.4,1.9a4.376,4.376,0,0,1-2.5-.8l.6-1a3.534,3.534,0,0,0,1.9.6c.8,0,1.2-.3,1.2-.7,0-.5-.6-.7-1.5-1.1-1.4-.5-1.9-1-1.9-2,0-1.2.9-1.8,2.2-1.8a4.1,4.1,0,0,1,2.2.7l-.6,1a2.716,2.716,0,0,0-1.7-.6q-.9,0-.9.6c0,.3.2.6,1.2.9C163.8,59.4,164.6,59.8,164.6,61Z" transform="translate(0 7.4)" fill="#ee3a24"/>
        </g>
        <g transform="matrix(1, 0, 0, 1, 0, -7.4)" filter="url(#Path_34)">
          <path id="Path_34-2" data-name="Path 34" d="M171.4,59.6c0,2.2-1.2,3.3-2.6,3.3a2.015,2.015,0,0,1-1.6-.7v2.3l-1.3.7V56.3h1.3v.6a2.716,2.716,0,0,1,1.7-.8C170.3,56.1,171.4,57.1,171.4,59.6Zm-1.3.1q0-2.4-1.5-2.4a2.239,2.239,0,0,0-1.5.8v2.7a2.143,2.143,0,0,0,1.5.9C169.6,61.7,170.1,61,170.1,59.7Z" transform="translate(0 7.4)" fill="#ee3a24"/>
        </g>
        <g transform="matrix(1, 0, 0, 1, 0, -7.4)" filter="url(#Path_35)">
          <path id="Path_35-2" data-name="Path 35" d="M178.2,59.5c0,2.2-1.3,3.4-2.9,3.4a3.106,3.106,0,0,1-2.9-3.4c0-2.1,1.3-3.4,2.9-3.4C177,56.1,178.2,57.4,178.2,59.5Zm-1.3,0c0-1.3-.6-2.2-1.7-2.2-1,0-1.6.9-1.6,2.1,0,1.4.7,2.2,1.6,2.2C176.3,61.7,176.9,60.7,176.9,59.5Z" transform="translate(0 7.4)" fill="#ee3a24"/>
        </g>
        <g transform="matrix(1, 0, 0, 1, 0, -7.4)" filter="url(#Path_36)">
          <path id="Path_36-2" data-name="Path 36" d="M184.8,62.8h-1.3V59.1c0-1.3-.5-1.8-1.3-1.8-.9,0-1.3.6-1.3,1.7v3.8h-1.3V56.3h1.3v.6a1.943,1.943,0,0,1,1.6-.8c1.5,0,2.3,1,2.3,2.9v3.8Z" transform="translate(0 7.4)" fill="#ee3a24"/>
        </g>
        <g transform="matrix(1, 0, 0, 1, 0, -7.4)" filter="url(#Path_37)">
          <path id="Path_37-2" data-name="Path 37" d="M190.9,61c0,1.4-1.2,1.9-2.4,1.9a4.376,4.376,0,0,1-2.5-.8l.6-1a3.534,3.534,0,0,0,1.9.6c.8,0,1.2-.3,1.2-.7,0-.5-.6-.7-1.5-1.1-1.4-.5-1.9-1-1.9-2,0-1.2.9-1.8,2.2-1.8a4.1,4.1,0,0,1,2.2.7l-.6,1a2.716,2.716,0,0,0-1.7-.6q-.9,0-.9.6c0,.3.2.6,1.2.9C190.1,59.4,190.9,59.8,190.9,61Z" transform="translate(0 7.4)" fill="#ee3a24"/>
        </g>
        <g transform="matrix(1, 0, 0, 1, 0, -7.4)" filter="url(#Path_38)">
          <path id="Path_38-2" data-name="Path 38" d="M197.4,59.4V60H193c.1,1.3.8,1.8,1.6,1.8a2.389,2.389,0,0,0,1.4-.5l.8.8a3.373,3.373,0,0,1-2.2.9c-1.5,0-2.8-1.2-2.8-3.4s1.2-3.4,2.9-3.4C196.5,56.1,197.4,57.6,197.4,59.4Zm-1.3-.5c-.1-.9-.5-1.6-1.5-1.6-.9,0-1.4.6-1.5,1.6Z" transform="translate(0 7.4)" fill="#ee3a24"/>
        </g>
        <g transform="matrix(1, 0, 0, 1, 0, -7.4)" filter="url(#Path_39)">
          <path id="Path_39-2" data-name="Path 39" d="M207.8,55.4h-2.5v7.4H204V55.4h-2.5V54.1h6.4l-.1,1.3Z" transform="translate(0 7.4)" fill="#ee3a24"/>
        </g>
        <g transform="matrix(1, 0, 0, 1, 0, -7.4)" filter="url(#Path_40)">
          <path id="Path_40-2" data-name="Path 40" d="M212.8,59.4V60h-4.3c.1,1.3.8,1.8,1.6,1.8a2.389,2.389,0,0,0,1.4-.5l.8.8a3.373,3.373,0,0,1-2.2.9c-1.5,0-2.8-1.2-2.8-3.4s1.2-3.4,2.9-3.4C211.9,56.1,212.8,57.6,212.8,59.4Zm-1.3-.5c-.1-.9-.5-1.6-1.5-1.6-.9,0-1.4.6-1.5,1.6Z" transform="translate(0 7.4)" fill="#ee3a24"/>
        </g>
        <g transform="matrix(1, 0, 0, 1, 0, -7.4)" filter="url(#Path_41)">
          <path id="Path_41-2" data-name="Path 41" d="M219,57.2l-.8.9a2.254,2.254,0,0,0-1.6-.8c-.9,0-1.5.8-1.5,2.2,0,1.3.5,2.2,1.6,2.2a2.057,2.057,0,0,0,1.5-.8l.8.8a2.91,2.91,0,0,1-2.3,1.2c-1.6,0-2.8-1.3-2.8-3.4,0-2.2,1.3-3.4,2.9-3.4A2.948,2.948,0,0,1,219,57.2Z" transform="translate(0 7.4)" fill="#ee3a24"/>
        </g>
        <g transform="matrix(1, 0, 0, 1, 0, -7.4)" filter="url(#Path_42)">
          <path id="Path_42-2" data-name="Path 42" d="M225.6,62.8h-1.3V59.1c0-1.3-.5-1.8-1.3-1.8-.9,0-1.3.6-1.3,1.7v3.8h-1.3V54.4l1.3-.7v3.1a1.943,1.943,0,0,1,1.6-.8c1.5,0,2.3,1,2.3,2.9v3.9Z" transform="translate(0 7.4)" fill="#ee3a24"/>
        </g>
        <g transform="matrix(1, 0, 0, 1, 0, -7.4)" filter="url(#Path_43)">
          <path id="Path_43-2" data-name="Path 43" d="M232.4,62.8h-1.3V59.1c0-1.3-.5-1.8-1.3-1.8-.9,0-1.3.6-1.3,1.7v3.8h-1.3V56.3h1.3v.6a1.943,1.943,0,0,1,1.6-.8c1.5,0,2.3,1,2.3,2.9v3.8Z" transform="translate(0 7.4)" fill="#ee3a24"/>
        </g>
        <g transform="matrix(1, 0, 0, 1, 0, -7.4)" filter="url(#Path_44)">
          <path id="Path_44-2" data-name="Path 44" d="M239.4,59.5c0,2.2-1.3,3.4-2.9,3.4a3.106,3.106,0,0,1-2.9-3.4c0-2.1,1.3-3.4,2.9-3.4C238.2,56.1,239.4,57.4,239.4,59.5Zm-1.3,0c0-1.3-.6-2.2-1.7-2.2-1,0-1.6.9-1.6,2.1,0,1.4.7,2.2,1.6,2.2C237.5,61.7,238.1,60.7,238.1,59.5Z" transform="translate(0 7.4)" fill="#ee3a24"/>
        </g>
        <g transform="matrix(1, 0, 0, 1, 0, -7.4)" filter="url(#Path_45)">
          <path id="Path_45-2" data-name="Path 45" d="M242.1,62.8h-1.3V54.4l1.3-.7Z" transform="translate(0 7.4)" fill="#ee3a24"/>
        </g>
        <g transform="matrix(1, 0, 0, 1, 0, -7.4)" filter="url(#Path_46)">
          <path id="Path_46-2" data-name="Path 46" d="M249.2,59.5c0,2.2-1.3,3.4-2.9,3.4a3.106,3.106,0,0,1-2.9-3.4c0-2.1,1.3-3.4,2.9-3.4C248,56.1,249.2,57.4,249.2,59.5Zm-1.3,0c0-1.3-.6-2.2-1.7-2.2-1,0-1.6.9-1.6,2.1,0,1.4.7,2.2,1.6,2.2C247.3,61.7,247.9,60.7,247.9,59.5Z" transform="translate(0 7.4)" fill="#ee3a24"/>
        </g>
        <g transform="matrix(1, 0, 0, 1, 0, -7.4)" filter="url(#Path_47)">
          <path id="Path_47-2" data-name="Path 47" d="M255.7,62.1c0,2-.7,2.9-3.1,3l-.4-1c1.8-.1,2.2-.6,2.2-1.9v-.1a2.716,2.716,0,0,1-1.7.8c-1.4,0-2.5-1-2.5-3.5,0-2.2,1.2-3.3,2.6-3.3a2.015,2.015,0,0,1,1.6.7v-.6h1.3v5.9Zm-1.3-1.2V58.2a2.143,2.143,0,0,0-1.5-.9c-.9,0-1.4.7-1.4,2.1q0,2.4,1.5,2.4A2.3,2.3,0,0,0,254.4,60.9Z" transform="translate(0 7.4)" fill="#ee3a24"/>
        </g>
        <g transform="matrix(1, 0, 0, 1, 0, -7.4)" filter="url(#Path_48)">
          <path id="Path_48-2" data-name="Path 48" d="M262.9,56.3l-3.3,8.8h-1.4l.9-2.4-2.4-6.4h1.4l1.1,3.2c.2.6.5,1.5.6,1.9.1-.4.4-1.3.6-1.9l1.1-3.2Z" transform="translate(0 7.4)" fill="#ee3a24"/>
        </g>
        <g transform="matrix(1, 0, 0, 1, 0, -7.4)" filter="url(#Path_49)">
          <path id="Path_49-2" data-name="Path 49" d="M265.6,54.7h-1v2.8H264V54.7h-1v-.6h2.5l.1.6Zm2.1,2.9-.8-2c0-.1-.1-.2-.1-.3v2.2h-.6V54.1h.6l.8,1.8c.1.1.1.3.2.5.1-.1.1-.3.2-.5l.8-1.8h.6v3.4h-.6V55.3c0,.1-.1.2-.1.3Z" transform="translate(0 7.4)" fill="#ee3a24"/>
        </g>
      </g>
    </g>
  </g>
</svg>
