<?xml version="1.0" encoding="utf-8"?>
<!-- Generator: Adobe Illustrator 22.1.0, SVG Export Plug-In . SVG Version: 6.00 Build 0)  -->
<!DOCTYPE svg PUBLIC "-//W3C//DTD SVG 1.1//EN" "http://www.w3.org/Graphics/SVG/1.1/DTD/svg11.dtd">
<svg version="1.1" id="Capa_1" xmlns="http://www.w3.org/2000/svg" xmlns:xlink="http://www.w3.org/1999/xlink" x="0px" y="0px"
	 viewBox="0 0 485.2 363.9" style="enable-background:new 0 0 485.2 363.9;" xml:space="preserve">
<style type="text/css">
	.st0{fill:#A1A1A1;}
</style>
<g>
	<path class="st0" d="M485.2,303.3c0,10.6-3,20.5-7.8,29.2L324.2,161L475.8,28.4c5.9,9.4,9.4,20.3,9.4,32.2L485.2,303.3L485.2,303.3
		z M242.6,192.1L453.5,7.6C444.8,2.9,435.1,0,424.6,0H60.7C50.1,0,40.4,2.9,31.8,7.6L242.6,192.1z M301.4,181l-48.8,42.7
		c-2.9,2.5-6.4,3.7-10,3.7c-3.6,0-7.1-1.2-10-3.7L183.8,181L28.7,354.6c9.3,5.8,20.2,9.3,32,9.3h363.9c11.8,0,22.7-3.5,32-9.3
		L301.4,181z M9.4,28.4C3.6,37.8,0,48.8,0,60.7v242.6c0,10.6,3,20.5,7.8,29.2L161,161L9.4,28.4z"/>
</g>
</svg>
