<?xml version="1.0" encoding="utf-8"?>
<!-- Generator: Adobe Illustrator 23.0.1, SVG Export Plug-In . SVG Version: 6.00 Build 0)  -->
<svg version="1.1" id="Capa_1" xmlns="http://www.w3.org/2000/svg" xmlns:xlink="http://www.w3.org/1999/xlink" x="0px" y="0px"
	 viewBox="0 0 485.211 363.908" style="enable-background:new 0 0 485.211 363.908;" xml:space="preserve">
<style type="text/css">
	.st0{fill:#A1A1A1;}
</style>
<g>
	<path class="st0" d="M485.211,303.255c0,10.637-2.992,20.498-7.785,29.174l-153.201-171.41l151.54-132.584
		c5.895,9.355,9.446,20.344,9.446,32.219L485.211,303.255L485.211,303.255z M242.606,192.142l210.863-184.5
		C444.816,2.905,435.072,0,424.561,0H60.651C50.127,0,40.38,2.905,31.762,7.642L242.606,192.142z M301.393,180.98l-48.809,42.734
		c-2.855,2.487-6.41,3.729-9.978,3.729c-3.57,0-7.125-1.242-9.98-3.729l-48.82-42.736L28.667,354.579
		c9.299,5.834,20.197,9.329,31.983,9.329h363.911c11.784,0,22.687-3.495,31.983-9.329L301.393,180.98z M9.448,28.434
		C3.554,37.789,0,48.778,0,60.654v242.602c0,10.637,2.978,20.498,7.789,29.174l153.183-171.44L9.448,28.434z"/>
</g>
</svg>
