<?xml version="1.0" encoding="utf-8"?>
<!-- Generator: Adobe Illustrator 22.1.0, SVG Export Plug-In . SVG Version: 6.00 Build 0)  -->
<!DOCTYPE svg PUBLIC "-//W3C//DTD SVG 1.1//EN" "http://www.w3.org/Graphics/SVG/1.1/DTD/svg11.dtd">
<svg version="1.1" xmlns="http://www.w3.org/2000/svg" xmlns:xlink="http://www.w3.org/1999/xlink" x="0px" y="0px"
	 viewBox="0 0 43.7 43.7" style="enable-background:new 0 0 43.7 43.7;" xml:space="preserve">
<style type="text/css">
	.st0{fill:#F97B08;}
</style>
<g id="Layer_1">
</g>
<g id="Isolation_Mode">
	<path class="st0" d="M35.7,43.7H8c-4.4,0-8-3.6-8-8V8c0-4.4,3.6-8,8-8h27.7c4.4,0,8,3.6,8,8v27.7C43.7,40.1,40.1,43.7,35.7,43.7z
		 M8,1.5C4.4,1.5,1.5,4.4,1.5,8v27.7c0,3.6,2.9,6.5,6.5,6.5h27.7c3.6,0,6.5-2.9,6.5-6.5V8c0-3.6-2.9-6.5-6.5-6.5H8z"/>
	<path id="f" class="st0" d="M30.4,42.9V26.3h5.6l0.8-6.5h-6.4v-4.1c0-1.9,0.5-3.1,3.2-3.1l3.4,0V6.8c-0.6-0.1-2.6-0.3-5-0.3
		c-4.9,0-8.3,3-8.3,8.6v4.8h-5.6v6.5h5.6v16.6H30.4z"/>
</g>
</svg>
