<?xml version="1.0" encoding="utf-8"?>
<!-- Generator: Adobe Illustrator 23.0.1, SVG Export Plug-In . SVG Version: 6.00 Build 0)  -->
<svg version="1.1" xmlns="http://www.w3.org/2000/svg" xmlns:xlink="http://www.w3.org/1999/xlink" x="0px" y="0px"
	 viewBox="0 0 30.005 30.006" style="enable-background:new 0 0 30.005 30.006;" xml:space="preserve">
<style type="text/css">
	.st0{fill:url(#SVGID_1_);}
	.st1{fill:url(#f_1_);}
</style>
<g id="Layer_1">
	<linearGradient id="SVGID_1_" gradientUnits="userSpaceOnUse" x1="15.0718" y1="1.478" x2="14.9315" y2="28.8428">
		<stop  offset="0.3" style="stop-color:#EE3A24"/>
		<stop  offset="1" style="stop-color:#AF1F2D"/>
	</linearGradient>
	<path class="st0" d="M24.505,30.006H5.5c-3.033,0-5.5-2.468-5.5-5.5V5.5C0,2.468,2.467,0,5.5,0h19.005c3.033,0,5.5,2.468,5.5,5.5
		v19.006C30.005,27.538,27.538,30.006,24.505,30.006z M5.5,1C3.019,1,1,3.019,1,5.5v19.006c0,2.481,2.019,4.5,4.5,4.5h19.005
		c2.481,0,4.5-2.019,4.5-4.5V5.5c0-2.481-2.019-4.5-4.5-4.5H5.5z"/>
</g>
<g id="Blue">
	<linearGradient id="f_1_" gradientUnits="userSpaceOnUse" x1="18.966" y1="1.498" x2="18.8256" y2="28.8628">
		<stop  offset="0.3" style="stop-color:#EE3A24"/>
		<stop  offset="1" style="stop-color:#AF1F2D"/>
	</linearGradient>
	<path id="f" class="st1" d="M20.853,29.505V18.098h3.829l0.573-4.446h-4.402v-2.838c0-1.287,0.357-2.164,2.203-2.164l2.354-0.001
		V4.673c-0.407-0.054-1.805-0.175-3.43-0.175c-3.394,0-5.718,2.072-5.718,5.876v3.279h-3.839v4.446h3.839v11.407H20.853z"/>
</g>
<g id="Capa_1">
</g>
</svg>
