<?xml version="1.0" encoding="utf-8"?>
<!-- Generator: Adobe Illustrator 22.1.0, SVG Export Plug-In . SVG Version: 6.00 Build 0)  -->
<!DOCTYPE svg PUBLIC "-//W3C//DTD SVG 1.1//EN" "http://www.w3.org/Graphics/SVG/1.1/DTD/svg11.dtd">
<svg version="1.1" xmlns="http://www.w3.org/2000/svg" xmlns:xlink="http://www.w3.org/1999/xlink" x="0px" y="0px"
	 viewBox="0 0 36.5 49.3" style="enable-background:new 0 0 36.5 49.3;" xml:space="preserve">
<style type="text/css">
	.st0{fill:none;}
	.st1{fill:#0885F9;}
</style>
<g id="Layer_1">
</g>
<g id="Isolation_Mode">
	<g>
		<path class="st0" d="M26.3,23.7c0.5-0.6,0.4-1.4-0.2-1.9c-0.6-0.5-1.4-0.4-1.9,0.2l-7.4,8.8l-5-4.2c-0.3-0.2-0.6-0.3-0.9-0.3
			c-0.4,0-0.8,0.2-1,0.5c-0.2,0.3-0.3,0.6-0.3,1c0,0.4,0.2,0.7,0.5,0.9l6,5c0.3,0.2,0.6,0.3,1,0.3c0.4,0,0.7-0.2,0.9-0.5L26.3,23.7z
			"/>
		<path class="st0" d="M10.2,6.3v1.4c0,0.1,0,0.2,0,0.2c0.1,0.8,0.8,1.5,1.7,1.5h12.6c0.9,0,1.6-0.7,1.7-1.5c0-0.1,0-0.2,0-0.2V6.3
			c0,0,0,0,0,0c0-0.3-0.2-0.6-0.4-0.8c-0.2-0.1-0.4-0.2-0.6-0.2h-3.2c-0.1,0-0.1,0-0.2,0c-0.3-0.1-0.6-0.4-0.6-0.7c0,0,0,0,0,0
			c0-0.6-0.2-1.1-0.4-1.5c-0.5-0.9-1.5-1.6-2.7-1.6c-1.2,0-2.1,0.6-2.7,1.6c-0.3,0.5-0.4,1-0.4,1.5c0,0,0,0,0,0
			c0,0.3-0.2,0.6-0.6,0.7c-0.1,0-0.1,0-0.2,0c0,0,0,0-0.1,0c0,0,0,0-0.1,0h-3.1c-0.2,0-0.4,0.1-0.6,0.2C10.4,5.8,10.2,6,10.2,6.3
			C10.2,6.3,10.2,6.3,10.2,6.3z M18.3,3.2c0.8,0,1.4,0.6,1.4,1.4S19,6,18.3,6s-1.4-0.6-1.4-1.4S17.5,3.2,18.3,3.2z"/>
		<path class="st0" d="M24.5,11H12c-1.7,0-3.1-1.3-3.2-3H3.3v37.9h29.9V8h-5.4C27.6,9.6,26.3,11,24.5,11z M27.5,24.7l-8.2,9.9
			c-0.5,0.6-1.2,0.9-1.9,1c-0.1,0-0.2,0-0.3,0c-0.7,0-1.3-0.2-1.8-0.7l-6-5c-0.6-0.5-0.9-1.2-1-1.9c-0.1-0.8,0.2-1.5,0.6-2.1
			c1-1.2,2.8-1.4,4-0.4l3.8,3.2l6.4-7.7c1-1.2,2.8-1.4,4-0.4v0C28.3,21.7,28.5,23.5,27.5,24.7z"/>
		<path class="st1" d="M33.2,4.8h-5.9c-0.5-0.6-1.2-1-2-1h-2.5C22.4,1.7,20.5,0,18.2,0c-2.3,0-4.2,1.7-4.5,3.8h-2.5
			c-0.8,0-1.5,0.4-2,1H3.3C1.5,4.8,0,6.3,0,8.2V46c0,1.8,1.5,3.4,3.3,3.4h29.8c1.8,0,3.3-1.5,3.3-3.4V8.2C36.5,6.3,35,4.8,33.2,4.8z
			 M11.2,5.3h3.1c0,0,0,0,0.1,0c0,0,0,0,0.1,0c0.1,0,0.1,0,0.2,0c0.3-0.1,0.6-0.4,0.6-0.7c0,0,0,0,0,0c0-0.6,0.2-1.1,0.4-1.5
			c0.5-0.9,1.5-1.6,2.7-1.6c1.2,0,2.1,0.6,2.7,1.6c0.3,0.5,0.4,1,0.4,1.5c0,0,0,0,0,0c0,0.3,0.2,0.6,0.6,0.7c0.1,0,0.1,0,0.2,0h3.2
			c0.2,0,0.4,0.1,0.6,0.2c0.2,0.2,0.4,0.4,0.4,0.8c0,0,0,0,0,0v1.4c0,0.1,0,0.2,0,0.2c-0.1,0.8-0.8,1.5-1.7,1.5H12
			c-0.9,0-1.6-0.7-1.7-1.5c0-0.1,0-0.2,0-0.2V6.3c0,0,0,0,0,0c0-0.3,0.2-0.6,0.4-0.8C10.8,5.4,11,5.3,11.2,5.3z M33.2,45.8H3.3V8
			h5.4c0.1,1.7,1.5,3,3.2,3h12.6c1.7,0,3.1-1.3,3.2-3h5.4V45.8z"/>
		<path class="st1" d="M27.1,20.7c-1.2-1-3-0.8-4,0.4l-6.4,7.7l-3.8-3.2c-1.2-1-3-0.8-4,0.4c-0.5,0.6-0.7,1.3-0.6,2.1
			c0.1,0.8,0.4,1.4,1,1.9l6,5c0.5,0.4,1.2,0.7,1.8,0.7c0.1,0,0.2,0,0.3,0c0.8-0.1,1.4-0.4,1.9-1l8.2-9.9
			C28.5,23.5,28.3,21.7,27.1,20.7L27.1,20.7z M16.2,33.7l-6-5c-0.3-0.2-0.4-0.6-0.5-0.9c0-0.4,0.1-0.7,0.3-1c0.3-0.3,0.6-0.5,1-0.5
			c0.3,0,0.6,0.1,0.9,0.3l5,4.2l7.4-8.8c0.5-0.6,1.3-0.6,1.9-0.2c0.6,0.5,0.6,1.3,0.2,1.9l-8.2,9.9c-0.2,0.3-0.6,0.4-0.9,0.5
			C16.8,34.1,16.5,34,16.2,33.7z"/>
		<path class="st1" d="M18.3,6c0.8,0,1.4-0.6,1.4-1.4S19,3.2,18.3,3.2s-1.4,0.6-1.4,1.4S17.5,6,18.3,6z"/>
	</g>
</g>
</svg>
