<?xml version="1.0" encoding="utf-8"?>
<!-- Generator: Adobe Illustrator 22.1.0, SVG Export Plug-In . SVG Version: 6.00 Build 0)  -->
<!DOCTYPE svg PUBLIC "-//W3C//DTD SVG 1.1//EN" "http://www.w3.org/Graphics/SVG/1.1/DTD/svg11.dtd">
<svg version="1.1" xmlns="http://www.w3.org/2000/svg" xmlns:xlink="http://www.w3.org/1999/xlink" x="0px" y="0px"
	 viewBox="0 0 110.1 107.8" style="enable-background:new 0 0 110.1 107.8;" xml:space="preserve">
<style type="text/css">
	.st0{fill:url(#SVGID_1_);}
	.st1{fill:#B7C0EB;}
	.st2{fill:url(#SVGID_2_);}
	.st3{fill:url(#SVGID_3_);}
	.st4{fill:url(#SVGID_4_);}
	.st5{opacity:0.3;fill:#FFFFFF;}
</style>
<g id="Layer_1">
</g>
<g id="Isolation_Mode">
	<g>
		<linearGradient id="SVGID_1_" gradientUnits="userSpaceOnUse" x1="55.0462" y1="91.5979" x2="55.0462" y2="0.1759">
			<stop  offset="0" style="stop-color:#F1F4FE"/>
			<stop  offset="1" style="stop-color:#FFFFFF"/>
		</linearGradient>
		<path class="st0" d="M102.4,0H7.8C3.5,0,0,3.5,0,7.8v78.8c0,4.3,3.5,7.8,7.8,7.8h94.5c4.3,0,7.8-3.5,7.8-7.8V7.8
			C110.2,3.5,106.6,0,102.4,0z"/>
		<rect x="7.8" y="19.1" class="st1" width="94.6" height="67.1"/>
		<linearGradient id="SVGID_2_" gradientUnits="userSpaceOnUse" x1="55.0933" y1="81.3626" x2="55.0933" y2="28.8438">
			<stop  offset="0" style="stop-color:#F1F4FE"/>
			<stop  offset="1" style="stop-color:#FFFFFF"/>
		</linearGradient>
		<rect x="9.6" y="20.9" class="st2" width="90.9" height="63.5"/>
		<circle class="st1" cx="99.9" cy="10.1" r="2.5"/>
		<circle class="st1" cx="91.2" cy="10.1" r="2.5"/>
		<circle class="st1" cx="82.5" cy="10.1" r="2.5"/>
	</g>
	<g>
		<g>
			<linearGradient id="SVGID_3_" gradientUnits="userSpaceOnUse" x1="55.045" y1="105.5381" x2="55.045" y2="26.301">
				<stop  offset="0" style="stop-color:#F7530B"/>
				<stop  offset="1" style="stop-color:#F97B08"/>
			</linearGradient>
			<path class="st3" d="M93.5,62.2l-7.4-2c-0.8-3.2-2-6.1-3.6-8.8l3.8-6.6c0.4-0.8,0.3-1.7-0.3-2.3l-5.5-5.5
				c-0.6-0.6-1.5-0.8-2.3-0.3l-6.6,3.8c-2.7-1.6-5.7-2.9-8.8-3.6l-2-7.4c-0.2-0.9-1-1.4-1.8-1.4h-7.8c-0.9,0-1.6,0.6-1.8,1.4l-2,7.4
				c-3.2,0.8-6.1,2-8.8,3.6l-6.6-3.8c-0.8-0.4-1.7-0.3-2.3,0.3l-5.5,5.5c-0.6,0.6-0.8,1.5-0.3,2.3l3.8,6.6C26,54,24.8,57,24,60.2
				l-7.4,2c-0.9,0.2-1.4,1-1.4,1.8v7.8c0,0.9,0.6,1.6,1.4,1.8l7.4,2c0.8,3.2,2,6.1,3.6,8.8l-3.8,6.6c-0.4,0.8-0.3,1.7,0.3,2.3
				l5.5,5.5c0.6,0.6,1.5,0.8,2.3,0.3l6.6-3.8c2.7,1.6,5.7,2.9,8.8,3.6l2,7.4c0.2,0.9,1,1.4,1.8,1.4h7.8c0.9,0,1.6-0.6,1.8-1.4l2-7.4
				c3.2-0.8,6.1-2,8.8-3.6l6.6,3.8c0.8,0.4,1.7,0.3,2.3-0.3l5.5-5.5c0.6-0.6,0.8-1.5,0.3-2.3l-3.8-6.6c1.6-2.7,2.9-5.7,3.6-8.8
				l7.4-2c0.9-0.2,1.4-1,1.4-1.8V64C94.9,63.2,94.3,62.5,93.5,62.2z M55.1,82.1c-7.9,0-14.2-6.3-14.2-14.2s6.3-14.2,14.2-14.2
				s14.2,6.3,14.2,14.2S63,82.1,55.1,82.1z"/>
		</g>
		<linearGradient id="SVGID_4_" gradientUnits="userSpaceOnUse" x1="55.0933" y1="79.3908" x2="55.0933" y2="55.275">
			<stop  offset="0" style="stop-color:#B7C0EB"/>
			<stop  offset="0.5278" style="stop-color:#F1F4FE"/>
			<stop  offset="1" style="stop-color:#FFFFFF"/>
		</linearGradient>
		<circle class="st4" cx="55.1" cy="67.9" r="12.1"/>
		<path class="st5" d="M55.1,89C43.5,89,34,79.6,34,67.9s9.5-21.1,21.1-21.1s21.1,9.5,21.1,21.1S66.7,89,55.1,89z M55.1,48.9
			C44.6,48.9,36,57.4,36,67.9C36,78.4,44.6,87,55.1,87s19.1-8.6,19.1-19.1C74.2,57.4,65.6,48.9,55.1,48.9z"/>
	</g>
</g>
</svg>
