<?xml version="1.0" encoding="utf-8"?>
<!-- Generator: Adobe Illustrator 22.1.0, SVG Export Plug-In . SVG Version: 6.00 Build 0)  -->
<!DOCTYPE svg PUBLIC "-//W3C//DTD SVG 1.1//EN" "http://www.w3.org/Graphics/SVG/1.1/DTD/svg11.dtd">
<svg version="1.1" xmlns="http://www.w3.org/2000/svg" xmlns:xlink="http://www.w3.org/1999/xlink" x="0px" y="0px"
	 viewBox="0 0 107.4 107.4" style="enable-background:new 0 0 107.4 107.4;" xml:space="preserve">
<style type="text/css">
	.st0{fill:url(#SVGID_1_);}
	.st1{fill:#B7C0EB;}
	.st2{fill:url(#SVGID_2_);}
	.st3{fill:url(#SVGID_3_);}
	.st4{fill:url(#SVGID_4_);}
	.st5{fill:url(#SVGID_5_);}
	.st6{fill:url(#SVGID_6_);}
	.st7{fill:url(#SVGID_7_);}
	.st8{fill:url(#SVGID_8_);}
</style>
<g id="Layer_1">
</g>
<g id="Isolation_Mode">
	<g>
		<g>
			<linearGradient id="SVGID_1_" gradientUnits="userSpaceOnUse" x1="53.7004" y1="-0.7186" x2="53.7004" y2="97.5885">
				<stop  offset="0" style="stop-color:#F1F4FE"/>
				<stop  offset="1" style="stop-color:#FFFFFF"/>
			</linearGradient>
			<path class="st0" d="M105.5,46l-10-2.7c-1-4.3-2.7-8.3-4.9-11.9l5.2-8.9c0.5-1,0.4-2.3-0.4-3.1L88,12c-0.8-0.8-2.1-1-3.1-0.4
				L76,16.8c-3.6-2.2-7.6-3.9-11.9-4.9l-2.7-10C61.1,0.8,60.1,0,58.9,0H48.5c-1.2,0-2.2,0.8-2.5,1.9l-2.7,10
				c-4.3,1-8.3,2.7-11.9,4.9l-8.9-5.2c-1-0.5-2.3-0.4-3.1,0.4L12,19.4c-0.8,0.8-1,2.1-0.4,3.1l5.2,8.9c-2.2,3.6-3.9,7.6-4.9,11.9
				L1.9,46C0.8,46.3,0,47.3,0,48.5v10.5c0,1.2,0.8,2.2,1.9,2.5l10,2.7c1,4.3,2.7,8.3,4.9,11.9l-5.2,8.9c-0.5,1-0.4,2.3,0.4,3.1
				l7.4,7.4c0.8,0.8,2.1,1,3.1,0.4l8.9-5.2c3.6,2.2,7.6,3.9,11.9,4.9l2.7,10c0.3,1.2,1.3,1.9,2.5,1.9h10.5c1.2,0,2.2-0.8,2.5-1.9
				l2.7-10c4.3-1,8.3-2.7,11.9-4.9l8.9,5.2c1,0.5,2.3,0.4,3.1-0.4l7.4-7.4c0.8-0.8,1-2.1,0.4-3.1L90.6,76c2.2-3.6,3.9-7.6,4.9-11.9
				l10-2.7c1.2-0.3,1.9-1.3,1.9-2.5V48.5C107.4,47.4,106.6,46.4,105.5,46z M53.8,85.6c-17.7,0-31.9-14.2-31.9-31.9
				c0-17.7,14.2-31.9,31.9-31.9s31.9,14.2,31.9,31.9S71.4,85.6,53.8,85.6z"/>
		</g>
		<g>
			<circle class="st1" cx="53.7" cy="53.7" r="35.1"/>
			<linearGradient id="SVGID_2_" gradientUnits="userSpaceOnUse" x1="53.7004" y1="85.3784" x2="53.7004" y2="22.894">
				<stop  offset="0" style="stop-color:#F1F4FE"/>
				<stop  offset="1" style="stop-color:#FFFFFF"/>
			</linearGradient>
			<circle class="st2" cx="53.7" cy="53.7" r="32.9"/>
			<g>
				<linearGradient id="SVGID_3_" gradientUnits="userSpaceOnUse" x1="67.6457" y1="70.6816" x2="67.6457" y2="25.0457">
					<stop  offset="0" style="stop-color:#F7530B"/>
					<stop  offset="1" style="stop-color:#F97B08"/>
				</linearGradient>
				<path class="st3" d="M55.4,41.2c2.6,0.4,5.2,1.5,7.2,3.6c0.9,0.9,1.5,1.8,2.1,2.8l15.2-5.8c-1.4-3.1-3.3-5.9-5.9-8.5
					c-5.2-5.2-11.9-8-18.6-8.4V41.2z"/>
				<linearGradient id="SVGID_4_" gradientUnits="userSpaceOnUse" x1="72.5426" y1="70.6816" x2="72.5426" y2="25.0457">
					<stop  offset="0" style="stop-color:#F7530B"/>
					<stop  offset="1" style="stop-color:#F97B08"/>
				</linearGradient>
				<path class="st4" d="M66,50.8c1,4.1-0.1,8.6-3.3,11.8L74,74c7.9-7.9,10.2-19.1,7.1-29L66,50.8z"/>
				<linearGradient id="SVGID_5_" gradientUnits="userSpaceOnUse" x1="40.1105" y1="70.6816" x2="40.1105" y2="25.0457">
					<stop  offset="0" style="stop-color:#F7530B"/>
					<stop  offset="1" style="stop-color:#F97B08"/>
				</linearGradient>
				<path class="st5" d="M43.1,47c0.5-0.8,1.1-1.5,1.7-2.2c2-2,4.6-3.2,7.2-3.6V25c-6.8,0.4-13.4,3.2-18.6,8.4
					c-2.1,2.1-3.8,4.4-5.1,6.9L43.1,47z"/>
				<linearGradient id="SVGID_6_" gradientUnits="userSpaceOnUse" x1="34.8581" y1="70.6816" x2="34.8581" y2="25.0457">
					<stop  offset="0" style="stop-color:#F7530B"/>
					<stop  offset="1" style="stop-color:#F97B08"/>
				</linearGradient>
				<path class="st6" d="M41.6,50.1l-14.8-6.6c-3.9,10.3-1.8,22.3,6.5,30.6l11.4-11.4C41.4,59.2,40.3,54.4,41.6,50.1z"/>
			</g>
			
				<linearGradient id="SVGID_7_" gradientUnits="userSpaceOnUse" x1="-243.9317" y1="264.7841" x2="-216.2146" y2="291.3885" gradientTransform="matrix(0.9345 -0.3561 0.3561 0.9345 182.2772 -283.1406)">
				<stop  offset="0" style="stop-color:#B7C0EB"/>
				<stop  offset="0.5278" style="stop-color:#F1F4FE"/>
				<stop  offset="1" style="stop-color:#FFFFFF"/>
			</linearGradient>
			<path class="st7" d="M76.3,65.2L53.2,54.8c-0.9-0.4-1.4-1.5-0.9-2.5v0c0.4-0.9,1.5-1.4,2.5-0.9l23.1,10.4
				c0.9,0.4,1.4,1.5,0.9,2.5v0C78.3,65.2,77.2,65.6,76.3,65.2z"/>
			<linearGradient id="SVGID_8_" gradientUnits="userSpaceOnUse" x1="53.7004" y1="59.5314" x2="53.7004" y2="47.7943">
				<stop  offset="0" style="stop-color:#B7C0EB"/>
				<stop  offset="0.5278" style="stop-color:#F1F4FE"/>
				<stop  offset="1" style="stop-color:#FFFFFF"/>
			</linearGradient>
			<circle class="st8" cx="53.7" cy="53.7" r="5.9"/>
		</g>
	</g>
</g>
</svg>
