<svg xmlns="http://www.w3.org/2000/svg" viewBox="0 0 1280 1024"><defs><style>.cls-1{fill:#262626;}.cls-2{opacity:0.02;}.cls-3{fill:#fff;}</style></defs><title>Asset 1</title><g id="Layer_2" data-name="Layer 2"><g id="Home"><g id="Background"><rect class="cls-1" width="1280" height="1024"/></g><g id="Content"><g class="cls-2"><path class="cls-3" d="M386.23,483.48c0,22.39-12.62,33.38-35.81,33.38H243.78V192.07H350.42c22.38,0,35.81,9,35.81,33.38Zm-53.32-14.65V240.1H297.1V468.83Z"/><path class="cls-3" d="M514,516.86H399.25V192.07H514v48H452.57v92.8H510v47.21H452.57v88.72H514Z"/><path class="cls-3" d="M656.47,483.48c0,24.42-12.62,33.38-36.22,33.38H522.57v-48h80.58V380.11H556.76c-24.83,0-34.19-12.62-34.19-36.63V226.67c0-24.83,12.62-34.6,36.63-34.6h89.54v48H575.88v92.8h46.4c24.83,0,34.19,13,34.19,37Z"/><path class="cls-3" d="M723.22,516.86H669.9V192.07h53.32Z"/><path class="cls-3" d="M879.5,516.86H773.27c-23.6,0-36.62-9-36.62-33.38V226.67c0-24.83,13-34.6,37-34.6h94.43v48H790V468.83h36.22V332.9H879.5Z"/><path class="cls-3" d="M1035.79,516.86H982.47V357.72l-34.19-54.13h-2V516.86H892.93V192.07h44.36L980,261.26h2.44V192.07h53.32Z"/><path class="cls-3" d="M357.5,768.79c0,18.21-10.26,27.14-29.13,27.14H241.65V531.8h86.72c18.21,0,29.13,7.28,29.13,27.14Zm-43.36-11.91v-186H285v186Z"/><path class="cls-3" d="M461.43,795.93H368.09V531.8h93.34v39.06h-50v75.47h46.67v38.39H411.45v72.16h50Z"/><path class="cls-3" d="M584.23,706.24c0,33.76-18.21,64.54-36.41,89.69h-43c-16.88-24.49-36.41-53.29-36.41-88.37V531.8h43.36V700.61c0,22.84,7.61,39.39,13.9,51h1.66a104.2,104.2,0,0,0,13.57-51V531.8h43.36Z"/><path class="cls-3" d="M688.49,795.93H595.15V531.8h93.34v39.06h-50v75.47h46.67v38.39H638.51v72.16h50Z"/><path class="cls-3" d="M788.78,795.93H695.44V531.8H738.8V756.88h50Z"/><path class="cls-3" d="M911.58,768.79c0,18.87-9.27,27.14-28.8,27.14H824.86c-18.54,0-29.13-7.61-29.13-27.14V558.94c0-18.2,9.6-27.14,29.13-27.14h57.92c18.87,0,28.8,7.61,28.8,27.14Zm-43.36-11.91v-186H839.09v186Z"/><path class="cls-3" d="M1038.35,670.82c0,20.19-10.26,27.8-29.79,27.8h-42.7v97.31H922.5V531.8h86.06c19.53,0,29.79,8,29.79,28.14ZM995,659.57V570.86H965.86v88.71Z"/></g></g></g></g></svg>