<?xml version="1.0" encoding="utf-8"?>
<!-- Generator: Adobe Illustrator 22.1.0, SVG Export Plug-In . SVG Version: 6.00 Build 0)  -->
<!DOCTYPE svg PUBLIC "-//W3C//DTD SVG 1.1//EN" "http://www.w3.org/Graphics/SVG/1.1/DTD/svg11.dtd">
<svg version="1.1" xmlns="http://www.w3.org/2000/svg" xmlns:xlink="http://www.w3.org/1999/xlink" x="0px" y="0px"
	 viewBox="0 0 59.1 59.4" style="enable-background:new 0 0 59.1 59.4;" xml:space="preserve">
<style type="text/css">
	.st0{fill:#0885F9;}
</style>
<g id="Layer_1">
</g>
<g id="Isolation_Mode">
	<path class="st0" d="M23.5,15.9c-0.1-0.7-0.3-1.4-0.4-2.2c-0.1-0.7,0.1-1.1,0.8-1.2c1.5-0.3,2.9-0.6,4.4-0.9c0.6-0.1,1,0.1,1.1,0.7
		c0.1,0.7,0.3,1.4,0.4,2.1c0.1,0.5,0.4,0.8,1,0.9c1,0.2,2.1,0.4,3.1,0.6c0.6,0.2,1,0,1.3-0.5c0.3-0.5,0.7-1.1,1.1-1.6
		c0.4-0.6,0.8-0.7,1.4-0.3c1.2,0.8,2.5,1.6,3.7,2.5c0.5,0.3,0.6,0.8,0.2,1.4c-0.4,0.6-0.7,1.2-1.1,1.7c-0.3,0.4-0.2,0.8,0.1,1.2
		c0.6,0.9,1.3,1.8,1.9,2.8c0.3,0.4,0.6,0.6,1.1,0.5c0.7-0.1,1.4-0.3,2.1-0.4c0.7-0.1,1,0.1,1.2,0.8c0.3,1.4,0.6,2.9,0.9,4.3
		c0.1,0.7-0.1,1.1-0.8,1.2c-0.7,0.1-1.3,0.3-2,0.4c-0.6,0.1-0.8,0.4-0.9,1c-0.2,1-0.4,2.1-0.6,3.1c-0.2,0.6,0,1,0.5,1.3
		c0.6,0.4,1.1,0.7,1.7,1.1c0.5,0.4,0.6,0.8,0.3,1.4c-0.8,1.3-1.7,2.5-2.5,3.7c-0.3,0.5-0.8,0.6-1.3,0.3c-0.6-0.4-1.2-0.7-1.7-1.1
		c-0.5-0.3-0.8-0.3-1.3,0c-0.9,0.6-1.8,1.3-2.8,1.9c-0.4,0.3-0.6,0.6-0.5,1.1c0.1,0.7,0.3,1.4,0.4,2.1c0.1,0.6-0.1,1-0.8,1.2
		c-1.5,0.3-2.9,0.6-4.4,0.9c-0.7,0.1-1-0.1-1.2-0.8c-0.1-0.7-0.2-1.3-0.4-2c-0.1-0.5-0.4-0.8-0.9-0.9c-1.1-0.2-2.1-0.4-3.2-0.6
		c-0.6-0.2-1,0-1.3,0.5c-0.3,0.5-0.7,1.1-1.1,1.6c-0.4,0.6-0.8,0.7-1.4,0.3c-1.2-0.8-2.5-1.6-3.7-2.5c-0.5-0.4-0.6-0.8-0.3-1.4
		c0.3-0.6,0.7-1.1,1.1-1.7c0.4-0.5,0.3-0.9-0.1-1.4c-0.6-0.8-1.2-1.7-1.7-2.6c-0.3-0.5-0.7-0.7-1.3-0.6c-0.7,0.1-1.3,0.2-2,0.4
		c-0.7,0.1-1-0.1-1.2-0.8c-0.3-1.5-0.6-2.9-0.9-4.4c-0.1-0.6,0.1-1,0.8-1.1c0.6-0.1,1.3-0.2,1.9-0.4c0.7-0.1,0.9-0.4,1-1.1
		c0.2-1,0.4-2,0.6-3c0.1-0.6,0-1-0.5-1.3c-0.5-0.3-1.1-0.7-1.6-1.1c-0.6-0.4-0.7-0.9-0.3-1.4c0.8-1.2,1.6-2.4,2.5-3.6
		c0.4-0.5,0.8-0.6,1.4-0.3c0.6,0.3,1.1,0.7,1.7,1.1c0.5,0.3,0.9,0.3,1.4-0.1c0.9-0.6,1.7-1.2,2.6-1.8C23.3,16.8,23.5,16.5,23.5,15.9
		z M29.7,19.9c-5.4,0-9.8,4.2-9.9,9.6c-0.1,5.4,4.2,9.9,9.6,9.9c5.4,0.1,9.8-4.3,9.9-9.7C39.4,24.3,35.1,20,29.7,19.9z"/>
	<path class="st0" d="M29.4,59.4c-5.4-0.2-10.4-1.5-15.1-4.2c-0.5-0.3-0.8-0.3-1.1,0.2c-0.3,0.3-0.6,0.6-0.9,0.9
		c-0.3,0.3-0.6,0.2-0.7-0.2c-0.2-2-0.4-4-0.6-5.9c0-0.4,0.2-0.6,0.6-0.5c2,0.2,3.9,0.4,5.9,0.5c0.2,0,0.4,0.1,0.4,0.2
		c0,0.2-0.1,0.4-0.2,0.5c-0.3,0.3-0.6,0.6-0.9,0.9c-0.4,0.4-0.4,0.6,0.1,0.9c2.9,1.6,6,2.6,9.4,3c7,0.8,13.4-0.9,19-5.2
		c5.7-4.4,9.1-10.2,10-17.4c0.7-5.5-0.3-10.6-2.9-15.5c-0.5-0.9-0.4-1.6,0.2-2.2c0.5-0.6,1.3-0.8,2-0.4c0.4,0.2,0.8,0.6,1,1
		c2.4,4.6,3.6,9.4,3.4,14.6c-0.3,14.2-10.7,26.2-24.8,28.5C32.7,59.2,31,59.3,29.4,59.4z"/>
	<path class="st0" d="M0,29.9C0,15.5,10,3.3,23.9,0.6c7-1.3,13.7-0.3,19.9,3.1c0.9,0.5,0.9,0.5,1.7-0.3C45.7,3.3,45.8,3.1,46,3
		c0.2-0.1,0.5-0.3,0.7-0.2C46.8,2.9,47,3.2,47,3.4c0.1,1.5,0.3,2.9,0.4,4.4c0,0.3,0.1,0.7,0.1,1c0.1,0.6-0.1,0.8-0.7,0.7
		c-1.5-0.1-3-0.3-4.4-0.4c-0.3,0-0.7,0-1-0.1c-0.2-0.1-0.5-0.2-0.6-0.4c-0.1-0.1,0.1-0.4,0.2-0.6c0.1-0.2,0.3-0.3,0.4-0.5
		C42,7,41.9,6.8,41.2,6.4c-1.9-1-4-1.7-6.1-2.2C21.8,1.4,8.7,9,4.7,22c-2.1,6.8-1.4,13.4,1.8,19.7c0.2,0.5,0.4,1,0.4,1.5
		c0,0.8-0.7,1.4-1.5,1.5c-0.7,0.1-1.5-0.2-1.8-1c-1-1.9-1.8-3.9-2.4-6C0.4,35.2,0,32.4,0,29.9z"/>
	<path class="st0" d="M29.6,24.1c3.1,0.1,5.6,2.6,5.5,5.7c-0.1,3.1-2.6,5.6-5.7,5.5c-3.1-0.1-5.6-2.6-5.5-5.7
		C24.1,26.5,26.6,24,29.6,24.1z"/>
</g>
</svg>
