<?xml version="1.0" encoding="utf-8"?>
<!-- Generator: Adobe Illustrator 23.0.1, SVG Export Plug-In . SVG Version: 6.00 Build 0)  -->
<svg version="1.1" xmlns="http://www.w3.org/2000/svg" xmlns:xlink="http://www.w3.org/1999/xlink" x="0px" y="0px"
	 viewBox="0 0 456.405 458.651" style="enable-background:new 0 0 456.405 458.651;" xml:space="preserve">
<style type="text/css">
	.st0{fill:url(#SVGID_1_);}
	.st1{fill:url(#SVGID_2_);}
	.st2{fill:url(#SVGID_3_);}
	.st3{fill:url(#SVGID_4_);}
</style>
<g id="Isolation_Mode">
	<linearGradient id="SVGID_1_" gradientUnits="userSpaceOnUse" x1="232.453" y1="9.664" x2="223.4062" y2="446.6251">
		<stop  offset="0.3" style="stop-color:#EE3A24"/>
		<stop  offset="1" style="stop-color:#AF1F2D"/>
	</linearGradient>
	<path class="st0" d="M181.212,123.018c-0.918-5.056-1.947-10.835-3.022-16.607c-1.04-5.585,0.585-8.112,6.224-9.294
		c11.196-2.348,22.398-4.664,33.611-6.93c4.31-0.871,7.404,1.152,8.296,5.51c1.086,5.307,1.951,10.66,2.933,15.989
		c0.773,4.193,3.097,6.401,7.523,7.094c8.01,1.254,16.02,2.719,23.862,4.748c4.758,1.231,7.851,0.075,10.353-3.866
		c2.664-4.196,5.375-8.364,8.155-12.483c2.882-4.27,6.523-5.118,10.833-2.275c9.555,6.305,19.038,12.72,28.485,19.186
		c3.926,2.687,4.559,6.296,1.901,10.599c-2.77,4.484-5.658,8.9-8.645,13.242c-2.317,3.367-1.835,6.348,0.395,9.551
		c4.893,7.028,9.693,14.123,14.372,21.295c2.147,3.291,4.838,4.768,8.745,3.993c5.315-1.054,10.642-2.051,15.968-3.048
		c5.29-0.99,7.984,0.783,9.086,6.102c2.29,11.053,4.513,22.121,6.774,33.18c1.059,5.179-0.784,8.114-5.952,9.139
		c-5.167,1.025-10.358,1.935-15.548,2.843c-4.316,0.755-6.254,3.288-6.941,7.626c-1.269,8.004-2.738,16.006-4.746,23.85
		c-1.168,4.56-0.137,7.585,3.644,10.015c4.308,2.769,8.623,5.531,12.858,8.408c4.068,2.763,5.01,6.44,2.336,10.511
		c-6.367,9.694-12.891,19.286-19.47,28.838c-2.544,3.693-6.299,4.374-10.285,1.932c-4.493-2.753-8.927-5.622-13.225-8.668
		c-3.504-2.484-6.54-2.068-9.913,0.302c-7.004,4.923-14.123,9.685-21.282,14.38c-3.303,2.166-4.628,4.959-3.861,8.824
		c1.054,5.315,2.08,10.637,3.058,15.967c0.921,5.015-0.829,7.866-5.82,8.918c-11.193,2.359-22.414,4.588-33.64,6.786
		c-5.273,1.032-7.989-0.846-9.016-6.107c-1.01-5.17-1.894-10.365-2.867-15.543c-0.716-3.812-2.785-5.946-6.86-6.611
		c-8.154-1.332-16.313-2.801-24.32-4.809c-4.677-1.173-7.885-0.277-10.412,3.75c-2.641,4.21-5.36,8.374-8.143,12.491
		c-2.931,4.337-6.451,5.22-10.807,2.361c-9.571-6.281-19.047-12.707-28.487-19.184c-3.945-2.707-4.597-6.387-1.979-10.616
		c2.695-4.352,5.445-8.684,8.428-12.84c2.766-3.854,2.021-7.016-0.636-10.633c-4.711-6.417-9.277-12.977-13.376-19.794
		c-2.498-4.153-5.552-5.604-10.1-4.712c-5.022,0.985-10.062,1.878-15.093,2.821c-5.302,0.993-8.044-0.684-9.136-5.937
		c-2.327-11.2-4.559-22.421-6.767-33.645c-0.975-4.957,0.898-7.645,5.954-8.652c4.871-0.97,9.764-1.836,14.646-2.754
		c5.613-1.056,6.862-2.792,7.768-8.258c1.302-7.856,2.861-15.692,4.807-23.41c1.131-4.486,0.201-7.605-3.655-10.034
		c-4.205-2.649-8.379-5.351-12.504-8.123c-4.549-3.056-5.365-6.567-2.338-11.158c6.217-9.433,12.552-18.789,18.927-28.116
		c2.804-4.102,6.237-4.823,10.518-2.21c4.369,2.667,8.7,5.42,12.869,8.385c3.794,2.699,7.007,2.246,10.678-0.417
		c6.563-4.761,13.338-9.242,20.167-13.618C179.431,129.449,181.463,127.387,181.212,123.018z M229.516,153.72
		c-41.784-0.339-75.862,32.676-76.246,73.867c-0.391,41.978,32.687,76.165,74.081,76.565c41.624,0.403,75.641-32.94,76.087-74.58
		C303.887,187.673,271.126,154.057,229.516,153.72z"/>
	<linearGradient id="SVGID_2_" gradientUnits="userSpaceOnUse" x1="277.0692" y1="10.5878" x2="268.0224" y2="447.5488">
		<stop  offset="0.3" style="stop-color:#EE3A24"/>
		<stop  offset="1" style="stop-color:#AF1F2D"/>
	</linearGradient>
	<path class="st1" d="M226.718,458.651c-41.626-1.2-80.481-11.521-116.268-32.756c-3.771-2.237-6.123-2.027-8.81,1.21
		c-2.013,2.425-4.326,4.636-6.708,6.711c-2.454,2.138-4.733,1.318-5.057-1.873c-1.552-15.288-2.971-30.589-4.43-45.887
		c-0.3-3.148,1.217-4.464,4.286-4.184c15.154,1.385,30.311,2.738,45.457,4.212c1.201,0.117,3.14,0.92,3.286,1.683
		c0.224,1.167-0.517,2.831-1.375,3.833c-2.052,2.398-4.445,4.501-6.637,6.784c-3.115,3.244-2.896,4.548,1.09,6.737
		c22.567,12.391,46.605,20.279,72.192,23.215c54.148,6.214,103.348-6.703,146.48-40.017c43.996-33.981,69.919-78.93,77.129-134.241
		c5.504-42.222-2.181-82.136-22.004-119.769c-3.552-6.743-3.087-12.392,1.26-17.144c3.986-4.358,10.138-6.258,15.175-3.469
		c3.2,1.772,6.264,4.843,7.982,8.079c18.674,35.175,27.489,72.747,26.576,112.581c-2.52,109.901-82.548,202.267-191.033,220.143
		C252.562,456.599,239.587,457.301,226.718,458.651z"/>
	<linearGradient id="SVGID_3_" gradientUnits="userSpaceOnUse" x1="186.1524" y1="8.7054" x2="177.1056" y2="445.6665">
		<stop  offset="0.3" style="stop-color:#EE3A24"/>
		<stop  offset="1" style="stop-color:#AF1F2D"/>
	</linearGradient>
	<path class="st2" d="M0.01,230.433C-0.006,119.312,77.113,25.082,184.623,4.36c54.007-10.409,105.48-2.1,153.957,24.07
		c7.321,3.952,7.289,4.013,13.275-1.982c1.065-1.066,1.973-2.404,3.234-3.132c1.566-0.903,3.751-2.169,5.061-1.674
		c1.3,0.492,2.454,2.915,2.624,4.598c1.138,11.24,1.993,22.509,2.947,33.767c0.216,2.552,0.47,5.101,0.699,7.652
		c0.427,4.765-0.799,6.155-5.466,5.771c-11.411-0.938-22.813-1.986-34.22-2.978c-2.552-0.222-5.19-0.075-7.632-0.705
		c-1.695-0.437-3.769-1.601-4.456-3.027c-0.503-1.045,0.741-3.189,1.627-4.574c0.873-1.364,2.278-2.388,3.446-3.564
		c4.261-4.293,3.919-6.163-1.657-8.948c-15.021-7.502-30.737-13.083-47.142-16.606C168.118,10.953,67.074,69.685,36.321,169.993
		c-16.051,52.355-10.907,103.218,13.663,152.18c1.814,3.615,3.235,7.953,3.103,11.897c-0.203,6.092-5.466,10.684-11.465,11.665
		c-5.641,0.923-11.214-1.899-14.237-7.456c-8.015-14.733-14.27-30.204-18.798-46.342C2.819,271.378-0.2,250.417,0.01,230.433z"/>
	<linearGradient id="SVGID_4_" gradientUnits="userSpaceOnUse" x1="232.764" y1="9.6705" x2="223.7172" y2="446.6315">
		<stop  offset="0.3" style="stop-color:#EE3A24"/>
		<stop  offset="1" style="stop-color:#AF1F2D"/>
	</linearGradient>
	<path class="st3" d="M228.681,186.056c23.932,0.474,43.126,20.082,42.706,43.626c-0.426,23.832-20.173,43.153-43.644,42.703
		c-24.066-0.461-43.262-20.294-42.682-44.096C185.635,204.709,205.378,185.594,228.681,186.056z"/>
</g>
<g id="Capa_1">
</g>
</svg>
