<?xml version="1.0" encoding="utf-8"?>
<!-- Generator: Adobe Illustrator 22.1.0, SVG Export Plug-In . SVG Version: 6.00 Build 0)  -->
<!DOCTYPE svg PUBLIC "-//W3C//DTD SVG 1.1//EN" "http://www.w3.org/Graphics/SVG/1.1/DTD/svg11.dtd">
<svg version="1.1" xmlns="http://www.w3.org/2000/svg" xmlns:xlink="http://www.w3.org/1999/xlink" x="0px" y="0px"
	 viewBox="0 0 46.1 46.1" style="enable-background:new 0 0 46.1 46.1;" xml:space="preserve">
<style type="text/css">
	.st0{fill:#0885F9;}
</style>
<g id="Layer_1">
</g>
<g id="Isolation_Mode">
	<path class="st0" d="M23,34c-6.1,0-11-4.9-11-11S17,12,23,12c6.1,0,11,4.9,11,11c0,0.6-0.1,1.2-0.2,1.8c-0.1,0.4-0.5,0.7-0.9,0.6
		c-0.4-0.1-0.7-0.5-0.6-0.9c0.1-0.6,0.1-1.1,0.1-1.6c0-5.2-4.3-9.5-9.5-9.5c-5.2,0-9.5,4.3-9.5,9.5s4.3,9.5,9.5,9.5
		c0.5,0,1,0,1.6-0.1c0.4-0.1,0.8,0.2,0.9,0.6c0.1,0.4-0.2,0.8-0.6,0.9C24.2,34,23.6,34,23,34z"/>
	<path class="st0" d="M23.9,29.7c0.9-0.1,1.7,0.2,2.3,0.8l12.8,12.8c0.4,0.4,1.1,0.4,1.5,0h0c0.4-0.4,0.4-1.1,0-1.5L27.2,28.4
		c-0.3-0.3-0.3-0.9,0-1.2c0.3-0.3,0.9-0.3,1.2,0l13.4,13.4c0.4,0.4,1.1,0.4,1.5,0l0,0c0.4-0.4,0.4-1.1,0-1.5L30.5,26.3
		c-0.6-0.6-1-1.5-0.8-2.3c0.3-2.1-0.3-4.2-1.9-5.8c-1.6-1.6-3.7-2.2-5.8-1.9c-0.3,0-0.5,0.4-0.2,0.7l2.1,2.1c1,1,1,2.6,0,3.5
		l-1.3,1.3c-1,1-2.6,1-3.5,0l-2.1-2.1c-0.2-0.2-0.6-0.1-0.7,0.2c-0.3,2.1,0.3,4.2,1.9,5.8C19.7,29.4,21.9,30,23.9,29.7z"/>
	<path class="st0" d="M24.7,46.1h-3.5c-1,0-1.8-0.7-2-1.6l-1-4.5c0-0.2-0.2-0.4-0.4-0.4c-1-0.3-1.9-0.7-2.8-1.2
		c-0.2-0.1-0.4-0.1-0.6,0l-3.8,2.5c-0.8,0.5-1.9,0.4-2.6-0.3L5.4,38c-0.7-0.7-0.8-1.8-0.3-2.6l2.5-3.9c0.1-0.2,0.1-0.4,0-0.6
		C7.2,30,6.8,29,6.5,28.1c-0.1-0.2-0.2-0.4-0.4-0.4l-4.4-0.9c-1-0.2-1.6-1.1-1.6-2v-3.5c0-1,0.7-1.8,1.6-2l4.5-1
		c0.2,0,0.4-0.2,0.4-0.4c0.3-1,0.7-1.9,1.2-2.8c0.1-0.2,0.1-0.4,0-0.6l-2.5-3.8C4.8,9.7,4.9,8.6,5.6,7.9l2.5-2.5
		c0.7-0.7,1.8-0.8,2.6-0.3l3.9,2.5c0.2,0.1,0.4,0.1,0.6,0C16.1,7.2,17,6.8,18,6.5c0.2-0.1,0.4-0.2,0.4-0.4l0.9-4.4
		c0.2-1,1.1-1.6,2-1.6h3.5c1,0,1.8,0.7,2,1.6l1,4.5c0,0.2,0.2,0.4,0.4,0.4c1,0.3,1.9,0.7,2.8,1.2c0.2,0.1,0.4,0.1,0.6,0l3.8-2.5
		c0.8-0.5,1.9-0.4,2.6,0.3l2.5,2.5c0.7,0.7,0.8,1.8,0.3,2.6l-2.5,3.9c-0.1,0.2-0.1,0.4,0,0.6c0.5,0.9,0.8,1.9,1.1,2.8
		c0.1,0.2,0.2,0.4,0.4,0.4l4.4,0.9c1,0.2,1.6,1.1,1.6,2v3.5c0,1-0.7,1.8-1.6,2l-4.5,1c-0.2,0-0.4,0.2-0.4,0.4
		c-0.2,0.5-0.4,1.1-0.7,1.7c-0.2,0.4-0.6,0.5-1,0.4c-0.4-0.2-0.5-0.6-0.4-1c0.3-0.6,0.4-1.1,0.6-1.5c0.2-0.7,0.8-1.3,1.6-1.4l4.5-1
		c0.3-0.1,0.5-0.3,0.5-0.6v-3.5c0-0.3-0.2-0.5-0.5-0.6l-4.4-0.9c-0.7-0.2-1.3-0.7-1.6-1.5c-0.3-0.9-0.6-1.8-1-2.6
		c-0.3-0.7-0.3-1.5,0.1-2.1l2.5-3.9c0.1-0.2,0.1-0.5-0.1-0.7l-2.5-2.5c-0.2-0.2-0.5-0.2-0.7-0.1l-3.8,2.5c-0.6,0.4-1.5,0.4-2.1,0.1
		c-0.8-0.4-1.7-0.8-2.6-1.1c-0.7-0.2-1.3-0.8-1.4-1.6l-1-4.5c-0.1-0.3-0.3-0.5-0.6-0.5h-3.5c-0.3,0-0.5,0.2-0.6,0.5l-0.9,4.4
		c-0.2,0.7-0.7,1.3-1.5,1.6c-0.9,0.3-1.8,0.6-2.6,1c-0.7,0.3-1.5,0.3-2.1-0.1L9.9,6.4C9.6,6.2,9.3,6.3,9.2,6.5L6.7,9
		C6.5,9.1,6.4,9.5,6.6,9.7l2.5,3.8c0.4,0.6,0.4,1.5,0.1,2.1c-0.4,0.8-0.8,1.7-1.1,2.6c-0.2,0.7-0.8,1.3-1.6,1.4l-4.5,1
		c-0.3,0.1-0.5,0.3-0.5,0.6v3.5c0,0.3,0.2,0.5,0.5,0.6l4.4,0.9c0.7,0.2,1.3,0.7,1.6,1.5c0.3,0.9,0.6,1.8,1,2.6
		c0.3,0.7,0.3,1.5-0.1,2.1l-2.5,3.9c-0.1,0.2-0.1,0.5,0.1,0.7L9,39.4c0.2,0.2,0.5,0.2,0.7,0.1l3.8-2.5c0.6-0.4,1.5-0.4,2.1-0.1
		c0.8,0.4,1.7,0.8,2.6,1.1c0.7,0.2,1.3,0.8,1.4,1.6l1,4.5c0.1,0.3,0.3,0.5,0.6,0.5h3.5c0.3,0,0.5-0.2,0.6-0.5l0.9-4.4
		c0.2-0.7,0.7-1.3,1.5-1.6c0.5-0.2,1.1-0.4,1.8-0.7c0.4-0.2,0.8,0,1,0.4c0.2,0.4,0,0.8-0.4,1c-0.7,0.3-1.4,0.6-2,0.7
		c-0.2,0.1-0.4,0.2-0.4,0.4l-0.9,4.4C26.5,45.4,25.6,46.1,24.7,46.1z"/>
</g>
</svg>
