<?xml version="1.0" encoding="utf-8"?>
<!-- Generator: Adobe Illustrator 23.0.1, SVG Export Plug-In . SVG Version: 6.00 Build 0)  -->
<svg version="1.1" xmlns="http://www.w3.org/2000/svg" xmlns:xlink="http://www.w3.org/1999/xlink" x="0px" y="0px"
	 viewBox="0 0 2612.855 850.803" style="enable-background:new 0 0 2612.855 850.803;" xml:space="preserve">
<style type="text/css">
	.st0{fill:#0885F9;}
	.st1{enable-background:new    ;}
	.st2{fill:#F97B08;}
</style>
<g id="Layer_1">
	<g>
		<path class="st0" d="M641.108,41.012c0,13.473-4.211,23.776-12.63,30.912c-8.419,7.133-20.393,10.701-35.917,10.701h-11.39v44.525
			h-26.544V1.968h39.988c15.182,0,26.725,3.268,34.634,9.803C637.155,18.31,641.108,28.053,641.108,41.012z M581.171,60.877h8.734
			c8.164,0,14.27-1.611,18.324-4.837c4.054-3.226,6.078-7.923,6.078-14.088c0-6.221-1.698-10.817-5.092-13.784
			c-3.397-2.967-8.72-4.452-15.968-4.452h-12.075V60.877z"/>
		<path class="st0" d="M807.827,64.389c0,20.718-5.137,36.647-15.412,47.775c-10.275,11.135-25.002,16.698-44.182,16.698
			c-19.18,0-33.907-5.564-44.182-16.698c-10.275-11.128-15.412-27.113-15.412-47.95c0-20.833,5.148-36.745,15.454-47.733
			C714.395,5.494,729.165,0,748.4,0c19.239,0,33.953,5.536,44.14,16.608C802.732,27.683,807.827,43.609,807.827,64.389z
			 M716.464,64.389c0,13.983,2.656,24.516,7.961,31.594c5.312,7.077,13.246,10.617,23.807,10.617
			c21.175,0,31.765-14.07,31.765-42.211c0-28.2-10.53-42.302-31.597-42.302c-10.558,0-18.523,3.554-23.887,10.663
			C719.148,39.855,716.464,50.403,716.464,64.389z"/>
		<path class="st0" d="M985.156,127.15h-30.224l-16.957-65.759c-0.626-2.342-1.698-7.178-3.208-14.514
			c-1.513-7.332-2.383-12.256-2.614-14.769c-0.343,3.082-1.195,8.035-2.565,14.857s-2.429,11.687-3.17,14.598l-16.87,65.588h-30.14
			L847.473,1.968h26.114L889.6,70.296c2.796,12.616,4.823,23.548,6.081,32.796c0.342-3.257,1.125-8.293,2.352-15.115
			c1.227-6.818,2.383-12.117,3.47-15.884L919.74,1.968h25.086l18.24,70.124c0.8,3.142,1.8,7.937,2.995,14.385
			c1.202,6.452,2.114,11.987,2.74,16.615c0.573-4.452,1.485-10.006,2.74-16.657c1.258-6.647,2.397-12.029,3.425-16.139l15.93-68.328
			h26.114L985.156,127.15z"/>
		<path class="st0" d="M1134.321,127.15h-72.095V1.968h72.095v21.749h-45.552V51.2h42.382v21.752h-42.382v32.279h45.552V127.15z"/>
		<path class="st0" d="M1216.436,79.117v48.033h-26.544V1.968h36.476c17.01,0,29.598,3.096,37.762,9.289
			c8.161,6.196,12.243,15.598,12.243,28.214c0,7.364-2.027,13.913-6.078,19.652c-4.054,5.735-9.793,10.229-17.212,13.487
			c18.837,28.141,31.111,46.321,36.818,54.541h-29.455l-29.881-48.033H1216.436z M1216.436,57.539h8.562
			c8.391,0,14.584-1.401,18.582-4.197c3.995-2.796,5.99-7.192,5.99-13.186c0-5.938-2.041-10.16-6.12-12.672
			c-4.082-2.513-10.404-3.767-18.967-3.767h-8.049V57.539z"/>
		<path class="st0" d="M1407.214,127.15h-72.092V1.968h72.092v21.749h-45.545V51.2h42.379v21.752h-42.379v32.279h45.545V127.15z"/>
		<path class="st0" d="M1566.656,63.362c0,20.606-5.864,36.389-17.593,47.348s-28.672,16.44-50.815,16.44h-35.452V1.968h39.303
			c20.431,0,36.305,5.393,47.607,16.185C1561.009,28.937,1566.656,44.007,1566.656,63.362z M1539.089,64.047
			c0-26.889-11.875-40.331-35.62-40.331h-14.126v81.514h11.386C1526.297,105.23,1539.089,91.503,1539.089,64.047z"/>
		<path class="st0" d="M1697.071,1.968h38.961c17.754,0,30.636,2.527,38.66,7.577c8.017,5.054,12.029,13.088,12.029,24.104
			c0,7.479-1.754,13.616-5.27,18.411c-3.509,4.795-8.178,7.675-13.994,8.646v0.856c7.933,1.768,13.651,5.082,17.167,9.932
			c3.509,4.851,5.263,11.302,5.263,19.351c0,11.418-4.124,20.323-12.372,26.715c-8.248,6.392-19.452,9.59-33.607,9.59h-46.838V1.968
			z M1723.618,51.542h15.405c7.199,0,12.407-1.111,15.629-3.338c3.222-2.226,4.837-5.91,4.837-11.047
			c0-4.795-1.754-8.23-5.263-10.317c-3.509-2.083-9.066-3.124-16.656-3.124h-13.951V51.542z M1723.618,72.609v32.621h17.292
			c7.304,0,12.7-1.398,16.181-4.194c3.481-2.799,5.221-7.081,5.221-12.847c0-10.387-7.416-15.58-22.255-15.58H1723.618z"/>
		<path class="st0" d="M1883.312,53.513l26.114-51.546h28.602l-41.533,76.464v48.718h-26.372V79.284l-41.526-77.317h28.77
			L1883.312,53.513z"/>
	</g>
	<rect y="52.984" class="st0" width="428.733" height="17.201"/>
	<rect x="2049.105" y="52.984" class="st0" width="428.733" height="17.201"/>
</g>
<g id="Isolation_Mode">
	<g>
		<g>
			<polygon class="st0" points="460.779,586.862 167.475,376.596 186.404,347.316 500.23,524.032 			"/>
			<path d="M427.296,586.718"/>
			<g class="st1">
				<path class="st0" d="M642.67,843.495v-521.91h85.279v521.91H642.67z"/>
			</g>
			<g class="st1">
				<path class="st0" d="M1160.509,645.467c0,64.516-16.538,114.872-49.605,151.06c-33.067,36.188-79.093,54.277-138.09,54.277
					c-36.873,0-69.464-8.326-97.772-24.997c-28.309-16.662-50.071-40.584-65.296-71.776s-22.837-67.38-22.837-108.563
					c0-64.04,16.414-114.035,49.243-149.984s79.093-53.925,138.804-53.925c57.093,0,102.292,18.394,135.597,55.171
					C1143.856,533.516,1160.509,583.092,1160.509,645.467z M873.262,645.467c0,91.016,33.657,136.52,100.979,136.52
					c66.609,0,99.914-45.503,99.914-136.52c0-90.055-33.542-135.093-100.627-135.093c-35.208,0-60.728,11.647-76.543,34.932
					C881.169,568.6,873.262,601.981,873.262,645.467z"/>
			</g>
			<g class="st1">
				<path class="st2" d="M1367.591,843.495h-110.619V413.544h-141.658v-91.958h393.945v91.958h-141.668V843.495z"/>
			</g>
			<g class="st1">
				<path class="st2" d="M1762.764,843.495l-21.058-54.267h-2.855c-18.327,23.151-37.196,39.204-56.589,48.149
					c-19.393,8.945-44.685,13.426-75.858,13.426c-38.319,0-68.484-10.952-90.503-32.867c-22.019-21.905-33.019-53.106-33.019-93.595
					c0-42.382,14.816-73.641,44.447-93.766s74.317-31.259,134.055-33.409l69.254-2.141V577.45c0-40.651-20.706-60.985-62.118-60.985
					c-31.896,0-69.378,9.639-112.455,28.908l-36.054-73.375c45.922-23.941,96.849-35.921,152.772-35.921
					c53.535,0,94.585,11.666,123.141,34.998c28.556,23.332,42.839,58.797,42.839,106.403v266.017H1762.764z M1730.64,658.36
					l-42.144,1.427c-31.668,0.961-55.238,6.689-70.71,17.176s-23.208,26.463-23.208,47.92c0,30.764,17.613,46.141,52.849,46.141
					c25.235,0,45.418-7.27,60.538-21.819c15.111-14.54,22.676-33.856,22.676-57.94V658.36z"/>
				<path class="st2" d="M2020.555,843.495h-108.839V288.091h108.839V843.495z"/>
				<path class="st2" d="M2198.057,626.569l47.435-60.652l111.627-121.314h122.751l-158.358,173.05L2489.5,843.495h-125.606
					L2249.07,681.883l-46.731,37.463v124.15H2093.5V288.091h108.839v247.785l-5.709,90.693H2198.057z"/>
			</g>
			<circle class="st2" cx="118.303" cy="727.939" r="115.396"/>
			<circle class="st2" cx="452.104" cy="536.724" r="83.924"/>
			<circle class="st0" cx="206.493" cy="381.775" r="60.425"/>
			<polygon class="st2" points="130.866,780.197 76.671,691.663 453.979,504.133 478.517,545.402 			"/>
		</g>
		<g>
			<path class="st2" d="M2522.242,507.694h-7.229v-55.746h-19.688v-6.421h46.604v6.421h-19.688V507.694z"/>
			<path class="st2" d="M2578.795,507.694l-21.091-55.108h-0.34c0.396,4.366,0.595,9.553,0.595,15.563v39.545h-6.676v-62.166h10.885
				l19.688,51.281h0.34l19.858-51.281h10.801v62.166h-7.229v-40.055c0-4.592,0.198-9.581,0.595-14.968h-0.34l-21.261,55.023
				H2578.795z"/>
		</g>
	</g>
</g>
</svg>
