<?xml version="1.0" encoding="utf-8"?>
<!-- Generator: Adobe Illustrator 22.1.0, SVG Export Plug-In . SVG Version: 6.00 Build 0)  -->
<!DOCTYPE svg PUBLIC "-//W3C//DTD SVG 1.1//EN" "http://www.w3.org/Graphics/SVG/1.1/DTD/svg11.dtd">
<svg version="1.1" xmlns="http://www.w3.org/2000/svg" xmlns:xlink="http://www.w3.org/1999/xlink" x="0px" y="0px"
	 viewBox="0 0 276.9 77.1" style="enable-background:new 0 0 276.9 77.1;" xml:space="preserve">
<style type="text/css">
	.st0{fill:#7F7F7F;}
	.st1{fill:#0885F9;}
	.st2{enable-background:new    ;}
	.st3{fill:#F97B08;}
</style>
<g id="Layer_1">
	<g>
		<g>
			<path class="st0" d="M4.1,72.2H2.4l2.7-12.9h-4l0.3-1.5h9.7l-0.3,1.5h-4L4.1,72.2z"/>
			<path class="st0" d="M15.9,72.2l1.5-6.8c0.1-0.6,0.2-1.1,0.2-1.3c0-1-0.5-1.5-1.4-1.5c-0.6,0-1.2,0.2-1.7,0.6
				c-0.6,0.4-1,1-1.5,1.7c-0.4,0.7-0.7,1.6-1,2.7l-1,4.7H9.3L12.6,57h1.7c-0.1,0.5-0.2,1.1-0.3,1.6s-0.2,1-0.3,1.5s-0.2,1.1-0.4,1.6
				c-0.1,0.6-0.3,1.2-0.5,1.9h0.1c0.6-0.8,1.2-1.4,1.8-1.7s1.2-0.5,1.9-0.5c0.9,0,1.5,0.2,2,0.7s0.7,1.1,0.7,2c0,0.4-0.1,1-0.2,1.6
				c-0.3,1.3-0.7,3.5-1.4,6.6L15.9,72.2L15.9,72.2z"/>
			<path class="st0" d="M24.7,72.4c-1.2,0-2.2-0.4-2.9-1.1c-0.7-0.7-1-1.7-1-3c0-1.2,0.2-2.4,0.7-3.6c0.5-1.1,1.1-2,1.9-2.6
				s1.7-0.9,2.7-0.9s1.8,0.2,2.3,0.7c0.5,0.4,0.8,1,0.8,1.8c0,1.2-0.5,2.1-1.6,2.8c-1.1,0.7-2.7,1-4.7,1h-0.3v0.8
				c0,0.9,0.2,1.5,0.6,2s1,0.7,1.9,0.7c0.4,0,0.8-0.1,1.3-0.2c0.4-0.1,1-0.3,1.6-0.7v1.4c-0.6,0.3-1.2,0.5-1.6,0.6
				C25.7,72.4,25.2,72.4,24.7,72.4z M26,62.6c-0.7,0-1.3,0.3-1.9,0.9c-0.6,0.6-1.1,1.5-1.4,2.6h0.1c1.5,0,2.6-0.2,3.4-0.6
				s1.2-1,1.2-1.7c0-0.3-0.1-0.6-0.4-0.9C26.9,62.7,26.5,62.6,26,62.6z"/>
			<path class="st0" d="M36.3,72.2h-1.7l3-14.4h7.2l-0.3,1.5H39l-1,5.3h5.2l-0.3,1.5h-5.2L36.3,72.2z"/>
			<path class="st0" d="M45,72.2h-1.7l2.3-10.8h1.7L45,72.2z M46.1,58.6c0-0.4,0.1-0.7,0.3-0.9s0.5-0.4,0.8-0.4
				c0.6,0,0.9,0.3,0.9,0.9c0,0.4-0.1,0.7-0.3,0.9s-0.5,0.4-0.8,0.4s-0.5-0.1-0.7-0.2C46.2,59.2,46.1,58.9,46.1,58.6z"/>
			<path class="st0" d="M54.7,61.2c0.5,0,0.8,0,1.2,0.1l-0.4,1.5c-0.3-0.1-0.7-0.1-1-0.1c-0.6,0-1.2,0.2-1.7,0.6
				c-0.5,0.4-1,0.9-1.4,1.6c-0.4,0.7-0.7,1.5-0.9,2.3l-1.1,5h-1.7L50,61.4h1.4l-0.2,2h0.1c0.5-0.6,0.9-1.1,1.2-1.3
				c0.3-0.3,0.6-0.5,1-0.6C53.9,61.3,54.3,61.2,54.7,61.2z"/>
			<path class="st0" d="M61.9,69.1c0,1-0.4,1.8-1.1,2.4c-0.7,0.6-1.8,0.9-3.1,0.9c-1.1,0-2.1-0.2-3-0.7v-1.6c0.5,0.3,1,0.5,1.5,0.6
				c0.5,0.2,1,0.2,1.5,0.2c0.8,0,1.5-0.2,1.9-0.5s0.6-0.7,0.6-1.3c0-0.4-0.1-0.7-0.3-0.9c-0.2-0.3-0.7-0.6-1.5-1.1
				c-0.9-0.5-1.5-0.9-1.8-1.4c-0.4-0.5-0.5-1-0.5-1.6c0-0.9,0.3-1.6,1-2.2c0.7-0.6,1.5-0.8,2.6-0.8s2.2,0.2,3.3,0.7l-0.5,1.4
				L61.8,63c-0.7-0.3-1.4-0.4-2.2-0.4c-0.6,0-1.1,0.1-1.4,0.4c-0.3,0.3-0.5,0.7-0.5,1.1c0,0.4,0.1,0.7,0.4,0.9
				c0.2,0.3,0.7,0.6,1.4,1s1.2,0.7,1.5,1s0.5,0.6,0.7,0.9C61.8,68.4,61.9,68.7,61.9,69.1z"/>
			<path class="st0" d="M66.6,71.1c0.4,0,0.8-0.1,1.4-0.3v1.3c-0.2,0.1-0.5,0.2-0.8,0.2c-0.3,0.1-0.6,0.1-0.8,0.1
				c-0.8,0-1.5-0.2-1.9-0.6s-0.7-1-0.7-1.8c0-0.4,0.1-0.9,0.2-1.5l1.3-5.9h-1.7l0.1-0.7l1.8-0.8l1.2-2.2h1l-0.5,2.5h2.7l-0.3,1.3
				h-2.7l-1.3,6c-0.1,0.6-0.2,1-0.2,1.3c0,0.4,0.1,0.7,0.3,0.8C66,71,66.2,71.1,66.6,71.1z"/>
			<path class="st0" d="M74.1,72.2l3.1-14.4h1.7l-3.1,14.4H74.1z"/>
			<path class="st0" d="M84.5,61.3c1.2,0,2.2,0.4,3,1.1c0.7,0.7,1.1,1.8,1.1,3.1c0,1.2-0.2,2.4-0.7,3.5s-1.1,1.9-1.9,2.5
				s-1.7,0.9-2.7,0.9c-1.3,0-2.3-0.4-3-1.1s-1.1-1.8-1.1-3s0.2-2.4,0.7-3.5s1.1-1.9,1.9-2.5C82.6,61.6,83.5,61.3,84.5,61.3z
				 M86.8,65.2c0-0.8-0.2-1.4-0.6-1.8c-0.4-0.5-1-0.7-1.7-0.7s-1.4,0.2-1.9,0.7c-0.6,0.5-1,1.2-1.3,2c-0.3,0.9-0.5,1.8-0.5,2.9
				c0,0.9,0.2,1.5,0.6,2s1,0.7,1.8,0.7c0.7,0,1.3-0.2,1.8-0.7s1-1.2,1.3-2C86.7,67.3,86.8,66.3,86.8,65.2z"/>
			<path class="st0" d="M93.7,72.2H92l2.7-12.9h-4l0.3-1.5h9.7l-0.3,1.5h-4L93.7,72.2z"/>
			<path class="st0" d="M116.9,63.3c0,1.8-0.3,3.4-0.9,4.7c-0.6,1.4-1.4,2.5-2.5,3.2c-1.1,0.8-2.3,1.1-3.7,1.1c-1.7,0-3-0.5-3.9-1.5
				s-1.4-2.4-1.4-4.1s0.3-3.3,0.9-4.8c0.6-1.4,1.5-2.5,2.6-3.3s2.3-1.2,3.7-1.2c1.6,0,2.9,0.5,3.8,1.5
				C116.5,60.1,116.9,61.5,116.9,63.3z M111.6,59.1c-1,0-2,0.3-2.8,1s-1.4,1.6-1.9,2.8s-0.7,2.5-0.7,3.9c0,1.3,0.3,2.3,1,3.1
				c0.6,0.7,1.5,1.1,2.6,1.1c1,0,1.9-0.3,2.7-1c0.8-0.6,1.4-1.6,1.9-2.8c0.5-1.2,0.7-2.5,0.7-4c0-1.3-0.3-2.3-0.9-3.1
				C113.6,59.4,112.7,59.1,111.6,59.1z"/>
			<path class="st0" d="M122.3,72.4c-0.6,0-1.2-0.2-1.7-0.5s-0.9-0.8-1.1-1.4h-0.1v0.4c0,0.2-0.1,0.4-0.1,0.7c0,0.3-0.4,2.1-1.1,5.5
				h-1.6l3.3-15.7h1.4l-0.3,2.1h0.1c1.2-1.5,2.4-2.2,3.7-2.2c0.9,0,1.6,0.3,2.1,1c0.5,0.6,0.8,1.5,0.8,2.7c0,1.4-0.2,2.7-0.7,3.8
				c-0.5,1.2-1.1,2.1-1.9,2.7C124.2,72.1,123.3,72.4,122.3,72.4z M124.1,62.6c-0.6,0-1.3,0.3-1.9,0.9c-0.7,0.6-1.2,1.4-1.6,2.4
				c-0.4,0.9-0.6,1.9-0.6,2.9c0,0.7,0.2,1.3,0.5,1.7c0.4,0.4,0.9,0.6,1.6,0.6s1.3-0.3,1.8-0.8c0.6-0.5,1-1.3,1.4-2.3
				c0.3-1,0.5-2,0.5-3.1C125.9,63.3,125.3,62.6,124.1,62.6z"/>
			<path class="st0" d="M132.8,72.4c-1.2,0-2.2-0.4-2.9-1.1s-1-1.7-1-3c0-1.2,0.2-2.4,0.7-3.6c0.5-1.1,1.1-2,1.9-2.6
				s1.7-0.9,2.7-0.9s1.8,0.2,2.3,0.7c0.5,0.4,0.8,1,0.8,1.8c0,1.2-0.5,2.1-1.6,2.8c-1.1,0.7-2.7,1-4.7,1h-0.3v0.8
				c0,0.9,0.2,1.5,0.6,2c0.4,0.5,1,0.7,1.9,0.7c0.4,0,0.8-0.1,1.3-0.2c0.4-0.1,1-0.3,1.6-0.7v1.4c-0.6,0.3-1.2,0.5-1.6,0.6
				C133.9,72.4,133.4,72.4,132.8,72.4z M134.2,62.6c-0.7,0-1.3,0.3-1.9,0.9c-0.6,0.6-1.1,1.5-1.4,2.6h0.1c1.5,0,2.6-0.2,3.4-0.6
				c0.8-0.4,1.2-1,1.2-1.7c0-0.3-0.1-0.6-0.4-0.9C135.1,62.7,134.7,62.6,134.2,62.6z"/>
			<path class="st0" d="M144.8,61.2c0.5,0,0.8,0,1.2,0.1l-0.4,1.5c-0.3-0.1-0.7-0.1-1-0.1c-0.6,0-1.2,0.2-1.7,0.6
				c-0.5,0.4-1,0.9-1.4,1.6c-0.4,0.7-0.7,1.5-0.9,2.3l-1.1,5h-1.7l2.3-10.8h1.4l-0.2,2h0.1c0.5-0.6,0.9-1.1,1.2-1.3
				c0.3-0.3,0.6-0.5,1-0.6C144,61.3,144.3,61.2,144.8,61.2z"/>
			<path class="st0" d="M151,61.2c0.6,0,1.1,0.2,1.6,0.5s0.8,0.8,1.1,1.4h0.1l0.7-1.7h1.3l-2.3,10.8h-1.3l0.3-2.1h-0.1
				c-1.2,1.5-2.4,2.3-3.7,2.3c-0.9,0-1.6-0.3-2.1-1s-0.8-1.5-0.8-2.7c0-1.4,0.2-2.6,0.7-3.8c0.5-1.2,1.1-2.1,1.9-2.8
				C149.2,61.5,150.1,61.2,151,61.2z M149.2,71c0.6,0,1.3-0.3,1.9-0.9c0.6-0.6,1.1-1.4,1.5-2.4s0.6-2,0.6-2.9c0-0.7-0.2-1.2-0.6-1.6
				c-0.4-0.4-0.9-0.6-1.4-0.6c-0.7,0-1.3,0.3-1.9,0.8c-0.6,0.6-1.1,1.3-1.4,2.3c-0.3,1-0.5,2-0.5,3.1c0,0.7,0.2,1.3,0.5,1.7
				C148.2,70.9,148.6,71,149.2,71z"/>
			<path class="st0" d="M159.4,71.1c0.4,0,0.8-0.1,1.4-0.3v1.3c-0.2,0.1-0.5,0.2-0.8,0.2c-0.3,0.1-0.6,0.1-0.8,0.1
				c-0.8,0-1.5-0.2-1.9-0.6s-0.7-1-0.7-1.8c0-0.4,0.1-0.9,0.2-1.5l1.3-5.9h-1.7l0.1-0.7l1.8-0.8l1.2-2.2h1l-0.5,2.5h2.7l-0.3,1.3
				h-2.7l-1.3,6c-0.1,0.6-0.2,1-0.2,1.3c0,0.4,0.1,0.7,0.3,0.8C158.8,71,159.1,71.1,159.4,71.1z"/>
			<path class="st0" d="M163.7,72.2H162l2.3-10.8h1.7L163.7,72.2z M164.8,58.6c0-0.4,0.1-0.7,0.3-0.9s0.5-0.4,0.8-0.4
				c0.6,0,0.9,0.3,0.9,0.9c0,0.4-0.1,0.7-0.3,0.9s-0.5,0.4-0.8,0.4s-0.5-0.1-0.7-0.2C164.9,59.2,164.8,58.9,164.8,58.6z"/>
			<path class="st0" d="M172.3,61.3c1.2,0,2.2,0.4,3,1.1c0.7,0.7,1.1,1.8,1.1,3.1c0,1.2-0.2,2.4-0.7,3.5s-1.1,1.9-1.9,2.5
				c-0.8,0.6-1.7,0.9-2.7,0.9c-1.3,0-2.3-0.4-3-1.1s-1.1-1.8-1.1-3s0.2-2.4,0.7-3.5s1.1-1.9,1.9-2.5
				C170.4,61.6,171.4,61.3,172.3,61.3z M174.7,65.2c0-0.8-0.2-1.4-0.6-1.8c-0.4-0.5-1-0.7-1.7-0.7s-1.4,0.2-1.9,0.7
				c-0.6,0.5-1,1.2-1.3,2c-0.3,0.9-0.5,1.8-0.5,2.9c0,0.9,0.2,1.5,0.6,2c0.4,0.5,1,0.7,1.8,0.7c0.7,0,1.3-0.2,1.8-0.7s1-1.2,1.3-2
				C174.5,67.3,174.7,66.3,174.7,65.2z"/>
			<path class="st0" d="M183.9,72.2l1.5-6.8c0.1-0.7,0.2-1.2,0.2-1.4c0-0.4-0.1-0.7-0.4-1c-0.2-0.2-0.6-0.4-1.1-0.4
				c-0.6,0-1.2,0.2-1.7,0.6c-0.6,0.4-1,1-1.5,1.7c-0.4,0.7-0.7,1.6-1,2.7l-1,4.7h-1.7l2.3-10.8h1.4l-0.2,2h0.1
				c0.6-0.8,1.2-1.4,1.8-1.7s1.2-0.5,1.8-0.5c0.8,0,1.5,0.2,2,0.7s0.7,1.1,0.7,1.9c0,0.5-0.1,1.1-0.2,1.8l-1.4,6.6L183.9,72.2
				L183.9,72.2z"/>
			<path class="st0" d="M195,69.1c0,1-0.4,1.8-1.1,2.4c-0.7,0.6-1.8,0.9-3.1,0.9c-1.1,0-2.1-0.2-3-0.7v-1.6c0.5,0.3,1,0.5,1.5,0.6
				c0.5,0.2,1,0.2,1.5,0.2c0.8,0,1.5-0.2,1.9-0.5s0.6-0.7,0.6-1.3c0-0.4-0.1-0.7-0.3-0.9c-0.2-0.3-0.7-0.6-1.5-1.1
				c-0.9-0.5-1.5-0.9-1.8-1.4c-0.4-0.5-0.5-1-0.5-1.6c0-0.9,0.3-1.6,1-2.2c0.7-0.6,1.5-0.8,2.6-0.8s2.2,0.2,3.3,0.7l-0.5,1.4L195,63
				c-0.7-0.3-1.4-0.4-2.2-0.4c-0.6,0-1.1,0.1-1.4,0.4c-0.3,0.3-0.5,0.7-0.5,1.1c0,0.4,0.1,0.7,0.4,0.9c0.2,0.3,0.7,0.6,1.4,1
				s1.2,0.7,1.5,1s0.5,0.6,0.7,0.9C195,68.4,195,68.7,195,69.1z"/>
			<path class="st0" d="M207.1,72.2l-1.6-12.8h-0.1c0,0.5-0.1,1.1-0.3,1.9c-0.1,0.8-0.3,1.5-0.4,2l-1.9,8.9h-1.6l3-14.4h2.4
				l1.5,11.9h0.1l6.5-11.9h2.6l-3,14.4h-1.7c0.8-3.9,1.5-6.9,1.9-8.9c0.4-2.1,0.7-3.4,0.9-3.9h-0.1l-7.1,12.8H207.1z"/>
			<path class="st0" d="M223.1,61.2c0.6,0,1.1,0.2,1.6,0.5s0.8,0.8,1.1,1.4h0.1l0.7-1.7h1.3l-2.3,10.8h-1.3l0.3-2.1h-0.1
				c-1.2,1.5-2.4,2.3-3.7,2.3c-0.9,0-1.6-0.3-2.1-1s-0.8-1.5-0.8-2.7c0-1.4,0.2-2.6,0.7-3.8c0.5-1.2,1.1-2.1,1.9-2.8
				C221.2,61.5,222.1,61.2,223.1,61.2z M221.2,71c0.6,0,1.3-0.3,1.9-0.9c0.6-0.6,1.1-1.4,1.5-2.4s0.6-2,0.6-2.9
				c0-0.7-0.2-1.2-0.6-1.6c-0.4-0.4-0.9-0.6-1.4-0.6c-0.7,0-1.3,0.3-1.9,0.8c-0.6,0.6-1.1,1.3-1.4,2.3c-0.3,1-0.5,2-0.5,3.1
				c0,0.7,0.2,1.3,0.5,1.7C220.2,70.9,220.6,71,221.2,71z"/>
			<path class="st0" d="M234.8,72.2l1.5-6.8c0.1-0.7,0.2-1.2,0.2-1.4c0-0.4-0.1-0.7-0.4-1c-0.2-0.2-0.6-0.4-1.1-0.4
				c-0.6,0-1.2,0.2-1.7,0.6c-0.6,0.4-1,1-1.5,1.7c-0.4,0.7-0.7,1.6-1,2.7l-1,4.7h-1.7l2.3-10.8h1.4l-0.2,2h0.1
				c0.6-0.8,1.2-1.4,1.8-1.7s1.2-0.5,1.8-0.5c0.8,0,1.5,0.2,2,0.7s0.7,1.1,0.7,1.9c0,0.5-0.1,1.1-0.2,1.8l-1.4,6.6L234.8,72.2
				L234.8,72.2z"/>
			<path class="st0" d="M244.9,61.2c0.6,0,1.1,0.2,1.6,0.5s0.8,0.8,1.1,1.4h0.1l0.7-1.7h1.3l-2.3,10.8h-1.3l0.3-2.1h-0.1
				c-1.2,1.5-2.4,2.3-3.7,2.3c-0.9,0-1.6-0.3-2.1-1s-0.8-1.5-0.8-2.7c0-1.4,0.2-2.6,0.7-3.8c0.5-1.2,1.1-2.1,1.9-2.8
				C243,61.5,243.9,61.2,244.9,61.2z M243,71c0.6,0,1.3-0.3,1.9-0.9c0.6-0.6,1.1-1.4,1.5-2.4s0.6-2,0.6-2.9c0-0.7-0.2-1.2-0.6-1.6
				c-0.4-0.4-0.9-0.6-1.4-0.6c-0.7,0-1.3,0.3-1.9,0.8c-0.6,0.6-1.1,1.3-1.4,2.3c-0.3,1-0.5,2-0.5,3.1c0,0.7,0.2,1.3,0.5,1.7
				C242.1,70.9,242.5,71,243,71z"/>
			<path class="st0" d="M260.3,61.4l-0.2,1.1l-2.1,0.2c0.3,0.4,0.4,0.9,0.4,1.6c0,1.3-0.4,2.3-1.1,3c-0.8,0.7-1.8,1.1-3.1,1.1
				c-0.4,0-0.6,0-0.8-0.1c-0.9,0.3-1.4,0.8-1.4,1.3c0,0.3,0.1,0.4,0.3,0.5s0.5,0.2,0.9,0.2l1.2,0.1c1.2,0.1,2.1,0.4,2.6,0.9
				c0.5,0.4,0.8,1.1,0.8,1.9c0,1.2-0.5,2.1-1.4,2.8c-1,0.7-2.3,1-4.1,1c-1.3,0-2.3-0.2-3-0.7s-1.1-1.2-1.1-2c0-0.7,0.2-1.3,0.7-1.8
				s1.2-0.9,2.3-1.3c-0.5-0.3-0.8-0.7-0.8-1.2s0.2-0.8,0.5-1.2c0.3-0.3,0.8-0.6,1.4-0.9c-0.4-0.2-0.8-0.5-1-0.9
				c-0.3-0.4-0.4-0.9-0.4-1.4c0-1.3,0.4-2.3,1.2-3.1s1.8-1.2,3-1.2c0.5,0,1,0.1,1.5,0.2h3.7V61.4z M249.8,74.1
				c0,0.5,0.2,0.9,0.6,1.2c0.4,0.3,1.1,0.4,1.9,0.4c1.2,0,2.1-0.2,2.8-0.6s1-1,1-1.8c0-0.4-0.2-0.7-0.5-1c-0.4-0.2-1-0.4-1.8-0.5
				l-1.6-0.2c-0.8,0.2-1.4,0.5-1.8,0.9C250,73.1,249.8,73.6,249.8,74.1z M252.5,65.5c0,0.6,0.1,1,0.4,1.3c0.3,0.3,0.7,0.4,1.2,0.4
				s1-0.1,1.4-0.4s0.7-0.7,0.9-1.1c0.2-0.5,0.3-1,0.3-1.6c0-0.5-0.1-0.9-0.4-1.2c-0.3-0.3-0.7-0.4-1.2-0.4s-1,0.1-1.3,0.4
				c-0.4,0.3-0.7,0.6-0.9,1.1C252.6,64.4,252.5,64.9,252.5,65.5z"/>
			<path class="st0" d="M263.8,72.4c-1.2,0-2.2-0.4-2.9-1.1c-0.7-0.7-1-1.7-1-3c0-1.2,0.2-2.4,0.7-3.6c0.5-1.1,1.1-2,1.9-2.6
				s1.7-0.9,2.7-0.9s1.8,0.2,2.3,0.7c0.5,0.4,0.8,1,0.8,1.8c0,1.2-0.5,2.1-1.6,2.8c-1.1,0.7-2.7,1-4.7,1h-0.3v0.8
				c0,0.9,0.2,1.5,0.6,2s1,0.7,1.9,0.7c0.4,0,0.8-0.1,1.3-0.2c0.4-0.1,1-0.3,1.6-0.7v1.4c-0.6,0.3-1.2,0.5-1.6,0.6
				C264.9,72.4,264.4,72.4,263.8,72.4z M265.2,62.6c-0.7,0-1.3,0.3-1.9,0.9c-0.6,0.6-1.1,1.5-1.4,2.6h0.1c1.5,0,2.6-0.2,3.4-0.6
				s1.2-1,1.2-1.7c0-0.3-0.1-0.6-0.4-0.9C266,62.7,265.7,62.6,265.2,62.6z"/>
			<path class="st0" d="M275.7,61.2c0.5,0,0.8,0,1.2,0.1l-0.4,1.5c-0.3-0.1-0.7-0.1-1-0.1c-0.6,0-1.2,0.2-1.7,0.6
				c-0.5,0.4-1,0.9-1.4,1.6c-0.4,0.7-0.7,1.5-0.9,2.3l-1.1,5h-1.7l2.3-10.8h1.4l-0.2,2h0.1c0.5-0.6,0.9-1.1,1.2-1.3
				c0.3-0.3,0.6-0.5,1-0.6C274.9,61.3,275.3,61.2,275.7,61.2z"/>
		</g>
		<g>
			<g>
				<polygon class="st1" points="35.9,23.4 12.9,6.9 14.4,4.6 39,18.5 				"/>
				<path d="M33.3,23.4"/>
				<g class="st2">
					<path class="st1" d="M50.2,43.6v-41h6.7v41H50.2z"/>
				</g>
				<g class="st2">
					<path class="st1" d="M90.9,28c0,5.1-1.3,9-3.9,11.9c-2.6,2.8-6.2,4.3-10.8,4.3c-2.9,0-5.5-0.7-7.7-2c-2.2-1.3-3.9-3.2-5.1-5.6
						s-1.8-5.3-1.8-8.5c0-5,1.3-8.9,3.9-11.8C68,13.5,71.6,12,76.3,12c4.5,0,8,1.4,10.6,4.3C89.5,19.3,90.9,23.2,90.9,28z M68.3,28
						c0,7.1,2.6,10.7,7.9,10.7c5.2,0,7.8-3.6,7.8-10.7c0-7.1-2.6-10.6-7.9-10.6c-2.8,0-4.8,0.9-6,2.7C68.9,22,68.3,24.6,68.3,28z"/>
				</g>
				<g class="st2">
					<path class="st3" d="M107.1,43.6h-8.7V9.8H87.3V2.6h30.9v7.2h-11.1V43.6z"/>
				</g>
				<g class="st2">
					<path class="st3" d="M138.1,43.6l-1.7-4.3h-0.2c-1.4,1.8-2.9,3.1-4.4,3.8c-1.5,0.7-3.5,1.1-6,1.1c-3,0-5.4-0.9-7.1-2.6
						c-1.7-1.7-2.6-4.2-2.6-7.3c0-3.3,1.2-5.8,3.5-7.4c2.3-1.6,5.8-2.5,10.5-2.6l5.4-0.2v-1.4c0-3.2-1.6-4.8-4.9-4.8
						c-2.5,0-5.4,0.8-8.8,2.3l-2.8-5.8c3.6-1.9,7.6-2.8,12-2.8c4.2,0,7.4,0.9,9.7,2.7c2.2,1.8,3.4,4.6,3.4,8.4v20.9H138.1z
						 M135.6,29.1l-3.3,0.1c-2.5,0.1-4.3,0.5-5.5,1.3c-1.2,0.8-1.8,2.1-1.8,3.8c0,2.4,1.4,3.6,4.1,3.6c2,0,3.6-0.6,4.8-1.7
						c1.2-1.1,1.8-2.7,1.8-4.5V29.1z"/>
					<path class="st3" d="M158.4,43.6h-8.5V0h8.5V43.6z"/>
					<path class="st3" d="M172.3,26.6l3.7-4.8l8.8-9.5h9.6L182,25.9l13.2,17.7h-9.9l-9-12.7l-3.7,2.9v9.7h-8.5V0h8.5v19.4l-0.4,7.1
						H172.3z"/>
				</g>
				<circle class="st3" cx="9.1" cy="34.5" r="9.1"/>
				<circle class="st3" cx="35.3" cy="19.5" r="6.6"/>
				<circle class="st1" cx="16" cy="7.4" r="4.7"/>
				<polygon class="st3" points="10,38.6 5.8,31.7 35.4,17 37.3,20.2 				"/>
			</g>
			<g>
				<path class="st3" d="M197.7,17.2h-0.6v-4.4h-1.5v-0.5h3.7v0.5h-1.5V17.2z"/>
				<path class="st3" d="M202.2,17.2l-1.7-4.3h0c0,0.3,0,0.7,0,1.2v3.1H200v-4.9h0.9l1.5,4h0l1.6-4h0.8v4.9h-0.6v-3.1
					c0-0.4,0-0.8,0-1.2h0l-1.7,4.3H202.2z"/>
			</g>
		</g>
	</g>
</g>
<g id="Isolation_Mode">
</g>
</svg>
