<?xml version="1.0" encoding="utf-8"?>
<!-- Generator: Adobe Illustrator 23.0.1, SVG Export Plug-In . SVG Version: 6.00 Build 0)  -->
<svg version="1.1" id="Layer_1" xmlns="http://www.w3.org/2000/svg" xmlns:xlink="http://www.w3.org/1999/xlink" x="0px" y="0px"
	 viewBox="0 0 2609.9 850.8" style="enable-background:new 0 0 2609.9 850.8;" xml:space="preserve">
<style type="text/css">
	.st0{fill:#FFFFFF;}
	.st1{enable-background:new    ;}
</style>
<g>
	<g>
		<path class="st0" d="M638.2,41c0,13.5-4.2,23.8-12.6,30.9c-8.4,7.1-20.4,10.7-35.9,10.7h-11.4v44.5h-26.5V2h40
			c15.2,0,26.7,3.3,34.6,9.8C634.2,18.3,638.2,28.1,638.2,41z M578.3,60.9h8.7c8.2,0,14.3-1.6,18.3-4.8c4.1-3.2,6.1-7.9,6.1-14.1
			s-1.7-10.8-5.1-13.8c-3.4-3-8.7-4.5-16-4.5h-12.1v37.2H578.3z"/>
		<path class="st0" d="M804.9,64.4c0,20.7-5.1,36.6-15.4,47.8c-10.3,11.1-25,16.7-44.2,16.7s-33.9-5.6-44.2-16.7
			s-15.4-27.1-15.4-47.9s5.1-36.7,15.5-47.7C711.5,5.5,726.3,0,745.5,0s34,5.5,44.1,16.6C799.8,27.7,804.9,43.6,804.9,64.4z
			 M713.6,64.4c0,14,2.7,24.5,8,31.6s13.2,10.6,23.8,10.6c21.2,0,31.8-14.1,31.8-42.2c0-28.2-10.5-42.3-31.6-42.3
			c-10.6,0-18.5,3.6-23.9,10.7C716.2,39.9,713.6,50.4,713.6,64.4z"/>
		<path class="st0" d="M982.2,127.2H952l-17-65.8c-0.6-2.3-1.7-7.2-3.2-14.5s-2.4-12.3-2.6-14.8c-0.3,3.1-1.2,8-2.6,14.9
			s-2.4,11.7-3.2,14.6l-16.9,65.6h-30.1L844.6,2h26.1l16,68.3c2.8,12.6,4.8,23.5,6.1,32.8c0.3-3.3,1.1-8.3,2.4-15.1
			c1.2-6.8,2.4-12.1,3.5-15.9L916.8,2h25.1l18.2,70.1c0.8,3.1,1.8,7.9,3,14.4s2.1,12,2.7,16.6c0.6-4.5,1.5-10,2.7-16.7
			c1.3-6.6,2.4-12,3.4-16.1L988,2h26.1L982.2,127.2z"/>
		<path class="st0" d="M1131.4,127.2h-72.1V2h72.1v21.7h-45.6v27.5h42.4V73h-42.4v32.3h45.6V127.2z"/>
		<path class="st0" d="M1213.5,79.1v48H1187V2h36.5c17,0,29.6,3.1,37.8,9.3c8.2,6.2,12.2,15.6,12.2,28.2c0,7.4-2,13.9-6.1,19.7
			c-4.1,5.7-9.8,10.2-17.2,13.5c18.8,28.1,31.1,46.3,36.8,54.5h-29.5l-29.9-48h-14.1V79.1z M1213.5,57.5h8.6
			c8.4,0,14.6-1.4,18.6-4.2s6-7.2,6-13.2c0-5.9-2-10.2-6.1-12.7s-10.4-3.8-19-3.8h-8v33.9H1213.5z"/>
		<path class="st0" d="M1404.3,127.2h-72.1V2h72.1v21.7h-45.5v27.5h42.4V73h-42.4v32.3h45.5V127.2z"/>
		<path class="st0" d="M1563.7,63.4c0,20.6-5.9,36.4-17.6,47.3s-28.7,16.4-50.8,16.4h-35.5V2h39.3c20.4,0,36.3,5.4,47.6,16.2
			C1558.1,28.9,1563.7,44,1563.7,63.4z M1536.2,64c0-26.9-11.9-40.3-35.6-40.3h-14.1v81.5h11.4C1523.4,105.2,1536.2,91.5,1536.2,64z
			"/>
		<path class="st0" d="M1694.2,2h39c17.8,0,30.6,2.5,38.7,7.6c8,5.1,12,13.1,12,24.1c0,7.5-1.8,13.6-5.3,18.4s-8.2,7.7-14,8.6v0.9
			c7.9,1.8,13.7,5.1,17.2,9.9c3.5,4.9,5.3,11.3,5.3,19.4c0,11.4-4.1,20.3-12.4,26.7c-8.2,6.4-19.5,9.6-33.6,9.6h-46.8V2H1694.2z
			 M1720.7,51.5h15.4c7.2,0,12.4-1.1,15.6-3.3s4.8-5.9,4.8-11c0-4.8-1.8-8.2-5.3-10.3s-9.1-3.1-16.7-3.1h-14v27.7H1720.7z
			 M1720.7,72.6v32.6h17.3c7.3,0,12.7-1.4,16.2-4.2c3.5-2.8,5.2-7.1,5.2-12.8c0-10.4-7.4-15.6-22.3-15.6H1720.7z"/>
		<path class="st0" d="M1880.4,53.5L1906.5,2h28.6l-41.5,76.5v48.7h-26.4V79.3L1825.7,2h28.8L1880.4,53.5z"/>
	</g>
	<rect x="-2.9" y="53" class="st0" width="428.7" height="17.2"/>
	<rect x="2046.2" y="53" class="st0" width="428.7" height="17.2"/>
</g>
<g id="Isolation_Mode">
	<g>
		<g>
			<polygon class="st0" points="457.9,586.9 164.6,376.6 183.5,347.3 497.3,524 			"/>
			<path class="st0" d="M424.4,586.7"/>
			<g class="st1">
				<path class="st0" d="M639.8,843.5V321.6H725v521.9H639.8z"/>
			</g>
			<g class="st1">
				<path class="st0" d="M1157.6,645.5c0,64.5-16.5,114.9-49.6,151.1c-33.1,36.2-79.1,54.3-138.1,54.3c-36.9,0-69.5-8.3-97.8-25
					s-50.1-40.6-65.3-71.8S784,686.7,784,645.5c0-64,16.4-114,49.2-150s79.1-53.9,138.8-53.9c57.1,0,102.3,18.4,135.6,55.2
					C1140.9,533.5,1157.6,583.1,1157.6,645.5z M870.4,645.5c0,91,33.7,136.5,101,136.5c66.6,0,99.9-45.5,99.9-136.5
					c0-90.1-33.5-135.1-100.6-135.1c-35.2,0-60.7,11.6-76.5,34.9C878.3,568.6,870.4,602,870.4,645.5z"/>
			</g>
			<g class="st1">
				<path class="st0" d="M1364.7,843.5h-110.6v-430h-141.7v-92h393.9v92h-141.7v430H1364.7z"/>
			</g>
			<g class="st1">
				<path class="st0" d="M1759.9,843.5l-21.1-54.3h-2.9c-18.3,23.2-37.2,39.2-56.6,48.1c-19.4,8.9-44.7,13.4-75.9,13.4
					c-38.3,0-68.5-11-90.5-32.9s-33-53.1-33-93.6c0-42.4,14.8-73.6,44.4-93.8s74.3-31.3,134.1-33.4l69.3-2.1v-17.6
					c0-40.7-20.7-61-62.1-61c-31.9,0-69.4,9.6-112.5,28.9l-36.1-73.4c45.9-23.9,96.8-35.9,152.8-35.9c53.5,0,94.6,11.7,123.1,35
					c28.6,23.3,42.8,58.8,42.8,106.4v266h-75.8V843.5z M1727.7,658.4l-42.1,1.4c-31.7,1-55.2,6.7-70.7,17.2s-23.2,26.5-23.2,47.9
					c0,30.8,17.6,46.1,52.8,46.1c25.2,0,45.4-7.3,60.5-21.8s22.7-33.9,22.7-57.9L1727.7,658.4L1727.7,658.4z"/>
				<path class="st0" d="M2017.6,843.5h-108.8V288.1h108.8V843.5z"/>
				<path class="st0" d="M2195.1,626.6l47.4-60.7l111.6-121.3H2477l-158.4,173.1l168,225.8H2361l-114.8-161.6l-46.7,37.5v124.1
					h-108.8V288.1h108.8v247.8l-5.7,90.7L2195.1,626.6L2195.1,626.6z"/>
			</g>
			<circle class="st0" cx="115.4" cy="727.9" r="115.4"/>
			<circle class="st0" cx="449.2" cy="536.7" r="83.9"/>
			<circle class="st0" cx="203.6" cy="381.8" r="60.4"/>
			<polygon class="st0" points="128,780.2 73.8,691.7 451.1,504.1 475.6,545.4 			"/>
		</g>
		<g>
			<path class="st0" d="M2519.3,507.7h-7.2V452h-19.7v-6.4h46.6v6.4h-19.7L2519.3,507.7L2519.3,507.7z"/>
			<path class="st0" d="M2575.9,507.7l-21.1-55.1h-0.3c0.4,4.4,0.6,9.6,0.6,15.6v39.5h-6.7v-62.2h10.9l19.7,51.3h0.3l19.9-51.3h10.8
				v62.2h-7.2v-40.1c0-4.6,0.2-9.6,0.6-15h-0.3l-21.3,55h-5.9V507.7z"/>
		</g>
	</g>
</g>
</svg>
