<?xml version="1.0" encoding="utf-8"?>
<!-- Generator: Adobe Illustrator 22.1.0, SVG Export Plug-In . SVG Version: 6.00 Build 0)  -->
<!DOCTYPE svg PUBLIC "-//W3C//DTD SVG 1.1//EN" "http://www.w3.org/Graphics/SVG/1.1/DTD/svg11.dtd">
<svg version="1.1" xmlns="http://www.w3.org/2000/svg" xmlns:xlink="http://www.w3.org/1999/xlink" x="0px" y="0px"
	 viewBox="0 0 276.5 90" style="enable-background:new 0 0 276.5 90;" xml:space="preserve">
<style type="text/css">
	.st0{fill:#7F7F7F;}
	.st1{fill:#0885F9;}
	.st2{enable-background:new    ;}
	.st3{fill:#F97B08;}
</style>
<g id="Layer_1">
	<g>
		<g>
			<path class="st0" d="M5.9,85.4H4.3l2.6-12.2H3.1l0.3-1.4h9.1l-0.3,1.4H8.5L5.9,85.4z"/>
			<path class="st0" d="M17.1,85.4l1.4-6.4c0.1-0.6,0.2-1,0.2-1.3c0-0.9-0.5-1.4-1.4-1.4c-0.6,0-1.1,0.2-1.6,0.5
				c-0.5,0.4-1,0.9-1.4,1.6s-0.7,1.5-0.9,2.5l-0.9,4.4h-1.6l3-14.3h1.6c-0.1,0.5-0.2,1-0.3,1.5s-0.2,1-0.3,1.5s-0.2,1-0.4,1.5
				c-0.1,0.5-0.3,1.1-0.4,1.8h0.1c0.6-0.8,1.2-1.3,1.7-1.6c0.6-0.3,1.2-0.5,1.8-0.5c0.8,0,1.4,0.2,1.9,0.7c0.4,0.4,0.7,1.1,0.7,1.9
				c0,0.4-0.1,0.9-0.2,1.5c-0.2,1.2-0.7,3.3-1.3,6.2L17.1,85.4L17.1,85.4z"/>
			<path class="st0" d="M25.3,85.6c-1.1,0-2-0.3-2.7-1s-1-1.6-1-2.8c0-1.2,0.2-2.3,0.7-3.3c0.5-1.1,1.1-1.9,1.8-2.5
				c0.8-0.6,1.6-0.9,2.5-0.9s1.7,0.2,2.1,0.6c0.5,0.4,0.7,1,0.7,1.7c0,1.1-0.5,2-1.5,2.6s-2.5,1-4.4,1h-0.3v0.7
				c0,0.8,0.2,1.4,0.6,1.9s1,0.7,1.8,0.7c0.4,0,0.8-0.1,1.2-0.2c0.4-0.1,0.9-0.3,1.5-0.6v1.4c-0.6,0.3-1.1,0.5-1.5,0.6
				C26.3,85.6,25.8,85.6,25.3,85.6z M26.6,76.4c-0.6,0-1.2,0.3-1.8,0.9c-0.6,0.6-1,1.4-1.3,2.4h0.1c1.4,0,2.5-0.2,3.2-0.6
				c0.8-0.4,1.1-0.9,1.1-1.6c0-0.3-0.1-0.6-0.3-0.8C27.4,76.5,27,76.4,26.6,76.4z"/>
			<path class="st0" d="M36.3,85.4h-1.6l2.9-13.6h6.8l-0.3,1.4h-5.3l-1,5h4.9l-0.3,1.4h-4.9L36.3,85.4z"/>
			<path class="st0" d="M44.4,85.4h-1.6L45,75.3h1.6L44.4,85.4z M45.5,72.7c0-0.3,0.1-0.6,0.3-0.8c0.2-0.2,0.5-0.3,0.8-0.3
				c0.5,0,0.8,0.3,0.8,0.8c0,0.3-0.1,0.6-0.3,0.9c-0.2,0.2-0.4,0.4-0.7,0.4c-0.2,0-0.5-0.1-0.6-0.2C45.5,73.1,45.5,72.9,45.5,72.7z"
				/>
			<path class="st0" d="M53.5,75.1c0.4,0,0.8,0,1.1,0.1l-0.3,1.4c-0.3-0.1-0.7-0.1-1-0.1c-0.6,0-1.1,0.2-1.6,0.6s-0.9,0.9-1.3,1.5
				c-0.4,0.7-0.6,1.4-0.8,2.2l-1,4.7H47l2.2-10.2h1.3l-0.2,1.9h0.1c0.4-0.6,0.8-1,1.1-1.3s0.6-0.5,0.9-0.6
				C52.8,75.1,53.1,75.1,53.5,75.1z"/>
			<path class="st0" d="M60.3,82.5c0,1-0.3,1.7-1,2.3c-0.7,0.5-1.6,0.8-2.9,0.8c-1,0-2-0.2-2.8-0.6v-1.5c0.4,0.3,0.9,0.5,1.4,0.6
				s1,0.2,1.4,0.2c0.8,0,1.4-0.2,1.8-0.5c0.4-0.3,0.6-0.7,0.6-1.2c0-0.4-0.1-0.7-0.3-0.9c-0.2-0.2-0.7-0.6-1.4-1
				c-0.8-0.5-1.4-0.9-1.7-1.3s-0.5-0.9-0.5-1.5c0-0.9,0.3-1.5,0.9-2.1c0.6-0.5,1.4-0.8,2.5-0.8s2.1,0.2,3.1,0.7L60.8,77l-0.5-0.2
				c-0.6-0.3-1.3-0.4-2-0.4c-0.6,0-1,0.1-1.4,0.4c-0.3,0.3-0.5,0.6-0.5,1c0,0.3,0.1,0.6,0.3,0.9c0.2,0.2,0.7,0.6,1.4,1
				s1.1,0.7,1.4,1c0.3,0.3,0.5,0.6,0.6,0.9C60.3,81.8,60.3,82.2,60.3,82.5z"/>
			<path class="st0" d="M64.8,84.3c0.3,0,0.8-0.1,1.3-0.2v1.2c-0.2,0.1-0.5,0.2-0.8,0.2c-0.3,0.1-0.6,0.1-0.7,0.1
				c-0.8,0-1.4-0.2-1.8-0.6c-0.4-0.4-0.6-0.9-0.6-1.6c0-0.4,0.1-0.9,0.2-1.4l1.2-5.6H62l0.1-0.7l1.7-0.7l1.2-2.1h0.9l-0.5,2.3h2.5
				l-0.2,1.2h-2.5L63.9,82c-0.1,0.5-0.2,0.9-0.2,1.2c0,0.3,0.1,0.6,0.3,0.8C64.2,84.3,64.4,84.3,64.8,84.3z"/>
			<path class="st0" d="M71.9,85.4l2.9-13.6h1.6l-2.9,13.6H71.9z"/>
			<path class="st0" d="M81.6,75.1c1.2,0,2.1,0.3,2.8,1c0.7,0.7,1,1.7,1,2.9c0,1.2-0.2,2.3-0.7,3.3c-0.4,1-1,1.8-1.8,2.4
				s-1.6,0.8-2.6,0.8c-1.2,0-2.1-0.3-2.8-1c-0.7-0.7-1-1.7-1-2.9c0-1.2,0.2-2.3,0.7-3.3s1.1-1.8,1.8-2.4
				C79.9,75.4,80.7,75.1,81.6,75.1z M83.8,78.8c0-0.7-0.2-1.3-0.6-1.7c-0.4-0.4-0.9-0.7-1.6-0.7s-1.3,0.2-1.8,0.7s-1,1.1-1.2,1.9
				c-0.3,0.8-0.4,1.7-0.4,2.7c0,0.8,0.2,1.4,0.6,1.9c0.4,0.4,1,0.7,1.7,0.7c0.6,0,1.2-0.2,1.7-0.7s0.9-1.1,1.2-1.9
				C83.7,80.9,83.8,79.9,83.8,78.8z"/>
			<path class="st0" d="M90.3,85.4h-1.6l2.6-12.2h-3.8l0.3-1.4H97l-0.3,1.4h-3.8L90.3,85.4z"/>
			<path class="st0" d="M112.2,77c0,1.7-0.3,3.2-0.8,4.5s-1.3,2.3-2.3,3.1c-1,0.7-2.2,1.1-3.5,1.1c-1.6,0-2.8-0.5-3.7-1.4
				c-0.9-0.9-1.3-2.2-1.3-3.9c0-1.6,0.3-3.1,0.9-4.5c0.6-1.3,1.4-2.4,2.4-3.1s2.2-1.1,3.5-1.1c1.5,0,2.7,0.5,3.6,1.4
				C111.7,74,112.2,75.3,112.2,77z M107.2,73.1c-1,0-1.8,0.3-2.6,0.9c-0.8,0.6-1.4,1.5-1.8,2.6s-0.6,2.3-0.6,3.7
				c0,1.2,0.3,2.2,0.9,2.9c0.6,0.7,1.4,1,2.5,1c0.9,0,1.8-0.3,2.5-0.9s1.3-1.5,1.8-2.6c0.4-1.1,0.7-2.4,0.7-3.7
				c0-1.2-0.3-2.2-0.9-2.9C109,73.4,108.2,73.1,107.2,73.1z"/>
			<path class="st0" d="M117.2,85.6c-0.6,0-1.1-0.2-1.6-0.5s-0.8-0.7-1-1.3h-0.1v0.4c0,0.2-0.1,0.4-0.1,0.7c0,0.3-0.4,2-1.1,5.1
				h-1.5l3.1-14.7h1.3l-0.2,1.9h0.1c1.1-1.4,2.3-2.1,3.5-2.1c0.8,0,1.5,0.3,2,0.9s0.7,1.5,0.7,2.5c0,1.3-0.2,2.5-0.6,3.6
				s-1,1.9-1.8,2.6C119,85.3,118.2,85.6,117.2,85.6z M119,76.4c-0.6,0-1.2,0.3-1.8,0.9c-0.6,0.6-1.1,1.3-1.5,2.2
				c-0.4,0.9-0.5,1.8-0.5,2.7c0,0.7,0.2,1.2,0.5,1.6s0.8,0.5,1.5,0.5c0.6,0,1.2-0.3,1.7-0.8s1-1.2,1.3-2.1s0.5-1.9,0.5-2.9
				C120.6,77.1,120.1,76.4,119,76.4z"/>
			<path class="st0" d="M127.2,85.6c-1.1,0-2-0.3-2.7-1s-1-1.6-1-2.8c0-1.2,0.2-2.3,0.7-3.3c0.5-1.1,1.1-1.9,1.8-2.5
				c0.8-0.6,1.6-0.9,2.5-0.9c0.9,0,1.7,0.2,2.1,0.6c0.5,0.4,0.7,1,0.7,1.7c0,1.1-0.5,2-1.5,2.6s-2.5,1-4.4,1h-0.3v0.7
				c0,0.8,0.2,1.4,0.6,1.9s1,0.7,1.8,0.7c0.4,0,0.8-0.1,1.2-0.2s0.9-0.3,1.5-0.6v1.4c-0.6,0.3-1.1,0.5-1.5,0.6
				C128.2,85.6,127.7,85.6,127.2,85.6z M128.4,76.4c-0.6,0-1.2,0.3-1.8,0.9c-0.6,0.6-1,1.4-1.3,2.4h0.1c1.4,0,2.5-0.2,3.2-0.6
				c0.8-0.4,1.1-0.9,1.1-1.6c0-0.3-0.1-0.6-0.3-0.8C129.3,76.5,128.9,76.4,128.4,76.4z"/>
			<path class="st0" d="M138.4,75.1c0.4,0,0.8,0,1.1,0.1l-0.3,1.4c-0.3-0.1-0.7-0.1-1-0.1c-0.6,0-1.1,0.2-1.6,0.6s-0.9,0.9-1.3,1.5
				c-0.4,0.7-0.6,1.4-0.8,2.2l-1,4.7h-1.6l2.2-10.2h1.3l-0.2,1.9h0.1c0.4-0.6,0.8-1,1.1-1.3s0.6-0.5,0.9-0.6
				C137.6,75.1,138,75.1,138.4,75.1z"/>
			<path class="st0" d="M144.3,75.1c0.6,0,1.1,0.2,1.5,0.5s0.8,0.7,1,1.3h0.1l0.6-1.6h1.2l-2.2,10.2h-1.2l0.2-1.9h-0.1
				c-1.1,1.4-2.3,2.1-3.5,2.1c-0.9,0-1.5-0.3-2-0.9s-0.7-1.5-0.7-2.5c0-1.3,0.2-2.5,0.7-3.6c0.4-1.1,1-2,1.8-2.6
				C142.5,75.4,143.4,75.1,144.3,75.1z M142.5,84.3c0.6,0,1.2-0.3,1.8-0.9s1.1-1.3,1.4-2.2c0.4-0.9,0.6-1.8,0.6-2.8
				c0-0.6-0.2-1.1-0.5-1.5s-0.8-0.6-1.4-0.6c-0.6,0-1.2,0.3-1.8,0.8s-1,1.3-1.3,2.2c-0.3,0.9-0.5,1.9-0.5,2.9c0,0.7,0.1,1.2,0.4,1.6
				C141.6,84.2,142,84.3,142.5,84.3z"/>
			<path class="st0" d="M152.2,84.3c0.3,0,0.8-0.1,1.3-0.2v1.2c-0.2,0.1-0.5,0.2-0.8,0.2c-0.3,0.1-0.6,0.1-0.7,0.1
				c-0.8,0-1.4-0.2-1.8-0.6c-0.4-0.4-0.6-0.9-0.6-1.6c0-0.4,0.1-0.9,0.2-1.4l1.2-5.6h-1.6l0.1-0.7l1.7-0.7l1.2-2.1h0.9l-0.5,2.3h2.5
				l-0.2,1.2h-2.5l-1.2,5.6c-0.1,0.5-0.2,0.9-0.2,1.2c0,0.3,0.1,0.6,0.3,0.8C151.6,84.3,151.9,84.3,152.2,84.3z"/>
			<path class="st0" d="M156.2,85.4h-1.6l2.2-10.2h1.6L156.2,85.4z M157.3,72.7c0-0.3,0.1-0.6,0.3-0.8c0.2-0.2,0.5-0.3,0.8-0.3
				c0.5,0,0.8,0.3,0.8,0.8c0,0.3-0.1,0.6-0.3,0.9c-0.2,0.2-0.4,0.4-0.7,0.4c-0.2,0-0.5-0.1-0.6-0.2
				C157.4,73.1,157.3,72.9,157.3,72.7z"/>
			<path class="st0" d="M164.4,75.1c1.2,0,2.1,0.3,2.8,1s1,1.7,1,2.9c0,1.2-0.2,2.3-0.7,3.3c-0.4,1-1,1.8-1.8,2.4s-1.6,0.8-2.6,0.8
				c-1.2,0-2.1-0.3-2.8-1s-1-1.7-1-2.9c0-1.2,0.2-2.3,0.7-3.3s1.1-1.8,1.8-2.4C162.6,75.4,163.4,75.1,164.4,75.1z M166.6,78.8
				c0-0.7-0.2-1.3-0.6-1.7c-0.4-0.4-0.9-0.7-1.6-0.7c-0.7,0-1.3,0.2-1.8,0.7s-1,1.1-1.2,1.9c-0.3,0.8-0.4,1.7-0.4,2.7
				c0,0.8,0.2,1.4,0.6,1.9c0.4,0.4,1,0.7,1.7,0.7c0.6,0,1.2-0.2,1.7-0.7s0.9-1.1,1.2-1.9C166.4,80.9,166.6,79.9,166.6,78.8z"/>
			<path class="st0" d="M175.3,85.4l1.4-6.4c0.1-0.6,0.2-1.1,0.2-1.3c0-0.4-0.1-0.7-0.3-0.9c-0.2-0.2-0.6-0.4-1.1-0.4
				c-0.6,0-1.1,0.2-1.6,0.6s-1,0.9-1.4,1.6s-0.7,1.5-0.9,2.5l-0.9,4.4H169l2.2-10.2h1.3l-0.2,1.9h0.1c0.6-0.8,1.2-1.3,1.7-1.6
				c0.6-0.3,1.1-0.5,1.7-0.5c0.8,0,1.4,0.2,1.9,0.6s0.7,1,0.7,1.8c0,0.5-0.1,1-0.2,1.7l-1.3,6.2C176.9,85.4,175.3,85.4,175.3,85.4z"
				/>
			<path class="st0" d="M185.7,82.5c0,1-0.3,1.7-1,2.3c-0.7,0.5-1.6,0.8-2.9,0.8c-1,0-2-0.2-2.8-0.6v-1.5c0.4,0.3,0.9,0.5,1.4,0.6
				s1,0.2,1.4,0.2c0.8,0,1.4-0.2,1.8-0.5c0.4-0.3,0.6-0.7,0.6-1.2c0-0.4-0.1-0.7-0.3-0.9c-0.2-0.2-0.7-0.6-1.4-1
				c-0.8-0.5-1.4-0.9-1.7-1.3s-0.5-0.9-0.5-1.5c0-0.9,0.3-1.5,0.9-2.1c0.6-0.5,1.4-0.8,2.5-0.8s2.1,0.2,3.1,0.7l-0.5,1.3l-0.5-0.2
				c-0.6-0.3-1.3-0.4-2-0.4c-0.6,0-1,0.1-1.4,0.4c-0.3,0.3-0.5,0.6-0.5,1c0,0.3,0.1,0.6,0.3,0.9c0.2,0.2,0.7,0.6,1.4,1
				s1.1,0.7,1.4,1c0.3,0.3,0.5,0.6,0.6,0.9C185.7,81.8,185.7,82.2,185.7,82.5z"/>
			<path class="st0" d="M197.1,85.4l-1.5-12h-0.1c0,0.4-0.1,1.1-0.3,1.8c-0.1,0.8-0.2,1.4-0.3,1.9l-1.8,8.3h-1.5l2.9-13.6h2.3
				l1.4,11.2h0.1l6.1-11.2h2.5L204,85.4h-1.6c0.8-3.7,1.4-6.5,1.8-8.4c0.4-2,0.7-3.2,0.9-3.6H205l-6.7,12.1L197.1,85.4L197.1,85.4z"
				/>
			<path class="st0" d="M212.1,75.1c0.6,0,1.1,0.2,1.5,0.5s0.8,0.7,1,1.3h0.1l0.6-1.6h1.2l-2.2,10.2h-1.2l0.2-1.9h-0.1
				c-1.1,1.4-2.3,2.1-3.5,2.1c-0.9,0-1.5-0.3-2-0.9s-0.7-1.5-0.7-2.5c0-1.3,0.2-2.5,0.7-3.6c0.4-1.1,1-2,1.8-2.6
				C210.4,75.4,211.2,75.1,212.1,75.1z M210.4,84.3c0.6,0,1.2-0.3,1.8-0.9s1.1-1.3,1.4-2.2c0.4-0.9,0.6-1.8,0.6-2.8
				c0-0.6-0.2-1.1-0.5-1.5s-0.8-0.6-1.4-0.6c-0.6,0-1.2,0.3-1.8,0.8s-1,1.3-1.3,2.2c-0.3,0.9-0.5,1.9-0.5,2.9c0,0.7,0.1,1.2,0.4,1.6
				C209.4,84.2,209.8,84.3,210.4,84.3z"/>
			<path class="st0" d="M223.1,85.4l1.4-6.4c0.1-0.6,0.2-1.1,0.2-1.3c0-0.4-0.1-0.7-0.3-0.9c-0.2-0.2-0.6-0.4-1.1-0.4
				c-0.6,0-1.1,0.2-1.6,0.6s-1,0.9-1.4,1.6s-0.7,1.5-0.9,2.5l-0.9,4.4h-1.6l2.2-10.2h1.3l-0.2,1.9h0.1c0.6-0.8,1.2-1.3,1.7-1.6
				c0.6-0.3,1.1-0.5,1.7-0.5c0.8,0,1.4,0.2,1.9,0.6s0.7,1,0.7,1.8c0,0.5-0.1,1-0.2,1.7l-1.3,6.2C224.8,85.4,223.1,85.4,223.1,85.4z"
				/>
			<path class="st0" d="M232.7,75.1c0.6,0,1.1,0.2,1.5,0.5s0.8,0.7,1,1.3h0.1l0.6-1.6h1.2L235,85.4h-1.2l0.2-1.9h-0.1
				c-1.1,1.4-2.3,2.1-3.5,2.1c-0.9,0-1.5-0.3-2-0.9s-0.7-1.5-0.7-2.5c0-1.3,0.2-2.5,0.7-3.6c0.4-1.1,1-2,1.8-2.6
				C230.9,75.4,231.8,75.1,232.7,75.1z M230.9,84.3c0.6,0,1.2-0.3,1.8-0.9s1.1-1.3,1.4-2.2c0.4-0.9,0.6-1.8,0.6-2.8
				c0-0.6-0.2-1.1-0.5-1.5s-0.8-0.6-1.4-0.6c-0.6,0-1.2,0.3-1.8,0.8s-1,1.3-1.3,2.2c-0.3,0.9-0.5,1.9-0.5,2.9c0,0.7,0.1,1.2,0.4,1.6
				C230,84.2,230.4,84.3,230.9,84.3z"/>
			<path class="st0" d="M247.2,75.3l-0.2,1l-2,0.2c0.3,0.4,0.4,0.9,0.4,1.5c0,1.2-0.4,2.1-1.1,2.8c-0.7,0.7-1.7,1.1-2.9,1.1
				c-0.3,0-0.6,0-0.8-0.1c-0.9,0.3-1.3,0.7-1.3,1.2c0,0.3,0.1,0.4,0.3,0.5s0.5,0.2,0.9,0.2l1.1,0.1c1.1,0.1,1.9,0.4,2.4,0.8
				s0.8,1,0.8,1.8c0,1.1-0.5,2-1.4,2.6s-2.2,0.9-3.8,0.9c-1.2,0-2.1-0.2-2.8-0.7s-1-1.1-1-1.9c0-0.7,0.2-1.2,0.7-1.7
				c0.4-0.5,1.2-0.9,2.2-1.2c-0.5-0.3-0.7-0.6-0.7-1.1c0-0.4,0.2-0.8,0.5-1.1c0.3-0.3,0.8-0.6,1.3-0.9c-0.4-0.2-0.7-0.5-1-0.9
				c-0.2-0.4-0.4-0.8-0.4-1.4c0-1.2,0.4-2.2,1.1-3c0.7-0.8,1.7-1.2,2.8-1.2c0.5,0,1,0.1,1.4,0.2h3.5V75.3z M237.3,87.2
				c0,0.5,0.2,0.9,0.6,1.1c0.4,0.3,1,0.4,1.8,0.4c1.1,0,2-0.2,2.6-0.6s1-0.9,1-1.7c0-0.4-0.2-0.7-0.5-0.9s-0.9-0.4-1.7-0.5l-1.5-0.1
				c-0.7,0.2-1.3,0.4-1.7,0.8C237.5,86.2,237.3,86.7,237.3,87.2z M239.9,79.1c0,0.5,0.1,0.9,0.4,1.2c0.3,0.3,0.7,0.4,1.2,0.4
				s0.9-0.1,1.3-0.4c0.4-0.3,0.6-0.6,0.8-1.1s0.3-0.9,0.3-1.5c0-0.5-0.1-0.9-0.4-1.2c-0.3-0.3-0.7-0.4-1.2-0.4s-0.9,0.1-1.3,0.4
				c-0.4,0.3-0.6,0.6-0.8,1C240,78.1,239.9,78.6,239.9,79.1z"/>
			<path class="st0" d="M250.5,85.6c-1.1,0-2-0.3-2.7-1s-1-1.6-1-2.8c0-1.2,0.2-2.3,0.7-3.3c0.5-1.1,1.1-1.9,1.8-2.5
				c0.8-0.6,1.6-0.9,2.5-0.9s1.7,0.2,2.1,0.6c0.5,0.4,0.7,1,0.7,1.7c0,1.1-0.5,2-1.5,2.6s-2.5,1-4.4,1h-0.3v0.7
				c0,0.8,0.2,1.4,0.6,1.9c0.4,0.5,1,0.7,1.8,0.7c0.4,0,0.8-0.1,1.2-0.2s0.9-0.3,1.5-0.6v1.4c-0.6,0.3-1.1,0.5-1.5,0.6
				C251.5,85.6,251,85.6,250.5,85.6z M251.8,76.4c-0.6,0-1.2,0.3-1.8,0.9s-1,1.4-1.3,2.4h0.1c1.4,0,2.5-0.2,3.2-0.6
				c0.8-0.4,1.1-0.9,1.1-1.6c0-0.3-0.1-0.6-0.3-0.8S252.2,76.4,251.8,76.4z"/>
			<path class="st0" d="M261.7,75.1c0.4,0,0.8,0,1.1,0.1l-0.3,1.4c-0.3-0.1-0.7-0.1-1-0.1c-0.6,0-1.1,0.2-1.6,0.6s-0.9,0.9-1.3,1.5
				c-0.4,0.7-0.6,1.4-0.8,2.2l-1,4.7h-1.6l2.2-10.2h1.3l-0.2,1.9h0.1c0.4-0.6,0.8-1,1.1-1.3c0.3-0.3,0.6-0.5,0.9-0.6
				C261,75.1,261.3,75.1,261.7,75.1z"/>
		</g>
		<g>
			<g>
				<polygon class="st1" points="48.5,31.7 17.4,9.4 19.4,6.3 52.7,25 				"/>
				<path d="M45,31.6"/>
				<g class="st2">
					<path class="st1" d="M67.8,58.8V3.5h9v55.3H67.8z"/>
				</g>
				<g class="st2">
					<path class="st1" d="M122.6,37.9c0,6.8-1.8,12.2-5.3,16c-3.5,3.8-8.4,5.8-14.6,5.8c-3.9,0-7.4-0.9-10.4-2.6
						c-3-1.8-5.3-4.3-6.9-7.6c-1.6-3.3-2.4-7.1-2.4-11.5c0-6.8,1.7-12.1,5.2-15.9s8.4-5.7,14.7-5.7c6,0,10.8,1.9,14.4,5.8
						C120.9,26,122.6,31.3,122.6,37.9z M92.2,37.9c0,9.6,3.6,14.5,10.7,14.5c7.1,0,10.6-4.8,10.6-14.5c0-9.5-3.6-14.3-10.7-14.3
						c-3.7,0-6.4,1.2-8.1,3.7C93,29.7,92.2,33.3,92.2,37.9z"/>
				</g>
				<g class="st2">
					<path class="st3" d="M144.6,58.8h-11.7V13.3h-15V3.5h41.7v9.7h-15V58.8z"/>
				</g>
				<g class="st2">
					<path class="st3" d="M186.4,58.8l-2.2-5.7h-0.3c-1.9,2.5-3.9,4.2-6,5.1s-4.7,1.4-8,1.4c-4.1,0-7.3-1.2-9.6-3.5
						c-2.3-2.3-3.5-5.6-3.5-9.9c0-4.5,1.6-7.8,4.7-9.9c3.1-2.1,7.9-3.3,14.2-3.5l7.3-0.2v-1.9c0-4.3-2.2-6.5-6.6-6.5
						c-3.4,0-7.4,1-11.9,3.1l-3.8-7.8c4.9-2.5,10.3-3.8,16.2-3.8c5.7,0,10,1.2,13,3.7s4.5,6.2,4.5,11.3v28.2H186.4z M183,39.2
						l-4.5,0.2c-3.4,0.1-5.9,0.7-7.5,1.8c-1.6,1.1-2.5,2.8-2.5,5.1c0,3.3,1.9,4.9,5.6,4.9c2.7,0,4.8-0.8,6.4-2.3
						c1.6-1.5,2.4-3.6,2.4-6.1V39.2z"/>
					<path class="st3" d="M213.8,58.8h-11.5V0h11.5V58.8z"/>
					<path class="st3" d="M232.6,35.9l5-6.4l11.8-12.9h13l-16.8,18.3l17.8,23.9h-13.3L238,41.7l-5,4v13.2h-11.5V0H233v26.3l-0.6,9.6
						H232.6z"/>
				</g>
				<circle class="st3" cx="12.2" cy="46.6" r="12.2"/>
				<circle class="st3" cx="47.6" cy="26.3" r="8.9"/>
				<circle class="st1" cx="21.6" cy="9.9" r="6.4"/>
				<polygon class="st3" points="13.6,52.1 7.8,42.8 47.8,22.9 50.4,27.3 				"/>
			</g>
			<g>
				<path class="st3" d="M266.9,23.3h-0.8v-5.9h-2.1v-0.7h4.9v0.7h-2.1V23.3z"/>
				<path class="st3" d="M272.9,23.3l-2.2-5.8h0c0,0.5,0.1,1,0.1,1.6v4.2H270v-6.6h1.2l2.1,5.4h0l2.1-5.4h1.1v6.6h-0.8V19
					c0-0.5,0-1,0.1-1.6h0l-2.3,5.8H272.9z"/>
			</g>
		</g>
	</g>
</g>
<g id="Isolation_Mode">
</g>
</svg>
