<?xml version="1.0" encoding="utf-8"?>
<!-- Generator: Adobe Illustrator 22.1.0, SVG Export Plug-In . SVG Version: 6.00 Build 0)  -->
<!DOCTYPE svg PUBLIC "-//W3C//DTD SVG 1.1//EN" "http://www.w3.org/Graphics/SVG/1.1/DTD/svg11.dtd">
<svg version="1.1" xmlns="http://www.w3.org/2000/svg" xmlns:xlink="http://www.w3.org/1999/xlink" x="0px" y="0px"
	 viewBox="0 0 518 50.7" style="enable-background:new 0 0 518 50.7;" xml:space="preserve">
<style type="text/css">
	.st0{fill:#7F7F7F;}
	.st1{fill:url(#SVGID_1_);}
	.st2{fill:#0885F9;}
	.st3{enable-background:new    ;}
	.st4{fill:#F97B08;}
</style>
<g id="Layer_1">
	<g>
		<g>
			<path class="st0" d="M245.2,36.7h-1.7l2.7-12.9h-4l0.3-1.5h9.7l-0.3,1.5h-4L245.2,36.7z"/>
			<path class="st0" d="M257.1,36.7l1.5-6.8c0.1-0.6,0.2-1.1,0.2-1.3c0-1-0.5-1.5-1.4-1.5c-0.6,0-1.2,0.2-1.7,0.6
				c-0.6,0.4-1,1-1.5,1.7c-0.4,0.7-0.7,1.6-1,2.7l-1,4.7h-1.7l3.3-15.3h1.7c-0.1,0.5-0.2,1.1-0.3,1.6s-0.2,1-0.3,1.5
				s-0.2,1.1-0.4,1.6c-0.1,0.6-0.3,1.2-0.5,1.9h0.1c0.6-0.8,1.2-1.4,1.8-1.7c0.6-0.3,1.2-0.5,1.9-0.5c0.9,0,1.5,0.2,2,0.7
				s0.7,1.1,0.7,2c0,0.4-0.1,1-0.2,1.6c-0.3,1.3-0.7,3.5-1.4,6.6h-1.8V36.7z"/>
			<path class="st0" d="M265.8,36.9c-1.2,0-2.2-0.4-2.9-1.1c-0.7-0.7-1-1.7-1-3c0-1.2,0.2-2.4,0.7-3.6c0.5-1.1,1.1-2,1.9-2.6
				s1.7-0.9,2.7-0.9s1.8,0.2,2.3,0.7c0.5,0.4,0.8,1,0.8,1.8c0,1.2-0.5,2.1-1.6,2.8c-1.1,0.7-2.7,1-4.7,1h-0.3v0.8
				c0,0.9,0.2,1.5,0.6,2s1,0.7,1.9,0.7c0.4,0,0.8-0.1,1.3-0.2c0.4-0.1,1-0.3,1.6-0.7V36c-0.6,0.3-1.2,0.5-1.6,0.6
				C266.9,36.8,266.4,36.9,265.8,36.9z M267.2,27.1c-0.7,0-1.3,0.3-1.9,0.9s-1.1,1.5-1.4,2.6h0.1c1.5,0,2.6-0.2,3.4-0.6
				s1.2-1,1.2-1.7c0-0.3-0.1-0.6-0.4-0.9C268.1,27.2,267.7,27.1,267.2,27.1z"/>
			<path class="st0" d="M277.5,36.7h-1.7l3-14.4h7.2l-0.3,1.5h-5.6l-1.1,5.3h5.2l-0.3,1.5h-5.2L277.5,36.7z"/>
			<path class="st0" d="M286.1,36.7h-1.7l2.3-10.8h1.7L286.1,36.7z M287.2,23.1c0-0.4,0.1-0.7,0.3-0.9c0.2-0.2,0.5-0.4,0.8-0.4
				c0.6,0,0.9,0.3,0.9,0.9c0,0.4-0.1,0.7-0.3,0.9c-0.2,0.2-0.5,0.4-0.8,0.4s-0.5-0.1-0.7-0.2C287.3,23.6,287.2,23.4,287.2,23.1z"/>
			<path class="st0" d="M295.8,25.7c0.5,0,0.8,0,1.2,0.1l-0.4,1.5c-0.3-0.1-0.7-0.1-1-0.1c-0.6,0-1.2,0.2-1.7,0.6s-1,0.9-1.4,1.6
				s-0.7,1.5-0.9,2.3l-1.1,5H289l2.3-10.8h1.4l-0.2,2h0.1c0.5-0.6,0.9-1.1,1.2-1.3c0.3-0.3,0.6-0.5,1-0.6
				C295,25.7,295.4,25.7,295.8,25.7z"/>
			<path class="st0" d="M303,33.6c0,1-0.4,1.8-1.1,2.4c-0.7,0.6-1.8,0.9-3.1,0.9c-1.1,0-2.1-0.2-3-0.7v-1.6c0.5,0.3,1,0.5,1.5,0.6
				c0.5,0.2,1,0.2,1.5,0.2c0.8,0,1.5-0.2,1.9-0.5s0.6-0.7,0.6-1.3c0-0.4-0.1-0.7-0.3-0.9c-0.2-0.3-0.7-0.6-1.5-1.1
				c-0.9-0.5-1.5-0.9-1.8-1.4c-0.4-0.5-0.5-1-0.5-1.6c0-0.9,0.3-1.6,1-2.2s1.5-0.8,2.6-0.8s2.2,0.2,3.3,0.7l-0.5,1.4l-0.6-0.2
				c-0.7-0.3-1.4-0.4-2.2-0.4c-0.6,0-1.1,0.1-1.4,0.4s-0.5,0.7-0.5,1.1s0.1,0.7,0.4,0.9c0.2,0.3,0.7,0.6,1.4,1
				c0.7,0.4,1.2,0.7,1.5,1s0.5,0.6,0.7,0.9C303,32.8,303,33.2,303,33.6z"/>
			<path class="st0" d="M307.7,35.5c0.4,0,0.8-0.1,1.4-0.3v1.3c-0.2,0.1-0.5,0.2-0.8,0.2c-0.3,0.1-0.6,0.1-0.8,0.1
				c-0.8,0-1.5-0.2-1.9-0.6c-0.4-0.4-0.7-1-0.7-1.8c0-0.4,0.1-0.9,0.2-1.5l1.3-5.9h-1.7l0.1-0.7l1.8-0.8l1.2-2.2h1l-0.5,2.5h2.7
				l-0.3,1.3H308l-1.3,6c-0.1,0.6-0.2,1-0.2,1.3c0,0.4,0.1,0.7,0.3,0.8C307.1,35.4,307.4,35.5,307.7,35.5z"/>
			<path class="st0" d="M315.3,36.7l3.1-14.4h1.7L317,36.7H315.3z"/>
			<path class="st0" d="M325.7,25.7c1.2,0,2.2,0.4,3,1.1c0.7,0.7,1.1,1.8,1.1,3.1c0,1.2-0.2,2.4-0.7,3.5s-1.1,1.9-1.9,2.5
				s-1.7,0.9-2.7,0.9c-1.3,0-2.3-0.4-3-1.1c-0.7-0.7-1.1-1.8-1.1-3s0.2-2.4,0.7-3.5s1.1-1.9,1.9-2.5C323.8,26,324.7,25.7,325.7,25.7
				z M328,29.6c0-0.8-0.2-1.4-0.6-1.8c-0.4-0.5-1-0.7-1.7-0.7s-1.4,0.2-1.9,0.7c-0.6,0.5-1,1.2-1.3,2c-0.3,0.9-0.5,1.8-0.5,2.9
				c0,0.9,0.2,1.5,0.6,2s1,0.7,1.8,0.7c0.7,0,1.3-0.2,1.8-0.7s1-1.2,1.3-2C327.8,31.8,328,30.8,328,29.6z"/>
			<path class="st0" d="M334.8,36.7h-1.7l2.7-12.9h-4l0.3-1.5h9.7l-0.3,1.5h-4L334.8,36.7z"/>
			<path class="st0" d="M358.1,27.7c0,1.8-0.3,3.4-0.9,4.7c-0.6,1.4-1.4,2.5-2.5,3.2c-1.1,0.8-2.3,1.1-3.7,1.1c-1.7,0-3-0.5-3.9-1.5
				s-1.4-2.4-1.4-4.1c0-1.7,0.3-3.3,0.9-4.8c0.6-1.4,1.5-2.5,2.6-3.3s2.3-1.2,3.7-1.2c1.6,0,2.9,0.5,3.8,1.5
				C357.6,24.5,358.1,25.9,358.1,27.7z M352.8,23.5c-1,0-2,0.3-2.8,1s-1.4,1.6-1.9,2.8c-0.5,1.2-0.7,2.5-0.7,3.9
				c0,1.3,0.3,2.3,1,3.1c0.6,0.7,1.5,1.1,2.6,1.1c1,0,1.9-0.3,2.7-1c0.8-0.6,1.4-1.6,1.9-2.8s0.7-2.5,0.7-4c0-1.3-0.3-2.3-0.9-3.1
				C354.7,23.9,353.9,23.5,352.8,23.5z"/>
			<path class="st0" d="M363.5,36.9c-0.6,0-1.2-0.2-1.7-0.5s-0.9-0.8-1.1-1.4h-0.1v0.4c0,0.2-0.1,0.4-0.1,0.7s-0.4,2.1-1.1,5.5h-1.6
				l3.3-15.7h1.4l-0.3,2.1h0.1c1.2-1.5,2.4-2.2,3.7-2.2c0.9,0,1.6,0.3,2.1,1c0.5,0.6,0.8,1.5,0.8,2.7c0,1.4-0.2,2.7-0.7,3.8
				s-1.1,2.1-1.9,2.7C365.4,36.5,364.5,36.9,363.5,36.9z M365.3,27c-0.6,0-1.3,0.3-1.9,0.9c-0.7,0.6-1.2,1.4-1.6,2.4
				c-0.4,0.9-0.6,1.9-0.6,2.9c0,0.7,0.2,1.3,0.5,1.7c0.4,0.4,0.9,0.6,1.6,0.6s1.3-0.3,1.8-0.8c0.6-0.5,1-1.3,1.4-2.3
				c0.3-1,0.5-2,0.5-3.1C367,27.8,366.5,27,365.3,27z"/>
			<path class="st0" d="M374,36.9c-1.2,0-2.2-0.4-2.9-1.1c-0.7-0.7-1-1.7-1-3c0-1.2,0.2-2.4,0.7-3.6c0.5-1.1,1.1-2,1.9-2.6
				s1.7-0.9,2.7-0.9s1.8,0.2,2.3,0.7c0.5,0.4,0.8,1,0.8,1.8c0,1.2-0.5,2.1-1.6,2.8c-1.1,0.7-2.7,1-4.7,1h-0.3v0.8
				c0,0.9,0.2,1.5,0.6,2s1,0.7,1.9,0.7c0.4,0,0.8-0.1,1.3-0.2c0.4-0.1,1-0.3,1.6-0.7V36c-0.6,0.3-1.2,0.5-1.6,0.6
				C375.1,36.8,374.6,36.9,374,36.9z M375.3,27.1c-0.7,0-1.3,0.3-1.9,0.9s-1.1,1.5-1.4,2.6h0.1c1.5,0,2.6-0.2,3.4-0.6s1.2-1,1.2-1.7
				c0-0.3-0.1-0.6-0.4-0.9C376.2,27.2,375.9,27.1,375.3,27.1z"/>
			<path class="st0" d="M385.9,25.7c0.5,0,0.8,0,1.2,0.1l-0.4,1.5c-0.3-0.1-0.7-0.1-1-0.1c-0.6,0-1.2,0.2-1.7,0.6s-1,0.9-1.4,1.6
				s-0.7,1.5-0.9,2.3l-1.1,5h-1.7l2.3-10.8h1.4l-0.2,2h0.1c0.5-0.6,0.9-1.1,1.2-1.3c0.3-0.3,0.6-0.5,1-0.6
				C385.1,25.7,385.5,25.7,385.9,25.7z"/>
			<path class="st0" d="M392.2,25.7c0.6,0,1.1,0.2,1.6,0.5s0.8,0.8,1.1,1.4h0.1l0.7-1.7h1.3l-2.3,10.8h-1.3l0.3-2.1h-0.1
				c-1.2,1.5-2.4,2.3-3.7,2.3c-0.9,0-1.6-0.3-2.1-1s-0.8-1.5-0.8-2.7c0-1.4,0.2-2.6,0.7-3.8c0.5-1.2,1.1-2.1,1.9-2.8
				C390.3,26,391.2,25.7,392.2,25.7z M390.3,35.5c0.6,0,1.3-0.3,1.9-0.9c0.6-0.6,1.1-1.4,1.5-2.4s0.6-2,0.6-2.9
				c0-0.7-0.2-1.2-0.6-1.6s-0.9-0.6-1.4-0.6c-0.7,0-1.3,0.3-1.9,0.8c-0.6,0.6-1.1,1.3-1.4,2.3s-0.5,2-0.5,3.1c0,0.7,0.2,1.3,0.5,1.7
				C389.3,35.3,389.7,35.5,390.3,35.5z"/>
			<path class="st0" d="M400.6,35.5c0.4,0,0.8-0.1,1.4-0.3v1.3c-0.2,0.1-0.5,0.2-0.8,0.2c-0.3,0.1-0.6,0.1-0.8,0.1
				c-0.8,0-1.5-0.2-1.9-0.6c-0.4-0.4-0.7-1-0.7-1.8c0-0.4,0.1-0.9,0.2-1.5l1.3-5.9h-1.7l0.1-0.7l1.8-0.8l1.2-2.2h1l-0.5,2.5h2.7
				l-0.3,1.3h-2.7l-1.3,6c-0.1,0.6-0.2,1-0.2,1.3c0,0.4,0.1,0.7,0.3,0.8C400,35.4,400.2,35.5,400.6,35.5z"/>
			<path class="st0" d="M404.9,36.7h-1.7l2.3-10.8h1.7L404.9,36.7z M406,23.1c0-0.4,0.1-0.7,0.3-0.9c0.2-0.2,0.5-0.4,0.8-0.4
				c0.6,0,0.9,0.3,0.9,0.9c0,0.4-0.1,0.7-0.3,0.9c-0.2,0.2-0.5,0.4-0.8,0.4s-0.5-0.1-0.7-0.2C406.1,23.6,406,23.4,406,23.1z"/>
			<path class="st0" d="M413.5,25.7c1.2,0,2.2,0.4,3,1.1c0.7,0.7,1.1,1.8,1.1,3.1c0,1.2-0.2,2.4-0.7,3.5s-1.1,1.9-1.9,2.5
				s-1.7,0.9-2.7,0.9c-1.3,0-2.3-0.4-3-1.1c-0.7-0.7-1.1-1.8-1.1-3s0.2-2.4,0.7-3.5s1.1-1.9,1.9-2.5C411.6,26,412.5,25.7,413.5,25.7
				z M415.8,29.6c0-0.8-0.2-1.4-0.6-1.8c-0.4-0.5-1-0.7-1.7-0.7s-1.4,0.2-1.9,0.7c-0.6,0.5-1,1.2-1.3,2c-0.3,0.9-0.5,1.8-0.5,2.9
				c0,0.9,0.2,1.5,0.6,2s1,0.7,1.8,0.7c0.7,0,1.3-0.2,1.8-0.7s1-1.2,1.3-2C415.7,31.8,415.8,30.8,415.8,29.6z"/>
			<path class="st0" d="M425.1,36.7l1.5-6.8c0.1-0.7,0.2-1.2,0.2-1.4c0-0.4-0.1-0.7-0.4-1c-0.2-0.2-0.6-0.4-1.1-0.4
				c-0.6,0-1.2,0.2-1.7,0.6c-0.6,0.4-1,1-1.5,1.7c-0.4,0.7-0.7,1.6-1,2.7l-1,4.7h-1.7l2.3-10.8h1.4l-0.2,2h0.1
				c0.6-0.8,1.2-1.4,1.8-1.7c0.6-0.3,1.2-0.5,1.8-0.5c0.8,0,1.5,0.2,2,0.7s0.7,1.1,0.7,1.9c0,0.5-0.1,1.1-0.2,1.8l-1.4,6.6h-1.6
				V36.7z"/>
			<path class="st0" d="M436.2,33.6c0,1-0.4,1.8-1.1,2.4c-0.7,0.6-1.8,0.9-3.1,0.9c-1.1,0-2.1-0.2-3-0.7v-1.6c0.5,0.3,1,0.5,1.5,0.6
				c0.5,0.2,1,0.2,1.5,0.2c0.8,0,1.5-0.2,1.9-0.5s0.6-0.7,0.6-1.3c0-0.4-0.1-0.7-0.3-0.9c-0.2-0.3-0.7-0.6-1.5-1.1
				c-0.9-0.5-1.5-0.9-1.8-1.4c-0.4-0.5-0.5-1-0.5-1.6c0-0.9,0.3-1.6,1-2.2s1.5-0.8,2.6-0.8s2.2,0.2,3.3,0.7l-0.5,1.4l-0.6-0.2
				c-0.7-0.3-1.4-0.4-2.2-0.4c-0.6,0-1.1,0.1-1.4,0.4s-0.5,0.7-0.5,1.1s0.1,0.7,0.4,0.9c0.2,0.3,0.7,0.6,1.4,1
				c0.7,0.4,1.2,0.7,1.5,1s0.5,0.6,0.7,0.9C436.1,32.8,436.2,33.2,436.2,33.6z"/>
			<path class="st0" d="M448.3,36.7l-1.6-12.8h-0.1c0,0.5-0.1,1.1-0.3,1.9c-0.1,0.8-0.3,1.5-0.4,2l-1.9,8.9h-1.6l3-14.4h2.4
				l1.5,11.9h0.1l6.5-11.9h2.6l-3,14.4h-1.7c0.8-3.9,1.5-6.9,1.9-8.9c0.4-2.1,0.7-3.4,0.9-3.9h-0.1l-7.1,12.8H448.3z"/>
			<path class="st0" d="M464.2,25.7c0.6,0,1.1,0.2,1.6,0.5s0.8,0.8,1.1,1.4h0.1l0.7-1.7h1.3l-2.3,10.8h-1.3l0.3-2.1h-0.1
				c-1.2,1.5-2.4,2.3-3.7,2.3c-0.9,0-1.6-0.3-2.1-1s-0.8-1.5-0.8-2.7c0-1.4,0.2-2.6,0.7-3.8c0.5-1.2,1.1-2.1,1.9-2.8
				C462.3,26,463.2,25.7,464.2,25.7z M462.3,35.5c0.6,0,1.3-0.3,1.9-0.9c0.6-0.6,1.1-1.4,1.5-2.4s0.6-2,0.6-2.9
				c0-0.7-0.2-1.2-0.6-1.6s-0.9-0.6-1.4-0.6c-0.7,0-1.3,0.3-1.9,0.8c-0.6,0.6-1.1,1.3-1.4,2.3s-0.5,2-0.5,3.1c0,0.7,0.2,1.3,0.5,1.7
				C461.3,35.3,461.8,35.5,462.3,35.5z"/>
			<path class="st0" d="M475.9,36.7l1.5-6.8c0.1-0.7,0.2-1.2,0.2-1.4c0-0.4-0.1-0.7-0.4-1c-0.2-0.2-0.6-0.4-1.1-0.4
				c-0.6,0-1.2,0.2-1.7,0.6c-0.6,0.4-1,1-1.5,1.7c-0.4,0.7-0.7,1.6-1,2.7l-1,4.7h-1.7l2.3-10.8h1.4l-0.2,2h0.1
				c0.6-0.8,1.2-1.4,1.8-1.7c0.6-0.3,1.2-0.5,1.8-0.5c0.8,0,1.5,0.2,2,0.7s0.7,1.1,0.7,1.9c0,0.5-0.1,1.1-0.2,1.8l-1.4,6.6h-1.6
				V36.7z"/>
			<path class="st0" d="M486.1,25.7c0.6,0,1.1,0.2,1.6,0.5s0.8,0.8,1.1,1.4h0.1l0.7-1.7h1.3l-2.3,10.8h-1.3l0.3-2.1h-0.1
				c-1.2,1.5-2.4,2.3-3.7,2.3c-0.9,0-1.6-0.3-2.1-1s-0.8-1.5-0.8-2.7c0-1.4,0.2-2.6,0.7-3.8c0.5-1.2,1.1-2.1,1.9-2.8
				C484.2,26,485.1,25.7,486.1,25.7z M484.2,35.5c0.6,0,1.3-0.3,1.9-0.9c0.6-0.6,1.1-1.4,1.5-2.4s0.6-2,0.6-2.9
				c0-0.7-0.2-1.2-0.6-1.6s-0.9-0.6-1.4-0.6c-0.7,0-1.3,0.3-1.9,0.8c-0.6,0.6-1.1,1.3-1.4,2.3s-0.5,2-0.5,3.1c0,0.7,0.2,1.3,0.5,1.7
				C483.2,35.3,483.6,35.5,484.2,35.5z"/>
			<path class="st0" d="M501.4,25.8l-0.2,1.1l-2.1,0.2c0.3,0.4,0.4,0.9,0.4,1.6c0,1.3-0.4,2.3-1.1,3c-0.8,0.7-1.8,1.1-3.1,1.1
				c-0.4,0-0.6,0-0.8-0.1c-0.9,0.3-1.4,0.8-1.4,1.3c0,0.3,0.1,0.4,0.3,0.5c0.2,0.1,0.5,0.2,0.9,0.2l1.2,0.1c1.2,0.1,2.1,0.4,2.6,0.9
				c0.5,0.4,0.8,1.1,0.8,1.9c0,1.2-0.5,2.1-1.4,2.8c-1,0.7-2.3,1-4.1,1c-1.3,0-2.3-0.2-3-0.7s-1.1-1.2-1.1-2c0-0.7,0.2-1.3,0.7-1.8
				s1.2-0.9,2.3-1.3c-0.5-0.3-0.8-0.7-0.8-1.2s0.2-0.8,0.5-1.2c0.3-0.3,0.8-0.6,1.4-0.9c-0.4-0.2-0.8-0.5-1-0.9
				c-0.3-0.4-0.4-0.9-0.4-1.4c0-1.3,0.4-2.3,1.2-3.1c0.8-0.8,1.8-1.2,3-1.2c0.5,0,1,0.1,1.5,0.2h3.7V25.8z M490.9,38.6
				c0,0.5,0.2,0.9,0.6,1.2s1.1,0.4,1.9,0.4c1.2,0,2.1-0.2,2.8-0.6c0.7-0.4,1-1,1-1.8c0-0.4-0.2-0.7-0.5-1c-0.4-0.2-1-0.4-1.8-0.5
				l-1.6-0.2c-0.8,0.2-1.4,0.5-1.8,0.9C491.1,37.5,490.9,38,490.9,38.6z M493.6,30c0,0.6,0.1,1,0.4,1.3s0.7,0.4,1.2,0.4
				s1-0.1,1.4-0.4s0.7-0.7,0.9-1.1c0.2-0.5,0.3-1,0.3-1.6c0-0.5-0.1-0.9-0.4-1.2c-0.3-0.3-0.7-0.4-1.2-0.4s-1,0.1-1.3,0.4
				c-0.4,0.3-0.7,0.6-0.9,1.1C493.8,28.9,493.6,29.4,493.6,30z"/>
			<path class="st0" d="M504.9,36.9c-1.2,0-2.2-0.4-2.9-1.1c-0.7-0.7-1-1.7-1-3c0-1.2,0.2-2.4,0.7-3.6c0.5-1.1,1.1-2,1.9-2.6
				s1.7-0.9,2.7-0.9s1.8,0.2,2.3,0.7c0.5,0.4,0.8,1,0.8,1.8c0,1.2-0.5,2.1-1.6,2.8c-1.1,0.7-2.7,1-4.7,1h-0.3v0.8
				c0,0.9,0.2,1.5,0.6,2s1,0.7,1.9,0.7c0.4,0,0.8-0.1,1.3-0.2c0.4-0.1,1-0.3,1.6-0.7V36c-0.6,0.3-1.2,0.5-1.6,0.6
				C506,36.8,505.5,36.9,504.9,36.9z M506.3,27.1c-0.7,0-1.3,0.3-1.9,0.9s-1.1,1.5-1.4,2.6h0.1c1.5,0,2.6-0.2,3.4-0.6s1.2-1,1.2-1.7
				c0-0.3-0.1-0.6-0.4-0.9C507.2,27.2,506.8,27.1,506.3,27.1z"/>
			<path class="st0" d="M516.8,25.7c0.5,0,0.8,0,1.2,0.1l-0.4,1.5c-0.3-0.1-0.7-0.1-1-0.1c-0.6,0-1.2,0.2-1.7,0.6s-1,0.9-1.4,1.6
				s-0.7,1.5-0.9,2.3l-1.1,5H510l2.3-10.8h1.4l-0.2,2h0.1c0.5-0.6,0.9-1.1,1.2-1.3c0.3-0.3,0.6-0.5,1-0.6
				C516.1,25.7,516.4,25.7,516.8,25.7z"/>
		</g>
		
			<linearGradient id="SVGID_1_" gradientUnits="userSpaceOnUse" x1="221.1" y1="46.3883" x2="221.1" y2="2.4662" gradientTransform="matrix(1 0 0 -1 0 52)">
			<stop  offset="0" style="stop-color:#BCBEC0;stop-opacity:0"/>
			<stop  offset="0.5" style="stop-color:#BCBEC0"/>
			<stop  offset="1" style="stop-color:#BCBEC0;stop-opacity:0"/>
		</linearGradient>
		<rect x="220.4" y="5.4" class="st1" width="1.4" height="45.3"/>
		<g>
			<g>
				<polygon class="st2" points="35.9,23.4 12.9,6.9 14.4,4.6 39,18.5 				"/>
				<path d="M33.3,23.4"/>
				<g class="st3">
					<path class="st2" d="M50.2,43.6v-41h6.7v41H50.2z"/>
				</g>
				<g class="st3">
					<path class="st2" d="M90.9,28c0,5.1-1.3,9-3.9,11.9c-2.6,2.8-6.2,4.3-10.8,4.3c-2.9,0-5.5-0.7-7.7-2c-2.2-1.3-3.9-3.2-5.1-5.6
						c-1.2-2.4-1.8-5.3-1.8-8.5c0-5,1.3-9,3.9-11.8C68,13.5,71.6,12,76.3,12c4.5,0,8,1.4,10.6,4.3C89.5,19.3,90.9,23.2,90.9,28z
						 M68.3,28c0,7.1,2.6,10.7,7.9,10.7c5.2,0,7.8-3.6,7.8-10.7c0-7.1-2.6-10.6-7.9-10.6c-2.8,0-4.8,0.9-6,2.7
						C68.9,22,68.3,24.6,68.3,28z"/>
				</g>
				<g class="st3">
					<path class="st4" d="M107.1,43.6h-8.7V9.8H87.3V2.6h30.9v7.2h-11.1V43.6z"/>
				</g>
				<g class="st3">
					<path class="st4" d="M138.1,43.6l-1.7-4.3h-0.2c-1.4,1.8-2.9,3.1-4.4,3.8c-1.5,0.7-3.5,1.1-6,1.1c-3,0-5.4-0.9-7.1-2.6
						c-1.7-1.7-2.6-4.2-2.6-7.3c0-3.3,1.2-5.8,3.5-7.4s5.8-2.5,10.5-2.6l5.4-0.2v-1.4c0-3.2-1.6-4.8-4.9-4.8c-2.5,0-5.4,0.8-8.8,2.3
						l-2.8-5.8c3.6-1.9,7.6-2.8,12-2.8c4.2,0,7.4,0.9,9.7,2.7c2.2,1.8,3.4,4.6,3.4,8.4v20.9H138.1z M135.6,29.1l-3.3,0.1
						c-2.5,0.1-4.3,0.5-5.5,1.3s-1.8,2.1-1.8,3.8c0,2.4,1.4,3.6,4.1,3.6c2,0,3.6-0.6,4.8-1.7c1.2-1.1,1.8-2.7,1.8-4.5V29.1z"/>
					<path class="st4" d="M158.4,43.6h-8.5V0h8.5V43.6z"/>
					<path class="st4" d="M172.3,26.6l3.7-4.8l8.8-9.5h9.6L182,25.9l13.2,17.7h-9.9l-9-12.7l-3.7,2.9v9.7h-8.5V0h8.5v19.4l-0.4,7.1
						H172.3z"/>
				</g>
				<circle class="st4" cx="9.1" cy="34.5" r="9.1"/>
				<circle class="st4" cx="35.3" cy="19.5" r="6.6"/>
				<circle class="st2" cx="16" cy="7.4" r="4.7"/>
				<polygon class="st4" points="10,38.6 5.8,31.7 35.4,17 37.3,20.2 				"/>
			</g>
			<g>
				<path class="st4" d="M197.7,17.2h-0.6v-4.4h-1.5v-0.5h3.7v0.5h-1.5V17.2z"/>
				<path class="st4" d="M202.2,17.2l-1.7-4.3h0c0,0.3,0,0.7,0,1.2v3.1H200v-4.9h0.9l1.5,4h0l1.6-4h0.8v4.9h-0.6v-3.1
					c0-0.4,0-0.8,0-1.2h0l-1.7,4.3H202.2z"/>
			</g>
		</g>
	</g>
</g>
<g id="Isolation_Mode">
</g>
</svg>
