<?xml version="1.0" encoding="utf-8"?>
<!-- Generator: Adobe Illustrator 22.0.1, SVG Export Plug-In . SVG Version: 6.00 Build 0)  -->
<svg version="1.1" id="Layer_1" xmlns="http://www.w3.org/2000/svg" xmlns:xlink="http://www.w3.org/1999/xlink" x="0px" y="0px"
	 viewBox="0 0 284 442.3" style="enable-background:new 0 0 284 442.3;" xml:space="preserve">
<style type="text/css">
	.st0{fill:#BEBEBF;}
	.st1{clip-path:url(#SVGID_2_);}
	.st2{fill:#707070;}
	.st3{fill:#BEC0C2;}
	.st4{fill:#333333;}
	.st5{fill:url(#SVGID_3_);}
	.st6{fill:url(#SVGID_4_);}
	.st7{fill:#0B357F;}
	.st8{opacity:0.1;fill:#FFFFFF;enable-background:new    ;}
	.st9{opacity:0.11;}
</style>
<title>Asset 1</title>
<g>
	<g id="Layer_2_1_">
		<g id="Space_Gray_Mobile_Phone">
			<g id="Shadow">
				
					<image style="overflow:visible;enable-background:new    ;" width="264" height="82" xlink:href="5D7DD43FE247229F.png"  transform="matrix(1 0 0 1 8 399.38)">
				</image>
			</g>
			<g id="Side_Buttons">
				<path class="st0" d="M36.1,94.3H46c1.1,0,2,0.9,2,2v28.2c0,1.1-0.9,2-2,2h-9.9c-1.1,0-2-0.9-2-2V96.3
					C34.1,95.2,35,94.3,36.1,94.3z"/>
				
					<image style="overflow:visible;enable-background:new    ;" width="16" height="34" xlink:href="5D7DD43FE247229D.png"  transform="matrix(1 0 0 1 33 93.38)">
				</image>
				<path class="st0" d="M36.1,56.6H46c1.1,0,2,0.9,2,2V71c0,1.1-0.9,2-2,2h-9.9c-1.1,0-2-0.9-2-2V58.6C34.1,57.5,35,56.6,36.1,56.6
					z"/>
				
					<image style="overflow:visible;enable-background:new    ;" width="16" height="19" xlink:href="5D7DD43FE24722A3.png"  transform="matrix(1 0 0 1 33 55.38)">
				</image>
				<path class="st0" d="M238.3,94.3h9.9c1.1,0,2,0.9,2,2v28.2c0,1.1-0.9,2-2,2h-9.9c-1.1,0-2-0.9-2-2V96.3
					C236.3,95.2,237.2,94.3,238.3,94.3z"/>
				
					<image style="overflow:visible;enable-background:new    ;" width="16" height="34" xlink:href="5D7DD43FE24722A5.png"  transform="matrix(1 0 0 1 235 93.38)">
				</image>
				<path class="st0" d="M36.1,134.7H46c1.1,0,2,0.9,2,2v28.2c0,1.1-0.9,2-2,2h-9.9c-1.1,0-2-0.9-2-2v-28.2
					C34.1,135.6,35,134.7,36.1,134.7z"/>
				
					<image style="overflow:visible;enable-background:new    ;" width="16" height="35" xlink:href="5D7DD43FE24722A7.png"  transform="matrix(1 0 0 1 33 133.38)">
				</image>
			</g>
			<g id="Body">
				<g>
					<defs>
						<path id="SVGID_1_" d="M248.6,125.5V95.3c0-0.5,0.2-1,0.6-1.4V33.8c0-18.6-15.1-33.8-33.8-33.8H68.9
							C50.2,0,35.1,15.1,35.1,33.8v22.5c0.4,0.2,0.6,0.4,0.6,0.7v15.6c0,0.3-0.2,0.5-0.6,0.7v20.6c0.4,0.4,0.6,0.9,0.6,1.4v30.2
							c0,0.5-0.2,1-0.6,1.4v7.5c0.4,0.4,0.6,0.9,0.6,1.4v30.2c0,0.5-0.2,1-0.6,1.4v241.4c0,18.6,15.1,33.8,33.8,33.8h2.4
							c3.1-2.7,7.7-2.7,10.8,0h133.4c18.6,0,33.8-15.1,33.8-33.8V126.9C248.8,126.5,248.6,126,248.6,125.5z"/>
					</defs>
					<clipPath id="SVGID_2_">
						<use xlink:href="#SVGID_1_"  style="overflow:visible;"/>
					</clipPath>
					<g class="st1">
						<path class="st2" d="M68.9,0h146.6c18.7,0,33.8,15.1,33.8,33.8v374.9c0,18.7-15.1,33.8-33.8,33.8H68.9
							c-18.7,0-33.8-15.1-33.8-33.8V33.8C35.1,15.1,50.2,0,68.9,0z"/>
						
							<image style="overflow:visible;enable-background:new    ;" width="284" height="512" xlink:href="5D7DD43FE24722A4.png"  transform="matrix(1 0 0 1 0 -34.62)">
						</image>
					</g>
				</g>
			</g>
			<g id="Antenna_Lines">
				<rect x="35.1" y="35" class="st3" width="214.1" height="6.4"/>
				<rect x="35.1" y="401.5" class="st3" width="214.1" height="6.4"/>
			</g>
			<g id="Border">
				<path d="M68.9,3.9h146.6c16.5,0,29.8,13.4,29.8,29.8v374.9c0,16.5-13.4,29.8-29.8,29.8H68.9c-16.5,0-29.8-13.4-29.8-29.8V33.8
					C39,17.3,52.4,3.9,68.9,3.9z"/>
				<path d="M48.8,52.8h186.6c1.1,0,2,0.9,2,2v332.7c0,1.1-0.9,2-2,2H48.8c-1.1,0-2-0.9-2-2V54.8C46.8,53.7,47.7,52.8,48.8,52.8z"/>
			</g>
			<g id="_YOUR_SCREEN_HERE_">
				<rect x="48.5" y="54.5" class="st4" width="187.3" height="333.3"/>
			</g>
			<g id="Top">
				<g id="Sensor">
					<circle cx="142.2" cy="14.2" r="2.3"/>
				</g>
				<g id="Microphone_Receiver">
					
						<linearGradient id="SVGID_3_" gradientUnits="userSpaceOnUse" x1="142.165" y1="422.23" x2="142.165" y2="418.2" gradientTransform="matrix(1 0 0 -1 0 448.76)">
						<stop  offset="0" style="stop-color:#000000"/>
						<stop  offset="1" style="stop-color:#212121"/>
					</linearGradient>
					<path class="st5" d="M127.5,26.8h29.4c1,0,1.8,0.8,1.8,1.8v0c0,1-0.8,1.8-1.8,1.8h-29.4c-1,0-1.8-0.8-1.8-1.8v0
						C125.7,27.6,126.5,26.8,127.5,26.8z"/>
					<path class="st4" d="M127.5,29.8c-0.7,0-1.2-0.5-1.2-1.2c0-0.7,0.5-1.2,1.2-1.2c0,0,0,0,0,0h29.4c0.7,0,1.2,0.5,1.2,1.2
						c0,0.7-0.5,1.2-1.2,1.2H127.5z"/>
				</g>
				<g id="Camera">
					
						<linearGradient id="SVGID_4_" gradientUnits="userSpaceOnUse" x1="108.18" y1="423.71" x2="108.18" y2="416.95" gradientTransform="matrix(1 0 0 -1 0 448.76)">
						<stop  offset="0" style="stop-color:#000000"/>
						<stop  offset="1" style="stop-color:#474747"/>
					</linearGradient>
					<circle class="st6" cx="108.2" cy="28.6" r="3.5"/>
					<circle class="st7" cx="107.1" cy="28.4" r="1.1"/>
					<circle class="st8" cx="106.9" cy="29.2" r="0.6"/>
				</g>
			</g>
			<g id="Shading_-_Dark">
				<g class="st9">
					
						<image style="overflow:visible;enable-background:new    ;" width="279" height="508" xlink:href="5D7DD43FE24722AC.png"  transform="matrix(1 0 0 1 3 -32.62)">
					</image>
				</g>
			</g>
			<g id="Shading_-_Light">
				
					<image style="overflow:visible;enable-background:new    ;" width="101" height="506" xlink:href="5D7DD43FE24722AD.png"  transform="matrix(1 0 0 1 4 -31.62)">
				</image>
				
					<image style="overflow:visible;enable-background:new    ;" width="101" height="506" xlink:href="5D7DD43FE24722AF.png"  transform="matrix(1 0 0 1 179 -31.62)">
				</image>
			</g>
		</g>
	</g>
</g>
</svg>
