<?xml version="1.0" encoding="utf-8"?>
<!-- Generator: Adobe Illustrator 22.1.0, SVG Export Plug-In . SVG Version: 6.00 Build 0)  -->
<!DOCTYPE svg PUBLIC "-//W3C//DTD SVG 1.1//EN" "http://www.w3.org/Graphics/SVG/1.1/DTD/svg11.dtd">
<svg version="1.1" xmlns="http://www.w3.org/2000/svg" xmlns:xlink="http://www.w3.org/1999/xlink" x="0px" y="0px"
	 viewBox="0 0 43.7 43.7" style="enable-background:new 0 0 43.7 43.7;" xml:space="preserve">
<style type="text/css">
	.st0{fill:#F97B08;}
</style>
<g id="Layer_1">
</g>
<g id="Isolation_Mode">
	<path class="st0" d="M35.7,43.7H8c-4.4,0-8-3.6-8-8V8c0-4.4,3.6-8,8-8h27.7c4.4,0,8,3.6,8,8v27.7C43.7,40.1,40.1,43.7,35.7,43.7z
		 M8,1.5C4.4,1.5,1.5,4.4,1.5,8v27.7c0,3.6,2.9,6.5,6.5,6.5h27.7c3.6,0,6.5-2.9,6.5-6.5V8c0-3.6-2.9-6.5-6.5-6.5H8z"/>
	<g>
		<path class="st0" d="M23.5,19.6c0.4-0.4,0.6-0.8,1-1.1c1-1.1,2.4-1.7,3.9-1.8c1.3-0.1,2.6,0.1,3.7,0.6c1.4,0.7,2.3,1.7,3,3.1
			c0.6,1.4,0.8,2.9,0.8,4.4c0,3.3,0,6.7,0,10c0,0.3-0.1,0.4-0.4,0.4c-1.8,0-3.5,0-5.3,0c-0.3,0-0.4-0.1-0.4-0.4c0-3.3,0-6.7,0-10
			c0-1-0.3-1.9-1-2.6c-0.6-0.6-1.4-0.8-2.2-0.8c-1.7,0.1-2.8,1.4-3,2.8c-0.1,0.4-0.1,0.8-0.1,1.2c0,3.1,0,6.3,0,9.4
			c0,0.3-0.1,0.4-0.4,0.4c-1.7,0-3.5,0-5.2,0c-0.4,0-0.4,0-0.4-0.4c0-5.3,0-10.5,0-15.8c0-0.6,0-1.1,0-1.7c0-0.2,0.1-0.3,0.3-0.3
			c1.8,0,3.7,0,5.5,0c0.2,0,0.3,0.1,0.3,0.3C23.5,18.1,23.5,18.8,23.5,19.6z"/>
		<path class="st0" d="M14.2,26.2c0,2.9,0,5.8,0,8.7c0,0.3-0.1,0.4-0.4,0.4c-1.8,0-3.5,0-5.3,0c-0.3,0-0.4-0.1-0.4-0.4
			c0-5.8,0-11.6,0-17.4c0-0.3,0.1-0.4,0.4-0.4c1.8,0,3.6,0,5.3,0c0.3,0,0.4,0.1,0.4,0.4C14.2,20.4,14.2,23.3,14.2,26.2z"/>
		<path class="st0" d="M11.3,8.4c1.2,0,2.2,0.5,2.9,1.7c0.9,1.7,0,3.9-1.9,4.4c-0.9,0.3-1.9,0.2-2.8-0.2c-1.1-0.5-1.8-1.7-1.7-2.9
			C7.8,9.6,9.2,8.4,11.3,8.4z"/>
	</g>
</g>
</svg>
