<?xml version="1.0" encoding="utf-8"?>
<!-- Generator: Adobe Illustrator 23.0.1, SVG Export Plug-In . SVG Version: 6.00 Build 0)  -->
<svg version="1.1" xmlns="http://www.w3.org/2000/svg" xmlns:xlink="http://www.w3.org/1999/xlink" x="0px" y="0px"
	 viewBox="0 0 30.005 30.006" style="enable-background:new 0 0 30.005 30.006;" xml:space="preserve">
<style type="text/css">
	.st0{fill:url(#SVGID_1_);}
	.st1{fill:url(#SVGID_2_);}
	.st2{fill:url(#SVGID_3_);}
	.st3{fill:url(#SVGID_4_);}
</style>
<g id="Layer_1">
	<linearGradient id="SVGID_1_" gradientUnits="userSpaceOnUse" x1="14.9401" y1="0.0396" x2="15.0647" y2="29.9358">
		<stop  offset="0.3" style="stop-color:#EE3A24"/>
		<stop  offset="1" style="stop-color:#AF1F2D"/>
	</linearGradient>
	<path class="st0" d="M24.505,30.006H5.5c-3.033,0-5.5-2.468-5.5-5.5V5.5C0,2.468,2.467,0,5.5,0h19.005c3.033,0,5.5,2.468,5.5,5.5
		v19.006C30.005,27.538,27.538,30.006,24.505,30.006z M5.5,1C3.019,1,1,3.019,1,5.5v19.006c0,2.481,2.019,4.5,4.5,4.5h19.005
		c2.481,0,4.5-2.019,4.5-4.5V5.5c0-2.481-2.019-4.5-4.5-4.5H5.5z"/>
</g>
<g id="Isolation_Mode">
	<g>
		<linearGradient id="SVGID_2_" gradientUnits="userSpaceOnUse" x1="18.2499" y1="0.0242" x2="18.3744" y2="30.0449">
			<stop  offset="0.3" style="stop-color:#EE3A24"/>
			<stop  offset="1" style="stop-color:#AF1F2D"/>
		</linearGradient>
		<path class="st1" d="M16.154,13.285c0.245-0.286,0.445-0.536,0.663-0.77c0.721-0.775,1.633-1.147,2.673-1.215
			c0.889-0.058,1.754,0.054,2.57,0.446c0.955,0.46,1.612,1.197,2.04,2.153c0.432,0.963,0.557,1.986,0.561,3.026
			c0.01,2.289,0.001,4.579,0.008,6.868c0.001,0.207-0.066,0.258-0.264,0.256c-1.211-0.008-2.421-0.009-3.632,0
			c-0.213,0.002-0.271-0.06-0.271-0.272c0.001-2.289,0.004-4.579-0.02-6.868c-0.007-0.669-0.185-1.306-0.664-1.815
			c-0.415-0.441-0.951-0.56-1.526-0.53c-1.149,0.059-1.926,0.94-2.091,1.9c-0.047,0.273-0.045,0.555-0.046,0.833
			c-0.004,2.157-0.006,4.315,0.003,6.472c0.001,0.225-0.061,0.282-0.283,0.28c-1.196-0.011-2.392-0.005-3.588-0.005
			c-0.283,0-0.283-0.001-0.282-0.292c0.006-3.617,0.014-7.235,0.018-10.852c0.001-0.381-0.007-0.763-0.02-1.144
			c-0.005-0.145,0.048-0.191,0.191-0.19c1.255,0.004,2.509,0.005,3.764-0.001c0.16-0.001,0.199,0.059,0.197,0.206
			C16.15,12.261,16.154,12.75,16.154,13.285z"/>
		<linearGradient id="SVGID_3_" gradientUnits="userSpaceOnUse" x1="7.5736" y1="0.0685" x2="7.6982" y2="30.0892">
			<stop  offset="0.3" style="stop-color:#EE3A24"/>
			<stop  offset="1" style="stop-color:#AF1F2D"/>
		</linearGradient>
		<path class="st2" d="M9.726,17.801c0,1.988-0.003,3.976,0.005,5.963c0.001,0.219-0.052,0.288-0.28,0.286
			c-1.21-0.011-2.421-0.01-3.631-0.001c-0.209,0.002-0.255-0.067-0.255-0.264c0.005-3.99,0.005-7.981,0-11.971
			c0-0.191,0.048-0.252,0.244-0.25c1.225,0.009,2.45,0.009,3.675,0c0.198-0.001,0.246,0.061,0.246,0.251
			C9.723,13.81,9.726,15.806,9.726,17.801z"/>
		<linearGradient id="SVGID_4_" gradientUnits="userSpaceOnUse" x1="7.6358" y1="0.0682" x2="7.7604" y2="30.089">
			<stop  offset="0.3" style="stop-color:#EE3A24"/>
			<stop  offset="1" style="stop-color:#AF1F2D"/>
		</linearGradient>
		<path class="st3" d="M7.771,5.566c0.801,0.025,1.544,0.335,1.985,1.174c0.629,1.196-0.008,2.662-1.311,3.017
			c-0.647,0.177-1.282,0.16-1.907-0.121C5.753,9.283,5.301,8.459,5.337,7.657C5.392,6.414,6.339,5.57,7.771,5.566z"/>
	</g>
</g>
<g id="Capa_1">
</g>
</svg>
