<?xml version="1.0" encoding="utf-8"?>
<!-- Generator: Adobe Illustrator 22.1.0, SVG Export Plug-In . SVG Version: 6.00 Build 0)  -->
<!DOCTYPE svg PUBLIC "-//W3C//DTD SVG 1.1//EN" "http://www.w3.org/Graphics/SVG/1.1/DTD/svg11.dtd">
<svg version="1.1" id="Layer_1" xmlns="http://www.w3.org/2000/svg" xmlns:xlink="http://www.w3.org/1999/xlink" x="0px" y="0px"
	 viewBox="0 0 275 59.3" style="enable-background:new 0 0 275 59.3;" xml:space="preserve">
<style type="text/css">
	.st0{fill:#0885F9;}
	.st1{enable-background:new    ;}
	.st2{fill:#F97B08;}
</style>
<g>
	<g>
		<polygon class="st0" points="48.2,31.5 17.3,9.3 19.3,6.2 52.4,24.9 		"/>
		<path d="M44.7,31.5"/>
		<g class="st1">
			<path class="st0" d="M67.4,58.5v-55h9v55H67.4z"/>
		</g>
		<g class="st1">
			<path class="st0" d="M122,37.7c0,6.8-1.7,12.1-5.2,15.9s-8.3,5.7-14.6,5.7c-3.9,0-7.3-0.9-10.3-2.6c-3-1.8-5.3-4.3-6.9-7.6
				s-2.4-7.1-2.4-11.4c0-6.7,1.7-12,5.2-15.8c3.5-3.8,8.3-5.7,14.6-5.7c6,0,10.8,1.9,14.3,5.8C120.2,25.9,122,31.1,122,37.7z
				 M91.7,37.7c0,9.6,3.5,14.4,10.6,14.4c7,0,10.5-4.8,10.5-14.4c0-9.5-3.5-14.2-10.6-14.2c-3.7,0-6.4,1.2-8.1,3.7
				C92.5,29.6,91.7,33.1,91.7,37.7z"/>
		</g>
		<g class="st1">
			<path class="st2" d="M143.8,58.5h-11.7V13.2h-14.9V3.5h41.5v9.7h-14.9V58.5z"/>
		</g>
		<g class="st1">
			<path class="st2" d="M185.4,58.5l-2.2-5.7h-0.3c-1.9,2.4-3.9,4.1-6,5.1s-4.7,1.4-8,1.4c-4,0-7.2-1.2-9.5-3.5
				c-2.3-2.3-3.5-5.6-3.5-9.9c0-4.5,1.6-7.8,4.7-9.9c3.1-2.1,7.8-3.3,14.1-3.5l7.3-0.2v-1.9c0-4.3-2.2-6.4-6.5-6.4
				c-3.4,0-7.3,1-11.8,3l-3.8-7.7c4.8-2.5,10.2-3.8,16.1-3.8c5.6,0,10,1.2,13,3.7c3,2.5,4.5,6.2,4.5,11.2v28H185.4z M182.1,39
				l-4.4,0.2c-3.3,0.1-5.8,0.7-7.5,1.8c-1.6,1.1-2.4,2.8-2.4,5c0,3.2,1.9,4.9,5.6,4.9c2.7,0,4.8-0.8,6.4-2.3
				c1.6-1.5,2.4-3.6,2.4-6.1V39z"/>
			<path class="st2" d="M212.6,58.5h-11.5V0h11.5V58.5z"/>
			<path class="st2" d="M231.3,35.7l5-6.4l11.8-12.8H261l-16.7,18.2L262,58.5h-13.2l-12.1-17l-4.9,3.9v13.1h-11.5V0h11.5v26.1
				l-0.6,9.6H231.3z"/>
		</g>
		<circle class="st2" cx="12.2" cy="46.3" r="12.2"/>
		<circle class="st2" cx="47.3" cy="26.2" r="8.8"/>
		<circle class="st0" cx="21.5" cy="9.9" r="6.4"/>
		<polygon class="st2" points="13.5,51.9 7.8,42.5 47.5,22.8 50.1,27.1 		"/>
	</g>
	<g>
		<path class="st2" d="M265.5,23.1h-0.8v-5.9h-2.1v-0.7h4.9v0.7h-2.1V23.1z"/>
		<path class="st2" d="M271.4,23.1l-2.2-5.8h0c0,0.5,0.1,1,0.1,1.6v4.2h-0.7v-6.6h1.1l2.1,5.4h0l2.1-5.4h1.1v6.6h-0.8v-4.2
			c0-0.5,0-1,0.1-1.6h0l-2.2,5.8H271.4z"/>
	</g>
</g>
</svg>
