<?xml version="1.0" encoding="utf-8"?>
<!-- Generator: Adobe Illustrator 22.1.0, SVG Export Plug-In . SVG Version: 6.00 Build 0)  -->
<!DOCTYPE svg PUBLIC "-//W3C//DTD SVG 1.1//EN" "http://www.w3.org/Graphics/SVG/1.1/DTD/svg11.dtd">
<svg version="1.1" xmlns="http://www.w3.org/2000/svg" xmlns:xlink="http://www.w3.org/1999/xlink" x="0px" y="0px"
	 viewBox="0 0 46.1 47.4" style="enable-background:new 0 0 46.1 47.4;" xml:space="preserve">
<style type="text/css">
	.st0{fill:none;}
	.st1{fill:#0885F9;}
</style>
<g id="Layer_1">
	<g>
		<path class="st0" d="M37.3,19.4c0-9.9-8-17.9-17.9-17.9S1.5,9.5,1.5,19.4c0,9.9,8,17.9,17.9,17.9S37.3,29.3,37.3,19.4z"/>
		<path class="st1" d="M45.1,41.8L34.7,31.4c2.6-3.3,4.2-7.4,4.2-12C38.8,8.7,30.1,0,19.4,0S0,8.7,0,19.4s8.7,19.4,19.4,19.4
			c3.9,0,7.6-1.2,10.7-3.2l-0.2,0.2l10.6,10.6c1.3,1.3,3.3,1.3,4.6,0l0,0C46.4,45.1,46.4,43.1,45.1,41.8z M1.5,19.4
			c0-9.9,8-17.9,17.9-17.9s17.9,8,17.9,17.9c0,9.9-8,17.9-17.9,17.9S1.5,29.3,1.5,19.4z"/>
	</g>
	<g>
		<path class="st1" d="M10.3,18.3l1.9-3.7c0.3-0.5,0.8-0.8,1.4-0.8c0.6,0,1.1,0.4,1.3,1l3,8L22,12c0.2-0.6,0.8-1,1.4-1c0,0,0,0,0,0
			c0.6,0,1.2,0.4,1.4,1l2.4,6.3h6c-0.6-7.1-6.5-12.8-13.8-12.8S6.1,11.1,5.6,18.3H10.3z"/>
		<path class="st1" d="M26.2,21.3c-0.6,0-1.2-0.4-1.4-1l-1.4-3.5l-4.1,10.8c-0.2,0.6-0.8,1-1.4,1s-1.2-0.4-1.4-1L13.3,19l-0.8,1.5
			c-0.3,0.5-0.8,0.8-1.3,0.8H5.7c0.9,6.8,6.7,12,13.7,12s12.8-5.2,13.7-12H26.2z"/>
	</g>
</g>
<g id="Isolation_Mode">
</g>
</svg>
