<?xml version="1.0" encoding="utf-8"?>
<!-- Generator: Adobe Illustrator 22.1.0, SVG Export Plug-In . SVG Version: 6.00 Build 0)  -->
<!DOCTYPE svg PUBLIC "-//W3C//DTD SVG 1.1//EN" "http://www.w3.org/Graphics/SVG/1.1/DTD/svg11.dtd">
<svg version="1.1" xmlns="http://www.w3.org/2000/svg" xmlns:xlink="http://www.w3.org/1999/xlink" x="0px" y="0px"
	 viewBox="0 0 43.8 49.3" style="enable-background:new 0 0 43.8 49.3;" xml:space="preserve">
<style type="text/css">
	.st0{fill:#0885F9;}
</style>
<g id="Layer_1">
</g>
<g id="Isolation_Mode">
	<g>
		<path class="st0" d="M41.9,31.6c0.8-2.2,1.2-4.5,1.2-7s-0.4-4.8-1.2-7c0.9-0.5,1.5-1.4,1.8-2.3c0.3-1,0.1-2.1-0.4-3
			c-0.5-0.9-1.4-1.6-2.4-1.9c-1-0.3-2-0.1-2.9,0.4c-3.1-3.6-7.3-6.1-12.1-7C25.8,1.7,24,0,21.9,0s-3.9,1.7-4,3.8
			c-4.8,0.9-9,3.4-12.1,7c-0.9-0.5-1.9-0.6-2.9-0.4c-1,0.3-1.9,0.9-2.4,1.9c-1.1,1.9-0.5,4.2,1.4,5.4c-0.8,2.2-1.2,4.5-1.2,7
			s0.4,4.8,1.2,7c-1.8,1.1-2.4,3.5-1.4,5.4c0.5,0.9,1.4,1.6,2.4,1.9C3.3,38.9,3.6,39,4,39c0.7,0,1.3-0.2,1.9-0.5
			c3.1,3.5,7.3,6.1,12.1,7c0.1,2.1,1.8,3.8,4,3.8s3.9-1.7,4-3.8c4.8-0.9,9-3.4,12.1-7c0.6,0.3,1.2,0.5,1.9,0.5c0.3,0,0.7,0,1-0.1
			c1-0.3,1.9-0.9,2.4-1.9c0.5-0.9,0.7-2,0.4-3C43.4,33,42.8,32.2,41.9,31.6z M18.2,5.3c0.5,1.3,1.7,2.3,3.1,2.6l0,5.5
			c0.5,0,1,0,1.5,0l0-5.5c1.3-0.3,2.4-1.3,2.9-2.5c4.4,0.8,8.3,3.2,11.2,6.5c-0.9,1.1-1.2,2.6-0.7,3.9l-6.3,3.6
			c-0.1-0.1-0.1-0.2-0.2-0.3c-1.6-2.2-4-3.6-6.9-3.9c-0.3,0-0.5,0-0.8,0c-0.2,0-0.5,0-0.7,0c-2.6,0.2-4.8,1.4-6.5,3.2
			c-0.2,0.3-0.5,0.6-0.7,0.9l-6.3-3.7C8,14.8,8,14,7.8,13.3c-0.2-0.6-0.4-1.1-0.8-1.5C9.9,8.5,13.7,6.2,18.2,5.3z M21.9,24.6
			c2.5,0,4.6,1.7,5.3,4c0.2,0.7-0.4,1.5-1.1,1.5h-8.3c-0.8,0-1.3-0.7-1.1-1.5C17.2,26.3,19.4,24.6,21.9,24.6z M19.2,20.5
			c0-1.5,1.2-2.7,2.7-2.7s2.7,1.2,2.7,2.7c0,1.5-1.2,2.7-2.7,2.7S19.2,22,19.2,20.5z M1.8,13.1c0.3-0.6,0.9-1,1.5-1.2
			c0.2-0.1,0.4-0.1,0.6-0.1c0.3,0,0.6,0.1,0.9,0.2c0.1,0,0.2,0.1,0.3,0.1c0.4,0.2,0.6,0.5,0.8,0.8c0.1,0.2,0.2,0.4,0.3,0.7
			c0.2,0.6,0.1,1.3-0.2,1.9c-0.5,0.8-1.4,1.3-2.3,1.2c-0.4,0-0.8-0.1-1.1-0.3c-0.1-0.1-0.2-0.1-0.3-0.2C1.5,15.5,1.2,14.2,1.8,13.1z
			 M18.2,44c-4.4-0.8-8.3-3.2-11.1-6.5c0.4-0.4,0.6-0.9,0.8-1.5C8,35.2,8,34.4,7.7,33.6l4.8-2.7c-0.2-0.2-0.3-0.5-0.4-0.7
			c-0.1-0.2-0.2-0.4-0.3-0.6l-4.9,2.8c-0.9-1-2.3-1.4-3.6-1.2c-0.7-2-1.1-4.2-1.1-6.4c0-2.3,0.4-4.4,1.1-6.4c0.2,0,0.5,0.1,0.7,0.1
			c1.2,0,2.3-0.5,3.1-1.5l6.3,3.7c0,0.1-0.1,0.2-0.1,0.3c-0.5,1.2-0.8,2.5-0.8,3.9c0,1.4,0.3,2.8,0.9,4c0.2,0.5,0.5,0.9,0.7,1.3
			c1.5,2.2,4,3.8,6.8,4.1c0.1,0,0.2,0,0.3,0l0,7.3C19.7,41.8,18.6,42.7,18.2,44z M24.3,45.7c-0.2,1.2-1.2,2.1-2.4,2.1
			s-2.3-0.9-2.4-2.1c0-0.1,0-0.2,0-0.4c0-0.4,0.1-0.8,0.3-1.1c0.4-0.8,1.2-1.4,2.2-1.4s1.8,0.6,2.2,1.4c0.2,0.3,0.3,0.7,0.3,1.1
			C24.4,45.5,24.3,45.6,24.3,45.7z M40.5,31.1c-1.4-0.2-2.8,0.3-3.7,1.4l-4.5-2.6c-0.2,0.4-0.5,0.9-0.8,1.3l4.5,2.6
			c-0.4,1.3-0.1,2.7,0.7,3.7c-2.8,3.3-6.7,5.6-11.2,6.5c-0.5-1.3-1.7-2.3-3.1-2.6l0-7.3c0.1,0,0.3,0,0.4,0c2.8-0.3,5.2-1.8,6.7-4
			c0.3-0.4,0.5-0.8,0.8-1.3c0.6-1.3,1-2.7,1-4.2c0-1-0.2-2-0.5-2.9c-0.1-0.4-0.3-0.8-0.5-1.1l6.4-3.6c0.8,0.8,1.8,1.3,2.9,1.3
			c0.2,0,0.5,0,0.7-0.1c0.7,2,1.1,4.2,1.1,6.4C41.6,26.9,41.2,29.1,40.5,31.1z M41.3,16.3c-0.1,0.1-0.2,0.2-0.3,0.2
			c-0.3,0.2-0.7,0.3-1.1,0.3c-0.3,0-0.5,0-0.8-0.1c-0.6-0.2-1.2-0.6-1.5-1.2c-0.3-0.6-0.4-1.2-0.2-1.9c0.1-0.2,0.2-0.5,0.3-0.7
			c0.2-0.3,0.5-0.6,0.8-0.8c0.1-0.1,0.2-0.1,0.3-0.1c0.3-0.1,0.6-0.2,0.9-0.2c0.2,0,0.4,0,0.6,0.1c0.6,0.2,1.2,0.6,1.5,1.2
			s0.4,1.2,0.2,1.9C42.1,15.5,41.8,15.9,41.3,16.3z"/>
	</g>
</g>
</svg>
