<?xml version="1.0" encoding="utf-8"?>
<!-- Generator: Adobe Illustrator 23.0.1, SVG Export Plug-In . SVG Version: 6.00 Build 0)  -->
<svg version="1.1" id="Layer_1" xmlns="http://www.w3.org/2000/svg" xmlns:xlink="http://www.w3.org/1999/xlink" x="0px" y="0px"
	 viewBox="0 0 29.8 29.8" style="enable-background:new 0 0 29.8 29.8;" xml:space="preserve">
<style type="text/css">
	.st0{fill:#FFFFFF;}
</style>
<path class="st0" d="M14.9,29.8C6.7,29.8,0,23.2,0,14.9S6.7,0,14.9,0s14.9,6.7,14.9,14.9S23.2,29.8,14.9,29.8z M14.9,1
	C7.2,1,1,7.2,1,14.9s6.2,13.9,13.9,13.9s13.9-6.2,13.9-13.9S22.6,1,14.9,1z"/>
<path class="st0" d="M14.9,2.7C8.2,2.7,2.7,8.2,2.7,14.9c0,6.8,5.5,12.2,12.2,12.2c6.8,0,12.2-5.5,12.2-12.2
	C27.2,8.2,21.7,2.7,14.9,2.7z M19.2,15.8l-6,3.2c-0.7,0.4-1.4-0.1-1.4-0.9v-6.4c0-0.7,0.8-1.2,1.4-0.9l6,3.2
	C19.9,14.4,19.9,15.4,19.2,15.8z"/>
</svg>
