<?xml version="1.0" encoding="utf-8"?>
<!-- Generator: Adobe Illustrator 23.0.0, SVG Export Plug-In . SVG Version: 6.00 Build 0)  -->
<svg version="1.1" id="Layer_1" xmlns="http://www.w3.org/2000/svg" xmlns:xlink="http://www.w3.org/1999/xlink" x="0px" y="0px"
	 viewBox="0 0 364.1 100.2" style="enable-background:new 0 0 364.1 100.2;" xml:space="preserve">
<style type="text/css">
	.st0{fill:#FFFFFF;}
	.st1{fill:#4FC3F7;}
	.st2{fill:#01579B;}
</style>
<g>
	<g>
		<polygon class="st0" points="347.2,41.3 350.1,41.3 350.1,49.1 351.4,49.1 351.4,41.3 354.3,41.3 354.3,40.2 347.2,40.2 		"/>
		<g>
			<path class="st0" d="M363.4,40.1c-0.2,0-0.4,0.1-0.5,0.3l-3.1,4.9l-3.1-4.9c-0.1-0.2-0.3-0.3-0.5-0.3c-0.4,0-0.6,0.3-0.6,0.6v8.4
				h1.2v-6.6l2.6,4.1c0.1,0.1,0.2,0.3,0.5,0.3c0.2,0,0.4-0.1,0.5-0.3l2.5-4.1v6.6h1.2v-8.4C364,40.4,363.8,40.1,363.4,40.1z"/>
			<path class="st0" d="M129.2,58.9c0-10.3-7.9-18.7-19.3-18.7H83.3c-3.1,0-5.8,2.6-5.8,5.8v54.1H89V77.5h16.5l13.3,22.6h13.1
				l-14.3-24.2C124.6,73.1,129.2,66.5,129.2,58.9z M107.7,67.6H89V50.1h18.7c5.2,0,9.8,3,9.8,8.6C117.5,64.5,112.9,67.6,107.7,67.6z
				"/>
			<path class="st0" d="M256.4,74.4h23.7c2.8,0,5-2.2,5-4.9c0-2.7-2.2-4.9-5-4.9h-23.7V50.1h31.5v-9.9h-37.2c-3.1,0-5.8,2.6-5.8,5.8
				v48.4c0,3.1,2.6,5.8,5.8,5.8H288v-9.9h-31.6V74.4L256.4,74.4z"/>
			<path class="st0" d="M346.1,58.9c0-10.3-7.9-18.7-19.3-18.7h-26.6c-3.1,0-5.8,2.6-5.8,5.8v54.1h11.5V77.5h16.5l13.3,22.6h13.1
				l-14.3-24.2C341.5,73.1,346.1,66.5,346.1,58.9z M324.6,67.6h-18.7V50.1h18.7c5.2,0,9.8,3,9.8,8.6
				C334.4,64.5,329.8,67.6,324.6,67.6z"/>
			<path class="st0" d="M212.7,82.1l-16.9-41.9h-11.4l23.4,56.6c0.8,2.1,2.7,3.2,4.9,3.2s4.1-1.2,4.9-3.2L241,40.2h-11.3L212.7,82.1
				z"/>
			<g>
				<path class="st1" d="M49.9,50.5c0,7.8-20,16.3-20.5,27.6c-0.5,9.8,7.8,17.1,24.6,22h0.5c3,0,5.4-2.4,5.4-5.4V45.6
					c0-3-2.4-5.4-5.4-5.4H32.3C37.5,41.2,49.9,44.2,49.9,50.5z"/>
				<path class="st1" d="M7.3,78.4C11,67,23.6,61.8,31.9,57.9c8.1-3.8,22.8-9.8-3-17.7H5.4c-3,0-5.4,2.4-5.4,5.4v49.1
					c0,3,2.4,5.4,5.4,5.4H13C9.4,96.7,3.7,89.4,7.3,78.4z"/>
				<path class="st2" d="M29.4,78.1c0.5-11.3,20.5-19.8,20.5-27.6c0-6.3-12.4-9.3-17.6-10.3h-3.4c25.8,7.9,11.1,13.9,2.9,17.7
					C23.6,61.8,10.9,67,7.2,78.4c-3.5,11,2.2,18.4,5.8,21.7h41C37.1,95.2,28.9,87.9,29.4,78.1z"/>
			</g>
			<path class="st0" d="M181.5,40.2h-0.1h-11.8h-0.1l-14.9,20.5c-0.1,0-0.2,0-0.4,0c-0.1,0-0.2,0-0.2,0L139,40.2h-0.1h-11.8H127
				l21,30.4c0.1,0.2,0.3,0.5,0.4,0.7v28.8h0.1h11.4h0.1V71.4L181.5,40.2z"/>
		</g>
	</g>
	<g>
		<path class="st1" d="M97.5,5.7c0,1.9-0.6,3.3-1.8,4.3c-1.2,1-2.9,1.5-5,1.5h-1.6v6.2h-3.7V0.3H91c2.1,0,3.7,0.5,4.8,1.4
			C96.9,2.6,97.5,3.9,97.5,5.7z M89.1,8.5h1.2c1.1,0,2-0.2,2.6-0.7c0.6-0.5,0.8-1.1,0.8-2c0-0.9-0.2-1.5-0.7-1.9
			c-0.5-0.4-1.2-0.6-2.2-0.6h-1.7V8.5z"/>
		<path class="st1" d="M120.8,9c0,2.9-0.7,5.1-2.2,6.7c-1.4,1.6-3.5,2.3-6.2,2.3c-2.7,0-4.7-0.8-6.2-2.3c-1.4-1.6-2.1-3.8-2.1-6.7
			s0.7-5.1,2.2-6.7s3.5-2.3,6.2-2.3s4.7,0.8,6.2,2.3C120.1,3.9,120.8,6.1,120.8,9z M108,9c0,1.9,0.4,3.4,1.1,4.4
			c0.7,1,1.9,1.5,3.3,1.5c3,0,4.4-2,4.4-5.9c0-3.9-1.5-5.9-4.4-5.9c-1.5,0-2.6,0.5-3.3,1.5C108.4,5.6,108,7,108,9z"/>
		<path class="st1" d="M145.6,17.8h-4.2L139,8.6c-0.1-0.3-0.2-1-0.4-2c-0.2-1-0.3-1.7-0.4-2.1c-0.1,0.4-0.2,1.1-0.4,2.1
			s-0.3,1.6-0.4,2l-2.4,9.2h-4.2l-4.5-17.5h3.7l2.2,9.6c0.4,1.8,0.7,3.3,0.9,4.6c0.1-0.5,0.2-1.2,0.3-2.1s0.3-1.7,0.5-2.2l2.6-9.8
			h3.5l2.6,9.8c0.1,0.4,0.2,1.1,0.4,2c0.2,0.9,0.3,1.7,0.4,2.3c0.1-0.6,0.2-1.4,0.4-2.3c0.2-0.9,0.3-1.7,0.5-2.2l2.2-9.6h3.6
			L145.6,17.8z"/>
		<path class="st1" d="M166.4,17.8h-10.1V0.3h10.1v3H160v3.8h5.9v3H160v4.5h6.4L166.4,17.8L166.4,17.8z"/>
		<path class="st1" d="M177.9,11v6.7h-3.7V0.3h5.1c2.4,0,4.1,0.4,5.3,1.3s1.7,2.2,1.7,3.9c0,1-0.3,1.9-0.9,2.8
			c-0.6,0.8-1.4,1.4-2.4,1.9c2.6,3.9,4.4,6.5,5.1,7.6H184l-4.2-6.7H177.9z M177.9,8h1.2c1.2,0,2-0.2,2.6-0.6c0.6-0.4,0.8-1,0.8-1.8
			c0-0.8-0.3-1.4-0.9-1.8c-0.6-0.3-1.4-0.5-2.6-0.5h-1.1L177.9,8L177.9,8z"/>
		<path class="st1" d="M204.5,17.8h-10.1V0.3h10.1v3h-6.4v3.8h5.9v3h-5.9v4.5h6.4L204.5,17.8L204.5,17.8z"/>
		<path class="st1" d="M226.8,8.8c0,2.9-0.8,5.1-2.5,6.6s-4,2.3-7.1,2.3h-4.9V0.3h5.5c2.9,0,5.1,0.8,6.6,2.3
			C226,4,226.8,6.1,226.8,8.8z M223,8.9c0-3.8-1.7-5.6-5-5.6h-2v11.4h1.6C221.2,14.7,223,12.8,223,8.9z"/>
		<path class="st1" d="M245,0.3h5.4c2.5,0,4.3,0.3,5.4,1.1s1.7,1.8,1.7,3.4c0,1-0.2,1.9-0.7,2.6c-0.5,0.7-1.1,1.1-2,1.2v0.1
			c1.1,0.2,1.9,0.7,2.4,1.4s0.7,1.6,0.7,2.7c0,1.6-0.6,2.8-1.7,3.7s-2.7,1.3-4.7,1.3H245L245,0.3L245,0.3z M248.7,7.2h2.1
			c1,0,1.7-0.2,2.2-0.5s0.7-0.8,0.7-1.5c0-0.7-0.2-1.2-0.7-1.4s-1.3-0.4-2.3-0.4h-1.9L248.7,7.2L248.7,7.2z M248.7,10.1v4.6h2.4
			c1,0,1.8-0.2,2.3-0.6c0.5-0.4,0.7-1,0.7-1.8c0-1.4-1-2.2-3.1-2.2H248.7z"/>
		<path class="st1" d="M271,7.5l3.6-7.2h4L272.9,11v6.8h-3.7v-6.7l-5.8-10.8h4L271,7.5z"/>
	</g>
	<rect x="291.2" y="7.4" class="st1" width="72.9" height="2.4"/>
	<rect y="7.4" class="st1" width="72.9" height="2.4"/>
</g>
</svg>
