<?xml version="1.0" encoding="utf-8"?>
<!-- Generator: Adobe Illustrator 23.0.0, SVG Export Plug-In . SVG Version: 6.00 Build 0)  -->
<svg version="1.1" id="Layer_1" xmlns="http://www.w3.org/2000/svg" xmlns:xlink="http://www.w3.org/1999/xlink" x="0px" y="0px"
	 viewBox="0 0 364.1 100.24" style="enable-background:new 0 0 364.1 100.24;" xml:space="preserve">
<style type="text/css">
	.st0{fill:#FFFFFF;}
	.st1{fill:#4FC3F7;}
	.st2{fill:#01579B;}
</style>
<g>
	<polygon class="st0" points="347.2,41.34 350.1,41.34 350.1,49.14 351.4,49.14 351.4,41.34 354.3,41.34 354.3,40.24 347.2,40.24 	
		"/>
	<path class="st0" d="M363.4,40.14c-0.2,0-0.4,0.1-0.5,0.3l-3.1,4.9l-3.1-4.9c-0.1-0.2-0.3-0.3-0.5-0.3c-0.4,0-0.6,0.3-0.6,0.6v8.4
		h1.2v-6.6l2.6,4.1c0.1,0.1,0.2,0.3,0.5,0.3c0.2,0,0.4-0.1,0.5-0.3l2.5-4.1v6.6h1.2v-8.4C364,40.44,363.8,40.14,363.4,40.14z"/>
	<path class="st0" d="M129.2,58.94c0-10.3-7.9-18.7-19.3-18.7H83.3c-3.1,0-5.8,2.6-5.8,5.8v54.1H89v-22.6h16.5l13.3,22.6h13.1
		l-14.3-24.2C124.6,73.14,129.2,66.54,129.2,58.94z M107.7,67.64H89v-17.5h18.7c5.2,0,9.8,3,9.8,8.6
		C117.5,64.54,112.9,67.64,107.7,67.64z"/>
	<path class="st0" d="M256.4,74.44h23.7c2.8,0,5-2.2,5-4.9c0-2.7-2.2-4.9-5-4.9h-23.7v-14.5h31.5v-9.9h-37.2c-3.1,0-5.8,2.6-5.8,5.8
		v48.4c0,3.1,2.6,5.8,5.8,5.8H288v-9.9h-31.6L256.4,74.44L256.4,74.44z"/>
	<path class="st0" d="M346.1,58.94c0-10.3-7.9-18.7-19.3-18.7h-26.6c-3.1,0-5.8,2.6-5.8,5.8v54.1h11.5v-22.6h16.5l13.3,22.6h13.1
		l-14.3-24.2C341.5,73.14,346.1,66.54,346.1,58.94z M324.6,67.64h-18.7v-17.5h18.7c5.2,0,9.8,3,9.8,8.6
		C334.4,64.54,329.8,67.64,324.6,67.64z"/>
	<path class="st0" d="M212.7,82.14l-16.9-41.9h-11.4l23.4,56.6c0.8,2.1,2.7,3.2,4.9,3.2s4.1-1.2,4.9-3.2l23.4-56.6h-11.3
		L212.7,82.14z"/>
	<g>
		<path class="st1" d="M49.9,50.54c0,7.8-20,16.3-20.5,27.6c-0.5,9.8,7.8,17.1,24.6,22h0.5c3,0,5.4-2.4,5.4-5.4v-49.1
			c0-3-2.4-5.4-5.4-5.4H32.3C37.5,41.24,49.9,44.24,49.9,50.54z"/>
		<path class="st1" d="M7.3,78.44c3.7-11.4,16.3-16.6,24.6-20.5c8.1-3.8,22.8-9.8-3-17.7H5.4c-3,0-5.4,2.4-5.4,5.4v49.1
			c0,3,2.4,5.4,5.4,5.4H13C9.4,96.74,3.7,89.44,7.3,78.44z"/>
		<path class="st2" d="M29.4,78.14c0.5-11.3,20.5-19.8,20.5-27.6c0-6.3-12.4-9.3-17.6-10.3h-3.4c25.8,7.9,11.1,13.9,2.9,17.7
			c-8.2,3.9-20.9,9.1-24.6,20.5c-3.5,11,2.2,18.4,5.8,21.7h41C37.1,95.24,28.9,87.94,29.4,78.14z"/>
	</g>
	<path class="st0" d="M181.5,40.24h-0.1h-11.8h-0.1l-14.95,20.52c-0.12-0.01-0.23-0.02-0.35-0.02c-0.08,0-0.17,0.01-0.25,0.01
		L139,40.24h-0.1h-11.8H127l20.99,30.39c0.12,0.25,0.26,0.5,0.41,0.74v28.77h0.1h11.4h0.1V71.37L181.5,40.24z"/>
	<g>
		<path class="st1" d="M89.57,5.73c0,1.88-0.59,3.32-1.76,4.32c-1.18,1-2.85,1.5-5.02,1.5H81.2v6.22h-3.71V0.27h5.59
			c2.12,0,3.73,0.46,4.84,1.37C89.02,2.56,89.57,3.92,89.57,5.73z M81.2,8.51h1.22c1.14,0,1.99-0.23,2.56-0.68s0.85-1.11,0.85-1.97
			c0-0.87-0.24-1.51-0.71-1.93c-0.47-0.41-1.22-0.62-2.23-0.62H81.2V8.51z"/>
		<path class="st1" d="M112.87,9c0,2.89-0.72,5.12-2.15,6.67c-1.44,1.56-3.49,2.33-6.17,2.33s-4.74-0.78-6.17-2.33
			c-1.44-1.55-2.15-3.79-2.15-6.7c0-2.91,0.72-5.13,2.16-6.67c1.44-1.54,3.5-2.3,6.19-2.3s4.74,0.77,6.17,2.32
			C112.15,3.87,112.87,6.09,112.87,9z M100.1,9c0,1.95,0.37,3.43,1.11,4.41c0.74,0.99,1.85,1.48,3.33,1.48
			c2.96,0,4.44-1.97,4.44-5.9c0-3.94-1.47-5.91-4.41-5.91c-1.48,0-2.59,0.5-3.34,1.49C100.48,5.57,100.1,7.04,100.1,9z"/>
		<path class="st1" d="M137.64,17.76h-4.22l-2.37-9.19c-0.09-0.33-0.24-1-0.45-2.03c-0.21-1.02-0.33-1.71-0.37-2.06
			c-0.05,0.43-0.17,1.12-0.36,2.08s-0.34,1.63-0.44,2.04l-2.36,9.16h-4.21L118.4,0.27h3.65l2.24,9.55c0.39,1.76,0.67,3.29,0.85,4.58
			c0.05-0.46,0.16-1.16,0.33-2.11c0.17-0.95,0.33-1.69,0.49-2.22l2.55-9.8h3.5l2.55,9.8c0.11,0.44,0.25,1.11,0.42,2.01
			c0.17,0.9,0.29,1.67,0.38,2.32c0.08-0.62,0.21-1.4,0.38-2.33c0.18-0.93,0.33-1.68,0.48-2.25l2.23-9.55h3.65L137.64,17.76z"/>
		<path class="st1" d="M158.48,17.76h-10.07V0.27h10.07v3.04h-6.36v3.84h5.92v3.04h-5.92v4.51h6.36V17.76z"/>
		<path class="st1" d="M169.95,11.05v6.71h-3.71V0.27h5.1c2.38,0,4.14,0.43,5.28,1.3c1.14,0.87,1.71,2.18,1.71,3.94
			c0,1.03-0.28,1.94-0.85,2.75c-0.57,0.8-1.37,1.43-2.41,1.88c2.63,3.93,4.35,6.47,5.14,7.62h-4.12l-4.17-6.71H169.95z M169.95,8.04
			h1.2c1.17,0,2.04-0.2,2.6-0.59c0.56-0.39,0.84-1,0.84-1.84c0-0.83-0.29-1.42-0.86-1.77s-1.45-0.53-2.65-0.53h-1.12V8.04z"/>
		<path class="st1" d="M196.61,17.76h-10.07V0.27h10.07v3.04h-6.36v3.84h5.92v3.04h-5.92v4.51h6.36V17.76z"/>
		<path class="st1" d="M218.88,8.85c0,2.88-0.82,5.08-2.46,6.62s-4.01,2.3-7.1,2.3h-4.95V0.27h5.49c2.85,0,5.07,0.75,6.65,2.26
			C218.09,4.04,218.88,6.15,218.88,8.85z M215.03,8.95c0-3.76-1.66-5.63-4.98-5.63h-1.97V14.7h1.59
			C213.24,14.7,215.03,12.78,215.03,8.95z"/>
		<path class="st1" d="M237.1,0.27h5.44c2.48,0,4.28,0.35,5.4,1.06c1.12,0.71,1.68,1.83,1.68,3.37c0,1.04-0.25,1.9-0.74,2.57
			c-0.49,0.67-1.14,1.07-1.96,1.21V8.6c1.11,0.25,1.91,0.71,2.4,1.39c0.49,0.68,0.74,1.58,0.74,2.7c0,1.6-0.58,2.84-1.73,3.73
			s-2.72,1.34-4.7,1.34h-6.54V0.27z M240.81,7.2h2.15c1.01,0,1.73-0.16,2.18-0.47s0.68-0.83,0.68-1.54c0-0.67-0.25-1.15-0.74-1.44
			c-0.49-0.29-1.27-0.44-2.33-0.44h-1.95V7.2z M240.81,10.14v4.56h2.42c1.02,0,1.77-0.2,2.26-0.59c0.49-0.39,0.73-0.99,0.73-1.79
			c0-1.45-1.04-2.18-3.11-2.18H240.81z"/>
		<path class="st1" d="M263.12,7.48l3.65-7.2h4l-5.8,10.68v6.81h-3.68v-6.69l-5.8-10.8h4.02L263.12,7.48z"/>
	</g>
	<rect x="0" y="7.4" class="st1" width="59.9" height="2.4"/>
	<rect x="286.29" y="7.4" class="st1" width="59.9" height="2.4"/>
</g>
</svg>
