<?xml version="1.0" encoding="utf-8"?>
<!-- Generator: Adobe Illustrator 22.1.0, SVG Export Plug-In . SVG Version: 6.00 Build 0)  -->
<svg version="1.1" id="Layer_1" xmlns="http://www.w3.org/2000/svg" xmlns:xlink="http://www.w3.org/1999/xlink" x="0px" y="0px"
	 viewBox="0 0 382 100.2" style="enable-background:new 0 0 382 100.2;" xml:space="preserve">
<style type="text/css">
	.st0{fill:#01579B;}
	.st1{fill:#4FC3F7;}
</style>
<g>
	<polygon class="st0" points="365.1,41.3 368,41.3 368,49.1 369.3,49.1 369.3,41.3 372.2,41.3 372.2,40.2 365.1,40.2 	"/>
	<g>
		<path class="st0" d="M381.3,40.1c-0.2,0-0.4,0.1-0.5,0.3l-3.1,4.9l-3.1-4.9c-0.1-0.2-0.3-0.3-0.5-0.3c-0.4,0-0.6,0.3-0.6,0.6v8.4
			h1.2v-6.6l2.6,4.1c0.1,0.1,0.2,0.3,0.5,0.3c0.2,0,0.4-0.1,0.5-0.3l2.5-4.1v6.6h1.2v-8.4C381.9,40.4,381.7,40.1,381.3,40.1z"/>
		<path class="st0" d="M147.1,58.9c0-10.3-7.9-18.7-19.3-18.7h-26.6c-3.1,0-5.8,2.6-5.8,5.8v54.1h11.5V77.5h16.5l13.3,22.6h13.1
			l-14.3-24.2C142.5,73.1,147.1,66.5,147.1,58.9z M125.6,67.6h-18.7V50.1h18.7c5.2,0,9.8,3,9.8,8.6
			C135.4,64.5,130.8,67.6,125.6,67.6z"/>
		<path class="st0" d="M274.3,74.4H298c2.8,0,5-2.2,5-4.9c0-2.7-2.2-4.9-5-4.9h-23.7V50.1h31.5v-9.9h-37.2c-3.1,0-5.8,2.6-5.8,5.8
			v48.4c0,3.1,2.6,5.8,5.8,5.8h37.3v-9.9h-31.6V74.4L274.3,74.4z"/>
		<path class="st0" d="M364,58.9c0-10.3-7.9-18.7-19.3-18.7h-26.6c-3.1,0-5.8,2.6-5.8,5.8v54.1h11.5V77.5h16.5l13.3,22.6h13.1
			l-14.3-24.2C359.4,73.1,364,66.5,364,58.9z M342.5,67.6h-18.7V50.1h18.7c5.2,0,9.8,3,9.8,8.6C352.3,64.5,347.7,67.6,342.5,67.6z"
			/>
		<path class="st0" d="M230.6,82.1l-16.9-41.9h-11.4l23.4,56.6c0.8,2.1,2.7,3.2,4.9,3.2s4.1-1.2,4.9-3.2l23.4-56.6h-11.3L230.6,82.1
			z"/>
		<g>
			<path class="st1" d="M67.8,50.5c0,7.8-20,16.3-20.5,27.6c-0.5,9.8,7.8,17.1,24.6,22h0.5c3,0,5.4-2.4,5.4-5.4V45.6
				c0-3-2.4-5.4-5.4-5.4H50.2C55.4,41.2,67.8,44.2,67.8,50.5z"/>
			<path class="st1" d="M25.2,78.4C28.9,67,41.5,61.8,49.8,57.9c8.1-3.8,22.8-9.8-3-17.7H23.3c-3,0-5.4,2.4-5.4,5.4v49.1
				c0,3,2.4,5.4,5.4,5.4h7.6C27.3,96.7,21.6,89.4,25.2,78.4z"/>
			<path class="st0" d="M47.3,78.1c0.5-11.3,20.5-19.8,20.5-27.6c0-6.3-12.4-9.3-17.6-10.3h-3.4c25.8,7.9,11.1,13.9,2.9,17.7
				c-8.2,3.9-20.9,9.1-24.6,20.5c-3.5,11,2.2,18.4,5.8,21.7h41C55,95.2,46.8,87.9,47.3,78.1z"/>
		</g>
		<path class="st0" d="M199.4,40.2h-0.1h-11.8h-0.1l-14.9,20.5c-0.1,0-0.2,0-0.4,0c-0.1,0-0.2,0-0.2,0l-15-20.5h-0.1H145h-0.1
			l21,30.4c0.1,0.2,0.3,0.5,0.4,0.7v28.8h0.1h11.4h0.1V71.4L199.4,40.2z"/>
	</g>
</g>
<g>
	<path class="st1" d="M107.5,5.7c0,1.9-0.6,3.3-1.8,4.3c-1.2,1-2.8,1.5-5,1.5h-1.6v6.2h-3.7V0.3h5.6c2.1,0,3.7,0.5,4.8,1.4
		C106.9,2.6,107.5,3.9,107.5,5.7z M99.1,8.5h1.2c1.1,0,2-0.2,2.6-0.7s0.8-1.1,0.8-2s-0.2-1.5-0.7-1.9s-1.2-0.6-2.2-0.6h-1.7
		C99.1,3.3,99.1,8.5,99.1,8.5z"/>
	<path class="st1" d="M130.8,9c0,2.9-0.7,5.1-2.2,6.7c-1.4,1.6-3.5,2.3-6.2,2.3s-4.7-0.8-6.2-2.3c-1.4-1.6-2.2-3.8-2.2-6.7
		s0.7-5.1,2.2-6.7s3.5-2.3,6.2-2.3s4.7,0.8,6.2,2.3C130.1,3.9,130.8,6.1,130.8,9z M118,9c0,1.9,0.4,3.4,1.1,4.4s1.8,1.5,3.3,1.5
		c3,0,4.4-2,4.4-5.9s-1.5-5.9-4.4-5.9c-1.5,0-2.6,0.5-3.3,1.5C118.4,5.6,118,7,118,9z"/>
	<path class="st1" d="M155.5,17.8h-4.2l-2.4-9.2c-0.1-0.3-0.2-1-0.4-2s-0.3-1.7-0.4-2.1c-0.1,0.4-0.2,1.1-0.4,2.1s-0.3,1.6-0.4,2
		l-2.4,9.2h-4.2l-4.5-17.5h3.7l2.2,9.6c0.4,1.8,0.7,3.3,0.8,4.6c0.1-0.5,0.2-1.2,0.3-2.1s0.3-1.7,0.5-2.2l2.5-9.8h3.5l2.6,9.8
		c0.1,0.4,0.2,1.1,0.4,2s0.3,1.7,0.4,2.3c0.1-0.6,0.2-1.4,0.4-2.3c0.2-0.9,0.3-1.7,0.5-2.2l2.2-9.6h3.6L155.5,17.8z"/>
	<path class="st1" d="M176.4,17.8h-10.1V0.3h10.1v3H170v3.8h5.9v3H170v4.5h6.4V17.8L176.4,17.8z"/>
	<path class="st1" d="M187.8,11.1v6.7h-3.7V0.3h5.1c2.4,0,4.1,0.4,5.3,1.3s1.7,2.2,1.7,3.9c0,1-0.3,1.9-0.9,2.8
		c-0.6,0.8-1.4,1.4-2.4,1.9c2.6,3.9,4.4,6.5,5.1,7.6h-4.1l-4.2-6.7C189.7,11.1,187.8,11.1,187.8,11.1z M187.8,8h1.2
		c1.2,0,2-0.2,2.6-0.6s0.8-1,0.8-1.8s-0.3-1.4-0.9-1.8c-0.6-0.3-1.4-0.5-2.6-0.5h-1L187.8,8L187.8,8z"/>
	<path class="st1" d="M214.5,17.8h-10.1V0.3h10.1v3h-6.4v3.8h5.9v3h-5.9v4.5h6.4V17.8L214.5,17.8z"/>
	<path class="st1" d="M236.8,8.9c0,2.9-0.8,5.1-2.5,6.6s-4,2.3-7.1,2.3h-4.9V0.3h5.5c2.9,0,5.1,0.8,6.6,2.3
		C236,4,236.8,6.2,236.8,8.9z M232.9,8.9c0-3.8-1.7-5.6-5-5.6h-2v11.4h1.6C231.1,14.7,232.9,12.8,232.9,8.9z"/>
	<path class="st1" d="M255,0.3h5.4c2.5,0,4.3,0.3,5.4,1.1s1.7,1.8,1.7,3.4c0,1-0.2,1.9-0.7,2.6s-1.1,1.1-2,1.2v0.1
		c1.1,0.2,1.9,0.7,2.4,1.4s0.7,1.6,0.7,2.7c0,1.6-0.6,2.8-1.7,3.7s-2.7,1.3-4.7,1.3H255L255,0.3L255,0.3z M258.7,7.2h2.1
		c1,0,1.7-0.2,2.2-0.5s0.7-0.8,0.7-1.5S263.5,4,263,3.8s-1.3-0.4-2.3-0.4h-1.9L258.7,7.2L258.7,7.2z M258.7,10.1v4.6h2.4
		c1,0,1.8-0.2,2.3-0.6c0.5-0.4,0.7-1,0.7-1.8c0-1.4-1-2.2-3.1-2.2H258.7z"/>
	<path class="st1" d="M281,7.5l3.6-7.2h4L282.9,11v6.8h-3.7v-6.7l-5.8-10.8h4L281,7.5z"/>
</g>
<rect x="304.2" y="7.4" class="st1" width="59.9" height="2.4"/>
<rect x="17.9" y="7.4" class="st1" width="59.9" height="2.4"/>
</svg>
