<?xml version="1.0" encoding="utf-8"?>
<!-- Generator: Adobe Illustrator 22.1.0, SVG Export Plug-In . SVG Version: 6.00 Build 0)  -->
<!DOCTYPE svg PUBLIC "-//W3C//DTD SVG 1.1//EN" "http://www.w3.org/Graphics/SVG/1.1/DTD/svg11.dtd">
<svg version="1.1" xmlns="http://www.w3.org/2000/svg" xmlns:xlink="http://www.w3.org/1999/xlink" x="0px" y="0px"
	 viewBox="0 0 97.7 106.7" style="enable-background:new 0 0 97.7 106.7;" xml:space="preserve">
<style type="text/css">
	.st0{fill:url(#SVGID_1_);}
	.st1{fill:url(#SVGID_2_);}
	.st2{fill:url(#SVGID_3_);}
	.st3{fill:#B7C0EB;}
	.st4{fill:url(#SVGID_4_);}
	.st5{fill:url(#SVGID_5_);}
	.st6{fill:url(#SVGID_6_);}
	.st7{fill:url(#SVGID_7_);}
	.st8{fill:url(#SVGID_8_);}
</style>
<g id="Layer_1">
</g>
<g id="Isolation_Mode">
	<g>
		<linearGradient id="SVGID_1_" gradientUnits="userSpaceOnUse" x1="48.8714" y1="83.9784" x2="48.8714" y2="27.1861">
			<stop  offset="0" style="stop-color:#F7530B"/>
			<stop  offset="1" style="stop-color:#F97B08"/>
		</linearGradient>
		<path class="st0" d="M79.8,90.4H17.9l6.1-47.9c0.9-7.2,7.1-12.6,14.3-12.6h20.9c7.3,0,13.4,5.4,14.3,12.6L79.8,90.4z"/>
		<linearGradient id="SVGID_2_" gradientUnits="userSpaceOnUse" x1="48.8714" y1="95.3911" x2="48.8714" y2="111.6007">
			<stop  offset="0" style="stop-color:#F1F4FE"/>
			<stop  offset="1" style="stop-color:#FFFFFF"/>
		</linearGradient>
		<rect x="0.6" y="95.6" class="st1" width="96.6" height="11.1"/>
		<linearGradient id="SVGID_3_" gradientUnits="userSpaceOnUse" x1="48.8714" y1="83.9503" x2="48.8714" y2="100.1599">
			<stop  offset="0" style="stop-color:#F1F4FE"/>
			<stop  offset="1" style="stop-color:#FFFFFF"/>
		</linearGradient>
		<path class="st2" d="M88,95.3H9.7v-8.9c0-1.3,1-2.3,2.3-2.3h73.7c1.3,0,2.3,1,2.3,2.3V95.3z"/>
		<polygon class="st3" points="97.2,95.6 0.6,95.6 9.7,89.1 88,89.1 		"/>
		<g>
			<linearGradient id="SVGID_4_" gradientUnits="userSpaceOnUse" x1="45.3714" y1="10.1494" x2="52.3714" y2="10.1494">
				<stop  offset="0" style="stop-color:#F1F4FE"/>
				<stop  offset="1" style="stop-color:#FFFFFF"/>
			</linearGradient>
			<path class="st4" d="M48.9,20.3c-1.9,0-3.5-1.6-3.5-3.5V3.5c0-1.9,1.6-3.5,3.5-3.5s3.5,1.6,3.5,3.5v13.3
				C52.4,18.7,50.8,20.3,48.9,20.3z"/>
			
				<linearGradient id="SVGID_5_" gradientUnits="userSpaceOnUse" x1="-309.124" y1="118.2052" x2="-302.1244" y2="118.2052" gradientTransform="matrix(0.9043 -0.4268 0.4268 0.9043 252.7915 -223.3463)">
				<stop  offset="0" style="stop-color:#F1F4FE"/>
				<stop  offset="1" style="stop-color:#FFFFFF"/>
			</linearGradient>
			<path class="st5" d="M29.7,23.5c-1.3,0-2.6-0.7-3.2-2l-5.7-12c-0.8-1.7-0.1-3.8,1.7-4.7c1.7-0.8,3.8-0.1,4.7,1.7l5.7,12
				c0.8,1.7,0.1,3.8-1.7,4.7C30.7,23.4,30.2,23.5,29.7,23.5z"/>
			
				<linearGradient id="SVGID_6_" gradientUnits="userSpaceOnUse" x1="-712.3434" y1="59.8374" x2="-705.343" y2="59.8374" gradientTransform="matrix(0.5954 -0.8035 0.8035 0.5954 382.7814 -578.5959)">
				<stop  offset="0" style="stop-color:#F1F4FE"/>
				<stop  offset="1" style="stop-color:#FFFFFF"/>
			</linearGradient>
			<path class="st6" d="M14.2,34c-0.7,0-1.5-0.2-2.1-0.7L1.4,25.4c-1.6-1.2-1.9-3.3-0.7-4.9C1.8,19,4,18.6,5.6,19.8l10.7,7.9
				c1.6,1.2,1.9,3.3,0.7,4.9C16.3,33.5,15.3,34,14.2,34z"/>
			
				<linearGradient id="SVGID_7_" gradientUnits="userSpaceOnUse" x1="-938.6942" y1="-178.9342" x2="-931.6946" y2="-178.9342" gradientTransform="matrix(-0.9043 -0.4268 -0.4268 0.9043 -851.2172 -223.3463)">
				<stop  offset="0" style="stop-color:#F1F4FE"/>
				<stop  offset="1" style="stop-color:#FFFFFF"/>
			</linearGradient>
			<path class="st7" d="M68,23.5c1.3,0,2.6-0.7,3.2-2l5.7-12c0.8-1.7,0.1-3.8-1.7-4.7c-1.7-0.8-3.8-0.1-4.7,1.7l-5.7,12
				c-0.8,1.7-0.1,3.8,1.7,4.7C67,23.4,67.5,23.5,68,23.5z"/>
			
				<linearGradient id="SVGID_8_" gradientUnits="userSpaceOnUse" x1="-1126.8131" y1="-499.5064" x2="-1119.8126" y2="-499.5064" gradientTransform="matrix(-0.5954 -0.8035 -0.8035 0.5954 -981.2071 -578.5959)">
				<stop  offset="0" style="stop-color:#F1F4FE"/>
				<stop  offset="1" style="stop-color:#FFFFFF"/>
			</linearGradient>
			<path class="st8" d="M83.6,34c0.7,0,1.5-0.2,2.1-0.7l10.7-7.9c1.6-1.2,1.9-3.3,0.7-4.9c-1.2-1.6-3.3-1.9-4.9-0.7l-10.7,7.9
				c-1.6,1.2-1.9,3.3-0.7,4.9C81.4,33.5,82.5,34,83.6,34z"/>
		</g>
	</g>
</g>
</svg>
