<?xml version="1.0" encoding="utf-8"?>
<!-- Generator: Adobe Illustrator 22.1.0, SVG Export Plug-In . SVG Version: 6.00 Build 0)  -->
<!DOCTYPE svg PUBLIC "-//W3C//DTD SVG 1.1//EN" "http://www.w3.org/Graphics/SVG/1.1/DTD/svg11.dtd">
<svg version="1.1" xmlns="http://www.w3.org/2000/svg" xmlns:xlink="http://www.w3.org/1999/xlink" x="0px" y="0px"
	 viewBox="0 0 42.4 43.4" style="enable-background:new 0 0 42.4 43.4;" xml:space="preserve">
<style type="text/css">
	.st0{fill:#0885F9;}
</style>
<g id="Layer_1">
</g>
<g id="Isolation_Mode">
	<path class="st0" d="M36.8,6l-4.2,4.2V3.6c0-2-1.6-3.6-3.6-3.6H3.6C1.6,0,0,1.6,0,3.6v2.9c0,0.4,0.3,0.7,0.7,0.7h5.1v31.8
		c0,2.4,1.9,4.3,4.3,4.3h25.3c2.4,0,4.3-1.9,4.3-4.3v-2.2c0-0.4-0.3-0.7-0.7-0.7h-6.5V19.5l8.8-8.8c1.3-1.3,1.3-3.4,0-4.6
		C40.1,4.7,38,4.7,36.8,6z M13,36.9v2.2c0,1.6-1.3,2.9-2.9,2.9s-2.9-1.3-2.9-2.9V3.6c0-0.8-0.3-1.5-0.7-2.2h22.5
		c1.2,0,2.2,1,2.2,2.2v8l-9.9,9.9c0,0,0,0,0,0c-0.1,0.1-0.1,0.1-0.1,0.2c0,0,0,0,0,0l0,0l-2.2,5.8c-0.1,0.4,0,0.8,0.4,0.9
		c0.2,0.1,0.3,0.1,0.5,0l5.8-2.2l0,0c0,0,0,0,0,0c0.1,0,0.1-0.1,0.2-0.1c0,0,0,0,0,0l5.3-5.3v15.2H13.8C13.4,36.2,13,36.5,13,36.9z
		 M22,23.4l2,2l-3.2,1.2L22,23.4z M37.3,12.8l-2.6-2.6L35.8,9l2.6,2.6L37.3,12.8z M40.4,9.6l-0.9,0.9L36.8,8l0.9-0.9
		c0.7-0.7,1.9-0.7,2.6,0C41.1,7.8,41.1,8.9,40.4,9.6z"/>
	<path class="st0" d="M10.9,31.8h3.6c0.4,0,0.7,0.3,0.7,0.7v0c0,0.4-0.3,0.7-0.7,0.7h-3.6c-0.4,0-0.7-0.3-0.7-0.7v0
		C10.1,32.2,10.5,31.8,10.9,31.8z"/>
	<path class="st0" d="M10.9,26.1h5.8c0.4,0,0.7,0.3,0.7,0.7v0c0,0.4-0.3,0.7-0.7,0.7h-5.8c-0.4,0-0.7-0.3-0.7-0.7v0
		C10.1,26.4,10.5,26.1,10.9,26.1z"/>
	<path class="st0" d="M10.9,4.2h9.8c0.4,0,0.7,0.3,0.7,0.7v0c0,0.4-0.3,0.7-0.7,0.7h-9.8c-0.4,0-0.7-0.3-0.7-0.7v0
		C10.1,4.5,10.5,4.2,10.9,4.2z"/>
	<path class="st0" d="M10.9,20.3h5.1c0.4,0,0.7,0.3,0.7,0.7l0,0c0,0.4-0.3,0.7-0.7,0.7h-5.1c-0.4,0-0.7-0.3-0.7-0.7l0,0
		C10.1,20.6,10.5,20.3,10.9,20.3z"/>
	<path class="st0" d="M13.8,14.5h10.1c0.4,0,0.7,0.3,0.7,0.7v0c0,0.4-0.3,0.7-0.7,0.7H13.8c-0.4,0-0.7-0.3-0.7-0.7v0
		C13,14.8,13.4,14.5,13.8,14.5z"/>
	<path class="st0" d="M18.8,20.3L18.8,20.3c0.4,0,0.7,0.3,0.7,0.7l0,0c0,0.4-0.3,0.7-0.7,0.7h0c-0.4,0-0.7-0.3-0.7-0.7l0,0
		C18.1,20.6,18.4,20.3,18.8,20.3z"/>
	<path class="st0" d="M10.9,8.9h14.2c0.4,0,0.7,0.3,0.7,0.7v0c0,0.4-0.3,0.7-0.7,0.7H10.9c-0.4,0-0.7-0.3-0.7-0.7v0
		C10.1,9.3,10.5,8.9,10.9,8.9z"/>
	<path class="st0" d="M28,8.9L28,8.9c0.4,0,0.7,0.3,0.7,0.7v0c0,0.4-0.3,0.7-0.7,0.7h0c-0.4,0-0.7-0.3-0.7-0.7v0
		C27.3,9.3,27.6,8.9,28,8.9z"/>
	<path class="st0" d="M10.9,14.5L10.9,14.5c0.4,0,0.7,0.3,0.7,0.7v0c0,0.4-0.3,0.7-0.7,0.7h0c-0.4,0-0.7-0.3-0.7-0.7v0
		C10.1,14.8,10.5,14.5,10.9,14.5z"/>
	<path class="st0" d="M26.1,31.8L26.1,31.8c0.4,0,0.7,0.3,0.7,0.7v0c0,0.4-0.3,0.7-0.7,0.7h0c-0.4,0-0.7-0.3-0.7-0.7v0
		C25.3,32.2,25.7,31.8,26.1,31.8z"/>
	<path class="st0" d="M17.4,31.8h5.8c0.4,0,0.7,0.3,0.7,0.7v0c0,0.4-0.3,0.7-0.7,0.7h-5.8c-0.4,0-0.7-0.3-0.7-0.7v0
		C16.6,32.2,17,31.8,17.4,31.8z"/>
</g>
</svg>
