<?xml version="1.0" encoding="utf-8"?>
<!-- Generator: Adobe Illustrator 22.1.0, SVG Export Plug-In . SVG Version: 6.00 Build 0)  -->
<!DOCTYPE svg PUBLIC "-//W3C//DTD SVG 1.1//EN" "http://www.w3.org/Graphics/SVG/1.1/DTD/svg11.dtd">
<svg version="1.1" xmlns="http://www.w3.org/2000/svg" xmlns:xlink="http://www.w3.org/1999/xlink" x="0px" y="0px"
	 viewBox="0 0 97.6 108.7" style="enable-background:new 0 0 97.6 108.7;" xml:space="preserve">
<style type="text/css">
	.st0{fill:#B7C0EB;}
	.st1{fill:url(#SVGID_1_);}
	.st2{fill:url(#SVGID_2_);}
	.st3{fill:url(#SVGID_3_);}
	.st4{fill:url(#SVGID_4_);}
	.st5{fill:url(#SVGID_5_);}
	.st6{fill:url(#SVGID_6_);}
	.st7{fill:url(#SVGID_7_);}
	.st8{fill:url(#SVGID_8_);}
	.st9{fill:url(#SVGID_9_);}
	.st10{opacity:0.3;fill:#FFFFFF;}
</style>
<g id="Layer_1">
</g>
<g id="Isolation_Mode">
	<g>
		<g>
			<path class="st0" d="M71.4,25.5l5.9,4.6c1.3,1,3.3,0.8,4.3-0.5l6.2-7.8c1-1.3,0.8-3.3-0.5-4.3l-5.9-4.6c-1.3-1-3.3-0.8-4.3,0.5
				l-6.2,7.8C69.9,22.5,70.1,24.5,71.4,25.5z"/>
			
				<linearGradient id="SVGID_1_" gradientUnits="userSpaceOnUse" x1="-1915.4515" y1="-629.0212" x2="-1915.4515" y2="-641.1622" gradientTransform="matrix(-0.7863 -0.6178 -0.6178 0.7863 -1815.1364 -667.7668)">
				<stop  offset="0" style="stop-color:#F1F4FE"/>
				<stop  offset="1" style="stop-color:#FFFFFF"/>
			</linearGradient>
			<path class="st1" d="M74.3,15.1l12.3,9.7c1.3,1,3.2,0.8,4.2-0.5l3.3-4.1c1-1.3,0.8-3.2-0.5-4.2L81.3,6.2c-1.3-1-3.2-0.8-4.2,0.5
				l-3.3,4.1C72.8,12.2,73,14,74.3,15.1z"/>
			<path class="st0" d="M26.1,25.5l-5.9,4.6c-1.3,1-3.3,0.8-4.3-0.5l-6.2-7.8c-1-1.3-0.8-3.3,0.5-4.3l5.9-4.6c1.3-1,3.3-0.8,4.3,0.5
				l6.2,7.8C27.7,22.5,27.5,24.5,26.1,25.5z"/>
			
				<linearGradient id="SVGID_2_" gradientUnits="userSpaceOnUse" x1="-554.5843" y1="440.2109" x2="-554.5843" y2="428.0699" gradientTransform="matrix(0.7863 -0.6178 0.6178 0.7863 182.0267 -667.7668)">
				<stop  offset="0" style="stop-color:#F1F4FE"/>
				<stop  offset="1" style="stop-color:#FFFFFF"/>
			</linearGradient>
			<path class="st2" d="M23.2,15.1l-12.3,9.7c-1.3,1-3.2,0.8-4.2-0.5l-3.3-4.1c-1-1.3-0.8-3.2,0.5-4.2l12.3-9.7
				c1.3-1,3.2-0.8,4.2,0.5l3.3,4.1C24.7,12.2,24.5,14,23.2,15.1z"/>
		</g>
		<linearGradient id="SVGID_3_" gradientUnits="userSpaceOnUse" x1="48.7799" y1="108.6938" x2="48.7799" y2="12.9101">
			<stop  offset="0" style="stop-color:#F1F4FE"/>
			<stop  offset="1" style="stop-color:#FFFFFF"/>
		</linearGradient>
		<circle class="st3" cx="48.8" cy="59.9" r="48.8"/>
		<linearGradient id="SVGID_4_" gradientUnits="userSpaceOnUse" x1="48.7799" y1="-0.5342" x2="48.7799" y2="99.1267">
			<stop  offset="0" style="stop-color:#F1F4FE"/>
			<stop  offset="1" style="stop-color:#FFFFFF"/>
		</linearGradient>
		<circle class="st4" cx="48.8" cy="59.9" r="47"/>
		<circle class="st0" cx="48.8" cy="59.9" r="40.3"/>
		<linearGradient id="SVGID_5_" gradientUnits="userSpaceOnUse" x1="48.7799" y1="97.1412" x2="48.7799" y2="19.3358">
			<stop  offset="0" style="stop-color:#F1F4FE"/>
			<stop  offset="1" style="stop-color:#FFFFFF"/>
		</linearGradient>
		<circle class="st5" cx="48.8" cy="59.9" r="38.4"/>
		<linearGradient id="SVGID_6_" gradientUnits="userSpaceOnUse" x1="48.7799" y1="105.4106" x2="48.7799" y2="26.9141">
			<stop  offset="0" style="stop-color:#F7530B"/>
			<stop  offset="1" style="stop-color:#F97B08"/>
		</linearGradient>
		<path class="st6" d="M48.8,23.5c20.1,0,36.4,16.3,36.4,36.4S68.9,96.4,48.8,96.4S12.3,80,12.3,59.9h36.4"/>
		<linearGradient id="SVGID_7_" gradientUnits="userSpaceOnUse" x1="55.7861" y1="18.0018" x2="43.6983" y2="2.617">
			<stop  offset="0" style="stop-color:#F1F4FE"/>
			<stop  offset="1" style="stop-color:#FFFFFF"/>
		</linearGradient>
		<path class="st7" d="M48.8,0c-5,0-9.1,4.1-9.1,9.1c0,5,4.1,9.1,9.1,9.1c5,0,9.1-4.1,9.1-9.1C57.9,4.1,53.8,0,48.8,0z M48.8,15.9
			c-3.8,0-6.8-3.1-6.8-6.8c0-3.8,3.1-6.8,6.8-6.8c3.8,0,6.8,3.1,6.8,6.8C55.6,12.9,52.6,15.9,48.8,15.9z"/>
		<linearGradient id="SVGID_8_" gradientUnits="userSpaceOnUse" x1="43.0484" y1="54.1783" x2="73.8944" y2="83.786">
			<stop  offset="0" style="stop-color:#B7C0EB"/>
			<stop  offset="0.5278" style="stop-color:#F1F4FE"/>
			<stop  offset="1" style="stop-color:#FFFFFF"/>
		</linearGradient>
		<path class="st8" d="M66.9,79.7L46.3,59.2c-0.6-0.6-0.6-1.7,0-2.3v0c0.6-0.6,1.7-0.6,2.3,0l20.5,20.5c0.6,0.6,0.6,1.7,0,2.3h0
			C68.6,80.4,67.5,80.4,66.9,79.7z"/>
		<linearGradient id="SVGID_9_" gradientUnits="userSpaceOnUse" x1="43.3377" y1="54.3033" x2="52.7925" y2="64.0505">
			<stop  offset="0" style="stop-color:#B7C0EB"/>
			<stop  offset="0.5278" style="stop-color:#F1F4FE"/>
			<stop  offset="1" style="stop-color:#FFFFFF"/>
		</linearGradient>
		<circle class="st9" cx="48.8" cy="59.9" r="5.2"/>
		<path class="st10" d="M48.7,92.6L48.7,92.6c-1,0-1.8-0.8-1.8-1.8v-6c0-1,0.8-1.8,1.8-1.8h0c1,0,1.8,0.8,1.8,1.8v6
			C50.5,91.7,49.7,92.6,48.7,92.6z"/>
		<path class="st0" d="M32.3,43.3L32.3,43.3c-0.7,0.7-1.8,0.7-2.5,0L25.5,39c-0.7-0.7-0.7-1.8,0-2.5l0,0c0.7-0.7,1.8-0.7,2.5,0
			l4.2,4.2C33,41.4,33,42.6,32.3,43.3z"/>
		<path class="st10" d="M81.6,59.7L81.6,59.7c0,1-0.8,1.8-1.8,1.8h-6c-1,0-1.8-0.8-1.8-1.8v0c0-1,0.8-1.8,1.8-1.8h6
			C80.8,57.9,81.6,58.7,81.6,59.7z"/>
		<path class="st10" d="M32.3,76.2L32.3,76.2c0.7,0.7,0.7,1.8,0,2.5l-4.2,4.2c-0.7,0.7-1.8,0.7-2.5,0h0c-0.7-0.7-0.7-1.8,0-2.5
			l4.2-4.2C30.5,75.5,31.6,75.5,32.3,76.2z"/>
		<path class="st10" d="M72,36.5L72,36.5c0.7,0.7,0.7,1.8,0,2.5l-4.2,4.2c-0.7,0.7-1.8,0.7-2.5,0v0c-0.7-0.7-0.7-1.8,0-2.5l4.2-4.2
			C70.1,35.8,71.3,35.8,72,36.5z"/>
	</g>
</g>
</svg>
