<?xml version="1.0" encoding="utf-8"?>
<!-- Generator: Adobe Illustrator 22.1.0, SVG Export Plug-In . SVG Version: 6.00 Build 0)  -->
<!DOCTYPE svg PUBLIC "-//W3C//DTD SVG 1.1//EN" "http://www.w3.org/Graphics/SVG/1.1/DTD/svg11.dtd">
<svg version="1.1" xmlns="http://www.w3.org/2000/svg" xmlns:xlink="http://www.w3.org/1999/xlink" x="0px" y="0px"
	 viewBox="0 0 47.2 42.4" style="enable-background:new 0 0 47.2 42.4;" xml:space="preserve">
<style type="text/css">
	.st0{fill:#0885F9;}
</style>
<g id="Layer_1">
</g>
<g id="Isolation_Mode">
	<g>
		<path class="st0" d="M41.2,29v-5.9c0-1.3-1.1-2.4-2.4-2.4H24.3v-7.2h5.2c1.2,0,2.1-1,2.1-2.1V2.1c0-1.2-1-2.1-2.1-2.1H17.7
			c-1.2,0-2.1,1-2.1,2.1v9.3c0,1.2,1,2.1,2.1,2.1h5.1v7.2H8.4c-1.3,0-2.4,1.1-2.4,2.4V29C2.6,29.4,0,32.2,0,35.7
			c0,3.7,3,6.7,6.7,6.7s6.7-3,6.7-6.7c0-3.4-2.6-6.3-6-6.7v-5.9c0-0.5,0.4-0.9,0.9-0.9h14.4V29c-3.3,0.4-5.9,3.2-5.9,6.6
			c0,3.7,3,6.7,6.7,6.7c3.7,0,6.7-3,6.7-6.7c0-3.5-2.6-6.3-6-6.7v-6.9h14.5c0.5,0,0.9,0.4,0.9,0.9V29c-3.3,0.4-5.9,3.2-5.9,6.6
			c0,3.7,3,6.7,6.7,6.7s6.7-3,6.7-6.7C47.2,32.2,44.6,29.4,41.2,29z M11.9,35.7c0,2.9-2.3,5.2-5.2,5.2s-5.2-2.3-5.2-5.2
			s2.3-5.2,5.2-5.2S11.9,32.8,11.9,35.7z M28.8,35.7c0,2.9-2.3,5.2-5.2,5.2c-2.9,0-5.2-2.3-5.2-5.2s2.3-5.2,5.2-5.2
			C26.5,30.5,28.8,32.8,28.8,35.7z M23.6,9.1c-0.3,0.3-0.8,0.4-1.1,0.1l-2.3-1.8c-0.3-0.3-0.4-0.8-0.1-1.1c0.3-0.3,0.8-0.4,1.1-0.1
			l1.7,1.3l2.5-3.1C25.7,4,26.2,4,26.5,4.3s0.4,0.8,0.1,1.1L23.6,9.1z M40.5,40.9c-2.9,0-5.2-2.3-5.2-5.2s2.3-5.2,5.2-5.2
			s5.2,2.3,5.2,5.2S43.4,40.9,40.5,40.9z"/>
		<path class="st0" d="M4.4,35.4c-0.3-0.3-0.8-0.2-1.1,0.1c-0.3,0.3-0.2,0.8,0.1,1.1l2.3,1.8c0.3,0.3,0.8,0.2,1.1-0.1l3-3.7
			c0.3-0.3,0.2-0.8-0.1-1.1c-0.3-0.3-0.8-0.2-1.1,0.1l-2.5,3.1L4.4,35.4z"/>
		<path class="st0" d="M21.3,35.4c-0.3-0.3-0.8-0.2-1.1,0.1s-0.2,0.8,0.1,1.1l2.3,1.8c0.3,0.3,0.8,0.2,1.1-0.1l3-3.7
			c0.3-0.3,0.2-0.8-0.1-1.1c-0.3-0.3-0.8-0.2-1.1,0.1L23,36.7L21.3,35.4z"/>
		<path class="st0" d="M42.4,33.6l-2.5,3.1l-1.7-1.3c-0.3-0.3-0.8-0.2-1.1,0.1s-0.2,0.8,0.1,1.1l2.3,1.8c0.3,0.3,0.8,0.2,1.1-0.1
			l3-3.7c0.3-0.3,0.2-0.8-0.1-1.1C43.2,33.2,42.7,33.3,42.4,33.6z"/>
	</g>
</g>
</svg>
