<?xml version="1.0" encoding="utf-8"?>
<!-- Generator: Adobe Illustrator 22.1.0, SVG Export Plug-In . SVG Version: 6.00 Build 0)  -->
<!DOCTYPE svg PUBLIC "-//W3C//DTD SVG 1.1//EN" "http://www.w3.org/Graphics/SVG/1.1/DTD/svg11.dtd">
<svg version="1.1" xmlns="http://www.w3.org/2000/svg" xmlns:xlink="http://www.w3.org/1999/xlink" x="0px" y="0px"
	 viewBox="0 0 46 45.5" style="enable-background:new 0 0 46 45.5;" xml:space="preserve">
<style type="text/css">
	.st0{fill:#0885F9;}
</style>
<g id="Layer_1">
</g>
<g id="Isolation_Mode">
	<g>
		<circle class="st0" cx="23" cy="3" r="3"/>
		<path class="st0" d="M27.7,14.5c0.9,0,1.5-0.8,1.3-1.6c-0.7-2.6-3.1-4.5-5.9-4.5s-5.2,1.9-5.9,4.5c-0.2,0.8,0.4,1.6,1.3,1.6H27.7z
			"/>
	</g>
	<g>
		<g>
			<circle class="st0" cx="40" cy="28.2" r="3"/>
			<path class="st0" d="M44.7,39.7c0.9,0,1.5-0.8,1.3-1.6c-0.7-2.6-3.1-4.5-5.9-4.5c-2.8,0-5.2,1.9-5.9,4.5
				c-0.2,0.8,0.4,1.6,1.3,1.6H44.7z"/>
		</g>
		<g>
			<circle class="st0" cx="6" cy="28.2" r="3"/>
			<path class="st0" d="M10.7,39.7c0.9,0,1.5-0.8,1.3-1.6c-0.7-2.6-3.1-4.5-5.9-4.5S0.8,35.4,0,38c-0.2,0.8,0.4,1.6,1.3,1.6H10.7z"
				/>
		</g>
	</g>
	<path class="st0" d="M23,45.5c-3.8,0-7.5-1.1-10.8-3.1c-0.4-0.2-0.5-0.7-0.2-1s0.7-0.5,1-0.2c3,1.9,6.4,2.9,10,2.9s7-1,10-2.9
		c0.4-0.2,0.8-0.1,1,0.2c0.2,0.3,0.1,0.8-0.2,1C30.5,44.4,26.8,45.5,23,45.5z"/>
	<g>
		<path class="st0" d="M42.2,23.3c-0.4,0-0.7-0.3-0.7-0.6c-1-7-6-12.9-12.7-15.1c-0.4-0.1-0.6-0.6-0.5-0.9c0.1-0.4,0.6-0.6,0.9-0.5
			c7.3,2.4,12.7,8.8,13.7,16.3c0.1,0.4-0.2,0.8-0.6,0.8C42.3,23.3,42.3,23.3,42.2,23.3z"/>
		<path class="st0" d="M3.8,23.3c0,0-0.1,0-0.1,0c-0.4-0.1-0.7-0.4-0.6-0.8c1.1-7.6,6.5-14,13.7-16.3c0.4-0.1,0.8,0.1,0.9,0.5
			c0.1,0.4-0.1,0.8-0.5,0.9C10.5,9.7,5.5,15.7,4.6,22.7C4.5,23,4.2,23.3,3.8,23.3z"/>
	</g>
	<g>
		<path class="st0" d="M31.2,26l-1.6-0.4c-0.2-0.7-0.4-1.3-0.8-1.9l0.8-1.4c0.1-0.2,0.1-0.4-0.1-0.5l-1.2-1.2
			c-0.1-0.1-0.3-0.2-0.5-0.1l-1.4,0.8c-0.6-0.3-1.2-0.6-1.9-0.8l-0.4-1.6c0-0.2-0.2-0.3-0.4-0.3h-1.6c-0.2,0-0.3,0.1-0.4,0.3
			l-0.4,1.6c-0.7,0.2-1.3,0.4-1.9,0.8l-1.4-0.8c-0.2-0.1-0.4-0.1-0.5,0.1l-1.2,1.2c-0.1,0.1-0.2,0.3-0.1,0.5l0.8,1.4
			c-0.3,0.6-0.6,1.2-0.8,1.9L14.9,26c-0.2,0-0.3,0.2-0.3,0.4V28c0,0.2,0.1,0.3,0.3,0.4l1.6,0.4c0.2,0.7,0.4,1.3,0.8,1.9l-0.8,1.4
			c-0.1,0.2-0.1,0.4,0.1,0.5l1.2,1.2c0.1,0.1,0.3,0.2,0.5,0.1l1.4-0.8c0.6,0.3,1.2,0.6,1.9,0.8l0.4,1.6c0,0.2,0.2,0.3,0.4,0.3h1.6
			c0.2,0,0.3-0.1,0.4-0.3l0.4-1.6c0.7-0.2,1.3-0.4,1.9-0.8l1.4,0.8c0.2,0.1,0.4,0.1,0.5-0.1l1.2-1.2c0.1-0.1,0.2-0.3,0.1-0.5
			l-0.8-1.4c0.3-0.6,0.6-1.2,0.8-1.9l1.6-0.4c0.2,0,0.3-0.2,0.3-0.4v-1.6C31.5,26.2,31.3,26.1,31.2,26z M23,30.4
			c-1.8,0-3.2-1.4-3.2-3.2c0-1.8,1.4-3.2,3.2-3.2s3.2,1.4,3.2,3.2S24.8,30.4,23,30.4z"/>
	</g>
</g>
</svg>
