<?xml version="1.0" encoding="utf-8"?>
<!-- Generator: Adobe Illustrator 22.1.0, SVG Export Plug-In . SVG Version: 6.00 Build 0)  -->
<!DOCTYPE svg PUBLIC "-//W3C//DTD SVG 1.1//EN" "http://www.w3.org/Graphics/SVG/1.1/DTD/svg11.dtd">
<svg version="1.1" xmlns="http://www.w3.org/2000/svg" xmlns:xlink="http://www.w3.org/1999/xlink" x="0px" y="0px"
	 viewBox="0 0 119.2 106.4" style="enable-background:new 0 0 119.2 106.4;" xml:space="preserve">
<style type="text/css">
	.st0{fill:url(#SVGID_1_);}
	.st1{fill:#B7C0EB;}
	.st2{fill:url(#SVGID_2_);}
	.st3{fill:url(#SVGID_3_);}
	.st4{fill:url(#SVGID_4_);}
	.st5{fill:url(#SVGID_5_);}
	.st6{fill:url(#SVGID_6_);}
	.st7{fill:url(#SVGID_7_);}
	.st8{fill:url(#SVGID_8_);}
	.st9{fill:url(#SVGID_9_);}
	.st10{fill:url(#SVGID_10_);}
	.st11{fill:url(#SVGID_11_);}
</style>
<g id="Layer_1">
</g>
<g id="Isolation_Mode">
	<linearGradient id="SVGID_1_" gradientUnits="userSpaceOnUse" x1="13.7603" y1="59.591" x2="107.3986" y2="59.591">
		<stop  offset="0" style="stop-color:#F1F4FE"/>
		<stop  offset="1" style="stop-color:#FFFFFF"/>
	</linearGradient>
	<circle class="st0" cx="60.6" cy="59.6" r="46.8"/>
	<path class="st1" d="M23.4,59.6h-1.5c0-11,4.7-21.4,12.8-28.8l1,1.1C27.9,39,23.4,49.1,23.4,59.6z"/>
	<path class="st1" d="M60.6,98.2c-6.6,0-13.2-1.7-18.9-4.9l0.7-1.3c5.5,3.1,11.8,4.7,18.2,4.7c9.5,0,18.6-3.6,25.5-10.1l1,1.1
		C79.9,94.5,70.5,98.2,60.6,98.2z"/>
	<path class="st1" d="M95.7,47.6c-3.2-9.3-10.1-17.1-18.9-21.4l0.7-1.3c9.2,4.5,16.4,12.6,19.7,22.3L95.7,47.6z"/>
	<linearGradient id="SVGID_2_" gradientUnits="userSpaceOnUse" x1="60.5794" y1="84.6273" x2="60.5794" y2="17.5115">
		<stop  offset="0" style="stop-color:#B7C0EB"/>
		<stop  offset="0.5278" style="stop-color:#F1F4FE"/>
		<stop  offset="1" style="stop-color:#FFFFFF"/>
	</linearGradient>
	<circle class="st2" cx="60.6" cy="59.6" r="27.8"/>
	<g>
		<linearGradient id="SVGID_3_" gradientUnits="userSpaceOnUse" x1="60.5794" y1="41.3774" x2="60.5794" y2="-0.8597">
			<stop  offset="0" style="stop-color:#F7530B"/>
			<stop  offset="1" style="stop-color:#F97B08"/>
		</linearGradient>
		<circle class="st3" cx="60.6" cy="20.7" r="20.7"/>
		<g>
			<linearGradient id="SVGID_4_" gradientUnits="userSpaceOnUse" x1="60.5693" y1="8.1649" x2="60.5693" y2="31.0779">
				<stop  offset="0" style="stop-color:#F1F4FE"/>
				<stop  offset="1" style="stop-color:#FFFFFF"/>
			</linearGradient>
			<circle class="st4" cx="60.6" cy="12.8" r="5.4"/>
			<linearGradient id="SVGID_5_" gradientUnits="userSpaceOnUse" x1="60.5693" y1="6.1649" x2="60.5693" y2="29.0779">
				<stop  offset="0" style="stop-color:#F1F4FE"/>
				<stop  offset="1" style="stop-color:#FFFFFF"/>
			</linearGradient>
			<path class="st5" d="M69,31.5c1.5,0,2.7-1.5,2.3-3c-1.3-4.7-5.6-8.2-10.7-8.2c-5.1,0-9.4,3.5-10.7,8.2c-0.4,1.5,0.8,3,2.3,3H69z"
				/>
		</g>
	</g>
	<g>
		<linearGradient id="SVGID_6_" gradientUnits="userSpaceOnUse" x1="98.5147" y1="96.1294" x2="98.5147" y2="53.8923">
			<stop  offset="0" style="stop-color:#F7530B"/>
			<stop  offset="1" style="stop-color:#F97B08"/>
		</linearGradient>
		<circle class="st6" cx="98.5" cy="75.4" r="20.7"/>
		<g>
			<linearGradient id="SVGID_7_" gradientUnits="userSpaceOnUse" x1="98.5045" y1="62.9169" x2="98.5045" y2="85.8299">
				<stop  offset="0" style="stop-color:#F1F4FE"/>
				<stop  offset="1" style="stop-color:#FFFFFF"/>
			</linearGradient>
			<circle class="st7" cx="98.5" cy="67.5" r="5.4"/>
			<linearGradient id="SVGID_8_" gradientUnits="userSpaceOnUse" x1="98.5045" y1="60.9169" x2="98.5045" y2="83.8299">
				<stop  offset="0" style="stop-color:#F1F4FE"/>
				<stop  offset="1" style="stop-color:#FFFFFF"/>
			</linearGradient>
			<path class="st8" d="M106.9,86.2c1.5,0,2.7-1.5,2.3-3c-1.3-4.7-5.6-8.2-10.7-8.2c-5.1,0-9.4,3.5-10.7,8.2c-0.4,1.5,0.8,3,2.3,3
				H106.9z"/>
		</g>
	</g>
	<g>
		<linearGradient id="SVGID_9_" gradientUnits="userSpaceOnUse" x1="20.6887" y1="96.1294" x2="20.6887" y2="53.8923">
			<stop  offset="0" style="stop-color:#F7530B"/>
			<stop  offset="1" style="stop-color:#F97B08"/>
		</linearGradient>
		<circle class="st9" cx="20.7" cy="75.4" r="20.7"/>
		<g>
			<linearGradient id="SVGID_10_" gradientUnits="userSpaceOnUse" x1="20.6785" y1="62.9169" x2="20.6785" y2="85.8299">
				<stop  offset="0" style="stop-color:#F1F4FE"/>
				<stop  offset="1" style="stop-color:#FFFFFF"/>
			</linearGradient>
			<circle class="st10" cx="20.7" cy="67.5" r="5.4"/>
			<linearGradient id="SVGID_11_" gradientUnits="userSpaceOnUse" x1="20.6785" y1="60.9169" x2="20.6785" y2="83.8299">
				<stop  offset="0" style="stop-color:#F1F4FE"/>
				<stop  offset="1" style="stop-color:#FFFFFF"/>
			</linearGradient>
			<path class="st11" d="M29.1,86.2c1.5,0,2.7-1.5,2.3-3c-1.3-4.7-5.6-8.2-10.7-8.2s-9.4,3.5-10.7,8.2c-0.4,1.5,0.8,3,2.3,3H29.1z"
				/>
		</g>
	</g>
	<path class="st1" d="M35.3,36.6c-0.4,0-0.8-0.3-0.8-0.8v-3.8h-3.8c-0.4,0-0.8-0.3-0.8-0.8s0.3-0.8,0.8-0.8h4.5
		c0.4,0,0.8,0.3,0.8,0.8v4.5C36,36.3,35.7,36.6,35.3,36.6z"/>
	<path class="st1" d="M96.4,48.1c-0.1,0-0.2,0-0.3-0.1L92,46.3c-0.4-0.2-0.6-0.6-0.4-1s0.6-0.6,1-0.4l3.5,1.5l1.5-3.5
		c0.2-0.4,0.6-0.5,1-0.4c0.4,0.2,0.6,0.6,0.4,1l-1.8,4.1c-0.1,0.2-0.2,0.3-0.4,0.4C96.6,48.1,96.5,48.1,96.4,48.1z"/>
	<path class="st1" d="M43.9,97.7c-0.3,0-0.6-0.2-0.7-0.5L41.5,93c-0.2-0.4,0-0.8,0.4-1l4.2-1.7c0.4-0.2,0.8,0,1,0.4
		c0.2,0.4,0,0.8-0.4,1l-3.5,1.4l1.4,3.5c0.2,0.4,0,0.8-0.4,1C44,97.7,43.9,97.7,43.9,97.7z"/>
</g>
</svg>
