<?xml version="1.0" encoding="utf-8"?>
<!-- Generator: Adobe Illustrator 22.1.0, SVG Export Plug-In . SVG Version: 6.00 Build 0)  -->
<!DOCTYPE svg PUBLIC "-//W3C//DTD SVG 1.1//EN" "http://www.w3.org/Graphics/SVG/1.1/DTD/svg11.dtd">
<svg version="1.1" xmlns="http://www.w3.org/2000/svg" xmlns:xlink="http://www.w3.org/1999/xlink" x="0px" y="0px"
	 viewBox="0 0 43.7 43.7" style="enable-background:new 0 0 43.7 43.7;" xml:space="preserve">
<style type="text/css">
	.st0{fill:#F97B08;}
</style>
<g id="Layer_1">
</g>
<g id="Isolation_Mode">
	<g>
		<path class="st0" d="M35.7,43.7H8c-4.4,0-8-3.6-8-8V8c0-4.4,3.6-8,8-8h27.7c4.4,0,8,3.6,8,8v27.7C43.7,40.1,40.1,43.7,35.7,43.7z
			 M8,1.5C4.4,1.5,1.5,4.4,1.5,8v27.7c0,3.6,2.9,6.5,6.5,6.5h27.7c3.6,0,6.5-2.9,6.5-6.5V8c0-3.6-2.9-6.5-6.5-6.5H8z"/>
		<g>
			<g>
				<path class="st0" d="M7.7,30.8c3.1,0.2,6-0.5,8.4-2.4c-1.6-0.1-3-0.7-4.1-1.9c-0.6-0.6-1-1.3-1.3-2.2c0.9,0.1,1.7,0.1,2.5-0.1
					c-2.9-0.9-4.4-2.8-4.6-5.8c0.8,0.4,1.6,0.6,2.6,0.7c-1.3-0.9-2.1-2.1-2.4-3.6c-0.3-1.5-0.1-2.9,0.6-4.2c3.2,3.7,7.1,5.7,12,6.1
					c0-0.3-0.1-0.7-0.1-1c-0.1-2,0.6-3.6,2.1-4.8c1.4-1.2,3-1.6,4.7-1.3c1.2,0.2,2.3,0.7,3.1,1.6c0.1,0.1,0.2,0.1,0.3,0.1
					c1.2-0.3,2.3-0.7,3.3-1.2c0.1,0,0.1-0.1,0.2-0.1c-0.2,0.7-0.5,1.3-0.9,1.8c-0.4,0.5-0.9,1-1.5,1.4c1.1-0.1,2.1-0.4,3.2-0.8
					c-0.5,0.7-1,1.3-1.5,1.8c-0.4,0.4-0.8,0.7-1.2,1c-0.1,0.1-0.2,0.2-0.2,0.3c0.1,1.7-0.1,3.3-0.6,5c-0.4,1.4-0.9,2.7-1.6,3.9
					c-0.5,0.8-1,1.6-1.6,2.4c-0.7,0.9-1.5,1.7-2.4,2.4c-1,0.8-2.1,1.5-3.3,2c-1.4,0.6-2.8,1-4.4,1.3c-1.3,0.2-2.6,0.2-3.9,0.1
					c-1.4-0.1-2.7-0.3-4-0.8c-0.9-0.3-1.8-0.8-2.7-1.2C8.3,31.2,8,31,7.7,30.8z"/>
			</g>
		</g>
	</g>
</g>
</svg>
