<?xml version="1.0" encoding="utf-8"?>
<!-- Generator: Adobe Illustrator 23.0.1, SVG Export Plug-In . SVG Version: 6.00 Build 0)  -->
<svg version="1.1" xmlns="http://www.w3.org/2000/svg" xmlns:xlink="http://www.w3.org/1999/xlink" x="0px" y="0px"
	 viewBox="0 0 30.005 30.006" style="enable-background:new 0 0 30.005 30.006;" xml:space="preserve">
<style type="text/css">
	.st0{fill:url(#SVGID_1_);}
	.st1{fill:url(#SVGID_2_);}
</style>
<g id="Layer_1">
	<linearGradient id="SVGID_1_" gradientUnits="userSpaceOnUse" x1="15.1337" y1="0.2408" x2="14.8694" y2="29.9695">
		<stop  offset="0.3" style="stop-color:#EE3A24"/>
		<stop  offset="1" style="stop-color:#AF1F2D"/>
	</linearGradient>
	<path class="st0" d="M24.505,30.006H5.5c-3.033,0-5.5-2.468-5.5-5.5V5.5C0,2.468,2.467,0,5.5,0h19.005c3.033,0,5.5,2.468,5.5,5.5
		v19.006C30.005,27.538,27.538,30.006,24.505,30.006z M5.5,1C3.019,1,1,3.019,1,5.5v19.006c0,2.481,2.019,4.5,4.5,4.5h19.005
		c2.481,0,4.5-2.019,4.5-4.5V5.5c0-2.481-2.019-4.5-4.5-4.5H5.5z"/>
	<g>
		<g>
			<linearGradient id="SVGID_2_" gradientUnits="userSpaceOnUse" x1="15.0673" y1="0.5488" x2="14.9352" y2="30.1453">
				<stop  offset="0.3" style="stop-color:#EE3A24"/>
				<stop  offset="1" style="stop-color:#AF1F2D"/>
			</linearGradient>
			<path class="st1" d="M5.284,21.181c2.15,0.169,4.089-0.362,5.806-1.683c-1.099-0.073-2.035-0.489-2.791-1.282
				c-0.404-0.424-0.701-0.918-0.89-1.512c0.595,0.094,1.159,0.08,1.744-0.065c-1.982-0.6-3.035-1.899-3.146-3.951
				c0.558,0.25,1.121,0.443,1.785,0.449c-0.874-0.632-1.435-1.429-1.657-2.443C5.914,9.687,6.06,8.73,6.571,7.817
				c2.172,2.546,4.904,3.948,8.247,4.177c-0.026-0.24-0.057-0.45-0.07-0.661c-0.08-1.343,0.401-2.46,1.417-3.324
				c0.929-0.79,2.027-1.069,3.232-0.878c0.839,0.133,1.564,0.507,2.163,1.115c0.064,0.065,0.125,0.083,0.221,0.062
				c0.797-0.175,1.551-0.459,2.262-0.858c0.035-0.02,0.073-0.035,0.137-0.065c-0.136,0.468-0.361,0.859-0.64,1.219
				c-0.281,0.362-0.621,0.664-1,0.931c0.75-0.053,1.453-0.281,2.181-0.576c-0.324,0.485-0.661,0.901-1.055,1.268
				c-0.261,0.244-0.539,0.47-0.813,0.699c-0.078,0.065-0.116,0.131-0.112,0.237c0.047,1.157-0.1,2.293-0.41,3.405
				c-0.26,0.933-0.611,1.835-1.114,2.664c-0.346,0.571-0.72,1.129-1.127,1.658c-0.471,0.615-1.033,1.149-1.64,1.635
				c-0.705,0.565-1.467,1.034-2.288,1.408c-0.956,0.434-1.956,0.714-2.994,0.869c-0.889,0.133-1.781,0.153-2.675,0.094
				c-0.948-0.063-1.878-0.237-2.768-0.568c-0.62-0.231-1.221-0.516-1.824-0.792C5.686,21.443,5.489,21.302,5.284,21.181z"/>
		</g>
	</g>
</g>
<g id="Capa_1">
</g>
</svg>
