<?xml version="1.0" encoding="utf-8"?>
<!-- Generator: Adobe Illustrator 23.0.1, SVG Export Plug-In . SVG Version: 6.00 Build 0)  -->
<svg version="1.1" xmlns="http://www.w3.org/2000/svg" xmlns:xlink="http://www.w3.org/1999/xlink" x="0px" y="0px"
	 viewBox="0 0 30.005 30.006" style="enable-background:new 0 0 30.005 30.006;" xml:space="preserve">
<style type="text/css">
	.st0{fill:url(#SVGID_1_);}
	.st1{fill:url(#SVGID_2_);}
	.st2{fill:url(#SVGID_3_);}
	.st3{fill:url(#SVGID_4_);}
	.st4{fill:url(#SVGID_5_);}
	.st5{fill:url(#SVGID_6_);}
	.st6{fill:url(#SVGID_7_);}
</style>
<g id="Layer_1">
	<linearGradient id="SVGID_1_" gradientUnits="userSpaceOnUse" x1="15.0027" y1="-0.3164" x2="15.0027" y2="29.989">
		<stop  offset="0.3" style="stop-color:#EE3A24"/>
		<stop  offset="1" style="stop-color:#AF1F2D"/>
	</linearGradient>
	<path class="st0" d="M24.505,30.006H5.5c-3.033,0-5.5-2.468-5.5-5.5V5.5C0,2.468,2.467,0,5.5,0h19.005c3.033,0,5.5,2.468,5.5,5.5
		v19.006C30.005,27.538,27.538,30.006,24.505,30.006z M5.5,1C3.019,1,1,3.019,1,5.5v19.006c0,2.481,2.019,4.5,4.5,4.5h19.005
		c2.481,0,4.5-2.019,4.5-4.5V5.5c0-2.481-2.019-4.5-4.5-4.5H5.5z"/>
	<g>
		<g>
			<g>
				<linearGradient id="SVGID_2_" gradientUnits="userSpaceOnUse" x1="18.798" y1="0.0903" x2="19.2393" y2="30.2486">
					<stop  offset="0.3" style="stop-color:#EE3A24"/>
					<stop  offset="1" style="stop-color:#AF1F2D"/>
				</linearGradient>
				<path class="st1" d="M20.485,12.928c-0.362,0-0.718,0-1.084,0c0-0.24,0-0.479,0-0.719c-0.006-0.003-0.012-0.006-0.018-0.009
					c-0.036,0.04-0.072,0.081-0.109,0.121c-0.221,0.238-0.471,0.437-0.782,0.545c-0.173,0.06-0.353,0.086-0.535,0.047
					c-0.278-0.06-0.445-0.244-0.502-0.512c-0.045-0.208-0.076-0.424-0.077-0.637c-0.006-1.659-0.003-3.317-0.003-4.976
					c0-0.023,0-0.046,0-0.075c0.347,0,0.688,0,1.039,0c0,0.031,0,0.064,0,0.096c0,1.48,0,2.96,0.001,4.439
					c0,0.07,0.005,0.14,0.014,0.209c0.026,0.208,0.185,0.315,0.379,0.232c0.16-0.069,0.304-0.175,0.456-0.262
					c0.14-0.08,0.192-0.188,0.191-0.359c-0.008-1.415-0.005-2.83-0.005-4.245c0-0.036,0-0.071,0-0.112c0.35,0,0.69,0,1.035,0
					C20.485,8.786,20.485,10.855,20.485,12.928z"/>
				<linearGradient id="SVGID_3_" gradientUnits="userSpaceOnUse" x1="11.4246" y1="0.1982" x2="11.8659" y2="30.3565">
					<stop  offset="0.3" style="stop-color:#EE3A24"/>
					<stop  offset="1" style="stop-color:#AF1F2D"/>
				</linearGradient>
				<path class="st2" d="M9.52,4.635c0.394,0,0.78,0,1.172,0c0.046,0.196,0.093,0.391,0.139,0.587
					c0.202,0.866,0.405,1.731,0.606,2.597c0.012,0.053,0.035,0.07,0.092,0.053c0.063-0.246,0.127-0.496,0.19-0.745
					c0.204-0.807,0.409-1.613,0.611-2.42c0.014-0.057,0.037-0.078,0.098-0.077c0.316,0.003,0.632,0.002,0.949,0.002
					c0.023,0,0.046,0,0.081,0c-0.039,0.138-0.076,0.269-0.114,0.399c-0.455,1.574-0.911,3.147-1.365,4.721
					c-0.014,0.049-0.02,0.102-0.021,0.153c-0.001,0.972-0.001,1.944-0.001,2.916c0,0.033,0,0.067,0,0.106c-0.347,0-0.688,0-1.036,0
					c-0.001-0.034-0.004-0.067-0.004-0.099c0-0.871-0.005-1.742,0.003-2.613c0.003-0.273-0.037-0.533-0.108-0.794
					c-0.428-1.565-0.85-3.132-1.273-4.699C9.533,4.695,9.528,4.668,9.52,4.635z"/>
				<linearGradient id="SVGID_4_" gradientUnits="userSpaceOnUse" x1="14.8262" y1="0.1484" x2="15.2676" y2="30.3067">
					<stop  offset="0.3" style="stop-color:#EE3A24"/>
					<stop  offset="1" style="stop-color:#AF1F2D"/>
				</linearGradient>
				<path class="st3" d="M13.415,9.758c0-0.549-0.007-1.099,0.002-1.648c0.011-0.693,0.479-1.236,1.165-1.362
					c0.373-0.068,0.745-0.069,1.095,0.097c0.456,0.215,0.725,0.58,0.815,1.074c0.023,0.127,0.03,0.258,0.03,0.387
					c0.002,0.985,0.002,1.969,0.001,2.954c0,0.327-0.043,0.646-0.203,0.938c-0.222,0.406-0.571,0.631-1.022,0.704
					c-0.303,0.049-0.604,0.043-0.897-0.06c-0.513-0.179-0.819-0.547-0.936-1.069c-0.04-0.18-0.052-0.369-0.055-0.554
					c-0.007-0.487-0.002-0.974-0.002-1.461C13.411,9.758,13.413,9.758,13.415,9.758z M14.449,9.739c0.003,0,0.006,0,0.008,0
					c0,0.573-0.006,1.145,0.003,1.718c0.004,0.238,0.11,0.383,0.348,0.426c0.133,0.024,0.263,0.018,0.391-0.023
					c0.152-0.048,0.244-0.153,0.274-0.308c0.014-0.076,0.021-0.154,0.022-0.231c0.001-0.923,0.001-1.845,0.001-2.768
					c0-0.119,0.002-0.238,0-0.358c-0.005-0.242-0.102-0.372-0.323-0.431c-0.135-0.036-0.271-0.038-0.407-0.003
					c-0.196,0.05-0.302,0.183-0.309,0.385c-0.003,0.091-0.007,0.181-0.007,0.272C14.448,8.858,14.449,9.298,14.449,9.739z"/>
			</g>
			<g>
				<linearGradient id="SVGID_5_" gradientUnits="userSpaceOnUse" x1="14.7171" y1="0.15" x2="15.1584" y2="30.3083">
					<stop  offset="0.3" style="stop-color:#EE3A24"/>
					<stop  offset="1" style="stop-color:#AF1F2D"/>
				</linearGradient>
				<path class="st4" d="M15.011,13.964c2.398,0,4.795,0,7.193,0c0.653,0,1.202,0.237,1.631,0.732
					c0.305,0.352,0.467,0.765,0.497,1.23c0.003,0.054,0.003,0.109,0.003,0.163c0,2.387-0.001,4.775,0.001,7.162
					c0,0.649-0.237,1.191-0.725,1.618c-0.399,0.349-0.872,0.506-1.399,0.507c-1.457,0.001-2.913,0-4.37,0c-3.346,0-6.693,0-10.039,0
					c-0.653,0-1.202-0.237-1.631-0.732c-0.305-0.352-0.467-0.765-0.497-1.23c-0.003-0.054-0.003-0.109-0.003-0.163
					c0-2.387,0.001-4.775-0.001-7.162c0-0.649,0.237-1.191,0.725-1.618c0.399-0.349,0.872-0.506,1.399-0.507
					C10.2,13.964,12.606,13.964,15.011,13.964z M16.154,23.041c0.028,0.019,0.045,0.03,0.06,0.042
					c0.217,0.171,0.467,0.27,0.739,0.296c0.422,0.041,0.773-0.092,1.002-0.468c0.13-0.212,0.158-0.452,0.158-0.695
					c0-1.091,0.001-2.183-0.001-3.274c0-0.288-0.005-0.575-0.016-0.863c-0.007-0.179-0.028-0.36-0.118-0.518
					c-0.229-0.406-0.72-0.548-1.084-0.453c-0.252,0.066-0.485,0.178-0.686,0.349c-0.014,0.012-0.032,0.021-0.056,0.037
					c0-0.039,0-0.067,0-0.095c0-0.741,0-1.483,0-2.224c0-0.133-0.04-0.173-0.17-0.173c-0.301,0-0.601,0-0.902,0
					c-0.169,0-0.203,0.035-0.203,0.206c0,2.628,0,5.257,0,7.885c0,0.018-0.001,0.036,0,0.054c0.004,0.096,0.055,0.147,0.152,0.147
					c0.327,0.001,0.653,0.001,0.98,0c0.093,0,0.138-0.043,0.143-0.136C16.156,23.125,16.154,23.089,16.154,23.041z M12.807,22.883
					c0,0.077,0,0.163,0,0.248c0,0.133,0.037,0.17,0.171,0.169c0.308-0.001,0.617-0.002,0.925-0.004
					c0.145-0.001,0.181-0.037,0.181-0.185c0-1.949,0-3.898,0-5.848c0-0.149-0.034-0.184-0.182-0.184c-0.306,0-0.612,0-0.918,0
					c-0.148,0-0.178,0.03-0.178,0.177c0,0.977,0,1.954,0,2.932c0,0.503,0,1.006-0.001,1.509c0,0.031-0.005,0.073-0.025,0.091
					c-0.161,0.141-0.34,0.255-0.543,0.324c-0.106,0.036-0.184-0.013-0.206-0.124c-0.012-0.06-0.015-0.123-0.015-0.185
					c-0.001-1.516-0.001-3.033-0.001-4.549c0-0.133-0.038-0.172-0.17-0.173c-0.314,0-0.627,0-0.941,0
					c-0.132,0-0.167,0.035-0.167,0.164c0,1.659-0.002,3.318,0.003,4.977c0.001,0.192,0.021,0.389,0.067,0.576
					c0.091,0.371,0.359,0.575,0.738,0.596c0.215,0.012,0.409-0.062,0.595-0.152C12.367,23.132,12.583,23.004,12.807,22.883z
					 M20.188,20.317c0.037,0,0.065,0,0.094,0c0.607,0.003,1.213,0.005,1.82,0.008c0.13,0.001,0.168-0.036,0.168-0.164
					c0-0.423-0.001-0.845,0-1.268c0.001-0.312-0.052-0.614-0.19-0.895c-0.164-0.336-0.391-0.619-0.741-0.777
					c-0.313-0.141-0.646-0.166-0.981-0.101c-0.46,0.089-0.814,0.331-1.038,0.75c-0.177,0.329-0.223,0.687-0.224,1.052
					c-0.004,0.874-0.003,1.747-0.001,2.621c0.001,0.332,0.054,0.656,0.22,0.95c0.24,0.426,0.593,0.709,1.078,0.804
					c0.278,0.054,0.553,0.006,0.818-0.084c0.558-0.19,0.917-0.571,1.013-1.157c0.047-0.284,0.034-0.578,0.043-0.867
					c0.002-0.071-0.051-0.105-0.12-0.105c-0.264,0-0.529,0-0.793,0.002c-0.088,0.001-0.126,0.042-0.128,0.14
					c-0.003,0.13,0.003,0.259-0.003,0.389c-0.004,0.085-0.011,0.172-0.034,0.253c-0.057,0.193-0.182,0.329-0.385,0.363
					c-0.205,0.035-0.369-0.048-0.489-0.218c-0.103-0.147-0.127-0.316-0.129-0.488c-0.004-0.381-0.001-0.762-0.001-1.143
					C20.184,20.364,20.186,20.346,20.188,20.317z M8.67,16.186c0,0.043,0,0.076,0,0.109c0,2.276,0,4.551,0,6.827
					c0,0.169,0.027,0.196,0.192,0.196c0.29,0,0.581,0,0.871,0c0.167,0,0.199-0.032,0.199-0.199c0-2.276,0-4.551,0-6.827
					c0-0.033,0-0.066,0-0.106c0.036,0,0.064,0,0.092,0c0.288,0,0.575,0,0.863,0c0.119,0,0.165-0.046,0.165-0.165
					c0.001-0.283,0-0.565,0-0.848c0-0.13-0.041-0.17-0.174-0.17c-1.06,0-2.12,0-3.18,0c-0.136,0-0.176,0.041-0.176,0.176
					c0,0.272,0,0.544,0,0.816c0,0.15,0.039,0.19,0.187,0.19C8.026,16.186,8.342,16.186,8.67,16.186z"/>
				<linearGradient id="SVGID_6_" gradientUnits="userSpaceOnUse" x1="16.2476" y1="0.1276" x2="16.689" y2="30.2859">
					<stop  offset="0.3" style="stop-color:#EE3A24"/>
					<stop  offset="1" style="stop-color:#AF1F2D"/>
				</linearGradient>
				<path class="st5" d="M16.17,20.226c0-0.586,0.001-1.171-0.002-1.757c0-0.059,0.018-0.097,0.063-0.13
					c0.132-0.099,0.278-0.136,0.439-0.095c0.145,0.037,0.233,0.171,0.244,0.367c0.003,0.047,0.002,0.093,0.002,0.14
					c0,1.021,0.001,2.042-0.001,3.062c0,0.077-0.007,0.156-0.025,0.23c-0.031,0.126-0.122,0.192-0.251,0.206
					c-0.18,0.019-0.324-0.052-0.446-0.175c-0.018-0.018-0.022-0.056-0.022-0.084C16.169,21.402,16.17,20.814,16.17,20.226z"/>
				<linearGradient id="SVGID_7_" gradientUnits="userSpaceOnUse" x1="20.4438" y1="0.0662" x2="20.8851" y2="30.2245">
					<stop  offset="0.3" style="stop-color:#EE3A24"/>
					<stop  offset="1" style="stop-color:#AF1F2D"/>
				</linearGradient>
				<path class="st6" d="M21.14,19.151c-0.291,0-0.557,0-0.833,0c0.01-0.263-0.021-0.523,0.034-0.782
					c0.041-0.193,0.298-0.283,0.444-0.248c0.175,0.043,0.301,0.128,0.317,0.321C21.12,18.676,21.127,18.91,21.14,19.151z"/>
			</g>
		</g>
	</g>
</g>
<g id="Capa_1">
</g>
</svg>
