<?xml version="1.0" encoding="utf-8"?>
<!-- Generator: Adobe Illustrator 22.1.0, SVG Export Plug-In . SVG Version: 6.00 Build 0)  -->
<!DOCTYPE svg PUBLIC "-//W3C//DTD SVG 1.1//EN" "http://www.w3.org/Graphics/SVG/1.1/DTD/svg11.dtd">
<svg version="1.1" xmlns="http://www.w3.org/2000/svg" xmlns:xlink="http://www.w3.org/1999/xlink" x="0px" y="0px"
	 viewBox="0 0 43.7 43.7" style="enable-background:new 0 0 43.7 43.7;" xml:space="preserve">
<style type="text/css">
	.st0{fill:#F97B08;}
</style>
<g id="Layer_1">
</g>
<g id="Isolation_Mode">
	<path class="st0" d="M35.7,43.7H8c-4.4,0-8-3.6-8-8V8c0-4.4,3.6-8,8-8h27.7c4.4,0,8,3.6,8,8v27.7C43.7,40.1,40.1,43.7,35.7,43.7z
		 M8,1.5C4.4,1.5,1.5,4.4,1.5,8v27.7c0,3.6,2.9,6.5,6.5,6.5h27.7c3.6,0,6.5-2.9,6.5-6.5V8c0-3.6-2.9-6.5-6.5-6.5H8z"/>
	<g>
		<g>
			<g>
				<path class="st0" d="M29.8,18.8c-0.5,0-1,0-1.6,0c0-0.3,0-0.7,0-1c0,0,0,0,0,0c-0.1,0.1-0.1,0.1-0.2,0.2
					c-0.3,0.3-0.7,0.6-1.1,0.8c-0.3,0.1-0.5,0.1-0.8,0.1c-0.4-0.1-0.6-0.4-0.7-0.7c-0.1-0.3-0.1-0.6-0.1-0.9c0-2.4,0-4.8,0-7.2
					c0,0,0-0.1,0-0.1c0.5,0,1,0,1.5,0c0,0,0,0.1,0,0.1c0,2.2,0,4.3,0,6.5c0,0.1,0,0.2,0,0.3c0,0.3,0.3,0.5,0.6,0.3
					c0.2-0.1,0.4-0.3,0.7-0.4c0.2-0.1,0.3-0.3,0.3-0.5c0-2.1,0-4.1,0-6.2c0-0.1,0-0.1,0-0.2c0.5,0,1,0,1.5,0
					C29.8,12.8,29.8,15.8,29.8,18.8z"/>
				<path class="st0" d="M13.9,6.7c0.6,0,1.1,0,1.7,0c0.1,0.3,0.1,0.6,0.2,0.9c0.3,1.3,0.6,2.5,0.9,3.8c0,0.1,0.1,0.1,0.1,0.1
					c0.1-0.4,0.2-0.7,0.3-1.1c0.3-1.2,0.6-2.3,0.9-3.5c0-0.1,0.1-0.1,0.1-0.1c0.5,0,0.9,0,1.4,0c0,0,0.1,0,0.1,0
					c-0.1,0.2-0.1,0.4-0.2,0.6c-0.7,2.3-1.3,4.6-2,6.9c0,0.1,0,0.1,0,0.2c0,1.4,0,2.8,0,4.2c0,0,0,0.1,0,0.2c-0.5,0-1,0-1.5,0
					c0,0,0-0.1,0-0.1c0-1.3,0-2.5,0-3.8c0-0.4-0.1-0.8-0.2-1.2c-0.6-2.3-1.2-4.6-1.9-6.8C13.9,6.8,13.9,6.8,13.9,6.7z"/>
				<path class="st0" d="M19.5,14.2c0-0.8,0-1.6,0-2.4c0-1,0.7-1.8,1.7-2c0.5-0.1,1.1-0.1,1.6,0.1c0.7,0.3,1.1,0.8,1.2,1.6
					c0,0.2,0,0.4,0,0.6c0,1.4,0,2.9,0,4.3c0,0.5-0.1,0.9-0.3,1.4c-0.3,0.6-0.8,0.9-1.5,1c-0.4,0.1-0.9,0.1-1.3-0.1
					c-0.7-0.3-1.2-0.8-1.4-1.6c-0.1-0.3-0.1-0.5-0.1-0.8C19.5,15.6,19.5,14.9,19.5,14.2C19.5,14.2,19.5,14.2,19.5,14.2z M21,14.2
					C21,14.2,21,14.2,21,14.2c0,0.8,0,1.7,0,2.5c0,0.3,0.2,0.6,0.5,0.6c0.2,0,0.4,0,0.6,0c0.2-0.1,0.4-0.2,0.4-0.4
					c0-0.1,0-0.2,0-0.3c0-1.3,0-2.7,0-4c0-0.2,0-0.3,0-0.5c0-0.4-0.1-0.5-0.5-0.6c-0.2-0.1-0.4-0.1-0.6,0c-0.3,0.1-0.4,0.3-0.4,0.6
					c0,0.1,0,0.3,0,0.4C21,12.9,21,13.5,21,14.2z"/>
			</g>
			<g>
				<path class="st0" d="M21.8,20.3c3.5,0,7,0,10.5,0c0.9,0,1.7,0.3,2.4,1.1c0.4,0.5,0.7,1.1,0.7,1.8c0,0.1,0,0.2,0,0.2
					c0,3.5,0,6.9,0,10.4c0,0.9-0.3,1.7-1.1,2.4c-0.6,0.5-1.3,0.7-2,0.7c-2.1,0-4.2,0-6.4,0c-4.9,0-9.7,0-14.6,0
					c-0.9,0-1.7-0.3-2.4-1.1c-0.4-0.5-0.7-1.1-0.7-1.8c0-0.1,0-0.2,0-0.2c0-3.5,0-6.9,0-10.4c0-0.9,0.3-1.7,1.1-2.4
					c0.6-0.5,1.3-0.7,2-0.7C14.8,20.3,18.3,20.3,21.8,20.3z M23.5,33.5C23.6,33.6,23.6,33.6,23.5,33.5c0.4,0.3,0.8,0.5,1.2,0.5
					c0.6,0.1,1.1-0.1,1.5-0.7c0.2-0.3,0.2-0.7,0.2-1c0-1.6,0-3.2,0-4.8c0-0.4,0-0.8,0-1.3c0-0.3,0-0.5-0.2-0.8
					c-0.3-0.6-1-0.8-1.6-0.7c-0.4,0.1-0.7,0.3-1,0.5c0,0,0,0-0.1,0.1c0-0.1,0-0.1,0-0.1c0-1.1,0-2.2,0-3.2c0-0.2-0.1-0.3-0.2-0.3
					c-0.4,0-0.9,0-1.3,0c-0.2,0-0.3,0.1-0.3,0.3c0,3.8,0,7.7,0,11.5c0,0,0,0.1,0,0.1c0,0.1,0.1,0.2,0.2,0.2c0.5,0,1,0,1.4,0
					c0.1,0,0.2-0.1,0.2-0.2C23.5,33.7,23.5,33.6,23.5,33.5z M18.6,33.3c0,0.1,0,0.2,0,0.4c0,0.2,0.1,0.2,0.2,0.2c0.4,0,0.9,0,1.3,0
					c0.2,0,0.3-0.1,0.3-0.3c0-2.8,0-5.7,0-8.5c0-0.2,0-0.3-0.3-0.3c-0.4,0-0.9,0-1.3,0c-0.2,0-0.3,0-0.3,0.3c0,1.4,0,2.8,0,4.3
					c0,0.7,0,1.5,0,2.2c0,0,0,0.1,0,0.1c-0.2,0.2-0.5,0.4-0.8,0.5c-0.2,0.1-0.3,0-0.3-0.2c0-0.1,0-0.2,0-0.3c0-2.2,0-4.4,0-6.6
					c0-0.2-0.1-0.3-0.2-0.3c-0.5,0-0.9,0-1.4,0c-0.2,0-0.2,0.1-0.2,0.2c0,2.4,0,4.8,0,7.2c0,0.3,0,0.6,0.1,0.8
					c0.1,0.5,0.5,0.8,1.1,0.9c0.3,0,0.6-0.1,0.9-0.2C18,33.7,18.3,33.5,18.6,33.3z M29.4,29.6c0.1,0,0.1,0,0.1,0c0.9,0,1.8,0,2.6,0
					c0.2,0,0.2-0.1,0.2-0.2c0-0.6,0-1.2,0-1.8c0-0.5-0.1-0.9-0.3-1.3c-0.2-0.5-0.6-0.9-1.1-1.1c-0.5-0.2-0.9-0.2-1.4-0.1
					C29,25,28.4,25.4,28.1,26c-0.3,0.5-0.3,1-0.3,1.5c0,1.3,0,2.5,0,3.8c0,0.5,0.1,1,0.3,1.4c0.3,0.6,0.9,1,1.6,1.2
					c0.4,0.1,0.8,0,1.2-0.1c0.8-0.3,1.3-0.8,1.5-1.7c0.1-0.4,0-0.8,0.1-1.3c0-0.1-0.1-0.2-0.2-0.2c-0.4,0-0.8,0-1.2,0
					c-0.1,0-0.2,0.1-0.2,0.2c0,0.2,0,0.4,0,0.6c0,0.1,0,0.3-0.1,0.4c-0.1,0.3-0.3,0.5-0.6,0.5c-0.3,0.1-0.5-0.1-0.7-0.3
					c-0.1-0.2-0.2-0.5-0.2-0.7C29.4,30.8,29.4,30.2,29.4,29.6C29.4,29.6,29.4,29.6,29.4,29.6z M12.6,23.6c0,0.1,0,0.1,0,0.2
					c0,3.3,0,6.6,0,9.9c0,0.2,0,0.3,0.3,0.3c0.4,0,0.8,0,1.3,0c0.2,0,0.3,0,0.3-0.3c0-3.3,0-6.6,0-9.9c0,0,0-0.1,0-0.2
					c0.1,0,0.1,0,0.1,0c0.4,0,0.8,0,1.3,0c0.2,0,0.2-0.1,0.2-0.2c0-0.4,0-0.8,0-1.2c0-0.2-0.1-0.2-0.3-0.2c-1.5,0-3.1,0-4.6,0
					c-0.2,0-0.3,0.1-0.3,0.3c0,0.4,0,0.8,0,1.2c0,0.2,0.1,0.3,0.3,0.3C11.7,23.6,12.1,23.6,12.6,23.6z"/>
				<path class="st0" d="M23.5,29.4c0-0.9,0-1.7,0-2.6c0-0.1,0-0.1,0.1-0.2c0.2-0.1,0.4-0.2,0.6-0.1c0.2,0.1,0.3,0.2,0.4,0.5
					c0,0.1,0,0.1,0,0.2c0,1.5,0,3,0,4.5c0,0.1,0,0.2,0,0.3c0,0.2-0.2,0.3-0.4,0.3c-0.3,0-0.5-0.1-0.6-0.3c0,0,0-0.1,0-0.1
					C23.5,31.1,23.5,30.3,23.5,29.4z"/>
				<path class="st0" d="M30.8,27.9c-0.4,0-0.8,0-1.2,0c0-0.4,0-0.8,0-1.1c0.1-0.3,0.4-0.4,0.6-0.4c0.3,0.1,0.4,0.2,0.5,0.5
					C30.7,27.2,30.7,27.5,30.8,27.9z"/>
			</g>
		</g>
	</g>
</g>
</svg>
